<?xml version="1.0" encoding="utf-8" standalone="no"?>
<!DOCTYPE svg PUBLIC "-//W3C//DTD SVG 1.1//EN"
  "http://www.w3.org/Graphics/SVG/1.1/DTD/svg11.dtd">
<svg xmlns:xlink="http://www.w3.org/1999/xlink" width="540pt" height="216pt" viewBox="0 0 540 216" xmlns="http://www.w3.org/2000/svg" version="1.1">
 <metadata>
  <rdf:RDF xmlns:dc="http://purl.org/dc/elements/1.1/" xmlns:cc="http://creativecommons.org/ns#" xmlns:rdf="http://www.w3.org/1999/02/22-rdf-syntax-ns#">
   <cc:Work>
    <dc:type rdf:resource="http://purl.org/dc/dcmitype/StillImage"/>
    <dc:date>2023-04-17T20:16:15.395092</dc:date>
    <dc:format>image/svg+xml</dc:format>
    <dc:creator>
     <cc:Agent>
      <dc:title>Matplotlib v3.7.1, https://matplotlib.org/</dc:title>
     </cc:Agent>
    </dc:creator>
   </cc:Work>
  </rdf:RDF>
 </metadata>
 <defs>
  <style type="text/css">*{stroke-linejoin: round; stroke-linecap: butt}</style>
 </defs>
 <g id="figure_1">
  <g id="patch_1">
   <path d="M 0 216 
L 540 216 
L 540 0 
L 0 0 
z
" style="fill: #ffffff"/>
  </g>
  <g id="axes_1">
   <g id="patch_2">
    <path d="M 35.937331 190.9 
L 521.55 190.9 
L 521.55 10.8 
L 35.937331 10.8 
z
" style="fill: #ffffff"/>
   </g>
   <g id="PolyCollection_1">
    <path d="M 37.771867 190.931 
L 37.771867 190.9 
L 43.275478 190.9 
L 48.779088 190.9 
L 54.282698 190.9 
L 59.786308 190.9 
L 65.289919 190.9 
L 70.793529 190.9 
L 76.297139 190.9 
L 81.800749 190.9 
L 87.30436 190.9 
L 92.80797 190.9 
L 98.31158 190.9 
L 103.81519 190.9 
L 109.318801 190.9 
L 114.822411 186.879558 
L 120.326021 174.81823 
L 125.829631 146.993413 
L 131.333242 87.641617 
L 136.836852 44.591276 
L 142.340462 34.143849 
L 147.844072 32.365746 
L 153.347683 47.926291 
L 158.851293 60.499954 
L 164.354903 67.099855 
L 169.858513 71.086795 
L 175.362124 69.847814 
L 180.865734 68.918135 
L 186.369344 68.607061 
L 191.872954 65.190409 
L 197.376565 55.562601 
L 202.880175 44.672428 
L 208.383785 31.257526 
L 213.887395 22.351621 
L 219.391006 22.463711 
L 224.894616 25.489837 
L 230.398226 34.344033 
L 235.901837 43.137778 
L 241.405447 51.81062 
L 246.909057 57.555286 
L 252.412667 57.443598 
L 257.916278 54.237978 
L 263.419888 44.844493 
L 268.923498 36.517458 
L 274.427108 30.323323 
L 279.930719 29.403769 
L 285.434329 39.03338 
L 290.937939 46.080794 
L 296.441549 47.963815 
L 301.94516 46.482575 
L 307.44877 38.272815 
L 312.95238 33.292167 
L 318.45599 34.769746 
L 323.959601 37.128995 
L 329.463211 41.251584 
L 334.966821 44.178482 
L 340.470431 44.713998 
L 345.974042 41.25992 
L 351.477652 29.826655 
L 356.981262 21.930681 
L 362.484872 21.109293 
L 367.988483 22.639536 
L 373.492093 28.873042 
L 378.995703 31.272396 
L 384.499313 26.003448 
L 390.002924 20.406927 
L 395.506534 14.155261 
L 401.010144 13.217859 
L 406.513754 22.908989 
L 412.017365 30.746371 
L 417.520975 34.87626 
L 423.024585 37.538617 
L 428.528195 37.26591 
L 434.031806 36.455805 
L 439.535416 34.570908 
L 445.039026 32.149945 
L 450.542636 28.656852 
L 456.046247 25.073373 
L 461.549857 21.309123 
L 467.053467 19.603904 
L 472.557077 22.016744 
L 478.060688 22.634089 
L 483.564298 19.660439 
L 489.067908 17.917854 
L 494.571518 18.637397 
L 500.075129 19.929476 
L 505.578739 22.366627 
L 511.082349 23.267923 
L 516.585959 21.097509 
L 522.08957 20.572469 
L 527.59318 23.338179 
L 533.09679 24.386006 
L 538.6004 21.998068 
L 544.104011 20.803676 
L 549.607621 21.996376 
L 555.111231 23.126594 
L 560.614841 24.131845 
L 566.118452 33.550082 
L 571.622062 59.794293 
L 577.125672 96.225361 
L 582.629282 153.030144 
L 582.629282 190.931 
L 582.629282 190.931 
L 577.125672 190.931 
L 571.622062 190.931 
L 566.118452 190.931 
L 560.614841 190.931 
L 555.111231 190.931 
L 549.607621 190.931 
L 544.104011 190.931 
L 538.6004 190.931 
L 533.09679 190.931 
L 527.59318 190.931 
L 522.08957 190.931 
L 516.585959 190.931 
L 511.082349 190.931 
L 505.578739 190.931 
L 500.075129 190.931 
L 494.571518 190.931 
L 489.067908 190.931 
L 483.564298 190.931 
L 478.060688 190.931 
L 472.557077 190.931 
L 467.053467 190.931 
L 461.549857 190.931 
L 456.046247 190.931 
L 450.542636 190.931 
L 445.039026 190.931 
L 439.535416 190.931 
L 434.031806 190.931 
L 428.528195 190.931 
L 423.024585 190.931 
L 417.520975 190.931 
L 412.017365 190.931 
L 406.513754 190.931 
L 401.010144 190.931 
L 395.506534 190.931 
L 390.002924 190.931 
L 384.499313 190.931 
L 378.995703 190.931 
L 373.492093 190.931 
L 367.988483 190.931 
L 362.484872 190.931 
L 356.981262 190.931 
L 351.477652 190.931 
L 345.974042 190.931 
L 340.470431 190.931 
L 334.966821 190.931 
L 329.463211 190.931 
L 323.959601 190.931 
L 318.45599 190.931 
L 312.95238 190.931 
L 307.44877 190.931 
L 301.94516 190.931 
L 296.441549 190.931 
L 290.937939 190.931 
L 285.434329 190.931 
L 279.930719 190.931 
L 274.427108 190.931 
L 268.923498 190.931 
L 263.419888 190.931 
L 257.916278 190.931 
L 252.412667 190.931 
L 246.909057 190.931 
L 241.405447 190.931 
L 235.901837 190.931 
L 230.398226 190.931 
L 224.894616 190.931 
L 219.391006 190.931 
L 213.887395 190.931 
L 208.383785 190.931 
L 202.880175 190.931 
L 197.376565 190.931 
L 191.872954 190.931 
L 186.369344 190.931 
L 180.865734 190.931 
L 175.362124 190.931 
L 169.858513 190.931 
L 164.354903 190.931 
L 158.851293 190.931 
L 153.347683 190.931 
L 147.844072 190.931 
L 142.340462 190.931 
L 136.836852 190.931 
L 131.333242 190.931 
L 125.829631 190.931 
L 120.326021 190.931 
L 114.822411 190.931 
L 109.318801 190.931 
L 103.81519 190.931 
L 98.31158 190.931 
L 92.80797 190.931 
L 87.30436 190.931 
L 81.800749 190.931 
L 76.297139 190.931 
L 70.793529 190.931 
L 65.289919 190.931 
L 59.786308 190.931 
L 54.282698 190.931 
L 48.779088 190.931 
L 43.275478 190.931 
L 37.771867 190.931 
z
" clip-path="url(#p87fbe52790)" style="fill: #808080; fill-opacity: 0.15"/>
   </g>
   <g id="matplotlib.axis_1">
    <g id="xtick_1">
     <g id="line2d_1">
      <defs>
       <path id="m7085c67dfb" d="M 0 0 
L 0 -3.5 
" style="stroke: #000000; stroke-width: 0.8"/>
      </defs>
      <g>
       <use xlink:href="#m7085c67dfb" x="35.937331" y="190.9" style="stroke: #000000; stroke-width: 0.8"/>
      </g>
     </g>
     <g id="text_1">
      <!-- 1 -->
      <g transform="translate(32.119831 203.518125) scale(0.12 -0.12)">
       <defs>
        <path id="DejaVuSans-31" d="M 794 531 
L 1825 531 
L 1825 4091 
L 703 3866 
L 703 4441 
L 1819 4666 
L 2450 4666 
L 2450 531 
L 3481 531 
L 3481 0 
L 794 0 
L 794 531 
z
" transform="scale(0.015625)"/>
       </defs>
       <use xlink:href="#DejaVuSans-31"/>
      </g>
     </g>
    </g>
    <g id="xtick_2">
     <g id="line2d_2">
      <g>
       <use xlink:href="#m7085c67dfb" x="89.894294" y="190.9" style="stroke: #000000; stroke-width: 0.8"/>
      </g>
     </g>
     <g id="text_2">
      <!-- 2 -->
      <g transform="translate(86.076794 203.518125) scale(0.12 -0.12)">
       <defs>
        <path id="DejaVuSans-32" d="M 1228 531 
L 3431 531 
L 3431 0 
L 469 0 
L 469 531 
Q 828 903 1448 1529 
Q 2069 2156 2228 2338 
Q 2531 2678 2651 2914 
Q 2772 3150 2772 3378 
Q 2772 3750 2511 3984 
Q 2250 4219 1831 4219 
Q 1534 4219 1204 4116 
Q 875 4013 500 3803 
L 500 4441 
Q 881 4594 1212 4672 
Q 1544 4750 1819 4750 
Q 2544 4750 2975 4387 
Q 3406 4025 3406 3419 
Q 3406 3131 3298 2873 
Q 3191 2616 2906 2266 
Q 2828 2175 2409 1742 
Q 1991 1309 1228 531 
z
" transform="scale(0.015625)"/>
       </defs>
       <use xlink:href="#DejaVuSans-32"/>
      </g>
     </g>
    </g>
    <g id="xtick_3">
     <g id="line2d_3">
      <g>
       <use xlink:href="#m7085c67dfb" x="143.851257" y="190.9" style="stroke: #000000; stroke-width: 0.8"/>
      </g>
     </g>
     <g id="text_3">
      <!-- 3 -->
      <g transform="translate(140.033757 203.518125) scale(0.12 -0.12)">
       <defs>
        <path id="DejaVuSans-33" d="M 2597 2516 
Q 3050 2419 3304 2112 
Q 3559 1806 3559 1356 
Q 3559 666 3084 287 
Q 2609 -91 1734 -91 
Q 1441 -91 1130 -33 
Q 819 25 488 141 
L 488 750 
Q 750 597 1062 519 
Q 1375 441 1716 441 
Q 2309 441 2620 675 
Q 2931 909 2931 1356 
Q 2931 1769 2642 2001 
Q 2353 2234 1838 2234 
L 1294 2234 
L 1294 2753 
L 1863 2753 
Q 2328 2753 2575 2939 
Q 2822 3125 2822 3475 
Q 2822 3834 2567 4026 
Q 2313 4219 1838 4219 
Q 1578 4219 1281 4162 
Q 984 4106 628 3988 
L 628 4550 
Q 988 4650 1302 4700 
Q 1616 4750 1894 4750 
Q 2613 4750 3031 4423 
Q 3450 4097 3450 3541 
Q 3450 3153 3228 2886 
Q 3006 2619 2597 2516 
z
" transform="scale(0.015625)"/>
       </defs>
       <use xlink:href="#DejaVuSans-33"/>
      </g>
     </g>
    </g>
    <g id="xtick_4">
     <g id="line2d_4">
      <g>
       <use xlink:href="#m7085c67dfb" x="197.80822" y="190.9" style="stroke: #000000; stroke-width: 0.8"/>
      </g>
     </g>
     <g id="text_4">
      <!-- 4 -->
      <g transform="translate(193.99072 203.518125) scale(0.12 -0.12)">
       <defs>
        <path id="DejaVuSans-34" d="M 2419 4116 
L 825 1625 
L 2419 1625 
L 2419 4116 
z
M 2253 4666 
L 3047 4666 
L 3047 1625 
L 3713 1625 
L 3713 1100 
L 3047 1100 
L 3047 0 
L 2419 0 
L 2419 1100 
L 313 1100 
L 313 1709 
L 2253 4666 
z
" transform="scale(0.015625)"/>
       </defs>
       <use xlink:href="#DejaVuSans-34"/>
      </g>
     </g>
    </g>
    <g id="xtick_5">
     <g id="line2d_5">
      <g>
       <use xlink:href="#m7085c67dfb" x="251.765184" y="190.9" style="stroke: #000000; stroke-width: 0.8"/>
      </g>
     </g>
     <g id="text_5">
      <!-- 5 -->
      <g transform="translate(247.947684 203.518125) scale(0.12 -0.12)">
       <defs>
        <path id="DejaVuSans-35" d="M 691 4666 
L 3169 4666 
L 3169 4134 
L 1269 4134 
L 1269 2991 
Q 1406 3038 1543 3061 
Q 1681 3084 1819 3084 
Q 2600 3084 3056 2656 
Q 3513 2228 3513 1497 
Q 3513 744 3044 326 
Q 2575 -91 1722 -91 
Q 1428 -91 1123 -41 
Q 819 9 494 109 
L 494 744 
Q 775 591 1075 516 
Q 1375 441 1709 441 
Q 2250 441 2565 725 
Q 2881 1009 2881 1497 
Q 2881 1984 2565 2268 
Q 2250 2553 1709 2553 
Q 1456 2553 1204 2497 
Q 953 2441 691 2322 
L 691 4666 
z
" transform="scale(0.015625)"/>
       </defs>
       <use xlink:href="#DejaVuSans-35"/>
      </g>
     </g>
    </g>
    <g id="xtick_6">
     <g id="line2d_6">
      <g>
       <use xlink:href="#m7085c67dfb" x="305.722147" y="190.9" style="stroke: #000000; stroke-width: 0.8"/>
      </g>
     </g>
     <g id="text_6">
      <!-- 6 -->
      <g transform="translate(301.904647 203.518125) scale(0.12 -0.12)">
       <defs>
        <path id="DejaVuSans-36" d="M 2113 2584 
Q 1688 2584 1439 2293 
Q 1191 2003 1191 1497 
Q 1191 994 1439 701 
Q 1688 409 2113 409 
Q 2538 409 2786 701 
Q 3034 994 3034 1497 
Q 3034 2003 2786 2293 
Q 2538 2584 2113 2584 
z
M 3366 4563 
L 3366 3988 
Q 3128 4100 2886 4159 
Q 2644 4219 2406 4219 
Q 1781 4219 1451 3797 
Q 1122 3375 1075 2522 
Q 1259 2794 1537 2939 
Q 1816 3084 2150 3084 
Q 2853 3084 3261 2657 
Q 3669 2231 3669 1497 
Q 3669 778 3244 343 
Q 2819 -91 2113 -91 
Q 1303 -91 875 529 
Q 447 1150 447 2328 
Q 447 3434 972 4092 
Q 1497 4750 2381 4750 
Q 2619 4750 2861 4703 
Q 3103 4656 3366 4563 
z
" transform="scale(0.015625)"/>
       </defs>
       <use xlink:href="#DejaVuSans-36"/>
      </g>
     </g>
    </g>
    <g id="xtick_7">
     <g id="line2d_7">
      <g>
       <use xlink:href="#m7085c67dfb" x="359.67911" y="190.9" style="stroke: #000000; stroke-width: 0.8"/>
      </g>
     </g>
     <g id="text_7">
      <!-- 7 -->
      <g transform="translate(355.86161 203.518125) scale(0.12 -0.12)">
       <defs>
        <path id="DejaVuSans-37" d="M 525 4666 
L 3525 4666 
L 3525 4397 
L 1831 0 
L 1172 0 
L 2766 4134 
L 525 4134 
L 525 4666 
z
" transform="scale(0.015625)"/>
       </defs>
       <use xlink:href="#DejaVuSans-37"/>
      </g>
     </g>
    </g>
    <g id="xtick_8">
     <g id="line2d_8">
      <g>
       <use xlink:href="#m7085c67dfb" x="413.636073" y="190.9" style="stroke: #000000; stroke-width: 0.8"/>
      </g>
     </g>
     <g id="text_8">
      <!-- 8 -->
      <g transform="translate(409.818573 203.518125) scale(0.12 -0.12)">
       <defs>
        <path id="DejaVuSans-38" d="M 2034 2216 
Q 1584 2216 1326 1975 
Q 1069 1734 1069 1313 
Q 1069 891 1326 650 
Q 1584 409 2034 409 
Q 2484 409 2743 651 
Q 3003 894 3003 1313 
Q 3003 1734 2745 1975 
Q 2488 2216 2034 2216 
z
M 1403 2484 
Q 997 2584 770 2862 
Q 544 3141 544 3541 
Q 544 4100 942 4425 
Q 1341 4750 2034 4750 
Q 2731 4750 3128 4425 
Q 3525 4100 3525 3541 
Q 3525 3141 3298 2862 
Q 3072 2584 2669 2484 
Q 3125 2378 3379 2068 
Q 3634 1759 3634 1313 
Q 3634 634 3220 271 
Q 2806 -91 2034 -91 
Q 1263 -91 848 271 
Q 434 634 434 1313 
Q 434 1759 690 2068 
Q 947 2378 1403 2484 
z
M 1172 3481 
Q 1172 3119 1398 2916 
Q 1625 2713 2034 2713 
Q 2441 2713 2670 2916 
Q 2900 3119 2900 3481 
Q 2900 3844 2670 4047 
Q 2441 4250 2034 4250 
Q 1625 4250 1398 4047 
Q 1172 3844 1172 3481 
z
" transform="scale(0.015625)"/>
       </defs>
       <use xlink:href="#DejaVuSans-38"/>
      </g>
     </g>
    </g>
    <g id="xtick_9">
     <g id="line2d_9">
      <g>
       <use xlink:href="#m7085c67dfb" x="467.593037" y="190.9" style="stroke: #000000; stroke-width: 0.8"/>
      </g>
     </g>
     <g id="text_9">
      <!-- 9 -->
      <g transform="translate(463.775537 203.518125) scale(0.12 -0.12)">
       <defs>
        <path id="DejaVuSans-39" d="M 703 97 
L 703 672 
Q 941 559 1184 500 
Q 1428 441 1663 441 
Q 2288 441 2617 861 
Q 2947 1281 2994 2138 
Q 2813 1869 2534 1725 
Q 2256 1581 1919 1581 
Q 1219 1581 811 2004 
Q 403 2428 403 3163 
Q 403 3881 828 4315 
Q 1253 4750 1959 4750 
Q 2769 4750 3195 4129 
Q 3622 3509 3622 2328 
Q 3622 1225 3098 567 
Q 2575 -91 1691 -91 
Q 1453 -91 1209 -44 
Q 966 3 703 97 
z
M 1959 2075 
Q 2384 2075 2632 2365 
Q 2881 2656 2881 3163 
Q 2881 3666 2632 3958 
Q 2384 4250 1959 4250 
Q 1534 4250 1286 3958 
Q 1038 3666 1038 3163 
Q 1038 2656 1286 2365 
Q 1534 2075 1959 2075 
z
" transform="scale(0.015625)"/>
       </defs>
       <use xlink:href="#DejaVuSans-39"/>
      </g>
     </g>
    </g>
    <g id="xtick_10">
     <g id="line2d_10">
      <g>
       <use xlink:href="#m7085c67dfb" x="521.55" y="190.9" style="stroke: #000000; stroke-width: 0.8"/>
      </g>
     </g>
     <g id="text_10">
      <!-- 10 -->
      <g transform="translate(513.915 203.518125) scale(0.12 -0.12)">
       <defs>
        <path id="DejaVuSans-30" d="M 2034 4250 
Q 1547 4250 1301 3770 
Q 1056 3291 1056 2328 
Q 1056 1369 1301 889 
Q 1547 409 2034 409 
Q 2525 409 2770 889 
Q 3016 1369 3016 2328 
Q 3016 3291 2770 3770 
Q 2525 4250 2034 4250 
z
M 2034 4750 
Q 2819 4750 3233 4129 
Q 3647 3509 3647 2328 
Q 3647 1150 3233 529 
Q 2819 -91 2034 -91 
Q 1250 -91 836 529 
Q 422 1150 422 2328 
Q 422 3509 836 4129 
Q 1250 4750 2034 4750 
z
" transform="scale(0.015625)"/>
       </defs>
       <use xlink:href="#DejaVuSans-31"/>
       <use xlink:href="#DejaVuSans-30" x="63.623047"/>
      </g>
     </g>
    </g>
   </g>
   <g id="matplotlib.axis_2">
    <g id="ytick_1">
     <g id="line2d_11">
      <defs>
       <path id="m511f0b15bb" d="M 0 0 
L 3.5 0 
" style="stroke: #000000; stroke-width: 0.8"/>
      </defs>
      <g>
       <use xlink:href="#m511f0b15bb" x="35.937331" y="190.9" style="stroke: #000000; stroke-width: 0.8"/>
      </g>
     </g>
     <g id="text_11">
      <!-- $10^{0}$ -->
      <g transform="translate(11.317331 195.459063) scale(0.12 -0.12)">
       <use xlink:href="#DejaVuSans-31" transform="translate(0 0.765625)"/>
       <use xlink:href="#DejaVuSans-30" transform="translate(63.623047 0.765625)"/>
       <use xlink:href="#DejaVuSans-30" transform="translate(128.203125 39.046875) scale(0.7)"/>
      </g>
     </g>
    </g>
    <g id="ytick_2">
     <g id="line2d_12">
      <g>
       <use xlink:href="#m511f0b15bb" x="35.937331" y="159.900044" style="stroke: #000000; stroke-width: 0.8"/>
      </g>
     </g>
     <g id="text_12">
      <!-- $10^{1}$ -->
      <g transform="translate(11.317331 164.459107) scale(0.12 -0.12)">
       <use xlink:href="#DejaVuSans-31" transform="translate(0 0.684375)"/>
       <use xlink:href="#DejaVuSans-30" transform="translate(63.623047 0.684375)"/>
       <use xlink:href="#DejaVuSans-31" transform="translate(128.203125 38.965625) scale(0.7)"/>
      </g>
     </g>
    </g>
    <g id="ytick_3">
     <g id="line2d_13">
      <g>
       <use xlink:href="#m511f0b15bb" x="35.937331" y="128.900088" style="stroke: #000000; stroke-width: 0.8"/>
      </g>
     </g>
     <g id="text_13">
      <!-- $10^{2}$ -->
      <g transform="translate(11.317331 133.459151) scale(0.12 -0.12)">
       <use xlink:href="#DejaVuSans-31" transform="translate(0 0.765625)"/>
       <use xlink:href="#DejaVuSans-30" transform="translate(63.623047 0.765625)"/>
       <use xlink:href="#DejaVuSans-32" transform="translate(128.203125 39.046875) scale(0.7)"/>
      </g>
     </g>
    </g>
    <g id="ytick_4">
     <g id="line2d_14">
      <g>
       <use xlink:href="#m511f0b15bb" x="35.937331" y="97.900132" style="stroke: #000000; stroke-width: 0.8"/>
      </g>
     </g>
     <g id="text_14">
      <!-- $10^{3}$ -->
      <g transform="translate(11.317331 102.459195) scale(0.12 -0.12)">
       <use xlink:href="#DejaVuSans-31" transform="translate(0 0.765625)"/>
       <use xlink:href="#DejaVuSans-30" transform="translate(63.623047 0.765625)"/>
       <use xlink:href="#DejaVuSans-33" transform="translate(128.203125 39.046875) scale(0.7)"/>
      </g>
     </g>
    </g>
    <g id="ytick_5">
     <g id="line2d_15">
      <g>
       <use xlink:href="#m511f0b15bb" x="35.937331" y="66.900176" style="stroke: #000000; stroke-width: 0.8"/>
      </g>
     </g>
     <g id="text_15">
      <!-- $10^{4}$ -->
      <g transform="translate(11.317331 71.459239) scale(0.12 -0.12)">
       <use xlink:href="#DejaVuSans-31" transform="translate(0 0.684375)"/>
       <use xlink:href="#DejaVuSans-30" transform="translate(63.623047 0.684375)"/>
       <use xlink:href="#DejaVuSans-34" transform="translate(128.203125 38.965625) scale(0.7)"/>
      </g>
     </g>
    </g>
    <g id="ytick_6">
     <g id="line2d_16">
      <g>
       <use xlink:href="#m511f0b15bb" x="35.937331" y="35.90022" style="stroke: #000000; stroke-width: 0.8"/>
      </g>
     </g>
     <g id="text_16">
      <!-- $10^{5}$ -->
      <g transform="translate(11.317331 40.459283) scale(0.12 -0.12)">
       <use xlink:href="#DejaVuSans-31" transform="translate(0 0.684375)"/>
       <use xlink:href="#DejaVuSans-30" transform="translate(63.623047 0.684375)"/>
       <use xlink:href="#DejaVuSans-35" transform="translate(128.203125 38.965625) scale(0.7)"/>
      </g>
     </g>
    </g>
   </g>
   <g id="line2d_17">
    <path d="M 37.771867 190.9 
L 43.275478 190.9 
L 48.779088 190.9 
L 54.282698 190.9 
L 59.786308 190.9 
L 65.289919 190.9 
L 70.793529 190.9 
L 76.297139 190.9 
L 81.800749 190.9 
L 87.30436 190.9 
L 92.80797 190.9 
L 98.31158 190.9 
L 103.81519 190.9 
L 109.318801 190.9 
L 114.822411 190.9 
L 120.326021 190.9 
L 125.829631 190.9 
L 131.333242 190.9 
L 136.836852 177.847266 
L 142.340462 138.689062 
L 147.844072 125.636328 
L 153.347683 164.794531 
L 158.851293 186.879558 
L 164.354903 174.81823 
L 169.858513 170.797788 
L 175.362124 182.859115 
L 180.865734 182.859115 
L 186.369344 158.736461 
L 191.872954 150.695576 
L 197.376565 174.81823 
L 202.880175 177.346565 
L 208.383785 136.686258 
L 213.887395 110.001349 
L 219.391006 111.267233 
L 224.894616 114.736622 
L 230.398226 122.613021 
L 235.901837 130.329076 
L 241.405447 137.724445 
L 246.909057 150.695576 
L 252.412667 174.81823 
L 257.916278 183.268218 
L 263.419888 160.372871 
L 268.923498 139.459969 
L 274.427108 122.511957 
L 279.930719 114.252682 
L 285.434329 123.37088 
L 290.937939 130.095195 
L 296.441549 132.031743 
L 301.94516 130.857651 
L 307.44877 123.462283 
L 312.95238 119.095949 
L 318.45599 120.787686 
L 323.959601 126.281844 
L 329.463211 139.380845 
L 334.966821 145.302498 
L 340.470431 136.869455 
L 345.974042 127.614818 
L 351.477652 116.716992 
L 356.981262 109.037386 
L 362.484872 107.794221 
L 367.988483 110.212115 
L 373.492093 119.95213 
L 378.995703 123.835535 
L 384.499313 116.005722 
L 390.002924 108.453106 
L 395.506534 101.454888 
L 401.010144 100.291862 
L 406.513754 110.799219 
L 412.017365 118.053697 
L 417.520975 118.802419 
L 423.024585 120.38274 
L 428.528195 123.626259 
L 434.031806 124.774418 
L 439.535416 121.731855 
L 445.039026 118.193955 
L 450.542636 113.66538 
L 456.046247 109.80702 
L 461.549857 107.28909 
L 467.053467 106.02914 
L 472.557077 107.285154 
L 478.060688 107.392297 
L 483.564298 105.201698 
L 489.067908 103.580955 
L 494.571518 103.099925 
L 500.075129 103.698735 
L 505.578739 106.457224 
L 511.082349 107.946166 
L 516.585959 106.896015 
L 522.08957 106.324169 
L 527.59318 106.708934 
L 533.09679 106.306767 
L 538.6004 104.330738 
L 541 104.665759 
" clip-path="url(#p87fbe52790)" style="fill: none; stroke: #ff0000; stroke-opacity: 0.7; stroke-width: 2; stroke-linecap: square"/>
   </g>
   <g id="line2d_18">
    <path d="M 37.771867 190.9 
L 43.275478 190.9 
L 48.779088 190.9 
L 54.282698 190.9 
L 59.786308 190.9 
L 65.289919 190.9 
L 70.793529 190.9 
L 76.297139 190.9 
L 81.800749 190.9 
L 87.30436 190.9 
L 92.80797 190.9 
L 98.31158 190.9 
L 103.81519 190.9 
L 109.318801 190.9 
L 114.822411 190.9 
L 120.326021 190.9 
L 125.829631 190.9 
L 131.333242 190.9 
L 136.836852 166.193261 
L 142.340462 92.073043 
L 147.844072 67.366304 
L 153.347683 141.486522 
L 158.851293 177.80755 
L 164.354903 138.530202 
L 169.858513 108.311776 
L 175.362124 96.211198 
L 180.865734 88.023513 
L 186.369344 87.661617 
L 191.872954 87.3414 
L 197.376565 87.104542 
L 202.880175 78.995893 
L 208.383785 55.143663 
L 213.887395 39.717226 
L 219.391006 41.142376 
L 224.894616 44.948943 
L 230.398226 53.518347 
L 235.901837 63.427525 
L 241.405447 76.016249 
L 246.909057 84.316737 
L 252.412667 84.040756 
L 257.916278 81.39481 
L 263.419888 74.008935 
L 268.923498 64.331774 
L 274.427108 50.072037 
L 279.930719 44.821789 
L 285.434329 57.590516 
L 290.937939 66.069416 
L 296.441549 65.968661 
L 301.94516 62.869402 
L 307.44877 53.773135 
L 312.95238 48.682278 
L 318.45599 51.602237 
L 323.959601 55.366114 
L 329.463211 60.817822 
L 334.966821 64.36101 
L 340.470431 64.087158 
L 345.974042 59.908588 
L 351.477652 47.920586 
L 356.981262 39.569364 
L 362.484872 38.491704 
L 367.988483 40.249555 
L 373.492093 47.678428 
L 378.995703 50.994829 
L 384.499313 46.086284 
L 390.002924 39.973117 
L 395.506534 31.450706 
L 401.010144 30.068131 
L 406.513754 42.965229 
L 412.017365 51.498312 
L 417.520975 51.303366 
L 423.024585 51.11473 
L 428.528195 50.938715 
L 434.031806 50.797035 
L 439.535416 50.724024 
L 445.039026 49.446518 
L 450.542636 45.760023 
L 456.046247 41.759948 
L 461.549857 37.132713 
L 467.053467 34.715374 
L 472.557077 36.717828 
L 478.060688 37.342087 
L 483.564298 35.209955 
L 489.067908 33.760967 
L 494.571518 33.678269 
L 500.075129 34.266305 
L 505.578739 36.195808 
L 511.082349 37.447734 
L 516.585959 37.344506 
L 522.08957 37.244296 
L 527.59318 37.150122 
L 533.09679 36.415693 
L 538.6004 34.400752 
L 541 34.349822 
" clip-path="url(#p87fbe52790)" style="fill: none; stroke: #4169e1; stroke-opacity: 0.7; stroke-width: 2; stroke-linecap: square"/>
   </g>
   <g id="line2d_19">
    <path d="M 37.771867 190.9 
L 43.275478 190.9 
L 48.779088 190.9 
L 54.282698 190.9 
L 59.786308 190.9 
L 65.289919 190.9 
L 70.793529 190.9 
L 76.297139 190.9 
L 81.800749 190.9 
L 87.30436 190.9 
L 92.80797 190.9 
L 98.31158 190.9 
L 103.81519 190.9 
L 109.318801 190.9 
L 114.822411 190.9 
L 120.326021 190.9 
L 125.829631 190.9 
L 131.333242 190.9 
L 136.836852 164.410532 
L 142.340462 84.942128 
L 147.844072 58.45266 
L 153.347683 137.921064 
L 158.851293 175.97486 
L 164.354903 131.199438 
L 169.858513 97.381514 
L 175.362124 85.478584 
L 180.865734 77.407963 
L 186.369344 77.00196 
L 191.872954 76.624876 
L 197.376565 76.30563 
L 202.880175 68.167664 
L 208.383785 44.392257 
L 213.887395 29.020813 
L 219.391006 30.457297 
L 224.894616 34.262247 
L 230.398226 42.804132 
L 235.901837 52.667413 
L 241.405447 65.173489 
L 246.909057 73.488981 
L 252.412667 73.423307 
L 257.916278 70.899925 
L 263.419888 63.461126 
L 268.923498 53.729413 
L 274.427108 39.411872 
L 279.930719 34.130303 
L 285.434329 46.92068 
L 290.937939 55.369057 
L 296.441549 55.133433 
L 301.94516 51.984433 
L 307.44877 43.00868 
L 312.95238 38.009124 
L 318.45599 40.961962 
L 323.959601 44.705914 
L 329.463211 50.032094 
L 334.966821 53.529612 
L 340.470431 53.369806 
L 345.974042 49.256176 
L 351.477652 37.234897 
L 356.981262 28.867788 
L 362.484872 27.809022 
L 367.988483 29.56627 
L 373.492093 36.955548 
L 378.995703 40.248934 
L 384.499313 35.350537 
L 390.002924 29.251567 
L 395.506534 20.751452 
L 401.010144 19.37619 
L 406.513754 32.250635 
L 412.017365 40.776771 
L 417.520975 40.606289 
L 423.024585 40.439984 
L 428.528195 40.282032 
L 434.031806 40.122637 
L 439.535416 39.960357 
L 445.039026 38.647673 
L 450.542636 35.034181 
L 456.046247 31.084924 
L 461.549857 26.464138 
L 467.053467 24.04005 
L 472.557077 26.009355 
L 478.060688 26.616547 
L 483.564298 24.499511 
L 489.067908 23.06466 
L 494.571518 22.994179 
L 500.075129 23.582073 
L 505.578739 25.486718 
L 511.082349 26.726554 
L 516.585959 26.636775 
L 522.08957 26.542786 
L 527.59318 26.440376 
L 533.09679 25.714555 
L 538.6004 23.741915 
L 541 23.691549 
" clip-path="url(#p87fbe52790)" style="fill: none; stroke: #ffa500; stroke-opacity: 0.7; stroke-width: 2; stroke-linecap: square"/>
   </g>
   <g id="line2d_20">
    <path d="M 37.771867 190.9 
L 43.275478 190.9 
L 48.779088 190.9 
L 54.282698 190.9 
L 59.786308 190.9 
L 65.289919 190.9 
L 70.793529 190.9 
L 76.297139 190.9 
L 81.800749 190.9 
L 87.30436 190.9 
L 92.80797 190.9 
L 98.31158 190.9 
L 103.81519 190.9 
L 109.318801 190.9 
L 114.822411 186.879558 
L 120.326021 174.81823 
L 125.829631 146.993413 
L 131.333242 87.641617 
L 136.836852 44.591276 
L 142.340462 34.143849 
L 147.844072 32.365746 
L 153.347683 47.926291 
L 158.851293 60.499954 
L 164.354903 67.099855 
L 169.858513 71.086795 
L 175.362124 69.847814 
L 180.865734 68.918135 
L 186.369344 68.607061 
L 191.872954 65.190409 
L 197.376565 55.562601 
L 202.880175 44.672428 
L 208.383785 31.257526 
L 213.887395 22.351621 
L 219.391006 22.463711 
L 224.894616 25.489837 
L 230.398226 34.344033 
L 235.901837 43.137778 
L 241.405447 51.81062 
L 246.909057 57.555286 
L 252.412667 57.443598 
L 257.916278 54.237978 
L 263.419888 44.844493 
L 268.923498 36.517458 
L 274.427108 30.323323 
L 279.930719 29.403769 
L 285.434329 39.03338 
L 290.937939 46.080794 
L 296.441549 47.963815 
L 301.94516 46.482575 
L 307.44877 38.272815 
L 312.95238 33.292167 
L 318.45599 34.769746 
L 323.959601 37.128995 
L 329.463211 41.251584 
L 334.966821 44.178482 
L 340.470431 44.713998 
L 345.974042 41.25992 
L 351.477652 29.826655 
L 356.981262 21.930681 
L 362.484872 21.109293 
L 367.988483 22.639536 
L 373.492093 28.873042 
L 378.995703 31.272396 
L 384.499313 26.003448 
L 390.002924 20.406927 
L 395.506534 14.155261 
L 401.010144 13.217859 
L 406.513754 22.908989 
L 412.017365 30.746371 
L 417.520975 34.87626 
L 423.024585 37.538617 
L 428.528195 37.26591 
L 434.031806 36.455805 
L 439.535416 34.570908 
L 445.039026 32.149945 
L 450.542636 28.656852 
L 456.046247 25.073373 
L 461.549857 21.309123 
L 467.053467 19.603904 
L 472.557077 22.016744 
L 478.060688 22.634089 
L 483.564298 19.660439 
L 489.067908 17.917854 
L 494.571518 18.637397 
L 500.075129 19.929476 
L 505.578739 22.366627 
L 511.082349 23.267923 
L 516.585959 21.097509 
L 522.08957 20.572469 
L 527.59318 23.338179 
L 533.09679 24.386006 
L 538.6004 21.998068 
L 541 21.477307 
" clip-path="url(#p87fbe52790)" style="fill: none; stroke: #808080; stroke-opacity: 0.7; stroke-width: 2; stroke-linecap: square"/>
   </g>
   <g id="patch_3">
    <path d="M 35.937331 190.9 
L 35.937331 10.8 
" style="fill: none; stroke: #000000; stroke-width: 0.8; stroke-linejoin: miter; stroke-linecap: square"/>
   </g>
   <g id="patch_4">
    <path d="M 521.55 190.9 
L 521.55 10.8 
" style="fill: none; stroke: #000000; stroke-width: 0.8; stroke-linejoin: miter; stroke-linecap: square"/>
   </g>
   <g id="patch_5">
    <path d="M 35.937331 190.9 
L 521.55 190.9 
" style="fill: none; stroke: #000000; stroke-width: 0.8; stroke-linejoin: miter; stroke-linecap: square"/>
   </g>
   <g id="patch_6">
    <path d="M 35.937331 10.8 
L 521.55 10.8 
" style="fill: none; stroke: #000000; stroke-width: 0.8; stroke-linejoin: miter; stroke-linecap: square"/>
   </g>
   <g id="legend_1">
    <g id="patch_7">
     <path d="M 303.99 184.9 
L 513.15 184.9 
Q 515.55 184.9 515.55 182.5 
L 515.55 113.245 
Q 515.55 110.845 513.15 110.845 
L 303.99 110.845 
Q 301.59 110.845 301.59 113.245 
L 301.59 182.5 
Q 301.59 184.9 303.99 184.9 
z
" style="fill: #ffffff; opacity: 0.8; stroke: #cccccc; stroke-linejoin: miter"/>
    </g>
    <g id="line2d_21">
     <path d="M 306.39 120.563125 
L 318.39 120.563125 
L 330.39 120.563125 
" style="fill: none; stroke: #808080; stroke-width: 1.5; stroke-linecap: square"/>
    </g>
    <g id="text_17">
     <!-- dataset -->
     <g transform="translate(339.99 124.763125) scale(0.12 -0.12)">
      <defs>
       <path id="DejaVuSans-64" d="M 2906 2969 
L 2906 4863 
L 3481 4863 
L 3481 0 
L 2906 0 
L 2906 525 
Q 2725 213 2448 61 
Q 2172 -91 1784 -91 
Q 1150 -91 751 415 
Q 353 922 353 1747 
Q 353 2572 751 3078 
Q 1150 3584 1784 3584 
Q 2172 3584 2448 3432 
Q 2725 3281 2906 2969 
z
M 947 1747 
Q 947 1113 1208 752 
Q 1469 391 1925 391 
Q 2381 391 2643 752 
Q 2906 1113 2906 1747 
Q 2906 2381 2643 2742 
Q 2381 3103 1925 3103 
Q 1469 3103 1208 2742 
Q 947 2381 947 1747 
z
" transform="scale(0.015625)"/>
       <path id="DejaVuSans-61" d="M 2194 1759 
Q 1497 1759 1228 1600 
Q 959 1441 959 1056 
Q 959 750 1161 570 
Q 1363 391 1709 391 
Q 2188 391 2477 730 
Q 2766 1069 2766 1631 
L 2766 1759 
L 2194 1759 
z
M 3341 1997 
L 3341 0 
L 2766 0 
L 2766 531 
Q 2569 213 2275 61 
Q 1981 -91 1556 -91 
Q 1019 -91 701 211 
Q 384 513 384 1019 
Q 384 1609 779 1909 
Q 1175 2209 1959 2209 
L 2766 2209 
L 2766 2266 
Q 2766 2663 2505 2880 
Q 2244 3097 1772 3097 
Q 1472 3097 1187 3025 
Q 903 2953 641 2809 
L 641 3341 
Q 956 3463 1253 3523 
Q 1550 3584 1831 3584 
Q 2591 3584 2966 3190 
Q 3341 2797 3341 1997 
z
" transform="scale(0.015625)"/>
       <path id="DejaVuSans-74" d="M 1172 4494 
L 1172 3500 
L 2356 3500 
L 2356 3053 
L 1172 3053 
L 1172 1153 
Q 1172 725 1289 603 
Q 1406 481 1766 481 
L 2356 481 
L 2356 0 
L 1766 0 
Q 1100 0 847 248 
Q 594 497 594 1153 
L 594 3053 
L 172 3053 
L 172 3500 
L 594 3500 
L 594 4494 
L 1172 4494 
z
" transform="scale(0.015625)"/>
       <path id="DejaVuSans-73" d="M 2834 3397 
L 2834 2853 
Q 2591 2978 2328 3040 
Q 2066 3103 1784 3103 
Q 1356 3103 1142 2972 
Q 928 2841 928 2578 
Q 928 2378 1081 2264 
Q 1234 2150 1697 2047 
L 1894 2003 
Q 2506 1872 2764 1633 
Q 3022 1394 3022 966 
Q 3022 478 2636 193 
Q 2250 -91 1575 -91 
Q 1294 -91 989 -36 
Q 684 19 347 128 
L 347 722 
Q 666 556 975 473 
Q 1284 391 1588 391 
Q 1994 391 2212 530 
Q 2431 669 2431 922 
Q 2431 1156 2273 1281 
Q 2116 1406 1581 1522 
L 1381 1569 
Q 847 1681 609 1914 
Q 372 2147 372 2553 
Q 372 3047 722 3315 
Q 1072 3584 1716 3584 
Q 2034 3584 2315 3537 
Q 2597 3491 2834 3397 
z
" transform="scale(0.015625)"/>
       <path id="DejaVuSans-65" d="M 3597 1894 
L 3597 1613 
L 953 1613 
Q 991 1019 1311 708 
Q 1631 397 2203 397 
Q 2534 397 2845 478 
Q 3156 559 3463 722 
L 3463 178 
Q 3153 47 2828 -22 
Q 2503 -91 2169 -91 
Q 1331 -91 842 396 
Q 353 884 353 1716 
Q 353 2575 817 3079 
Q 1281 3584 2069 3584 
Q 2775 3584 3186 3129 
Q 3597 2675 3597 1894 
z
M 3022 2063 
Q 3016 2534 2758 2815 
Q 2500 3097 2075 3097 
Q 1594 3097 1305 2825 
Q 1016 2553 972 2059 
L 3022 2063 
z
" transform="scale(0.015625)"/>
      </defs>
      <use xlink:href="#DejaVuSans-64"/>
      <use xlink:href="#DejaVuSans-61" x="63.476562"/>
      <use xlink:href="#DejaVuSans-74" x="124.755859"/>
      <use xlink:href="#DejaVuSans-61" x="163.964844"/>
      <use xlink:href="#DejaVuSans-73" x="225.244141"/>
      <use xlink:href="#DejaVuSans-65" x="277.34375"/>
      <use xlink:href="#DejaVuSans-74" x="338.867188"/>
     </g>
    </g>
    <g id="line2d_22">
     <path d="M 306.39 138.176875 
L 318.39 138.176875 
L 330.39 138.176875 
" style="fill: none; stroke: #ff0000; stroke-width: 1.5; stroke-linecap: square"/>
    </g>
    <g id="text_18">
     <!-- 21.79$^\circ$ (2-1, 112 atoms) -->
     <g transform="translate(339.99 142.376875) scale(0.12 -0.12)">
      <defs>
       <path id="DejaVuSans-2e" d="M 684 794 
L 1344 794 
L 1344 0 
L 684 0 
L 684 794 
z
" transform="scale(0.015625)"/>
       <path id="DejaVuSans-2218" d="M 2003 2603 
Q 1753 2603 1581 2429 
Q 1409 2256 1409 2006 
Q 1409 1759 1581 1589 
Q 1753 1419 2003 1419 
Q 2253 1419 2425 1589 
Q 2597 1759 2597 2006 
Q 2597 2253 2423 2428 
Q 2250 2603 2003 2603 
z
M 2003 3006 
Q 2203 3006 2387 2929 
Q 2572 2853 2706 2709 
Q 2850 2569 2922 2390 
Q 2994 2212 2994 2006 
Q 2994 1594 2705 1308 
Q 2416 1022 1997 1022 
Q 1575 1022 1294 1303 
Q 1013 1584 1013 2006 
Q 1013 2425 1300 2715 
Q 1588 3006 2003 3006 
z
" transform="scale(0.015625)"/>
       <path id="DejaVuSans-20" transform="scale(0.015625)"/>
       <path id="DejaVuSans-28" d="M 1984 4856 
Q 1566 4138 1362 3434 
Q 1159 2731 1159 2009 
Q 1159 1288 1364 580 
Q 1569 -128 1984 -844 
L 1484 -844 
Q 1016 -109 783 600 
Q 550 1309 550 2009 
Q 550 2706 781 3412 
Q 1013 4119 1484 4856 
L 1984 4856 
z
" transform="scale(0.015625)"/>
       <path id="DejaVuSans-2d" d="M 313 2009 
L 1997 2009 
L 1997 1497 
L 313 1497 
L 313 2009 
z
" transform="scale(0.015625)"/>
       <path id="DejaVuSans-2c" d="M 750 794 
L 1409 794 
L 1409 256 
L 897 -744 
L 494 -744 
L 750 256 
L 750 794 
z
" transform="scale(0.015625)"/>
       <path id="DejaVuSans-6f" d="M 1959 3097 
Q 1497 3097 1228 2736 
Q 959 2375 959 1747 
Q 959 1119 1226 758 
Q 1494 397 1959 397 
Q 2419 397 2687 759 
Q 2956 1122 2956 1747 
Q 2956 2369 2687 2733 
Q 2419 3097 1959 3097 
z
M 1959 3584 
Q 2709 3584 3137 3096 
Q 3566 2609 3566 1747 
Q 3566 888 3137 398 
Q 2709 -91 1959 -91 
Q 1206 -91 779 398 
Q 353 888 353 1747 
Q 353 2609 779 3096 
Q 1206 3584 1959 3584 
z
" transform="scale(0.015625)"/>
       <path id="DejaVuSans-6d" d="M 3328 2828 
Q 3544 3216 3844 3400 
Q 4144 3584 4550 3584 
Q 5097 3584 5394 3201 
Q 5691 2819 5691 2113 
L 5691 0 
L 5113 0 
L 5113 2094 
Q 5113 2597 4934 2840 
Q 4756 3084 4391 3084 
Q 3944 3084 3684 2787 
Q 3425 2491 3425 1978 
L 3425 0 
L 2847 0 
L 2847 2094 
Q 2847 2600 2669 2842 
Q 2491 3084 2119 3084 
Q 1678 3084 1418 2786 
Q 1159 2488 1159 1978 
L 1159 0 
L 581 0 
L 581 3500 
L 1159 3500 
L 1159 2956 
Q 1356 3278 1631 3431 
Q 1906 3584 2284 3584 
Q 2666 3584 2933 3390 
Q 3200 3197 3328 2828 
z
" transform="scale(0.015625)"/>
       <path id="DejaVuSans-29" d="M 513 4856 
L 1013 4856 
Q 1481 4119 1714 3412 
Q 1947 2706 1947 2009 
Q 1947 1309 1714 600 
Q 1481 -109 1013 -844 
L 513 -844 
Q 928 -128 1133 580 
Q 1338 1288 1338 2009 
Q 1338 2731 1133 3434 
Q 928 4138 513 4856 
z
" transform="scale(0.015625)"/>
      </defs>
      <use xlink:href="#DejaVuSans-32" transform="translate(0 0.125)"/>
      <use xlink:href="#DejaVuSans-31" transform="translate(63.623047 0.125)"/>
      <use xlink:href="#DejaVuSans-2e" transform="translate(127.246094 0.125)"/>
      <use xlink:href="#DejaVuSans-37" transform="translate(151.283203 0.125)"/>
      <use xlink:href="#DejaVuSans-39" transform="translate(214.90625 0.125)"/>
      <use xlink:href="#DejaVuSans-2218" transform="translate(293.124023 38.40625) scale(0.7)"/>
      <use xlink:href="#DejaVuSans-20" transform="translate(353.314453 0.125)"/>
      <use xlink:href="#DejaVuSans-28" transform="translate(385.101562 0.125)"/>
      <use xlink:href="#DejaVuSans-32" transform="translate(424.115234 0.125)"/>
      <use xlink:href="#DejaVuSans-2d" transform="translate(487.738281 0.125)"/>
      <use xlink:href="#DejaVuSans-31" transform="translate(523.822266 0.125)"/>
      <use xlink:href="#DejaVuSans-2c" transform="translate(587.445312 0.125)"/>
      <use xlink:href="#DejaVuSans-20" transform="translate(619.232422 0.125)"/>
      <use xlink:href="#DejaVuSans-31" transform="translate(651.019531 0.125)"/>
      <use xlink:href="#DejaVuSans-31" transform="translate(714.642578 0.125)"/>
      <use xlink:href="#DejaVuSans-32" transform="translate(778.265625 0.125)"/>
      <use xlink:href="#DejaVuSans-20" transform="translate(841.888672 0.125)"/>
      <use xlink:href="#DejaVuSans-61" transform="translate(873.675781 0.125)"/>
      <use xlink:href="#DejaVuSans-74" transform="translate(934.955078 0.125)"/>
      <use xlink:href="#DejaVuSans-6f" transform="translate(974.164062 0.125)"/>
      <use xlink:href="#DejaVuSans-6d" transform="translate(1035.345703 0.125)"/>
      <use xlink:href="#DejaVuSans-73" transform="translate(1132.757812 0.125)"/>
      <use xlink:href="#DejaVuSans-29" transform="translate(1184.857422 0.125)"/>
     </g>
    </g>
    <g id="line2d_23">
     <path d="M 306.39 155.790625 
L 318.39 155.790625 
L 330.39 155.790625 
" style="fill: none; stroke: #4169e1; stroke-width: 1.5; stroke-linecap: square"/>
    </g>
    <g id="text_19">
     <!-- 1.61$^\circ$ (21-20, 20176 atoms) -->
     <g transform="translate(339.99 159.990625) scale(0.12 -0.12)">
      <use xlink:href="#DejaVuSans-31" transform="translate(0 0.125)"/>
      <use xlink:href="#DejaVuSans-2e" transform="translate(63.623047 0.125)"/>
      <use xlink:href="#DejaVuSans-36" transform="translate(95.410156 0.125)"/>
      <use xlink:href="#DejaVuSans-31" transform="translate(159.033203 0.125)"/>
      <use xlink:href="#DejaVuSans-2218" transform="translate(237.250977 38.40625) scale(0.7)"/>
      <use xlink:href="#DejaVuSans-20" transform="translate(297.441406 0.125)"/>
      <use xlink:href="#DejaVuSans-28" transform="translate(329.228516 0.125)"/>
      <use xlink:href="#DejaVuSans-32" transform="translate(368.242188 0.125)"/>
      <use xlink:href="#DejaVuSans-31" transform="translate(431.865234 0.125)"/>
      <use xlink:href="#DejaVuSans-2d" transform="translate(495.488281 0.125)"/>
      <use xlink:href="#DejaVuSans-32" transform="translate(531.572266 0.125)"/>
      <use xlink:href="#DejaVuSans-30" transform="translate(595.195312 0.125)"/>
      <use xlink:href="#DejaVuSans-2c" transform="translate(658.818359 0.125)"/>
      <use xlink:href="#DejaVuSans-20" transform="translate(690.605469 0.125)"/>
      <use xlink:href="#DejaVuSans-32" transform="translate(722.392578 0.125)"/>
      <use xlink:href="#DejaVuSans-30" transform="translate(786.015625 0.125)"/>
      <use xlink:href="#DejaVuSans-31" transform="translate(849.638672 0.125)"/>
      <use xlink:href="#DejaVuSans-37" transform="translate(913.261719 0.125)"/>
      <use xlink:href="#DejaVuSans-36" transform="translate(976.884766 0.125)"/>
      <use xlink:href="#DejaVuSans-20" transform="translate(1040.507812 0.125)"/>
      <use xlink:href="#DejaVuSans-61" transform="translate(1072.294922 0.125)"/>
      <use xlink:href="#DejaVuSans-74" transform="translate(1133.574219 0.125)"/>
      <use xlink:href="#DejaVuSans-6f" transform="translate(1172.783203 0.125)"/>
      <use xlink:href="#DejaVuSans-6d" transform="translate(1233.964844 0.125)"/>
      <use xlink:href="#DejaVuSans-73" transform="translate(1331.376953 0.125)"/>
      <use xlink:href="#DejaVuSans-29" transform="translate(1383.476562 0.125)"/>
     </g>
    </g>
    <g id="line2d_24">
     <path d="M 306.39 173.404375 
L 318.39 173.404375 
L 330.39 173.404375 
" style="fill: none; stroke: #ffa500; stroke-width: 1.5; stroke-linecap: square"/>
    </g>
    <g id="text_20">
     <!-- 1.08$^\circ$ (31-30, 44656 atoms) -->
     <g transform="translate(339.99 177.604375) scale(0.12 -0.12)">
      <use xlink:href="#DejaVuSans-31" transform="translate(0 0.125)"/>
      <use xlink:href="#DejaVuSans-2e" transform="translate(63.623047 0.125)"/>
      <use xlink:href="#DejaVuSans-30" transform="translate(95.410156 0.125)"/>
      <use xlink:href="#DejaVuSans-38" transform="translate(159.033203 0.125)"/>
      <use xlink:href="#DejaVuSans-2218" transform="translate(237.250977 38.40625) scale(0.7)"/>
      <use xlink:href="#DejaVuSans-20" transform="translate(297.441406 0.125)"/>
      <use xlink:href="#DejaVuSans-28" transform="translate(329.228516 0.125)"/>
      <use xlink:href="#DejaVuSans-33" transform="translate(368.242188 0.125)"/>
      <use xlink:href="#DejaVuSans-31" transform="translate(431.865234 0.125)"/>
      <use xlink:href="#DejaVuSans-2d" transform="translate(495.488281 0.125)"/>
      <use xlink:href="#DejaVuSans-33" transform="translate(531.572266 0.125)"/>
      <use xlink:href="#DejaVuSans-30" transform="translate(595.195312 0.125)"/>
      <use xlink:href="#DejaVuSans-2c" transform="translate(658.818359 0.125)"/>
      <use xlink:href="#DejaVuSans-20" transform="translate(690.605469 0.125)"/>
      <use xlink:href="#DejaVuSans-34" transform="translate(722.392578 0.125)"/>
      <use xlink:href="#DejaVuSans-34" transform="translate(786.015625 0.125)"/>
      <use xlink:href="#DejaVuSans-36" transform="translate(849.638672 0.125)"/>
      <use xlink:href="#DejaVuSans-35" transform="translate(913.261719 0.125)"/>
      <use xlink:href="#DejaVuSans-36" transform="translate(976.884766 0.125)"/>
      <use xlink:href="#DejaVuSans-20" transform="translate(1040.507812 0.125)"/>
      <use xlink:href="#DejaVuSans-61" transform="translate(1072.294922 0.125)"/>
      <use xlink:href="#DejaVuSans-74" transform="translate(1133.574219 0.125)"/>
      <use xlink:href="#DejaVuSans-6f" transform="translate(1172.783203 0.125)"/>
      <use xlink:href="#DejaVuSans-6d" transform="translate(1233.964844 0.125)"/>
      <use xlink:href="#DejaVuSans-73" transform="translate(1331.376953 0.125)"/>
      <use xlink:href="#DejaVuSans-29" transform="translate(1383.476562 0.125)"/>
     </g>
    </g>
   </g>
  </g>
 </g>
 <defs>
  <clipPath id="p87fbe52790">
   <rect x="35.937331" y="10.8" width="485.612669" height="180.1"/>
  </clipPath>
 </defs>
</svg>
