<?xml version="1.0" encoding="utf-8" standalone="no"?>
<!DOCTYPE svg PUBLIC "-//W3C//DTD SVG 1.1//EN"
  "http://www.w3.org/Graphics/SVG/1.1/DTD/svg11.dtd">
<svg xmlns:xlink="http://www.w3.org/1999/xlink" width="720pt" height="288pt" viewBox="0 0 720 288" xmlns="http://www.w3.org/2000/svg" version="1.1">
 <metadata>
  <rdf:RDF xmlns:dc="http://purl.org/dc/elements/1.1/" xmlns:cc="http://creativecommons.org/ns#" xmlns:rdf="http://www.w3.org/1999/02/22-rdf-syntax-ns#">
   <cc:Work>
    <dc:type rdf:resource="http://purl.org/dc/dcmitype/StillImage"/>
    <dc:date>2023-03-24T23:24:27.836933</dc:date>
    <dc:format>image/svg+xml</dc:format>
    <dc:creator>
     <cc:Agent>
      <dc:title>Matplotlib v3.7.1, https://matplotlib.org/</dc:title>
     </cc:Agent>
    </dc:creator>
   </cc:Work>
  </rdf:RDF>
 </metadata>
 <defs>
  <style type="text/css">*{stroke-linejoin: round; stroke-linecap: butt}</style>
 </defs>
 <g id="figure_1">
  <g id="patch_1">
   <path d="M 0 288 
L 720 288 
L 720 0 
L 0 0 
z
" style="fill: #ffffff"/>
  </g>
  <g id="axes_1">
   <g id="patch_2">
    <path d="M 35.937331 262.9 
L 701.55 262.9 
L 701.55 10.8 
L 35.937331 10.8 
z
" style="fill: #ffffff"/>
   </g>
   <g id="PolyCollection_1">
    <path d="M 38.451867 262.943393 
L 38.451867 262.9 
L 45.995478 262.9 
L 53.539088 262.9 
L 61.082698 262.9 
L 68.626308 262.9 
L 76.169919 262.9 
L 83.713529 262.9 
L 91.257139 262.9 
L 98.800749 262.9 
L 106.34436 262.9 
L 113.88797 262.9 
L 121.43158 262.9 
L 128.97519 262.9 
L 136.518801 262.9 
L 144.062411 257.272274 
L 151.606021 240.389094 
L 159.149631 201.44053 
L 166.693242 118.361197 
L 174.236852 58.100282 
L 181.780462 43.476204 
L 189.324072 40.987254 
L 196.867683 62.768561 
L 204.411293 80.368898 
L 211.954903 89.607293 
L 219.498513 95.188123 
L 227.042124 93.453825 
L 234.585734 92.152481 
L 242.129344 91.717047 
L 249.672954 86.934493 
L 257.216565 73.457699 
L 264.760175 58.213876 
L 272.303785 39.435993 
L 279.847395 26.969704 
L 287.391006 27.126605 
L 294.934616 31.362509 
L 302.478226 43.756418 
L 310.021837 56.065708 
L 317.565447 68.20576 
L 325.109057 76.247016 
L 332.652667 76.090677 
L 340.196278 71.603521 
L 347.739888 58.454729 
L 355.283498 46.79873 
L 362.827108 38.128315 
L 370.370719 36.841145 
L 377.914329 50.320461 
L 385.457939 60.185275 
L 393.001549 62.821087 
L 400.54516 60.74768 
L 408.08877 49.255839 
L 415.63238 42.284039 
L 423.17599 44.352321 
L 430.719601 47.654746 
L 438.263211 53.425455 
L 445.806821 57.522462 
L 453.350431 58.272066 
L 460.894042 53.437124 
L 468.437652 37.433091 
L 475.981262 26.380482 
L 483.524872 25.230721 
L 491.068483 27.372721 
L 498.612093 36.098244 
L 506.155703 39.456808 
L 513.699313 32.08145 
L 521.242924 24.247564 
L 528.786534 15.49662 
L 536.330144 14.184466 
L 543.873754 27.749895 
L 551.417365 38.72049 
L 558.960975 44.501417 
L 566.504585 48.228125 
L 574.048195 47.846395 
L 581.591806 46.71243 
L 589.135416 44.073991 
L 596.679026 40.685181 
L 604.222636 35.795626 
L 611.766247 30.779552 
L 619.309857 25.510438 
L 626.853467 23.12351 
L 634.397077 26.500951 
L 641.940688 27.365096 
L 649.484298 23.202647 
L 657.027908 20.763414 
L 664.571518 21.770615 
L 672.115129 23.579238 
L 679.658739 26.990709 
L 687.202349 28.252324 
L 694.745959 25.214225 
L 702.28957 24.479286 
L 709.83318 28.350665 
L 717.37679 29.81739 
L 724.9204 26.474807 
L 732.464011 24.802924 
L 740.007621 26.47244 
L 747.551231 28.054494 
L 755.094841 29.461622 
L 762.638452 42.645062 
L 770.182062 79.381128 
L 777.725672 130.376533 
L 785.269282 209.890613 
L 785.269282 262.943393 
L 785.269282 262.943393 
L 777.725672 262.943393 
L 770.182062 262.943393 
L 762.638452 262.943393 
L 755.094841 262.943393 
L 747.551231 262.943393 
L 740.007621 262.943393 
L 732.464011 262.943393 
L 724.9204 262.943393 
L 717.37679 262.943393 
L 709.83318 262.943393 
L 702.28957 262.943393 
L 694.745959 262.943393 
L 687.202349 262.943393 
L 679.658739 262.943393 
L 672.115129 262.943393 
L 664.571518 262.943393 
L 657.027908 262.943393 
L 649.484298 262.943393 
L 641.940688 262.943393 
L 634.397077 262.943393 
L 626.853467 262.943393 
L 619.309857 262.943393 
L 611.766247 262.943393 
L 604.222636 262.943393 
L 596.679026 262.943393 
L 589.135416 262.943393 
L 581.591806 262.943393 
L 574.048195 262.943393 
L 566.504585 262.943393 
L 558.960975 262.943393 
L 551.417365 262.943393 
L 543.873754 262.943393 
L 536.330144 262.943393 
L 528.786534 262.943393 
L 521.242924 262.943393 
L 513.699313 262.943393 
L 506.155703 262.943393 
L 498.612093 262.943393 
L 491.068483 262.943393 
L 483.524872 262.943393 
L 475.981262 262.943393 
L 468.437652 262.943393 
L 460.894042 262.943393 
L 453.350431 262.943393 
L 445.806821 262.943393 
L 438.263211 262.943393 
L 430.719601 262.943393 
L 423.17599 262.943393 
L 415.63238 262.943393 
L 408.08877 262.943393 
L 400.54516 262.943393 
L 393.001549 262.943393 
L 385.457939 262.943393 
L 377.914329 262.943393 
L 370.370719 262.943393 
L 362.827108 262.943393 
L 355.283498 262.943393 
L 347.739888 262.943393 
L 340.196278 262.943393 
L 332.652667 262.943393 
L 325.109057 262.943393 
L 317.565447 262.943393 
L 310.021837 262.943393 
L 302.478226 262.943393 
L 294.934616 262.943393 
L 287.391006 262.943393 
L 279.847395 262.943393 
L 272.303785 262.943393 
L 264.760175 262.943393 
L 257.216565 262.943393 
L 249.672954 262.943393 
L 242.129344 262.943393 
L 234.585734 262.943393 
L 227.042124 262.943393 
L 219.498513 262.943393 
L 211.954903 262.943393 
L 204.411293 262.943393 
L 196.867683 262.943393 
L 189.324072 262.943393 
L 181.780462 262.943393 
L 174.236852 262.943393 
L 166.693242 262.943393 
L 159.149631 262.943393 
L 151.606021 262.943393 
L 144.062411 262.943393 
L 136.518801 262.943393 
L 128.97519 262.943393 
L 121.43158 262.943393 
L 113.88797 262.943393 
L 106.34436 262.943393 
L 98.800749 262.943393 
L 91.257139 262.943393 
L 83.713529 262.943393 
L 76.169919 262.943393 
L 68.626308 262.943393 
L 61.082698 262.943393 
L 53.539088 262.943393 
L 45.995478 262.943393 
L 38.451867 262.943393 
z
" clip-path="url(#pdd3915b75c)" style="fill: #808080; fill-opacity: 0.5"/>
   </g>
   <g id="matplotlib.axis_1">
    <g id="xtick_1">
     <g id="line2d_1">
      <defs>
       <path id="m1e7a4ea8af" d="M 0 0 
L 0 -3.5 
" style="stroke: #000000; stroke-width: 0.8"/>
      </defs>
      <g>
       <use xlink:href="#m1e7a4ea8af" x="35.937331" y="262.9" style="stroke: #000000; stroke-width: 0.8"/>
      </g>
     </g>
     <g id="text_1">
      <!-- 1 -->
      <g transform="translate(32.119831 275.518125) scale(0.12 -0.12)">
       <defs>
        <path id="DejaVuSans-31" d="M 794 531 
L 1825 531 
L 1825 4091 
L 703 3866 
L 703 4441 
L 1819 4666 
L 2450 4666 
L 2450 531 
L 3481 531 
L 3481 0 
L 794 0 
L 794 531 
z
" transform="scale(0.015625)"/>
       </defs>
       <use xlink:href="#DejaVuSans-31"/>
      </g>
     </g>
    </g>
    <g id="xtick_2">
     <g id="line2d_2">
      <g>
       <use xlink:href="#m1e7a4ea8af" x="109.894294" y="262.9" style="stroke: #000000; stroke-width: 0.8"/>
      </g>
     </g>
     <g id="text_2">
      <!-- 2 -->
      <g transform="translate(106.076794 275.518125) scale(0.12 -0.12)">
       <defs>
        <path id="DejaVuSans-32" d="M 1228 531 
L 3431 531 
L 3431 0 
L 469 0 
L 469 531 
Q 828 903 1448 1529 
Q 2069 2156 2228 2338 
Q 2531 2678 2651 2914 
Q 2772 3150 2772 3378 
Q 2772 3750 2511 3984 
Q 2250 4219 1831 4219 
Q 1534 4219 1204 4116 
Q 875 4013 500 3803 
L 500 4441 
Q 881 4594 1212 4672 
Q 1544 4750 1819 4750 
Q 2544 4750 2975 4387 
Q 3406 4025 3406 3419 
Q 3406 3131 3298 2873 
Q 3191 2616 2906 2266 
Q 2828 2175 2409 1742 
Q 1991 1309 1228 531 
z
" transform="scale(0.015625)"/>
       </defs>
       <use xlink:href="#DejaVuSans-32"/>
      </g>
     </g>
    </g>
    <g id="xtick_3">
     <g id="line2d_3">
      <g>
       <use xlink:href="#m1e7a4ea8af" x="183.851257" y="262.9" style="stroke: #000000; stroke-width: 0.8"/>
      </g>
     </g>
     <g id="text_3">
      <!-- 3 -->
      <g transform="translate(180.033757 275.518125) scale(0.12 -0.12)">
       <defs>
        <path id="DejaVuSans-33" d="M 2597 2516 
Q 3050 2419 3304 2112 
Q 3559 1806 3559 1356 
Q 3559 666 3084 287 
Q 2609 -91 1734 -91 
Q 1441 -91 1130 -33 
Q 819 25 488 141 
L 488 750 
Q 750 597 1062 519 
Q 1375 441 1716 441 
Q 2309 441 2620 675 
Q 2931 909 2931 1356 
Q 2931 1769 2642 2001 
Q 2353 2234 1838 2234 
L 1294 2234 
L 1294 2753 
L 1863 2753 
Q 2328 2753 2575 2939 
Q 2822 3125 2822 3475 
Q 2822 3834 2567 4026 
Q 2313 4219 1838 4219 
Q 1578 4219 1281 4162 
Q 984 4106 628 3988 
L 628 4550 
Q 988 4650 1302 4700 
Q 1616 4750 1894 4750 
Q 2613 4750 3031 4423 
Q 3450 4097 3450 3541 
Q 3450 3153 3228 2886 
Q 3006 2619 2597 2516 
z
" transform="scale(0.015625)"/>
       </defs>
       <use xlink:href="#DejaVuSans-33"/>
      </g>
     </g>
    </g>
    <g id="xtick_4">
     <g id="line2d_4">
      <g>
       <use xlink:href="#m1e7a4ea8af" x="257.80822" y="262.9" style="stroke: #000000; stroke-width: 0.8"/>
      </g>
     </g>
     <g id="text_4">
      <!-- 4 -->
      <g transform="translate(253.99072 275.518125) scale(0.12 -0.12)">
       <defs>
        <path id="DejaVuSans-34" d="M 2419 4116 
L 825 1625 
L 2419 1625 
L 2419 4116 
z
M 2253 4666 
L 3047 4666 
L 3047 1625 
L 3713 1625 
L 3713 1100 
L 3047 1100 
L 3047 0 
L 2419 0 
L 2419 1100 
L 313 1100 
L 313 1709 
L 2253 4666 
z
" transform="scale(0.015625)"/>
       </defs>
       <use xlink:href="#DejaVuSans-34"/>
      </g>
     </g>
    </g>
    <g id="xtick_5">
     <g id="line2d_5">
      <g>
       <use xlink:href="#m1e7a4ea8af" x="331.765184" y="262.9" style="stroke: #000000; stroke-width: 0.8"/>
      </g>
     </g>
     <g id="text_5">
      <!-- 5 -->
      <g transform="translate(327.947684 275.518125) scale(0.12 -0.12)">
       <defs>
        <path id="DejaVuSans-35" d="M 691 4666 
L 3169 4666 
L 3169 4134 
L 1269 4134 
L 1269 2991 
Q 1406 3038 1543 3061 
Q 1681 3084 1819 3084 
Q 2600 3084 3056 2656 
Q 3513 2228 3513 1497 
Q 3513 744 3044 326 
Q 2575 -91 1722 -91 
Q 1428 -91 1123 -41 
Q 819 9 494 109 
L 494 744 
Q 775 591 1075 516 
Q 1375 441 1709 441 
Q 2250 441 2565 725 
Q 2881 1009 2881 1497 
Q 2881 1984 2565 2268 
Q 2250 2553 1709 2553 
Q 1456 2553 1204 2497 
Q 953 2441 691 2322 
L 691 4666 
z
" transform="scale(0.015625)"/>
       </defs>
       <use xlink:href="#DejaVuSans-35"/>
      </g>
     </g>
    </g>
    <g id="xtick_6">
     <g id="line2d_6">
      <g>
       <use xlink:href="#m1e7a4ea8af" x="405.722147" y="262.9" style="stroke: #000000; stroke-width: 0.8"/>
      </g>
     </g>
     <g id="text_6">
      <!-- 6 -->
      <g transform="translate(401.904647 275.518125) scale(0.12 -0.12)">
       <defs>
        <path id="DejaVuSans-36" d="M 2113 2584 
Q 1688 2584 1439 2293 
Q 1191 2003 1191 1497 
Q 1191 994 1439 701 
Q 1688 409 2113 409 
Q 2538 409 2786 701 
Q 3034 994 3034 1497 
Q 3034 2003 2786 2293 
Q 2538 2584 2113 2584 
z
M 3366 4563 
L 3366 3988 
Q 3128 4100 2886 4159 
Q 2644 4219 2406 4219 
Q 1781 4219 1451 3797 
Q 1122 3375 1075 2522 
Q 1259 2794 1537 2939 
Q 1816 3084 2150 3084 
Q 2853 3084 3261 2657 
Q 3669 2231 3669 1497 
Q 3669 778 3244 343 
Q 2819 -91 2113 -91 
Q 1303 -91 875 529 
Q 447 1150 447 2328 
Q 447 3434 972 4092 
Q 1497 4750 2381 4750 
Q 2619 4750 2861 4703 
Q 3103 4656 3366 4563 
z
" transform="scale(0.015625)"/>
       </defs>
       <use xlink:href="#DejaVuSans-36"/>
      </g>
     </g>
    </g>
    <g id="xtick_7">
     <g id="line2d_7">
      <g>
       <use xlink:href="#m1e7a4ea8af" x="479.67911" y="262.9" style="stroke: #000000; stroke-width: 0.8"/>
      </g>
     </g>
     <g id="text_7">
      <!-- 7 -->
      <g transform="translate(475.86161 275.518125) scale(0.12 -0.12)">
       <defs>
        <path id="DejaVuSans-37" d="M 525 4666 
L 3525 4666 
L 3525 4397 
L 1831 0 
L 1172 0 
L 2766 4134 
L 525 4134 
L 525 4666 
z
" transform="scale(0.015625)"/>
       </defs>
       <use xlink:href="#DejaVuSans-37"/>
      </g>
     </g>
    </g>
    <g id="xtick_8">
     <g id="line2d_8">
      <g>
       <use xlink:href="#m1e7a4ea8af" x="553.636073" y="262.9" style="stroke: #000000; stroke-width: 0.8"/>
      </g>
     </g>
     <g id="text_8">
      <!-- 8 -->
      <g transform="translate(549.818573 275.518125) scale(0.12 -0.12)">
       <defs>
        <path id="DejaVuSans-38" d="M 2034 2216 
Q 1584 2216 1326 1975 
Q 1069 1734 1069 1313 
Q 1069 891 1326 650 
Q 1584 409 2034 409 
Q 2484 409 2743 651 
Q 3003 894 3003 1313 
Q 3003 1734 2745 1975 
Q 2488 2216 2034 2216 
z
M 1403 2484 
Q 997 2584 770 2862 
Q 544 3141 544 3541 
Q 544 4100 942 4425 
Q 1341 4750 2034 4750 
Q 2731 4750 3128 4425 
Q 3525 4100 3525 3541 
Q 3525 3141 3298 2862 
Q 3072 2584 2669 2484 
Q 3125 2378 3379 2068 
Q 3634 1759 3634 1313 
Q 3634 634 3220 271 
Q 2806 -91 2034 -91 
Q 1263 -91 848 271 
Q 434 634 434 1313 
Q 434 1759 690 2068 
Q 947 2378 1403 2484 
z
M 1172 3481 
Q 1172 3119 1398 2916 
Q 1625 2713 2034 2713 
Q 2441 2713 2670 2916 
Q 2900 3119 2900 3481 
Q 2900 3844 2670 4047 
Q 2441 4250 2034 4250 
Q 1625 4250 1398 4047 
Q 1172 3844 1172 3481 
z
" transform="scale(0.015625)"/>
       </defs>
       <use xlink:href="#DejaVuSans-38"/>
      </g>
     </g>
    </g>
    <g id="xtick_9">
     <g id="line2d_9">
      <g>
       <use xlink:href="#m1e7a4ea8af" x="627.593037" y="262.9" style="stroke: #000000; stroke-width: 0.8"/>
      </g>
     </g>
     <g id="text_9">
      <!-- 9 -->
      <g transform="translate(623.775537 275.518125) scale(0.12 -0.12)">
       <defs>
        <path id="DejaVuSans-39" d="M 703 97 
L 703 672 
Q 941 559 1184 500 
Q 1428 441 1663 441 
Q 2288 441 2617 861 
Q 2947 1281 2994 2138 
Q 2813 1869 2534 1725 
Q 2256 1581 1919 1581 
Q 1219 1581 811 2004 
Q 403 2428 403 3163 
Q 403 3881 828 4315 
Q 1253 4750 1959 4750 
Q 2769 4750 3195 4129 
Q 3622 3509 3622 2328 
Q 3622 1225 3098 567 
Q 2575 -91 1691 -91 
Q 1453 -91 1209 -44 
Q 966 3 703 97 
z
M 1959 2075 
Q 2384 2075 2632 2365 
Q 2881 2656 2881 3163 
Q 2881 3666 2632 3958 
Q 2384 4250 1959 4250 
Q 1534 4250 1286 3958 
Q 1038 3666 1038 3163 
Q 1038 2656 1286 2365 
Q 1534 2075 1959 2075 
z
" transform="scale(0.015625)"/>
       </defs>
       <use xlink:href="#DejaVuSans-39"/>
      </g>
     </g>
    </g>
    <g id="xtick_10">
     <g id="line2d_10">
      <g>
       <use xlink:href="#m1e7a4ea8af" x="701.55" y="262.9" style="stroke: #000000; stroke-width: 0.8"/>
      </g>
     </g>
     <g id="text_10">
      <!-- 10 -->
      <g transform="translate(693.915 275.518125) scale(0.12 -0.12)">
       <defs>
        <path id="DejaVuSans-30" d="M 2034 4250 
Q 1547 4250 1301 3770 
Q 1056 3291 1056 2328 
Q 1056 1369 1301 889 
Q 1547 409 2034 409 
Q 2525 409 2770 889 
Q 3016 1369 3016 2328 
Q 3016 3291 2770 3770 
Q 2525 4250 2034 4250 
z
M 2034 4750 
Q 2819 4750 3233 4129 
Q 3647 3509 3647 2328 
Q 3647 1150 3233 529 
Q 2819 -91 2034 -91 
Q 1250 -91 836 529 
Q 422 1150 422 2328 
Q 422 3509 836 4129 
Q 1250 4750 2034 4750 
z
" transform="scale(0.015625)"/>
       </defs>
       <use xlink:href="#DejaVuSans-31"/>
       <use xlink:href="#DejaVuSans-30" x="63.623047"/>
      </g>
     </g>
    </g>
   </g>
   <g id="matplotlib.axis_2">
    <g id="ytick_1">
     <g id="line2d_11">
      <defs>
       <path id="mf99d8a2e05" d="M 0 0 
L 3.5 0 
" style="stroke: #000000; stroke-width: 0.8"/>
      </defs>
      <g>
       <use xlink:href="#mf99d8a2e05" x="35.937331" y="262.9" style="stroke: #000000; stroke-width: 0.8"/>
      </g>
     </g>
     <g id="text_11">
      <!-- $10^{0}$ -->
      <g transform="translate(11.317331 267.459063) scale(0.12 -0.12)">
       <use xlink:href="#DejaVuSans-31" transform="translate(0 0.765625)"/>
       <use xlink:href="#DejaVuSans-30" transform="translate(63.623047 0.765625)"/>
       <use xlink:href="#DejaVuSans-30" transform="translate(128.203125 39.046875) scale(0.7)"/>
      </g>
     </g>
    </g>
    <g id="ytick_2">
     <g id="line2d_12">
      <g>
       <use xlink:href="#mf99d8a2e05" x="35.937331" y="219.506947" style="stroke: #000000; stroke-width: 0.8"/>
      </g>
     </g>
     <g id="text_12">
      <!-- $10^{1}$ -->
      <g transform="translate(11.317331 224.066009) scale(0.12 -0.12)">
       <use xlink:href="#DejaVuSans-31" transform="translate(0 0.684375)"/>
       <use xlink:href="#DejaVuSans-30" transform="translate(63.623047 0.684375)"/>
       <use xlink:href="#DejaVuSans-31" transform="translate(128.203125 38.965625) scale(0.7)"/>
      </g>
     </g>
    </g>
    <g id="ytick_3">
     <g id="line2d_13">
      <g>
       <use xlink:href="#mf99d8a2e05" x="35.937331" y="176.113893" style="stroke: #000000; stroke-width: 0.8"/>
      </g>
     </g>
     <g id="text_13">
      <!-- $10^{2}$ -->
      <g transform="translate(11.317331 180.672956) scale(0.12 -0.12)">
       <use xlink:href="#DejaVuSans-31" transform="translate(0 0.765625)"/>
       <use xlink:href="#DejaVuSans-30" transform="translate(63.623047 0.765625)"/>
       <use xlink:href="#DejaVuSans-32" transform="translate(128.203125 39.046875) scale(0.7)"/>
      </g>
     </g>
    </g>
    <g id="ytick_4">
     <g id="line2d_14">
      <g>
       <use xlink:href="#mf99d8a2e05" x="35.937331" y="132.72084" style="stroke: #000000; stroke-width: 0.8"/>
      </g>
     </g>
     <g id="text_14">
      <!-- $10^{3}$ -->
      <g transform="translate(11.317331 137.279903) scale(0.12 -0.12)">
       <use xlink:href="#DejaVuSans-31" transform="translate(0 0.765625)"/>
       <use xlink:href="#DejaVuSans-30" transform="translate(63.623047 0.765625)"/>
       <use xlink:href="#DejaVuSans-33" transform="translate(128.203125 39.046875) scale(0.7)"/>
      </g>
     </g>
    </g>
    <g id="ytick_5">
     <g id="line2d_15">
      <g>
       <use xlink:href="#mf99d8a2e05" x="35.937331" y="89.327787" style="stroke: #000000; stroke-width: 0.8"/>
      </g>
     </g>
     <g id="text_15">
      <!-- $10^{4}$ -->
      <g transform="translate(11.317331 93.886849) scale(0.12 -0.12)">
       <use xlink:href="#DejaVuSans-31" transform="translate(0 0.684375)"/>
       <use xlink:href="#DejaVuSans-30" transform="translate(63.623047 0.684375)"/>
       <use xlink:href="#DejaVuSans-34" transform="translate(128.203125 38.965625) scale(0.7)"/>
      </g>
     </g>
    </g>
    <g id="ytick_6">
     <g id="line2d_16">
      <g>
       <use xlink:href="#mf99d8a2e05" x="35.937331" y="45.934734" style="stroke: #000000; stroke-width: 0.8"/>
      </g>
     </g>
     <g id="text_16">
      <!-- $10^{5}$ -->
      <g transform="translate(11.317331 50.493796) scale(0.12 -0.12)">
       <use xlink:href="#DejaVuSans-31" transform="translate(0 0.684375)"/>
       <use xlink:href="#DejaVuSans-30" transform="translate(63.623047 0.684375)"/>
       <use xlink:href="#DejaVuSans-35" transform="translate(128.203125 38.965625) scale(0.7)"/>
      </g>
     </g>
    </g>
   </g>
   <g id="line2d_17">
    <path d="M 38.451867 262.9 
L 45.995478 262.9 
L 53.539088 262.9 
L 61.082698 262.9 
L 68.626308 262.9 
L 76.169919 262.9 
L 83.713529 262.9 
L 91.257139 262.9 
L 98.800749 262.9 
L 106.34436 262.9 
L 113.88797 262.9 
L 121.43158 262.9 
L 128.97519 262.9 
L 136.518801 262.9 
L 144.062411 262.9 
L 151.606021 262.9 
L 159.149631 262.9 
L 166.693242 262.9 
L 174.236852 244.629071 
L 181.780462 189.816283 
L 189.324072 171.545354 
L 196.867683 226.358142 
L 204.411293 257.272274 
L 211.954903 240.389094 
L 219.498513 234.761368 
L 227.042124 251.644547 
L 234.585734 251.644547 
L 242.129344 217.878188 
L 249.672954 206.622736 
L 257.216565 240.389094 
L 264.760175 243.928201 
L 272.303785 187.012803 
L 279.847395 149.659856 
L 287.391006 151.431812 
L 294.934616 156.288186 
L 302.478226 167.313395 
L 310.021837 178.114159 
L 317.565447 188.466033 
L 325.109057 206.622736 
L 332.652667 240.389094 
L 340.196278 252.2172 
L 347.739888 220.168799 
L 355.283498 190.895381 
L 362.827108 167.171928 
L 370.370719 155.610778 
L 377.914329 168.37423 
L 385.457939 177.786778 
L 393.001549 180.497514 
L 400.54516 178.854047 
L 408.08877 168.502173 
L 415.63238 162.390276 
L 423.17599 164.758332 
L 430.719601 172.448933 
L 438.263211 190.784625 
L 445.806821 199.073624 
L 453.350431 187.269238 
L 460.894042 174.314801 
L 468.437652 159.060264 
L 475.981262 148.310522 
L 483.524872 146.570367 
L 491.068483 149.954882 
L 498.612093 163.588739 
L 506.155703 169.024644 
L 513.699313 158.064644 
L 521.242924 147.49266 
L 528.786534 137.696709 
L 536.330144 136.06873 
L 543.873754 150.776697 
L 551.417365 160.931356 
L 558.960975 161.979399 
L 566.504585 164.191497 
L 574.048195 168.731704 
L 581.591806 170.338872 
L 589.135416 166.07996 
L 596.679026 161.127685 
L 604.222636 154.788686 
L 611.766247 149.387839 
L 619.309857 145.863295 
L 626.853467 144.099646 
L 634.397077 145.857786 
L 641.940688 146.007762 
L 649.484298 142.94141 
L 657.027908 140.672731 
L 664.571518 139.999396 
L 672.115129 140.837596 
L 679.658739 144.698868 
L 687.202349 146.783056 
L 694.745959 145.313078 
L 702.28957 144.512621 
L 709.83318 145.051206 
L 717.37679 144.488263 
L 721 143.159747 
" clip-path="url(#pdd3915b75c)" style="fill: none; stroke: #ff0000; stroke-width: 1.2; stroke-linecap: square"/>
   </g>
   <g id="line2d_18">
    <path d="M 38.451867 262.9 
L 45.995478 262.9 
L 53.539088 262.9 
L 61.082698 262.9 
L 68.626308 262.9 
L 76.169919 262.9 
L 83.713529 262.9 
L 91.257139 262.9 
L 98.800749 262.9 
L 106.34436 262.9 
L 113.88797 262.9 
L 121.43158 262.9 
L 128.97519 262.9 
L 136.518801 262.9 
L 144.062411 262.9 
L 151.606021 262.9 
L 159.149631 262.9 
L 166.693242 262.9 
L 174.236852 228.316052 
L 181.780462 124.56421 
L 189.324072 89.980262 
L 196.867683 193.732105 
L 204.411293 244.573478 
L 211.954903 189.593913 
L 219.498513 147.294829 
L 227.042124 130.356707 
L 234.585734 118.895768 
L 242.129344 118.389193 
L 249.672954 117.94096 
L 257.216565 117.609411 
L 264.760175 106.259103 
L 272.303785 72.871279 
L 279.847395 51.277694 
L 287.391006 53.272587 
L 294.934616 58.600936 
L 302.478226 70.596199 
L 310.021837 84.466846 
L 317.565447 102.088264 
L 325.109057 113.707104 
L 332.652667 113.320791 
L 340.196278 109.617055 
L 347.739888 99.278471 
L 355.283498 85.732594 
L 362.827108 65.77213 
L 370.370719 58.422948 
L 377.914329 76.29633 
L 385.457939 88.164906 
L 393.001549 88.023872 
L 400.54516 83.685598 
L 408.08877 70.952845 
L 415.63238 63.826775 
L 423.17599 67.91407 
L 430.719601 73.182661 
L 438.263211 80.813842 
L 445.806821 85.773518 
L 453.350431 85.390186 
L 460.894042 79.541117 
L 468.437652 62.760576 
L 475.981262 51.070721 
L 483.524872 49.562235 
L 491.068483 52.022836 
L 498.612093 62.421609 
L 506.155703 67.063833 
L 513.699313 60.192961 
L 521.242924 51.635885 
L 528.786534 39.706401 
L 536.330144 37.771103 
L 543.873754 55.824177 
L 551.417365 67.768598 
L 558.960975 67.495716 
L 566.504585 67.231668 
L 574.048195 66.985287 
L 581.591806 66.786966 
L 589.135416 66.684767 
L 596.679026 64.896542 
L 604.222636 59.736268 
L 611.766247 54.137051 
L 619.309857 47.659949 
L 626.853467 44.276212 
L 634.397077 47.079203 
L 641.940688 47.953027 
L 649.484298 44.968515 
L 657.027908 42.940254 
L 664.571518 42.824496 
L 672.115129 43.647615 
L 679.658739 46.348491 
L 687.202349 48.100909 
L 694.745959 47.956413 
L 702.28957 47.816141 
L 709.83318 47.684318 
L 717.37679 46.65628 
L 721 45.301604 
" clip-path="url(#pdd3915b75c)" style="fill: none; stroke: #008000; stroke-width: 1.2; stroke-linecap: square"/>
   </g>
   <g id="line2d_19">
    <path d="M 38.451867 262.9 
L 45.995478 262.9 
L 53.539088 262.9 
L 61.082698 262.9 
L 68.626308 262.9 
L 76.169919 262.9 
L 83.713529 262.9 
L 91.257139 262.9 
L 98.800749 262.9 
L 106.34436 262.9 
L 113.88797 262.9 
L 121.43158 262.9 
L 128.97519 262.9 
L 136.518801 262.9 
L 144.062411 262.9 
L 151.606021 262.9 
L 159.149631 262.9 
L 166.693242 262.9 
L 174.236852 225.820628 
L 181.780462 114.582513 
L 189.324072 77.503141 
L 196.867683 188.741256 
L 204.411293 242.008118 
L 211.954903 179.332473 
L 219.498513 131.99489 
L 227.042124 115.333431 
L 234.585734 104.036354 
L 242.129344 103.468041 
L 249.672954 102.940207 
L 257.216565 102.493334 
L 264.760175 91.101988 
L 272.303785 57.821699 
L 279.847395 36.305092 
L 287.391006 38.31585 
L 294.934616 43.641935 
L 302.478226 55.598676 
L 310.021837 69.40508 
L 317.565447 86.910808 
L 325.109057 98.550651 
L 332.652667 98.458721 
L 340.196278 94.926547 
L 347.739888 84.513881 
L 355.283498 70.891644 
L 362.827108 50.850266 
L 370.370719 43.457242 
L 377.914329 61.36093 
L 385.457939 73.186781 
L 393.001549 72.85696 
L 400.54516 68.449059 
L 408.08877 55.884998 
L 415.63238 48.886731 
L 423.17599 53.020048 
L 430.719601 58.260749 
L 438.263211 65.716218 
L 445.806821 70.611966 
L 453.350431 70.388274 
L 460.894042 64.630105 
L 468.437652 47.802984 
L 475.981262 36.090891 
L 483.524872 34.608853 
L 491.068483 37.06861 
L 498.612093 47.411958 
L 506.155703 52.021967 
L 513.699313 45.165299 
L 521.242924 36.628095 
L 528.786534 24.729823 
L 536.330144 22.804762 
L 543.873754 40.826125 
L 551.417365 52.760821 
L 558.960975 52.522185 
L 566.504585 52.289395 
L 574.048195 52.068297 
L 581.591806 51.84518 
L 589.135416 51.618024 
L 596.679026 49.780558 
L 604.222636 44.722471 
L 611.766247 39.194389 
L 619.309857 32.726315 
L 626.853467 29.333129 
L 634.397077 32.089719 
L 641.940688 32.939653 
L 649.484298 29.976273 
L 657.027908 27.9678 
L 664.571518 27.869142 
L 672.115129 28.692063 
L 679.658739 31.358143 
L 687.202349 33.093639 
L 694.745959 32.967968 
L 702.28957 32.836404 
L 709.83318 32.693052 
L 717.37679 31.677065 
L 721 30.350827 
" clip-path="url(#pdd3915b75c)" style="fill: none; stroke: #0000ff; stroke-width: 1.2; stroke-linecap: square"/>
   </g>
   <g id="line2d_20">
    <path d="M 38.451867 262.9 
L 45.995478 262.9 
L 53.539088 262.9 
L 61.082698 262.9 
L 68.626308 262.9 
L 76.169919 262.9 
L 83.713529 262.9 
L 91.257139 262.9 
L 98.800749 262.9 
L 106.34436 262.9 
L 113.88797 262.9 
L 121.43158 262.9 
L 128.97519 262.9 
L 136.518801 262.9 
L 144.062411 257.272274 
L 151.606021 240.389094 
L 159.149631 201.44053 
L 166.693242 118.361197 
L 174.236852 58.100282 
L 181.780462 43.476204 
L 189.324072 40.987254 
L 196.867683 62.768561 
L 204.411293 80.368898 
L 211.954903 89.607293 
L 219.498513 95.188123 
L 227.042124 93.453825 
L 234.585734 92.152481 
L 242.129344 91.717047 
L 249.672954 86.934493 
L 257.216565 73.457699 
L 264.760175 58.213876 
L 272.303785 39.435993 
L 279.847395 26.969704 
L 287.391006 27.126605 
L 294.934616 31.362509 
L 302.478226 43.756418 
L 310.021837 56.065708 
L 317.565447 68.20576 
L 325.109057 76.247016 
L 332.652667 76.090677 
L 340.196278 71.603521 
L 347.739888 58.454729 
L 355.283498 46.79873 
L 362.827108 38.128315 
L 370.370719 36.841145 
L 377.914329 50.320461 
L 385.457939 60.185275 
L 393.001549 62.821087 
L 400.54516 60.74768 
L 408.08877 49.255839 
L 415.63238 42.284039 
L 423.17599 44.352321 
L 430.719601 47.654746 
L 438.263211 53.425455 
L 445.806821 57.522462 
L 453.350431 58.272066 
L 460.894042 53.437124 
L 468.437652 37.433091 
L 475.981262 26.380482 
L 483.524872 25.230721 
L 491.068483 27.372721 
L 498.612093 36.098244 
L 506.155703 39.456808 
L 513.699313 32.08145 
L 521.242924 24.247564 
L 528.786534 15.49662 
L 536.330144 14.184466 
L 543.873754 27.749895 
L 551.417365 38.72049 
L 558.960975 44.501417 
L 566.504585 48.228125 
L 574.048195 47.846395 
L 581.591806 46.71243 
L 589.135416 44.073991 
L 596.679026 40.685181 
L 604.222636 35.795626 
L 611.766247 30.779552 
L 619.309857 25.510438 
L 626.853467 23.12351 
L 634.397077 26.500951 
L 641.940688 27.365096 
L 649.484298 23.202647 
L 657.027908 20.763414 
L 664.571518 21.770615 
L 672.115129 23.579238 
L 679.658739 26.990709 
L 687.202349 28.252324 
L 694.745959 25.214225 
L 702.28957 24.479286 
L 709.83318 28.350665 
L 717.37679 29.81739 
L 721 28.211942 
" clip-path="url(#pdd3915b75c)" style="fill: none; stroke: #808080; stroke-width: 1.5; stroke-linecap: square"/>
   </g>
   <g id="patch_3">
    <path d="M 35.937331 262.9 
L 35.937331 10.8 
" style="fill: none; stroke: #000000; stroke-width: 0.8; stroke-linejoin: miter; stroke-linecap: square"/>
   </g>
   <g id="patch_4">
    <path d="M 701.55 262.9 
L 701.55 10.8 
" style="fill: none; stroke: #000000; stroke-width: 0.8; stroke-linejoin: miter; stroke-linecap: square"/>
   </g>
   <g id="patch_5">
    <path d="M 35.937331 262.9 
L 701.55 262.9 
" style="fill: none; stroke: #000000; stroke-width: 0.8; stroke-linejoin: miter; stroke-linecap: square"/>
   </g>
   <g id="patch_6">
    <path d="M 35.937331 10.8 
L 701.55 10.8 
" style="fill: none; stroke: #000000; stroke-width: 0.8; stroke-linejoin: miter; stroke-linecap: square"/>
   </g>
   <g id="legend_1">
    <g id="patch_7">
     <path d="M 483.99 256.9 
L 693.15 256.9 
Q 695.55 256.9 695.55 254.5 
L 695.55 185.245 
Q 695.55 182.845 693.15 182.845 
L 483.99 182.845 
Q 481.59 182.845 481.59 185.245 
L 481.59 254.5 
Q 481.59 256.9 483.99 256.9 
z
" style="fill: #ffffff; opacity: 0.8; stroke: #cccccc; stroke-linejoin: miter"/>
    </g>
    <g id="line2d_21">
     <path d="M 486.39 192.563125 
L 498.39 192.563125 
L 510.39 192.563125 
" style="fill: none; stroke: #808080; stroke-width: 1.5; stroke-linecap: square"/>
    </g>
    <g id="text_17">
     <!-- dataset -->
     <g transform="translate(519.99 196.763125) scale(0.12 -0.12)">
      <defs>
       <path id="DejaVuSans-64" d="M 2906 2969 
L 2906 4863 
L 3481 4863 
L 3481 0 
L 2906 0 
L 2906 525 
Q 2725 213 2448 61 
Q 2172 -91 1784 -91 
Q 1150 -91 751 415 
Q 353 922 353 1747 
Q 353 2572 751 3078 
Q 1150 3584 1784 3584 
Q 2172 3584 2448 3432 
Q 2725 3281 2906 2969 
z
M 947 1747 
Q 947 1113 1208 752 
Q 1469 391 1925 391 
Q 2381 391 2643 752 
Q 2906 1113 2906 1747 
Q 2906 2381 2643 2742 
Q 2381 3103 1925 3103 
Q 1469 3103 1208 2742 
Q 947 2381 947 1747 
z
" transform="scale(0.015625)"/>
       <path id="DejaVuSans-61" d="M 2194 1759 
Q 1497 1759 1228 1600 
Q 959 1441 959 1056 
Q 959 750 1161 570 
Q 1363 391 1709 391 
Q 2188 391 2477 730 
Q 2766 1069 2766 1631 
L 2766 1759 
L 2194 1759 
z
M 3341 1997 
L 3341 0 
L 2766 0 
L 2766 531 
Q 2569 213 2275 61 
Q 1981 -91 1556 -91 
Q 1019 -91 701 211 
Q 384 513 384 1019 
Q 384 1609 779 1909 
Q 1175 2209 1959 2209 
L 2766 2209 
L 2766 2266 
Q 2766 2663 2505 2880 
Q 2244 3097 1772 3097 
Q 1472 3097 1187 3025 
Q 903 2953 641 2809 
L 641 3341 
Q 956 3463 1253 3523 
Q 1550 3584 1831 3584 
Q 2591 3584 2966 3190 
Q 3341 2797 3341 1997 
z
" transform="scale(0.015625)"/>
       <path id="DejaVuSans-74" d="M 1172 4494 
L 1172 3500 
L 2356 3500 
L 2356 3053 
L 1172 3053 
L 1172 1153 
Q 1172 725 1289 603 
Q 1406 481 1766 481 
L 2356 481 
L 2356 0 
L 1766 0 
Q 1100 0 847 248 
Q 594 497 594 1153 
L 594 3053 
L 172 3053 
L 172 3500 
L 594 3500 
L 594 4494 
L 1172 4494 
z
" transform="scale(0.015625)"/>
       <path id="DejaVuSans-73" d="M 2834 3397 
L 2834 2853 
Q 2591 2978 2328 3040 
Q 2066 3103 1784 3103 
Q 1356 3103 1142 2972 
Q 928 2841 928 2578 
Q 928 2378 1081 2264 
Q 1234 2150 1697 2047 
L 1894 2003 
Q 2506 1872 2764 1633 
Q 3022 1394 3022 966 
Q 3022 478 2636 193 
Q 2250 -91 1575 -91 
Q 1294 -91 989 -36 
Q 684 19 347 128 
L 347 722 
Q 666 556 975 473 
Q 1284 391 1588 391 
Q 1994 391 2212 530 
Q 2431 669 2431 922 
Q 2431 1156 2273 1281 
Q 2116 1406 1581 1522 
L 1381 1569 
Q 847 1681 609 1914 
Q 372 2147 372 2553 
Q 372 3047 722 3315 
Q 1072 3584 1716 3584 
Q 2034 3584 2315 3537 
Q 2597 3491 2834 3397 
z
" transform="scale(0.015625)"/>
       <path id="DejaVuSans-65" d="M 3597 1894 
L 3597 1613 
L 953 1613 
Q 991 1019 1311 708 
Q 1631 397 2203 397 
Q 2534 397 2845 478 
Q 3156 559 3463 722 
L 3463 178 
Q 3153 47 2828 -22 
Q 2503 -91 2169 -91 
Q 1331 -91 842 396 
Q 353 884 353 1716 
Q 353 2575 817 3079 
Q 1281 3584 2069 3584 
Q 2775 3584 3186 3129 
Q 3597 2675 3597 1894 
z
M 3022 2063 
Q 3016 2534 2758 2815 
Q 2500 3097 2075 3097 
Q 1594 3097 1305 2825 
Q 1016 2553 972 2059 
L 3022 2063 
z
" transform="scale(0.015625)"/>
      </defs>
      <use xlink:href="#DejaVuSans-64"/>
      <use xlink:href="#DejaVuSans-61" x="63.476562"/>
      <use xlink:href="#DejaVuSans-74" x="124.755859"/>
      <use xlink:href="#DejaVuSans-61" x="163.964844"/>
      <use xlink:href="#DejaVuSans-73" x="225.244141"/>
      <use xlink:href="#DejaVuSans-65" x="277.34375"/>
      <use xlink:href="#DejaVuSans-74" x="338.867188"/>
     </g>
    </g>
    <g id="line2d_22">
     <path d="M 486.39 210.176875 
L 498.39 210.176875 
L 510.39 210.176875 
" style="fill: none; stroke: #ff0000; stroke-width: 1.5; stroke-linecap: square"/>
    </g>
    <g id="text_18">
     <!-- 21.79$^\circ$ (2-1, 112 atoms) -->
     <g transform="translate(519.99 214.376875) scale(0.12 -0.12)">
      <defs>
       <path id="DejaVuSans-2e" d="M 684 794 
L 1344 794 
L 1344 0 
L 684 0 
L 684 794 
z
" transform="scale(0.015625)"/>
       <path id="DejaVuSans-2218" d="M 2003 2603 
Q 1753 2603 1581 2429 
Q 1409 2256 1409 2006 
Q 1409 1759 1581 1589 
Q 1753 1419 2003 1419 
Q 2253 1419 2425 1589 
Q 2597 1759 2597 2006 
Q 2597 2253 2423 2428 
Q 2250 2603 2003 2603 
z
M 2003 3006 
Q 2203 3006 2387 2929 
Q 2572 2853 2706 2709 
Q 2850 2569 2922 2390 
Q 2994 2212 2994 2006 
Q 2994 1594 2705 1308 
Q 2416 1022 1997 1022 
Q 1575 1022 1294 1303 
Q 1013 1584 1013 2006 
Q 1013 2425 1300 2715 
Q 1588 3006 2003 3006 
z
" transform="scale(0.015625)"/>
       <path id="DejaVuSans-20" transform="scale(0.015625)"/>
       <path id="DejaVuSans-28" d="M 1984 4856 
Q 1566 4138 1362 3434 
Q 1159 2731 1159 2009 
Q 1159 1288 1364 580 
Q 1569 -128 1984 -844 
L 1484 -844 
Q 1016 -109 783 600 
Q 550 1309 550 2009 
Q 550 2706 781 3412 
Q 1013 4119 1484 4856 
L 1984 4856 
z
" transform="scale(0.015625)"/>
       <path id="DejaVuSans-2d" d="M 313 2009 
L 1997 2009 
L 1997 1497 
L 313 1497 
L 313 2009 
z
" transform="scale(0.015625)"/>
       <path id="DejaVuSans-2c" d="M 750 794 
L 1409 794 
L 1409 256 
L 897 -744 
L 494 -744 
L 750 256 
L 750 794 
z
" transform="scale(0.015625)"/>
       <path id="DejaVuSans-6f" d="M 1959 3097 
Q 1497 3097 1228 2736 
Q 959 2375 959 1747 
Q 959 1119 1226 758 
Q 1494 397 1959 397 
Q 2419 397 2687 759 
Q 2956 1122 2956 1747 
Q 2956 2369 2687 2733 
Q 2419 3097 1959 3097 
z
M 1959 3584 
Q 2709 3584 3137 3096 
Q 3566 2609 3566 1747 
Q 3566 888 3137 398 
Q 2709 -91 1959 -91 
Q 1206 -91 779 398 
Q 353 888 353 1747 
Q 353 2609 779 3096 
Q 1206 3584 1959 3584 
z
" transform="scale(0.015625)"/>
       <path id="DejaVuSans-6d" d="M 3328 2828 
Q 3544 3216 3844 3400 
Q 4144 3584 4550 3584 
Q 5097 3584 5394 3201 
Q 5691 2819 5691 2113 
L 5691 0 
L 5113 0 
L 5113 2094 
Q 5113 2597 4934 2840 
Q 4756 3084 4391 3084 
Q 3944 3084 3684 2787 
Q 3425 2491 3425 1978 
L 3425 0 
L 2847 0 
L 2847 2094 
Q 2847 2600 2669 2842 
Q 2491 3084 2119 3084 
Q 1678 3084 1418 2786 
Q 1159 2488 1159 1978 
L 1159 0 
L 581 0 
L 581 3500 
L 1159 3500 
L 1159 2956 
Q 1356 3278 1631 3431 
Q 1906 3584 2284 3584 
Q 2666 3584 2933 3390 
Q 3200 3197 3328 2828 
z
" transform="scale(0.015625)"/>
       <path id="DejaVuSans-29" d="M 513 4856 
L 1013 4856 
Q 1481 4119 1714 3412 
Q 1947 2706 1947 2009 
Q 1947 1309 1714 600 
Q 1481 -109 1013 -844 
L 513 -844 
Q 928 -128 1133 580 
Q 1338 1288 1338 2009 
Q 1338 2731 1133 3434 
Q 928 4138 513 4856 
z
" transform="scale(0.015625)"/>
      </defs>
      <use xlink:href="#DejaVuSans-32" transform="translate(0 0.125)"/>
      <use xlink:href="#DejaVuSans-31" transform="translate(63.623047 0.125)"/>
      <use xlink:href="#DejaVuSans-2e" transform="translate(127.246094 0.125)"/>
      <use xlink:href="#DejaVuSans-37" transform="translate(151.283203 0.125)"/>
      <use xlink:href="#DejaVuSans-39" transform="translate(214.90625 0.125)"/>
      <use xlink:href="#DejaVuSans-2218" transform="translate(293.124023 38.40625) scale(0.7)"/>
      <use xlink:href="#DejaVuSans-20" transform="translate(353.314453 0.125)"/>
      <use xlink:href="#DejaVuSans-28" transform="translate(385.101562 0.125)"/>
      <use xlink:href="#DejaVuSans-32" transform="translate(424.115234 0.125)"/>
      <use xlink:href="#DejaVuSans-2d" transform="translate(487.738281 0.125)"/>
      <use xlink:href="#DejaVuSans-31" transform="translate(523.822266 0.125)"/>
      <use xlink:href="#DejaVuSans-2c" transform="translate(587.445312 0.125)"/>
      <use xlink:href="#DejaVuSans-20" transform="translate(619.232422 0.125)"/>
      <use xlink:href="#DejaVuSans-31" transform="translate(651.019531 0.125)"/>
      <use xlink:href="#DejaVuSans-31" transform="translate(714.642578 0.125)"/>
      <use xlink:href="#DejaVuSans-32" transform="translate(778.265625 0.125)"/>
      <use xlink:href="#DejaVuSans-20" transform="translate(841.888672 0.125)"/>
      <use xlink:href="#DejaVuSans-61" transform="translate(873.675781 0.125)"/>
      <use xlink:href="#DejaVuSans-74" transform="translate(934.955078 0.125)"/>
      <use xlink:href="#DejaVuSans-6f" transform="translate(974.164062 0.125)"/>
      <use xlink:href="#DejaVuSans-6d" transform="translate(1035.345703 0.125)"/>
      <use xlink:href="#DejaVuSans-73" transform="translate(1132.757812 0.125)"/>
      <use xlink:href="#DejaVuSans-29" transform="translate(1184.857422 0.125)"/>
     </g>
    </g>
    <g id="line2d_23">
     <path d="M 486.39 227.790625 
L 498.39 227.790625 
L 510.39 227.790625 
" style="fill: none; stroke: #008000; stroke-width: 1.5; stroke-linecap: square"/>
    </g>
    <g id="text_19">
     <!-- 1.61$^\circ$ (21-20, 20176 atoms) -->
     <g transform="translate(519.99 231.990625) scale(0.12 -0.12)">
      <use xlink:href="#DejaVuSans-31" transform="translate(0 0.125)"/>
      <use xlink:href="#DejaVuSans-2e" transform="translate(63.623047 0.125)"/>
      <use xlink:href="#DejaVuSans-36" transform="translate(95.410156 0.125)"/>
      <use xlink:href="#DejaVuSans-31" transform="translate(159.033203 0.125)"/>
      <use xlink:href="#DejaVuSans-2218" transform="translate(237.250977 38.40625) scale(0.7)"/>
      <use xlink:href="#DejaVuSans-20" transform="translate(297.441406 0.125)"/>
      <use xlink:href="#DejaVuSans-28" transform="translate(329.228516 0.125)"/>
      <use xlink:href="#DejaVuSans-32" transform="translate(368.242188 0.125)"/>
      <use xlink:href="#DejaVuSans-31" transform="translate(431.865234 0.125)"/>
      <use xlink:href="#DejaVuSans-2d" transform="translate(495.488281 0.125)"/>
      <use xlink:href="#DejaVuSans-32" transform="translate(531.572266 0.125)"/>
      <use xlink:href="#DejaVuSans-30" transform="translate(595.195312 0.125)"/>
      <use xlink:href="#DejaVuSans-2c" transform="translate(658.818359 0.125)"/>
      <use xlink:href="#DejaVuSans-20" transform="translate(690.605469 0.125)"/>
      <use xlink:href="#DejaVuSans-32" transform="translate(722.392578 0.125)"/>
      <use xlink:href="#DejaVuSans-30" transform="translate(786.015625 0.125)"/>
      <use xlink:href="#DejaVuSans-31" transform="translate(849.638672 0.125)"/>
      <use xlink:href="#DejaVuSans-37" transform="translate(913.261719 0.125)"/>
      <use xlink:href="#DejaVuSans-36" transform="translate(976.884766 0.125)"/>
      <use xlink:href="#DejaVuSans-20" transform="translate(1040.507812 0.125)"/>
      <use xlink:href="#DejaVuSans-61" transform="translate(1072.294922 0.125)"/>
      <use xlink:href="#DejaVuSans-74" transform="translate(1133.574219 0.125)"/>
      <use xlink:href="#DejaVuSans-6f" transform="translate(1172.783203 0.125)"/>
      <use xlink:href="#DejaVuSans-6d" transform="translate(1233.964844 0.125)"/>
      <use xlink:href="#DejaVuSans-73" transform="translate(1331.376953 0.125)"/>
      <use xlink:href="#DejaVuSans-29" transform="translate(1383.476562 0.125)"/>
     </g>
    </g>
    <g id="line2d_24">
     <path d="M 486.39 245.404375 
L 498.39 245.404375 
L 510.39 245.404375 
" style="fill: none; stroke: #0000ff; stroke-width: 1.5; stroke-linecap: square"/>
    </g>
    <g id="text_20">
     <!-- 1.08$^\circ$ (31-30, 44656 atoms) -->
     <g transform="translate(519.99 249.604375) scale(0.12 -0.12)">
      <use xlink:href="#DejaVuSans-31" transform="translate(0 0.125)"/>
      <use xlink:href="#DejaVuSans-2e" transform="translate(63.623047 0.125)"/>
      <use xlink:href="#DejaVuSans-30" transform="translate(95.410156 0.125)"/>
      <use xlink:href="#DejaVuSans-38" transform="translate(159.033203 0.125)"/>
      <use xlink:href="#DejaVuSans-2218" transform="translate(237.250977 38.40625) scale(0.7)"/>
      <use xlink:href="#DejaVuSans-20" transform="translate(297.441406 0.125)"/>
      <use xlink:href="#DejaVuSans-28" transform="translate(329.228516 0.125)"/>
      <use xlink:href="#DejaVuSans-33" transform="translate(368.242188 0.125)"/>
      <use xlink:href="#DejaVuSans-31" transform="translate(431.865234 0.125)"/>
      <use xlink:href="#DejaVuSans-2d" transform="translate(495.488281 0.125)"/>
      <use xlink:href="#DejaVuSans-33" transform="translate(531.572266 0.125)"/>
      <use xlink:href="#DejaVuSans-30" transform="translate(595.195312 0.125)"/>
      <use xlink:href="#DejaVuSans-2c" transform="translate(658.818359 0.125)"/>
      <use xlink:href="#DejaVuSans-20" transform="translate(690.605469 0.125)"/>
      <use xlink:href="#DejaVuSans-34" transform="translate(722.392578 0.125)"/>
      <use xlink:href="#DejaVuSans-34" transform="translate(786.015625 0.125)"/>
      <use xlink:href="#DejaVuSans-36" transform="translate(849.638672 0.125)"/>
      <use xlink:href="#DejaVuSans-35" transform="translate(913.261719 0.125)"/>
      <use xlink:href="#DejaVuSans-36" transform="translate(976.884766 0.125)"/>
      <use xlink:href="#DejaVuSans-20" transform="translate(1040.507812 0.125)"/>
      <use xlink:href="#DejaVuSans-61" transform="translate(1072.294922 0.125)"/>
      <use xlink:href="#DejaVuSans-74" transform="translate(1133.574219 0.125)"/>
      <use xlink:href="#DejaVuSans-6f" transform="translate(1172.783203 0.125)"/>
      <use xlink:href="#DejaVuSans-6d" transform="translate(1233.964844 0.125)"/>
      <use xlink:href="#DejaVuSans-73" transform="translate(1331.376953 0.125)"/>
      <use xlink:href="#DejaVuSans-29" transform="translate(1383.476562 0.125)"/>
     </g>
    </g>
   </g>
  </g>
 </g>
 <defs>
  <clipPath id="pdd3915b75c">
   <rect x="35.937331" y="10.8" width="665.612669" height="252.1"/>
  </clipPath>
 </defs>
</svg>
