<?xml version="1.0" encoding="utf-8" standalone="no"?>
<!DOCTYPE svg PUBLIC "-//W3C//DTD SVG 1.1//EN"
  "http://www.w3.org/Graphics/SVG/1.1/DTD/svg11.dtd">
<svg xmlns:xlink="http://www.w3.org/1999/xlink" width="720pt" height="288pt" viewBox="0 0 720 288" xmlns="http://www.w3.org/2000/svg" version="1.1">
 <metadata>
  <rdf:RDF xmlns:dc="http://purl.org/dc/elements/1.1/" xmlns:cc="http://creativecommons.org/ns#" xmlns:rdf="http://www.w3.org/1999/02/22-rdf-syntax-ns#">
   <cc:Work>
    <dc:type rdf:resource="http://purl.org/dc/dcmitype/StillImage"/>
    <dc:date>2023-03-25T15:43:11.795080</dc:date>
    <dc:format>image/svg+xml</dc:format>
    <dc:creator>
     <cc:Agent>
      <dc:title>Matplotlib v3.7.1, https://matplotlib.org/</dc:title>
     </cc:Agent>
    </dc:creator>
   </cc:Work>
  </rdf:RDF>
 </metadata>
 <defs>
  <style type="text/css">*{stroke-linejoin: round; stroke-linecap: butt}</style>
 </defs>
 <g id="figure_1">
  <g id="patch_1">
   <path d="M 0 288 
L 720 288 
L 720 0 
L 0 0 
z
" style="fill: #ffffff"/>
  </g>
  <g id="axes_1">
   <g id="patch_2">
    <path d="M 35.937331 262.9 
L 701.55 262.9 
L 701.55 10.8 
L 35.937331 10.8 
z
" style="fill: #ffffff"/>
   </g>
   <g id="PolyCollection_1">
    <path d="M 38.451867 262.945789 
L 38.451867 174.12573 
L 45.995478 106.59517 
L 53.539088 60.283382 
L 61.082698 56.409141 
L 68.626308 68.559184 
L 76.169919 112.757796 
L 83.713529 162.33628 
L 91.257139 222.674512 
L 98.800749 256.961524 
L 106.34436 239.146096 
L 113.88797 198.172354 
L 121.43158 110.881984 
L 128.97519 50.180041 
L 136.518801 42.654951 
L 144.062411 41.131097 
L 151.606021 51.609712 
L 159.149631 57.94373 
L 166.693242 55.988554 
L 174.236852 70.228315 
L 181.780462 116.857948 
L 189.324072 143.229204 
L 196.867683 129.083705 
L 204.411293 109.241651 
L 211.954903 78.006487 
L 219.498513 52.379217 
L 227.042124 37.967734 
L 234.585734 30.993368 
L 242.129344 38.893234 
L 249.672954 42.534271 
L 257.216565 37.657652 
L 264.760175 33.959338 
L 272.303785 32.617637 
L 279.847395 34.618093 
L 287.391006 43.302866 
L 294.934616 47.388734 
L 302.478226 42.276792 
L 310.021837 36.268705 
L 317.565447 28.46833 
L 325.109057 23.799057 
L 332.652667 25.391987 
L 340.196278 29.45963 
L 347.739888 38.4767 
L 355.283498 43.265425 
L 362.827108 39.597461 
L 370.370719 36.909705 
L 377.914329 36.182364 
L 385.457939 36.486081 
L 393.001549 38.851914 
L 400.54516 37.826254 
L 408.08877 30.017605 
L 415.63238 24.358852 
L 423.17599 22.999887 
L 430.719601 21.554593 
L 438.263211 19.936639 
L 445.806821 22.537422 
L 453.350431 33.575676 
L 460.894042 39.741602 
L 468.437652 36.162871 
L 475.981262 33.654834 
L 483.524872 33.288185 
L 491.068483 30.081363 
L 498.612093 21.194193 
L 506.155703 17.15727 
L 513.699313 22.820841 
L 521.242924 26.615519 
L 528.786534 26.672411 
L 536.330144 26.787958 
L 543.873754 27.020816 
L 551.417365 28.900262 
L 558.960975 34.072884 
L 566.504585 35.420176 
L 574.048195 29.116811 
L 581.591806 23.348776 
L 589.135416 18.651398 
L 596.679026 15.086433 
L 604.222636 13.786295 
L 611.766247 15.013754 
L 619.309857 21.296408 
L 626.853467 25.184891 
L 634.397077 24.285032 
L 641.940688 24.175084 
L 649.484298 25.644956 
L 657.027908 27.422969 
L 664.571518 29.817263 
L 672.115129 28.286807 
L 679.658739 18.906852 
L 687.202349 13.570965 
L 694.745959 16.323211 
L 702.28957 18.504845 
L 709.83318 19.545256 
L 717.37679 21.88082 
L 724.9204 26.806689 
L 732.464011 27.444062 
L 740.007621 19.504443 
L 747.551231 15.20688 
L 755.094841 18.19343 
L 762.638452 34.06617 
L 770.182062 75.711293 
L 777.725672 130.04559 
L 785.269282 209.758236 
L 785.269282 262.945789 
L 785.269282 262.945789 
L 777.725672 262.945789 
L 770.182062 262.945789 
L 762.638452 262.945789 
L 755.094841 262.945789 
L 747.551231 262.945789 
L 740.007621 262.945789 
L 732.464011 262.945789 
L 724.9204 262.945789 
L 717.37679 262.945789 
L 709.83318 262.945789 
L 702.28957 262.945789 
L 694.745959 262.945789 
L 687.202349 262.945789 
L 679.658739 262.945789 
L 672.115129 262.945789 
L 664.571518 262.945789 
L 657.027908 262.945789 
L 649.484298 262.945789 
L 641.940688 262.945789 
L 634.397077 262.945789 
L 626.853467 262.945789 
L 619.309857 262.945789 
L 611.766247 262.945789 
L 604.222636 262.945789 
L 596.679026 262.945789 
L 589.135416 262.945789 
L 581.591806 262.945789 
L 574.048195 262.945789 
L 566.504585 262.945789 
L 558.960975 262.945789 
L 551.417365 262.945789 
L 543.873754 262.945789 
L 536.330144 262.945789 
L 528.786534 262.945789 
L 521.242924 262.945789 
L 513.699313 262.945789 
L 506.155703 262.945789 
L 498.612093 262.945789 
L 491.068483 262.945789 
L 483.524872 262.945789 
L 475.981262 262.945789 
L 468.437652 262.945789 
L 460.894042 262.945789 
L 453.350431 262.945789 
L 445.806821 262.945789 
L 438.263211 262.945789 
L 430.719601 262.945789 
L 423.17599 262.945789 
L 415.63238 262.945789 
L 408.08877 262.945789 
L 400.54516 262.945789 
L 393.001549 262.945789 
L 385.457939 262.945789 
L 377.914329 262.945789 
L 370.370719 262.945789 
L 362.827108 262.945789 
L 355.283498 262.945789 
L 347.739888 262.945789 
L 340.196278 262.945789 
L 332.652667 262.945789 
L 325.109057 262.945789 
L 317.565447 262.945789 
L 310.021837 262.945789 
L 302.478226 262.945789 
L 294.934616 262.945789 
L 287.391006 262.945789 
L 279.847395 262.945789 
L 272.303785 262.945789 
L 264.760175 262.945789 
L 257.216565 262.945789 
L 249.672954 262.945789 
L 242.129344 262.945789 
L 234.585734 262.945789 
L 227.042124 262.945789 
L 219.498513 262.945789 
L 211.954903 262.945789 
L 204.411293 262.945789 
L 196.867683 262.945789 
L 189.324072 262.945789 
L 181.780462 262.945789 
L 174.236852 262.945789 
L 166.693242 262.945789 
L 159.149631 262.945789 
L 151.606021 262.945789 
L 144.062411 262.945789 
L 136.518801 262.945789 
L 128.97519 262.945789 
L 121.43158 262.945789 
L 113.88797 262.945789 
L 106.34436 262.945789 
L 98.800749 262.945789 
L 91.257139 262.945789 
L 83.713529 262.945789 
L 76.169919 262.945789 
L 68.626308 262.945789 
L 61.082698 262.945789 
L 53.539088 262.945789 
L 45.995478 262.945789 
L 38.451867 262.945789 
z
" clip-path="url(#paa9b4da9d0)" style="fill: #808080; fill-opacity: 0.5"/>
   </g>
   <g id="matplotlib.axis_1">
    <g id="xtick_1">
     <g id="line2d_1">
      <defs>
       <path id="m100fc4ffd3" d="M 0 0 
L 0 -3.5 
" style="stroke: #000000; stroke-width: 0.8"/>
      </defs>
      <g>
       <use xlink:href="#m100fc4ffd3" x="35.937331" y="262.9" style="stroke: #000000; stroke-width: 0.8"/>
      </g>
     </g>
     <g id="text_1">
      <!-- 1 -->
      <g transform="translate(32.119831 275.518125) scale(0.12 -0.12)">
       <defs>
        <path id="DejaVuSans-31" d="M 794 531 
L 1825 531 
L 1825 4091 
L 703 3866 
L 703 4441 
L 1819 4666 
L 2450 4666 
L 2450 531 
L 3481 531 
L 3481 0 
L 794 0 
L 794 531 
z
" transform="scale(0.015625)"/>
       </defs>
       <use xlink:href="#DejaVuSans-31"/>
      </g>
     </g>
    </g>
    <g id="xtick_2">
     <g id="line2d_2">
      <g>
       <use xlink:href="#m100fc4ffd3" x="109.894294" y="262.9" style="stroke: #000000; stroke-width: 0.8"/>
      </g>
     </g>
     <g id="text_2">
      <!-- 2 -->
      <g transform="translate(106.076794 275.518125) scale(0.12 -0.12)">
       <defs>
        <path id="DejaVuSans-32" d="M 1228 531 
L 3431 531 
L 3431 0 
L 469 0 
L 469 531 
Q 828 903 1448 1529 
Q 2069 2156 2228 2338 
Q 2531 2678 2651 2914 
Q 2772 3150 2772 3378 
Q 2772 3750 2511 3984 
Q 2250 4219 1831 4219 
Q 1534 4219 1204 4116 
Q 875 4013 500 3803 
L 500 4441 
Q 881 4594 1212 4672 
Q 1544 4750 1819 4750 
Q 2544 4750 2975 4387 
Q 3406 4025 3406 3419 
Q 3406 3131 3298 2873 
Q 3191 2616 2906 2266 
Q 2828 2175 2409 1742 
Q 1991 1309 1228 531 
z
" transform="scale(0.015625)"/>
       </defs>
       <use xlink:href="#DejaVuSans-32"/>
      </g>
     </g>
    </g>
    <g id="xtick_3">
     <g id="line2d_3">
      <g>
       <use xlink:href="#m100fc4ffd3" x="183.851257" y="262.9" style="stroke: #000000; stroke-width: 0.8"/>
      </g>
     </g>
     <g id="text_3">
      <!-- 3 -->
      <g transform="translate(180.033757 275.518125) scale(0.12 -0.12)">
       <defs>
        <path id="DejaVuSans-33" d="M 2597 2516 
Q 3050 2419 3304 2112 
Q 3559 1806 3559 1356 
Q 3559 666 3084 287 
Q 2609 -91 1734 -91 
Q 1441 -91 1130 -33 
Q 819 25 488 141 
L 488 750 
Q 750 597 1062 519 
Q 1375 441 1716 441 
Q 2309 441 2620 675 
Q 2931 909 2931 1356 
Q 2931 1769 2642 2001 
Q 2353 2234 1838 2234 
L 1294 2234 
L 1294 2753 
L 1863 2753 
Q 2328 2753 2575 2939 
Q 2822 3125 2822 3475 
Q 2822 3834 2567 4026 
Q 2313 4219 1838 4219 
Q 1578 4219 1281 4162 
Q 984 4106 628 3988 
L 628 4550 
Q 988 4650 1302 4700 
Q 1616 4750 1894 4750 
Q 2613 4750 3031 4423 
Q 3450 4097 3450 3541 
Q 3450 3153 3228 2886 
Q 3006 2619 2597 2516 
z
" transform="scale(0.015625)"/>
       </defs>
       <use xlink:href="#DejaVuSans-33"/>
      </g>
     </g>
    </g>
    <g id="xtick_4">
     <g id="line2d_4">
      <g>
       <use xlink:href="#m100fc4ffd3" x="257.80822" y="262.9" style="stroke: #000000; stroke-width: 0.8"/>
      </g>
     </g>
     <g id="text_4">
      <!-- 4 -->
      <g transform="translate(253.99072 275.518125) scale(0.12 -0.12)">
       <defs>
        <path id="DejaVuSans-34" d="M 2419 4116 
L 825 1625 
L 2419 1625 
L 2419 4116 
z
M 2253 4666 
L 3047 4666 
L 3047 1625 
L 3713 1625 
L 3713 1100 
L 3047 1100 
L 3047 0 
L 2419 0 
L 2419 1100 
L 313 1100 
L 313 1709 
L 2253 4666 
z
" transform="scale(0.015625)"/>
       </defs>
       <use xlink:href="#DejaVuSans-34"/>
      </g>
     </g>
    </g>
    <g id="xtick_5">
     <g id="line2d_5">
      <g>
       <use xlink:href="#m100fc4ffd3" x="331.765184" y="262.9" style="stroke: #000000; stroke-width: 0.8"/>
      </g>
     </g>
     <g id="text_5">
      <!-- 5 -->
      <g transform="translate(327.947684 275.518125) scale(0.12 -0.12)">
       <defs>
        <path id="DejaVuSans-35" d="M 691 4666 
L 3169 4666 
L 3169 4134 
L 1269 4134 
L 1269 2991 
Q 1406 3038 1543 3061 
Q 1681 3084 1819 3084 
Q 2600 3084 3056 2656 
Q 3513 2228 3513 1497 
Q 3513 744 3044 326 
Q 2575 -91 1722 -91 
Q 1428 -91 1123 -41 
Q 819 9 494 109 
L 494 744 
Q 775 591 1075 516 
Q 1375 441 1709 441 
Q 2250 441 2565 725 
Q 2881 1009 2881 1497 
Q 2881 1984 2565 2268 
Q 2250 2553 1709 2553 
Q 1456 2553 1204 2497 
Q 953 2441 691 2322 
L 691 4666 
z
" transform="scale(0.015625)"/>
       </defs>
       <use xlink:href="#DejaVuSans-35"/>
      </g>
     </g>
    </g>
    <g id="xtick_6">
     <g id="line2d_6">
      <g>
       <use xlink:href="#m100fc4ffd3" x="405.722147" y="262.9" style="stroke: #000000; stroke-width: 0.8"/>
      </g>
     </g>
     <g id="text_6">
      <!-- 6 -->
      <g transform="translate(401.904647 275.518125) scale(0.12 -0.12)">
       <defs>
        <path id="DejaVuSans-36" d="M 2113 2584 
Q 1688 2584 1439 2293 
Q 1191 2003 1191 1497 
Q 1191 994 1439 701 
Q 1688 409 2113 409 
Q 2538 409 2786 701 
Q 3034 994 3034 1497 
Q 3034 2003 2786 2293 
Q 2538 2584 2113 2584 
z
M 3366 4563 
L 3366 3988 
Q 3128 4100 2886 4159 
Q 2644 4219 2406 4219 
Q 1781 4219 1451 3797 
Q 1122 3375 1075 2522 
Q 1259 2794 1537 2939 
Q 1816 3084 2150 3084 
Q 2853 3084 3261 2657 
Q 3669 2231 3669 1497 
Q 3669 778 3244 343 
Q 2819 -91 2113 -91 
Q 1303 -91 875 529 
Q 447 1150 447 2328 
Q 447 3434 972 4092 
Q 1497 4750 2381 4750 
Q 2619 4750 2861 4703 
Q 3103 4656 3366 4563 
z
" transform="scale(0.015625)"/>
       </defs>
       <use xlink:href="#DejaVuSans-36"/>
      </g>
     </g>
    </g>
    <g id="xtick_7">
     <g id="line2d_7">
      <g>
       <use xlink:href="#m100fc4ffd3" x="479.67911" y="262.9" style="stroke: #000000; stroke-width: 0.8"/>
      </g>
     </g>
     <g id="text_7">
      <!-- 7 -->
      <g transform="translate(475.86161 275.518125) scale(0.12 -0.12)">
       <defs>
        <path id="DejaVuSans-37" d="M 525 4666 
L 3525 4666 
L 3525 4397 
L 1831 0 
L 1172 0 
L 2766 4134 
L 525 4134 
L 525 4666 
z
" transform="scale(0.015625)"/>
       </defs>
       <use xlink:href="#DejaVuSans-37"/>
      </g>
     </g>
    </g>
    <g id="xtick_8">
     <g id="line2d_8">
      <g>
       <use xlink:href="#m100fc4ffd3" x="553.636073" y="262.9" style="stroke: #000000; stroke-width: 0.8"/>
      </g>
     </g>
     <g id="text_8">
      <!-- 8 -->
      <g transform="translate(549.818573 275.518125) scale(0.12 -0.12)">
       <defs>
        <path id="DejaVuSans-38" d="M 2034 2216 
Q 1584 2216 1326 1975 
Q 1069 1734 1069 1313 
Q 1069 891 1326 650 
Q 1584 409 2034 409 
Q 2484 409 2743 651 
Q 3003 894 3003 1313 
Q 3003 1734 2745 1975 
Q 2488 2216 2034 2216 
z
M 1403 2484 
Q 997 2584 770 2862 
Q 544 3141 544 3541 
Q 544 4100 942 4425 
Q 1341 4750 2034 4750 
Q 2731 4750 3128 4425 
Q 3525 4100 3525 3541 
Q 3525 3141 3298 2862 
Q 3072 2584 2669 2484 
Q 3125 2378 3379 2068 
Q 3634 1759 3634 1313 
Q 3634 634 3220 271 
Q 2806 -91 2034 -91 
Q 1263 -91 848 271 
Q 434 634 434 1313 
Q 434 1759 690 2068 
Q 947 2378 1403 2484 
z
M 1172 3481 
Q 1172 3119 1398 2916 
Q 1625 2713 2034 2713 
Q 2441 2713 2670 2916 
Q 2900 3119 2900 3481 
Q 2900 3844 2670 4047 
Q 2441 4250 2034 4250 
Q 1625 4250 1398 4047 
Q 1172 3844 1172 3481 
z
" transform="scale(0.015625)"/>
       </defs>
       <use xlink:href="#DejaVuSans-38"/>
      </g>
     </g>
    </g>
    <g id="xtick_9">
     <g id="line2d_9">
      <g>
       <use xlink:href="#m100fc4ffd3" x="627.593037" y="262.9" style="stroke: #000000; stroke-width: 0.8"/>
      </g>
     </g>
     <g id="text_9">
      <!-- 9 -->
      <g transform="translate(623.775537 275.518125) scale(0.12 -0.12)">
       <defs>
        <path id="DejaVuSans-39" d="M 703 97 
L 703 672 
Q 941 559 1184 500 
Q 1428 441 1663 441 
Q 2288 441 2617 861 
Q 2947 1281 2994 2138 
Q 2813 1869 2534 1725 
Q 2256 1581 1919 1581 
Q 1219 1581 811 2004 
Q 403 2428 403 3163 
Q 403 3881 828 4315 
Q 1253 4750 1959 4750 
Q 2769 4750 3195 4129 
Q 3622 3509 3622 2328 
Q 3622 1225 3098 567 
Q 2575 -91 1691 -91 
Q 1453 -91 1209 -44 
Q 966 3 703 97 
z
M 1959 2075 
Q 2384 2075 2632 2365 
Q 2881 2656 2881 3163 
Q 2881 3666 2632 3958 
Q 2384 4250 1959 4250 
Q 1534 4250 1286 3958 
Q 1038 3666 1038 3163 
Q 1038 2656 1286 2365 
Q 1534 2075 1959 2075 
z
" transform="scale(0.015625)"/>
       </defs>
       <use xlink:href="#DejaVuSans-39"/>
      </g>
     </g>
    </g>
    <g id="xtick_10">
     <g id="line2d_10">
      <g>
       <use xlink:href="#m100fc4ffd3" x="701.55" y="262.9" style="stroke: #000000; stroke-width: 0.8"/>
      </g>
     </g>
     <g id="text_10">
      <!-- 10 -->
      <g transform="translate(693.915 275.518125) scale(0.12 -0.12)">
       <defs>
        <path id="DejaVuSans-30" d="M 2034 4250 
Q 1547 4250 1301 3770 
Q 1056 3291 1056 2328 
Q 1056 1369 1301 889 
Q 1547 409 2034 409 
Q 2525 409 2770 889 
Q 3016 1369 3016 2328 
Q 3016 3291 2770 3770 
Q 2525 4250 2034 4250 
z
M 2034 4750 
Q 2819 4750 3233 4129 
Q 3647 3509 3647 2328 
Q 3647 1150 3233 529 
Q 2819 -91 2034 -91 
Q 1250 -91 836 529 
Q 422 1150 422 2328 
Q 422 3509 836 4129 
Q 1250 4750 2034 4750 
z
" transform="scale(0.015625)"/>
       </defs>
       <use xlink:href="#DejaVuSans-31"/>
       <use xlink:href="#DejaVuSans-30" x="63.623047"/>
      </g>
     </g>
    </g>
   </g>
   <g id="matplotlib.axis_2">
    <g id="ytick_1">
     <g id="line2d_11">
      <defs>
       <path id="m55bf44db9a" d="M 0 0 
L 3.5 0 
" style="stroke: #000000; stroke-width: 0.8"/>
      </defs>
      <g>
       <use xlink:href="#m55bf44db9a" x="35.937331" y="262.9" style="stroke: #000000; stroke-width: 0.8"/>
      </g>
     </g>
     <g id="text_11">
      <!-- $10^{0}$ -->
      <g transform="translate(11.317331 267.459063) scale(0.12 -0.12)">
       <use xlink:href="#DejaVuSans-31" transform="translate(0 0.765625)"/>
       <use xlink:href="#DejaVuSans-30" transform="translate(63.623047 0.765625)"/>
       <use xlink:href="#DejaVuSans-30" transform="translate(128.203125 39.046875) scale(0.7)"/>
      </g>
     </g>
    </g>
    <g id="ytick_2">
     <g id="line2d_12">
      <g>
       <use xlink:href="#m55bf44db9a" x="35.937331" y="217.110887" style="stroke: #000000; stroke-width: 0.8"/>
      </g>
     </g>
     <g id="text_12">
      <!-- $10^{1}$ -->
      <g transform="translate(11.317331 221.669949) scale(0.12 -0.12)">
       <use xlink:href="#DejaVuSans-31" transform="translate(0 0.684375)"/>
       <use xlink:href="#DejaVuSans-30" transform="translate(63.623047 0.684375)"/>
       <use xlink:href="#DejaVuSans-31" transform="translate(128.203125 38.965625) scale(0.7)"/>
      </g>
     </g>
    </g>
    <g id="ytick_3">
     <g id="line2d_13">
      <g>
       <use xlink:href="#m55bf44db9a" x="35.937331" y="171.321774" style="stroke: #000000; stroke-width: 0.8"/>
      </g>
     </g>
     <g id="text_13">
      <!-- $10^{2}$ -->
      <g transform="translate(11.317331 175.880836) scale(0.12 -0.12)">
       <use xlink:href="#DejaVuSans-31" transform="translate(0 0.765625)"/>
       <use xlink:href="#DejaVuSans-30" transform="translate(63.623047 0.765625)"/>
       <use xlink:href="#DejaVuSans-32" transform="translate(128.203125 39.046875) scale(0.7)"/>
      </g>
     </g>
    </g>
    <g id="ytick_4">
     <g id="line2d_14">
      <g>
       <use xlink:href="#m55bf44db9a" x="35.937331" y="125.532661" style="stroke: #000000; stroke-width: 0.8"/>
      </g>
     </g>
     <g id="text_14">
      <!-- $10^{3}$ -->
      <g transform="translate(11.317331 130.091723) scale(0.12 -0.12)">
       <use xlink:href="#DejaVuSans-31" transform="translate(0 0.765625)"/>
       <use xlink:href="#DejaVuSans-30" transform="translate(63.623047 0.765625)"/>
       <use xlink:href="#DejaVuSans-33" transform="translate(128.203125 39.046875) scale(0.7)"/>
      </g>
     </g>
    </g>
    <g id="ytick_5">
     <g id="line2d_15">
      <g>
       <use xlink:href="#m55bf44db9a" x="35.937331" y="79.743548" style="stroke: #000000; stroke-width: 0.8"/>
      </g>
     </g>
     <g id="text_15">
      <!-- $10^{4}$ -->
      <g transform="translate(11.317331 84.30261) scale(0.12 -0.12)">
       <use xlink:href="#DejaVuSans-31" transform="translate(0 0.684375)"/>
       <use xlink:href="#DejaVuSans-30" transform="translate(63.623047 0.684375)"/>
       <use xlink:href="#DejaVuSans-34" transform="translate(128.203125 38.965625) scale(0.7)"/>
      </g>
     </g>
    </g>
    <g id="ytick_6">
     <g id="line2d_16">
      <g>
       <use xlink:href="#m55bf44db9a" x="35.937331" y="33.954434" style="stroke: #000000; stroke-width: 0.8"/>
      </g>
     </g>
     <g id="text_16">
      <!-- $10^{5}$ -->
      <g transform="translate(11.317331 38.513497) scale(0.12 -0.12)">
       <use xlink:href="#DejaVuSans-31" transform="translate(0 0.684375)"/>
       <use xlink:href="#DejaVuSans-30" transform="translate(63.623047 0.684375)"/>
       <use xlink:href="#DejaVuSans-35" transform="translate(128.203125 38.965625) scale(0.7)"/>
      </g>
     </g>
    </g>
   </g>
   <g id="line2d_17">
    <path d="M 38.451867 262.9 
L 45.995478 262.9 
L 53.539088 248.214826 
L 61.082698 204.159305 
L 68.626308 189.474132 
L 76.169919 233.529653 
L 83.713529 262.9 
L 91.257139 262.9 
L 98.800749 262.9 
L 106.34436 262.9 
L 113.88797 262.9 
L 121.43158 262.9 
L 128.97519 245.91751 
L 136.518801 194.970041 
L 144.062411 177.987551 
L 151.606021 228.935021 
L 159.149631 248.214826 
L 166.693242 204.159305 
L 174.236852 189.474132 
L 181.780462 233.529653 
L 189.324072 262.9 
L 196.867683 262.9 
L 204.411293 258.305368 
L 211.954903 244.521471 
L 219.498513 222.111411 
L 227.042124 182.449024 
L 234.585734 160.992437 
L 242.129344 175.947448 
L 249.672954 185.177884 
L 257.216565 182.959172 
L 264.760175 176.885399 
L 272.303785 163.101503 
L 279.847395 158.50687 
L 287.391006 172.290767 
L 294.934616 182.219602 
L 302.478226 184.438314 
L 310.021837 180.267363 
L 317.565447 163.317088 
L 325.109057 152.502796 
L 332.652667 153.960471 
L 340.196278 158.752611 
L 347.739888 170.21368 
L 355.283498 177.343487 
L 362.827108 175.810769 
L 370.370719 173.290932 
L 377.914329 168.796853 
L 385.457939 166.85626 
L 393.001549 170.022639 
L 400.54516 168.780783 
L 408.08877 158.722455 
L 415.63238 155.812246 
L 423.17599 167.198273 
L 430.719601 169.550829 
L 438.263211 153.836444 
L 445.806821 147.416178 
L 453.350431 159.584152 
L 460.894042 168.045334 
L 468.437652 169.092931 
L 475.981262 168.57257 
L 483.524872 164.91629 
L 491.068483 160.446741 
L 498.612093 154.350656 
L 506.155703 150.574983 
L 513.699313 151.440136 
L 521.242924 151.593222 
L 528.786534 150.322178 
L 536.330144 153.251272 
L 543.873754 164.580644 
L 551.417365 172.133558 
L 558.960975 172.133558 
L 566.504585 168.633455 
L 574.048195 158.133145 
L 581.591806 150.726594 
L 589.135416 149.507561 
L 596.679026 147.437121 
L 604.222636 143.663863 
L 611.766247 145.572987 
L 619.309857 158.846876 
L 626.853467 164.935602 
L 634.397077 156.654004 
L 641.940688 155.586514 
L 649.484298 168.947241 
L 657.027908 174.213232 
L 664.571518 163.289753 
L 672.115129 153.199211 
L 679.658739 144.774546 
L 687.202349 142.799262 
L 694.745959 153.722742 
L 702.28957 159.507035 
L 709.83318 155.012956 
L 717.37679 153.072364 
L 721 154.593181 
" clip-path="url(#paa9b4da9d0)" style="fill: none; stroke: #ff0000; stroke-width: 1.2; stroke-linecap: square"/>
   </g>
   <g id="line2d_18">
    <path d="M 38.451867 262.9 
L 45.995478 262.9 
L 53.539088 231.001042 
L 61.082698 135.304169 
L 68.626308 103.405212 
L 76.169919 199.102085 
L 83.713529 262.9 
L 91.257139 262.9 
L 98.800749 262.9 
L 106.34436 262.9 
L 113.88797 262.9 
L 121.43158 262.9 
L 128.97519 228.703726 
L 136.518801 126.114905 
L 144.062411 91.918631 
L 151.606021 194.507452 
L 159.149631 231.001042 
L 166.693242 135.304169 
L 174.236852 103.405212 
L 181.780462 199.102085 
L 189.324072 262.9 
L 196.867683 262.9 
L 204.411293 238.523122 
L 211.954903 165.392488 
L 219.498513 105.940287 
L 227.042124 73.84495 
L 234.585734 57.087343 
L 242.129344 71.005195 
L 249.672954 80.108656 
L 257.216565 79.583334 
L 264.760175 74.646249 
L 272.303785 60.885639 
L 279.847395 55.98817 
L 287.391006 68.816984 
L 294.934616 77.251641 
L 302.478226 76.897983 
L 310.021837 72.388325 
L 317.565447 59.566669 
L 325.109057 50.976023 
L 332.652667 50.8474 
L 340.196278 54.659775 
L 347.739888 66.354146 
L 355.283498 74.017979 
L 362.827108 73.620736 
L 370.370719 70.84902 
L 377.914329 63.328355 
L 385.457939 60.622744 
L 393.001549 67.547239 
L 400.54516 68.410229 
L 408.08877 57.15021 
L 415.63238 53.181271 
L 423.17599 63.794493 
L 430.719601 65.59536 
L 438.263211 49.771521 
L 445.806821 44.284915 
L 453.350431 59.472779 
L 460.894042 69.453186 
L 468.437652 69.018681 
L 475.981262 66.618583 
L 483.524872 60.287298 
L 491.068483 54.784026 
L 498.612093 50.936776 
L 506.155703 48.331135 
L 513.699313 48.208713 
L 521.242924 48.098025 
L 528.786534 48.010806 
L 536.330144 51.025521 
L 543.873754 60.244106 
L 551.417365 66.272055 
L 558.960975 65.918729 
L 566.504585 62.636109 
L 574.048195 53.494903 
L 581.591806 47.342624 
L 589.135416 47.168202 
L 596.679026 45.525444 
L 604.222636 40.946015 
L 611.766247 42.214213 
L 619.309857 55.177662 
L 626.853467 60.944067 
L 634.397077 52.316384 
L 641.940688 49.312629 
L 649.484298 57.556731 
L 657.027908 62.956283 
L 664.571518 62.666735 
L 672.115129 57.726596 
L 679.658739 43.485273 
L 687.202349 38.616916 
L 694.745959 52.494491 
L 702.28957 59.057804 
L 709.83318 50.992597 
L 717.37679 48.187224 
L 721 51.892416 
" clip-path="url(#paa9b4da9d0)" style="fill: none; stroke: #008000; stroke-width: 1.2; stroke-linecap: square"/>
   </g>
   <g id="line2d_19">
    <path d="M 38.451867 262.9 
L 45.995478 262.9 
L 53.539088 228.367827 
L 61.082698 124.771307 
L 68.626308 90.239134 
L 76.169919 193.835654 
L 83.713529 262.9 
L 91.257139 262.9 
L 98.800749 262.9 
L 106.34436 262.9 
L 113.88797 262.9 
L 121.43158 262.9 
L 128.97519 226.070511 
L 136.518801 115.582043 
L 144.062411 78.752554 
L 151.606021 189.241021 
L 159.149631 228.367827 
L 166.693242 124.771307 
L 174.236852 90.239134 
L 181.780462 193.835654 
L 189.324072 262.9 
L 196.867683 262.9 
L 204.411293 235.914544 
L 211.954903 154.958175 
L 219.498513 90.259813 
L 227.042124 58.077464 
L 234.585734 41.277322 
L 242.129344 55.241592 
L 249.672954 64.397259 
L 257.216565 63.935722 
L 264.760175 59.003907 
L 272.303785 45.131534 
L 279.847395 40.174521 
L 287.391006 53.04823 
L 294.934616 61.502066 
L 302.478226 61.116156 
L 310.021837 56.577487 
L 317.565447 43.733298 
L 325.109057 35.136016 
L 332.652667 35.032548 
L 340.196278 38.8658 
L 347.739888 50.572493 
L 355.283498 58.257796 
L 362.827108 57.900317 
L 370.370719 55.138288 
L 377.914329 47.567161 
L 385.457939 44.806673 
L 393.001549 51.667467 
L 400.54516 52.508338 
L 408.08877 41.309365 
L 415.63238 37.364913 
L 423.17599 47.929503 
L 430.719601 49.712426 
L 438.263211 33.932016 
L 445.806821 28.46772 
L 453.350431 43.635651 
L 460.894042 53.65633 
L 468.437652 53.382507 
L 475.981262 51.045428 
L 483.524872 44.581839 
L 491.068483 38.987189 
L 498.612093 35.130415 
L 506.155703 32.525662 
L 513.699313 32.424953 
L 521.242924 32.319498 
L 528.786534 32.204549 
L 536.330144 35.179347 
L 543.873754 44.333641 
L 551.417365 50.367978 
L 558.960975 50.162403 
L 566.504585 46.943441 
L 574.048195 37.697702 
L 581.591806 31.503382 
L 589.135416 31.411896 
L 596.679026 29.8022 
L 604.222636 25.156085 
L 611.766247 26.375947 
L 619.309857 39.327765 
L 626.853467 45.106623 
L 634.397077 36.53956 
L 641.940688 33.544459 
L 649.484298 41.693281 
L 657.027908 47.070754 
L 664.571518 46.905531 
L 672.115129 42.026928 
L 679.658739 27.721566 
L 687.202349 22.804762 
L 694.745959 36.665074 
L 702.28957 43.240321 
L 709.83318 35.245437 
L 717.37679 32.439873 
L 721 36.077235 
" clip-path="url(#paa9b4da9d0)" style="fill: none; stroke: #0000ff; stroke-width: 1.2; stroke-linecap: square"/>
   </g>
   <g id="line2d_20">
    <path d="M 38.451867 174.12573 
L 45.995478 106.59517 
L 53.539088 60.283382 
L 61.082698 56.409141 
L 68.626308 68.559184 
L 76.169919 112.757796 
L 83.713529 162.33628 
L 91.257139 222.674512 
L 98.800749 256.961524 
L 106.34436 239.146096 
L 113.88797 198.172354 
L 121.43158 110.881984 
L 128.97519 50.180041 
L 136.518801 42.654951 
L 144.062411 41.131097 
L 151.606021 51.609712 
L 159.149631 57.94373 
L 166.693242 55.988554 
L 174.236852 70.228315 
L 181.780462 116.857948 
L 189.324072 143.229204 
L 196.867683 129.083705 
L 204.411293 109.241651 
L 211.954903 78.006487 
L 219.498513 52.379217 
L 227.042124 37.967734 
L 234.585734 30.993368 
L 242.129344 38.893234 
L 249.672954 42.534271 
L 257.216565 37.657652 
L 264.760175 33.959338 
L 272.303785 32.617637 
L 279.847395 34.618093 
L 287.391006 43.302866 
L 294.934616 47.388734 
L 302.478226 42.276792 
L 310.021837 36.268705 
L 317.565447 28.46833 
L 325.109057 23.799057 
L 332.652667 25.391987 
L 340.196278 29.45963 
L 347.739888 38.4767 
L 355.283498 43.265425 
L 362.827108 39.597461 
L 370.370719 36.909705 
L 377.914329 36.182364 
L 385.457939 36.486081 
L 393.001549 38.851914 
L 400.54516 37.826254 
L 408.08877 30.017605 
L 415.63238 24.358852 
L 423.17599 22.999887 
L 430.719601 21.554593 
L 438.263211 19.936639 
L 445.806821 22.537422 
L 453.350431 33.575676 
L 460.894042 39.741602 
L 468.437652 36.162871 
L 475.981262 33.654834 
L 483.524872 33.288185 
L 491.068483 30.081363 
L 498.612093 21.194193 
L 506.155703 17.15727 
L 513.699313 22.820841 
L 521.242924 26.615519 
L 528.786534 26.672411 
L 536.330144 26.787958 
L 543.873754 27.020816 
L 551.417365 28.900262 
L 558.960975 34.072884 
L 566.504585 35.420176 
L 574.048195 29.116811 
L 581.591806 23.348776 
L 589.135416 18.651398 
L 596.679026 15.086433 
L 604.222636 13.786295 
L 611.766247 15.013754 
L 619.309857 21.296408 
L 626.853467 25.184891 
L 634.397077 24.285032 
L 641.940688 24.175084 
L 649.484298 25.644956 
L 657.027908 27.422969 
L 664.571518 29.817263 
L 672.115129 28.286807 
L 679.658739 18.906852 
L 687.202349 13.570965 
L 694.745959 16.323211 
L 702.28957 18.504845 
L 709.83318 19.545256 
L 717.37679 21.88082 
L 721 24.246724 
" clip-path="url(#paa9b4da9d0)" style="fill: none; stroke: #808080; stroke-width: 1.5; stroke-linecap: square"/>
   </g>
   <g id="patch_3">
    <path d="M 35.937331 262.9 
L 35.937331 10.8 
" style="fill: none; stroke: #000000; stroke-width: 0.8; stroke-linejoin: miter; stroke-linecap: square"/>
   </g>
   <g id="patch_4">
    <path d="M 701.55 262.9 
L 701.55 10.8 
" style="fill: none; stroke: #000000; stroke-width: 0.8; stroke-linejoin: miter; stroke-linecap: square"/>
   </g>
   <g id="patch_5">
    <path d="M 35.937331 262.9 
L 701.55 262.9 
" style="fill: none; stroke: #000000; stroke-width: 0.8; stroke-linejoin: miter; stroke-linecap: square"/>
   </g>
   <g id="patch_6">
    <path d="M 35.937331 10.8 
L 701.55 10.8 
" style="fill: none; stroke: #000000; stroke-width: 0.8; stroke-linejoin: miter; stroke-linecap: square"/>
   </g>
   <g id="legend_1">
    <g id="patch_7">
     <path d="M 483.99 256.9 
L 693.15 256.9 
Q 695.55 256.9 695.55 254.5 
L 695.55 185.245 
Q 695.55 182.845 693.15 182.845 
L 483.99 182.845 
Q 481.59 182.845 481.59 185.245 
L 481.59 254.5 
Q 481.59 256.9 483.99 256.9 
z
" style="fill: #ffffff; opacity: 0.8; stroke: #cccccc; stroke-linejoin: miter"/>
    </g>
    <g id="line2d_21">
     <path d="M 486.39 192.563125 
L 498.39 192.563125 
L 510.39 192.563125 
" style="fill: none; stroke: #808080; stroke-width: 1.5; stroke-linecap: square"/>
    </g>
    <g id="text_17">
     <!-- dataset -->
     <g transform="translate(519.99 196.763125) scale(0.12 -0.12)">
      <defs>
       <path id="DejaVuSans-64" d="M 2906 2969 
L 2906 4863 
L 3481 4863 
L 3481 0 
L 2906 0 
L 2906 525 
Q 2725 213 2448 61 
Q 2172 -91 1784 -91 
Q 1150 -91 751 415 
Q 353 922 353 1747 
Q 353 2572 751 3078 
Q 1150 3584 1784 3584 
Q 2172 3584 2448 3432 
Q 2725 3281 2906 2969 
z
M 947 1747 
Q 947 1113 1208 752 
Q 1469 391 1925 391 
Q 2381 391 2643 752 
Q 2906 1113 2906 1747 
Q 2906 2381 2643 2742 
Q 2381 3103 1925 3103 
Q 1469 3103 1208 2742 
Q 947 2381 947 1747 
z
" transform="scale(0.015625)"/>
       <path id="DejaVuSans-61" d="M 2194 1759 
Q 1497 1759 1228 1600 
Q 959 1441 959 1056 
Q 959 750 1161 570 
Q 1363 391 1709 391 
Q 2188 391 2477 730 
Q 2766 1069 2766 1631 
L 2766 1759 
L 2194 1759 
z
M 3341 1997 
L 3341 0 
L 2766 0 
L 2766 531 
Q 2569 213 2275 61 
Q 1981 -91 1556 -91 
Q 1019 -91 701 211 
Q 384 513 384 1019 
Q 384 1609 779 1909 
Q 1175 2209 1959 2209 
L 2766 2209 
L 2766 2266 
Q 2766 2663 2505 2880 
Q 2244 3097 1772 3097 
Q 1472 3097 1187 3025 
Q 903 2953 641 2809 
L 641 3341 
Q 956 3463 1253 3523 
Q 1550 3584 1831 3584 
Q 2591 3584 2966 3190 
Q 3341 2797 3341 1997 
z
" transform="scale(0.015625)"/>
       <path id="DejaVuSans-74" d="M 1172 4494 
L 1172 3500 
L 2356 3500 
L 2356 3053 
L 1172 3053 
L 1172 1153 
Q 1172 725 1289 603 
Q 1406 481 1766 481 
L 2356 481 
L 2356 0 
L 1766 0 
Q 1100 0 847 248 
Q 594 497 594 1153 
L 594 3053 
L 172 3053 
L 172 3500 
L 594 3500 
L 594 4494 
L 1172 4494 
z
" transform="scale(0.015625)"/>
       <path id="DejaVuSans-73" d="M 2834 3397 
L 2834 2853 
Q 2591 2978 2328 3040 
Q 2066 3103 1784 3103 
Q 1356 3103 1142 2972 
Q 928 2841 928 2578 
Q 928 2378 1081 2264 
Q 1234 2150 1697 2047 
L 1894 2003 
Q 2506 1872 2764 1633 
Q 3022 1394 3022 966 
Q 3022 478 2636 193 
Q 2250 -91 1575 -91 
Q 1294 -91 989 -36 
Q 684 19 347 128 
L 347 722 
Q 666 556 975 473 
Q 1284 391 1588 391 
Q 1994 391 2212 530 
Q 2431 669 2431 922 
Q 2431 1156 2273 1281 
Q 2116 1406 1581 1522 
L 1381 1569 
Q 847 1681 609 1914 
Q 372 2147 372 2553 
Q 372 3047 722 3315 
Q 1072 3584 1716 3584 
Q 2034 3584 2315 3537 
Q 2597 3491 2834 3397 
z
" transform="scale(0.015625)"/>
       <path id="DejaVuSans-65" d="M 3597 1894 
L 3597 1613 
L 953 1613 
Q 991 1019 1311 708 
Q 1631 397 2203 397 
Q 2534 397 2845 478 
Q 3156 559 3463 722 
L 3463 178 
Q 3153 47 2828 -22 
Q 2503 -91 2169 -91 
Q 1331 -91 842 396 
Q 353 884 353 1716 
Q 353 2575 817 3079 
Q 1281 3584 2069 3584 
Q 2775 3584 3186 3129 
Q 3597 2675 3597 1894 
z
M 3022 2063 
Q 3016 2534 2758 2815 
Q 2500 3097 2075 3097 
Q 1594 3097 1305 2825 
Q 1016 2553 972 2059 
L 3022 2063 
z
" transform="scale(0.015625)"/>
      </defs>
      <use xlink:href="#DejaVuSans-64"/>
      <use xlink:href="#DejaVuSans-61" x="63.476562"/>
      <use xlink:href="#DejaVuSans-74" x="124.755859"/>
      <use xlink:href="#DejaVuSans-61" x="163.964844"/>
      <use xlink:href="#DejaVuSans-73" x="225.244141"/>
      <use xlink:href="#DejaVuSans-65" x="277.34375"/>
      <use xlink:href="#DejaVuSans-74" x="338.867188"/>
     </g>
    </g>
    <g id="line2d_22">
     <path d="M 486.39 210.176875 
L 498.39 210.176875 
L 510.39 210.176875 
" style="fill: none; stroke: #ff0000; stroke-width: 1.5; stroke-linecap: square"/>
    </g>
    <g id="text_18">
     <!-- 21.79$^\circ$ (2-1, 28 atoms) -->
     <g transform="translate(519.99 214.376875) scale(0.12 -0.12)">
      <defs>
       <path id="DejaVuSans-2e" d="M 684 794 
L 1344 794 
L 1344 0 
L 684 0 
L 684 794 
z
" transform="scale(0.015625)"/>
       <path id="DejaVuSans-2218" d="M 2003 2603 
Q 1753 2603 1581 2429 
Q 1409 2256 1409 2006 
Q 1409 1759 1581 1589 
Q 1753 1419 2003 1419 
Q 2253 1419 2425 1589 
Q 2597 1759 2597 2006 
Q 2597 2253 2423 2428 
Q 2250 2603 2003 2603 
z
M 2003 3006 
Q 2203 3006 2387 2929 
Q 2572 2853 2706 2709 
Q 2850 2569 2922 2390 
Q 2994 2212 2994 2006 
Q 2994 1594 2705 1308 
Q 2416 1022 1997 1022 
Q 1575 1022 1294 1303 
Q 1013 1584 1013 2006 
Q 1013 2425 1300 2715 
Q 1588 3006 2003 3006 
z
" transform="scale(0.015625)"/>
       <path id="DejaVuSans-20" transform="scale(0.015625)"/>
       <path id="DejaVuSans-28" d="M 1984 4856 
Q 1566 4138 1362 3434 
Q 1159 2731 1159 2009 
Q 1159 1288 1364 580 
Q 1569 -128 1984 -844 
L 1484 -844 
Q 1016 -109 783 600 
Q 550 1309 550 2009 
Q 550 2706 781 3412 
Q 1013 4119 1484 4856 
L 1984 4856 
z
" transform="scale(0.015625)"/>
       <path id="DejaVuSans-2d" d="M 313 2009 
L 1997 2009 
L 1997 1497 
L 313 1497 
L 313 2009 
z
" transform="scale(0.015625)"/>
       <path id="DejaVuSans-2c" d="M 750 794 
L 1409 794 
L 1409 256 
L 897 -744 
L 494 -744 
L 750 256 
L 750 794 
z
" transform="scale(0.015625)"/>
       <path id="DejaVuSans-6f" d="M 1959 3097 
Q 1497 3097 1228 2736 
Q 959 2375 959 1747 
Q 959 1119 1226 758 
Q 1494 397 1959 397 
Q 2419 397 2687 759 
Q 2956 1122 2956 1747 
Q 2956 2369 2687 2733 
Q 2419 3097 1959 3097 
z
M 1959 3584 
Q 2709 3584 3137 3096 
Q 3566 2609 3566 1747 
Q 3566 888 3137 398 
Q 2709 -91 1959 -91 
Q 1206 -91 779 398 
Q 353 888 353 1747 
Q 353 2609 779 3096 
Q 1206 3584 1959 3584 
z
" transform="scale(0.015625)"/>
       <path id="DejaVuSans-6d" d="M 3328 2828 
Q 3544 3216 3844 3400 
Q 4144 3584 4550 3584 
Q 5097 3584 5394 3201 
Q 5691 2819 5691 2113 
L 5691 0 
L 5113 0 
L 5113 2094 
Q 5113 2597 4934 2840 
Q 4756 3084 4391 3084 
Q 3944 3084 3684 2787 
Q 3425 2491 3425 1978 
L 3425 0 
L 2847 0 
L 2847 2094 
Q 2847 2600 2669 2842 
Q 2491 3084 2119 3084 
Q 1678 3084 1418 2786 
Q 1159 2488 1159 1978 
L 1159 0 
L 581 0 
L 581 3500 
L 1159 3500 
L 1159 2956 
Q 1356 3278 1631 3431 
Q 1906 3584 2284 3584 
Q 2666 3584 2933 3390 
Q 3200 3197 3328 2828 
z
" transform="scale(0.015625)"/>
       <path id="DejaVuSans-29" d="M 513 4856 
L 1013 4856 
Q 1481 4119 1714 3412 
Q 1947 2706 1947 2009 
Q 1947 1309 1714 600 
Q 1481 -109 1013 -844 
L 513 -844 
Q 928 -128 1133 580 
Q 1338 1288 1338 2009 
Q 1338 2731 1133 3434 
Q 928 4138 513 4856 
z
" transform="scale(0.015625)"/>
      </defs>
      <use xlink:href="#DejaVuSans-32" transform="translate(0 0.125)"/>
      <use xlink:href="#DejaVuSans-31" transform="translate(63.623047 0.125)"/>
      <use xlink:href="#DejaVuSans-2e" transform="translate(127.246094 0.125)"/>
      <use xlink:href="#DejaVuSans-37" transform="translate(151.283203 0.125)"/>
      <use xlink:href="#DejaVuSans-39" transform="translate(214.90625 0.125)"/>
      <use xlink:href="#DejaVuSans-2218" transform="translate(293.124023 38.40625) scale(0.7)"/>
      <use xlink:href="#DejaVuSans-20" transform="translate(353.314453 0.125)"/>
      <use xlink:href="#DejaVuSans-28" transform="translate(385.101562 0.125)"/>
      <use xlink:href="#DejaVuSans-32" transform="translate(424.115234 0.125)"/>
      <use xlink:href="#DejaVuSans-2d" transform="translate(487.738281 0.125)"/>
      <use xlink:href="#DejaVuSans-31" transform="translate(523.822266 0.125)"/>
      <use xlink:href="#DejaVuSans-2c" transform="translate(587.445312 0.125)"/>
      <use xlink:href="#DejaVuSans-20" transform="translate(619.232422 0.125)"/>
      <use xlink:href="#DejaVuSans-32" transform="translate(651.019531 0.125)"/>
      <use xlink:href="#DejaVuSans-38" transform="translate(714.642578 0.125)"/>
      <use xlink:href="#DejaVuSans-20" transform="translate(778.265625 0.125)"/>
      <use xlink:href="#DejaVuSans-61" transform="translate(810.052734 0.125)"/>
      <use xlink:href="#DejaVuSans-74" transform="translate(871.332031 0.125)"/>
      <use xlink:href="#DejaVuSans-6f" transform="translate(910.541016 0.125)"/>
      <use xlink:href="#DejaVuSans-6d" transform="translate(971.722656 0.125)"/>
      <use xlink:href="#DejaVuSans-73" transform="translate(1069.134766 0.125)"/>
      <use xlink:href="#DejaVuSans-29" transform="translate(1121.234375 0.125)"/>
     </g>
    </g>
    <g id="line2d_23">
     <path d="M 486.39 227.790625 
L 498.39 227.790625 
L 510.39 227.790625 
" style="fill: none; stroke: #008000; stroke-width: 1.5; stroke-linecap: square"/>
    </g>
    <g id="text_19">
     <!-- 1.61$^\circ$ (21-20, 5044 atoms) -->
     <g transform="translate(519.99 231.990625) scale(0.12 -0.12)">
      <use xlink:href="#DejaVuSans-31" transform="translate(0 0.125)"/>
      <use xlink:href="#DejaVuSans-2e" transform="translate(63.623047 0.125)"/>
      <use xlink:href="#DejaVuSans-36" transform="translate(95.410156 0.125)"/>
      <use xlink:href="#DejaVuSans-31" transform="translate(159.033203 0.125)"/>
      <use xlink:href="#DejaVuSans-2218" transform="translate(237.250977 38.40625) scale(0.7)"/>
      <use xlink:href="#DejaVuSans-20" transform="translate(297.441406 0.125)"/>
      <use xlink:href="#DejaVuSans-28" transform="translate(329.228516 0.125)"/>
      <use xlink:href="#DejaVuSans-32" transform="translate(368.242188 0.125)"/>
      <use xlink:href="#DejaVuSans-31" transform="translate(431.865234 0.125)"/>
      <use xlink:href="#DejaVuSans-2d" transform="translate(495.488281 0.125)"/>
      <use xlink:href="#DejaVuSans-32" transform="translate(531.572266 0.125)"/>
      <use xlink:href="#DejaVuSans-30" transform="translate(595.195312 0.125)"/>
      <use xlink:href="#DejaVuSans-2c" transform="translate(658.818359 0.125)"/>
      <use xlink:href="#DejaVuSans-20" transform="translate(690.605469 0.125)"/>
      <use xlink:href="#DejaVuSans-35" transform="translate(722.392578 0.125)"/>
      <use xlink:href="#DejaVuSans-30" transform="translate(786.015625 0.125)"/>
      <use xlink:href="#DejaVuSans-34" transform="translate(849.638672 0.125)"/>
      <use xlink:href="#DejaVuSans-34" transform="translate(913.261719 0.125)"/>
      <use xlink:href="#DejaVuSans-20" transform="translate(976.884766 0.125)"/>
      <use xlink:href="#DejaVuSans-61" transform="translate(1008.671875 0.125)"/>
      <use xlink:href="#DejaVuSans-74" transform="translate(1069.951172 0.125)"/>
      <use xlink:href="#DejaVuSans-6f" transform="translate(1109.160156 0.125)"/>
      <use xlink:href="#DejaVuSans-6d" transform="translate(1170.341797 0.125)"/>
      <use xlink:href="#DejaVuSans-73" transform="translate(1267.753906 0.125)"/>
      <use xlink:href="#DejaVuSans-29" transform="translate(1319.853516 0.125)"/>
     </g>
    </g>
    <g id="line2d_24">
     <path d="M 486.39 245.404375 
L 498.39 245.404375 
L 510.39 245.404375 
" style="fill: none; stroke: #0000ff; stroke-width: 1.5; stroke-linecap: square"/>
    </g>
    <g id="text_20">
     <!-- 1.08$^\circ$ (31-30, 11164 atoms) -->
     <g transform="translate(519.99 249.604375) scale(0.12 -0.12)">
      <use xlink:href="#DejaVuSans-31" transform="translate(0 0.125)"/>
      <use xlink:href="#DejaVuSans-2e" transform="translate(63.623047 0.125)"/>
      <use xlink:href="#DejaVuSans-30" transform="translate(95.410156 0.125)"/>
      <use xlink:href="#DejaVuSans-38" transform="translate(159.033203 0.125)"/>
      <use xlink:href="#DejaVuSans-2218" transform="translate(237.250977 38.40625) scale(0.7)"/>
      <use xlink:href="#DejaVuSans-20" transform="translate(297.441406 0.125)"/>
      <use xlink:href="#DejaVuSans-28" transform="translate(329.228516 0.125)"/>
      <use xlink:href="#DejaVuSans-33" transform="translate(368.242188 0.125)"/>
      <use xlink:href="#DejaVuSans-31" transform="translate(431.865234 0.125)"/>
      <use xlink:href="#DejaVuSans-2d" transform="translate(495.488281 0.125)"/>
      <use xlink:href="#DejaVuSans-33" transform="translate(531.572266 0.125)"/>
      <use xlink:href="#DejaVuSans-30" transform="translate(595.195312 0.125)"/>
      <use xlink:href="#DejaVuSans-2c" transform="translate(658.818359 0.125)"/>
      <use xlink:href="#DejaVuSans-20" transform="translate(690.605469 0.125)"/>
      <use xlink:href="#DejaVuSans-31" transform="translate(722.392578 0.125)"/>
      <use xlink:href="#DejaVuSans-31" transform="translate(786.015625 0.125)"/>
      <use xlink:href="#DejaVuSans-31" transform="translate(849.638672 0.125)"/>
      <use xlink:href="#DejaVuSans-36" transform="translate(913.261719 0.125)"/>
      <use xlink:href="#DejaVuSans-34" transform="translate(976.884766 0.125)"/>
      <use xlink:href="#DejaVuSans-20" transform="translate(1040.507812 0.125)"/>
      <use xlink:href="#DejaVuSans-61" transform="translate(1072.294922 0.125)"/>
      <use xlink:href="#DejaVuSans-74" transform="translate(1133.574219 0.125)"/>
      <use xlink:href="#DejaVuSans-6f" transform="translate(1172.783203 0.125)"/>
      <use xlink:href="#DejaVuSans-6d" transform="translate(1233.964844 0.125)"/>
      <use xlink:href="#DejaVuSans-73" transform="translate(1331.376953 0.125)"/>
      <use xlink:href="#DejaVuSans-29" transform="translate(1383.476562 0.125)"/>
     </g>
    </g>
   </g>
  </g>
 </g>
 <defs>
  <clipPath id="paa9b4da9d0">
   <rect x="35.937331" y="10.8" width="665.612669" height="252.1"/>
  </clipPath>
 </defs>
</svg>
