<?xml version="1.0" encoding="utf-8" standalone="no"?>
<!DOCTYPE svg PUBLIC "-//W3C//DTD SVG 1.1//EN"
  "http://www.w3.org/Graphics/SVG/1.1/DTD/svg11.dtd">
<svg xmlns:xlink="http://www.w3.org/1999/xlink" width="540pt" height="216pt" viewBox="0 0 540 216" xmlns="http://www.w3.org/2000/svg" version="1.1">
 <metadata>
  <rdf:RDF xmlns:dc="http://purl.org/dc/elements/1.1/" xmlns:cc="http://creativecommons.org/ns#" xmlns:rdf="http://www.w3.org/1999/02/22-rdf-syntax-ns#">
   <cc:Work>
    <dc:type rdf:resource="http://purl.org/dc/dcmitype/StillImage"/>
    <dc:date>2023-04-26T20:40:08.828293</dc:date>
    <dc:format>image/svg+xml</dc:format>
    <dc:creator>
     <cc:Agent>
      <dc:title>Matplotlib v3.7.1, https://matplotlib.org/</dc:title>
     </cc:Agent>
    </dc:creator>
   </cc:Work>
  </rdf:RDF>
 </metadata>
 <defs>
  <style type="text/css">*{stroke-linejoin: round; stroke-linecap: butt}</style>
 </defs>
 <g id="figure_1">
  <g id="patch_1">
   <path d="M 0 216 
L 540 216 
L 540 0 
L 0 0 
z
" style="fill: #ffffff"/>
  </g>
  <g id="axes_1">
   <g id="patch_2">
    <path d="M 35.937331 190.9 
L 521.55 190.9 
L 521.55 10.8 
L 35.937331 10.8 
z
" style="fill: #ffffff"/>
   </g>
   <g id="PolyCollection_1">
    <path d="M 37.771867 190.932689 
L 37.771867 127.523529 
L 43.275478 79.313067 
L 48.779088 46.250811 
L 54.282698 43.484967 
L 59.786308 52.158954 
L 65.289919 83.712602 
L 70.793529 119.106972 
L 76.297139 162.182789 
L 81.800749 186.660487 
L 87.30436 173.941949 
L 92.80797 144.690555 
L 98.31158 82.373449 
L 103.81519 39.037976 
L 109.318801 33.665771 
L 114.822411 32.577882 
L 120.326021 40.058626 
L 125.829631 44.580519 
L 131.333242 43.184708 
L 136.836852 53.350556 
L 142.340462 86.639725 
L 147.844072 105.466318 
L 153.347683 95.367764 
L 158.851293 81.202405 
L 164.354903 58.903439 
L 169.858513 40.607981 
L 175.362124 30.319539 
L 180.865734 25.340498 
L 186.369344 30.980258 
L 191.872954 33.579617 
L 197.376565 30.098169 
L 202.880175 27.457922 
L 208.383785 26.500073 
L 213.887395 27.928211 
L 219.391006 34.128321 
L 224.894616 37.045246 
L 230.398226 33.3958 
L 235.901837 29.106592 
L 241.405447 23.537859 
L 246.909057 20.204438 
L 252.412667 21.34164 
L 257.916278 24.245554 
L 263.419888 30.682893 
L 268.923498 34.101592 
L 274.427108 31.483011 
L 279.930719 29.564205 
L 285.434329 29.044953 
L 290.937939 29.261778 
L 296.441549 30.95076 
L 301.94516 30.218535 
L 307.44877 24.643895 
L 312.95238 20.604078 
L 318.45599 19.633906 
L 323.959601 18.602102 
L 329.463211 17.447035 
L 334.966821 19.303748 
L 340.470431 27.184023 
L 345.974042 31.585913 
L 351.477652 29.031036 
L 356.981262 27.240534 
L 362.484872 26.978781 
L 367.988483 24.689412 
L 373.492093 18.34481 
L 378.995703 15.462827 
L 384.499313 19.506084 
L 390.002924 22.215126 
L 395.506534 22.255742 
L 401.010144 22.338231 
L 406.513754 22.50447 
L 412.017365 23.846218 
L 417.520975 27.538982 
L 423.024585 28.500822 
L 428.528195 24.000813 
L 434.031806 19.882979 
L 439.535416 16.529493 
L 445.039026 13.984444 
L 450.542636 13.056268 
L 456.046247 13.932558 
L 461.549857 18.417782 
L 467.053467 21.193793 
L 472.557077 20.551378 
L 478.060688 20.472885 
L 483.564298 21.522236 
L 489.067908 22.79157 
L 494.571518 24.50087 
L 500.075129 23.408269 
L 505.578739 16.711864 
L 511.082349 12.902542 
L 516.585959 14.867387 
L 522.08957 16.424869 
L 527.59318 17.167624 
L 533.09679 18.834997 
L 538.6004 22.351604 
L 544.104011 22.806628 
L 549.607621 17.138487 
L 555.111231 14.070432 
L 560.614841 16.202547 
L 566.118452 27.53419 
L 571.622062 57.264886 
L 577.125672 96.054459 
L 582.629282 152.961784 
L 582.629282 190.932689 
L 582.629282 190.932689 
L 577.125672 190.932689 
L 571.622062 190.932689 
L 566.118452 190.932689 
L 560.614841 190.932689 
L 555.111231 190.932689 
L 549.607621 190.932689 
L 544.104011 190.932689 
L 538.6004 190.932689 
L 533.09679 190.932689 
L 527.59318 190.932689 
L 522.08957 190.932689 
L 516.585959 190.932689 
L 511.082349 190.932689 
L 505.578739 190.932689 
L 500.075129 190.932689 
L 494.571518 190.932689 
L 489.067908 190.932689 
L 483.564298 190.932689 
L 478.060688 190.932689 
L 472.557077 190.932689 
L 467.053467 190.932689 
L 461.549857 190.932689 
L 456.046247 190.932689 
L 450.542636 190.932689 
L 445.039026 190.932689 
L 439.535416 190.932689 
L 434.031806 190.932689 
L 428.528195 190.932689 
L 423.024585 190.932689 
L 417.520975 190.932689 
L 412.017365 190.932689 
L 406.513754 190.932689 
L 401.010144 190.932689 
L 395.506534 190.932689 
L 390.002924 190.932689 
L 384.499313 190.932689 
L 378.995703 190.932689 
L 373.492093 190.932689 
L 367.988483 190.932689 
L 362.484872 190.932689 
L 356.981262 190.932689 
L 351.477652 190.932689 
L 345.974042 190.932689 
L 340.470431 190.932689 
L 334.966821 190.932689 
L 329.463211 190.932689 
L 323.959601 190.932689 
L 318.45599 190.932689 
L 312.95238 190.932689 
L 307.44877 190.932689 
L 301.94516 190.932689 
L 296.441549 190.932689 
L 290.937939 190.932689 
L 285.434329 190.932689 
L 279.930719 190.932689 
L 274.427108 190.932689 
L 268.923498 190.932689 
L 263.419888 190.932689 
L 257.916278 190.932689 
L 252.412667 190.932689 
L 246.909057 190.932689 
L 241.405447 190.932689 
L 235.901837 190.932689 
L 230.398226 190.932689 
L 224.894616 190.932689 
L 219.391006 190.932689 
L 213.887395 190.932689 
L 208.383785 190.932689 
L 202.880175 190.932689 
L 197.376565 190.932689 
L 191.872954 190.932689 
L 186.369344 190.932689 
L 180.865734 190.932689 
L 175.362124 190.932689 
L 169.858513 190.932689 
L 164.354903 190.932689 
L 158.851293 190.932689 
L 153.347683 190.932689 
L 147.844072 190.932689 
L 142.340462 190.932689 
L 136.836852 190.932689 
L 131.333242 190.932689 
L 125.829631 190.932689 
L 120.326021 190.932689 
L 114.822411 190.932689 
L 109.318801 190.932689 
L 103.81519 190.932689 
L 98.31158 190.932689 
L 92.80797 190.932689 
L 87.30436 190.932689 
L 81.800749 190.932689 
L 76.297139 190.932689 
L 70.793529 190.932689 
L 65.289919 190.932689 
L 59.786308 190.932689 
L 54.282698 190.932689 
L 48.779088 190.932689 
L 43.275478 190.932689 
L 37.771867 190.932689 
z
" clip-path="url(#p89fcbcb77d)" style="fill: #808080; fill-opacity: 0.15"/>
   </g>
   <g id="matplotlib.axis_1">
    <g id="xtick_1">
     <g id="line2d_1">
      <defs>
       <path id="m57684ff678" d="M 0 0 
L 0 -3.5 
" style="stroke: #000000; stroke-width: 0.8"/>
      </defs>
      <g>
       <use xlink:href="#m57684ff678" x="35.937331" y="190.9" style="stroke: #000000; stroke-width: 0.8"/>
      </g>
     </g>
     <g id="text_1">
      <!-- 1 -->
      <g transform="translate(32.119831 203.518125) scale(0.12 -0.12)">
       <defs>
        <path id="DejaVuSans-31" d="M 794 531 
L 1825 531 
L 1825 4091 
L 703 3866 
L 703 4441 
L 1819 4666 
L 2450 4666 
L 2450 531 
L 3481 531 
L 3481 0 
L 794 0 
L 794 531 
z
" transform="scale(0.015625)"/>
       </defs>
       <use xlink:href="#DejaVuSans-31"/>
      </g>
     </g>
    </g>
    <g id="xtick_2">
     <g id="line2d_2">
      <g>
       <use xlink:href="#m57684ff678" x="89.894294" y="190.9" style="stroke: #000000; stroke-width: 0.8"/>
      </g>
     </g>
     <g id="text_2">
      <!-- 2 -->
      <g transform="translate(86.076794 203.518125) scale(0.12 -0.12)">
       <defs>
        <path id="DejaVuSans-32" d="M 1228 531 
L 3431 531 
L 3431 0 
L 469 0 
L 469 531 
Q 828 903 1448 1529 
Q 2069 2156 2228 2338 
Q 2531 2678 2651 2914 
Q 2772 3150 2772 3378 
Q 2772 3750 2511 3984 
Q 2250 4219 1831 4219 
Q 1534 4219 1204 4116 
Q 875 4013 500 3803 
L 500 4441 
Q 881 4594 1212 4672 
Q 1544 4750 1819 4750 
Q 2544 4750 2975 4387 
Q 3406 4025 3406 3419 
Q 3406 3131 3298 2873 
Q 3191 2616 2906 2266 
Q 2828 2175 2409 1742 
Q 1991 1309 1228 531 
z
" transform="scale(0.015625)"/>
       </defs>
       <use xlink:href="#DejaVuSans-32"/>
      </g>
     </g>
    </g>
    <g id="xtick_3">
     <g id="line2d_3">
      <g>
       <use xlink:href="#m57684ff678" x="143.851257" y="190.9" style="stroke: #000000; stroke-width: 0.8"/>
      </g>
     </g>
     <g id="text_3">
      <!-- 3 -->
      <g transform="translate(140.033757 203.518125) scale(0.12 -0.12)">
       <defs>
        <path id="DejaVuSans-33" d="M 2597 2516 
Q 3050 2419 3304 2112 
Q 3559 1806 3559 1356 
Q 3559 666 3084 287 
Q 2609 -91 1734 -91 
Q 1441 -91 1130 -33 
Q 819 25 488 141 
L 488 750 
Q 750 597 1062 519 
Q 1375 441 1716 441 
Q 2309 441 2620 675 
Q 2931 909 2931 1356 
Q 2931 1769 2642 2001 
Q 2353 2234 1838 2234 
L 1294 2234 
L 1294 2753 
L 1863 2753 
Q 2328 2753 2575 2939 
Q 2822 3125 2822 3475 
Q 2822 3834 2567 4026 
Q 2313 4219 1838 4219 
Q 1578 4219 1281 4162 
Q 984 4106 628 3988 
L 628 4550 
Q 988 4650 1302 4700 
Q 1616 4750 1894 4750 
Q 2613 4750 3031 4423 
Q 3450 4097 3450 3541 
Q 3450 3153 3228 2886 
Q 3006 2619 2597 2516 
z
" transform="scale(0.015625)"/>
       </defs>
       <use xlink:href="#DejaVuSans-33"/>
      </g>
     </g>
    </g>
    <g id="xtick_4">
     <g id="line2d_4">
      <g>
       <use xlink:href="#m57684ff678" x="197.80822" y="190.9" style="stroke: #000000; stroke-width: 0.8"/>
      </g>
     </g>
     <g id="text_4">
      <!-- 4 -->
      <g transform="translate(193.99072 203.518125) scale(0.12 -0.12)">
       <defs>
        <path id="DejaVuSans-34" d="M 2419 4116 
L 825 1625 
L 2419 1625 
L 2419 4116 
z
M 2253 4666 
L 3047 4666 
L 3047 1625 
L 3713 1625 
L 3713 1100 
L 3047 1100 
L 3047 0 
L 2419 0 
L 2419 1100 
L 313 1100 
L 313 1709 
L 2253 4666 
z
" transform="scale(0.015625)"/>
       </defs>
       <use xlink:href="#DejaVuSans-34"/>
      </g>
     </g>
    </g>
    <g id="xtick_5">
     <g id="line2d_5">
      <g>
       <use xlink:href="#m57684ff678" x="251.765184" y="190.9" style="stroke: #000000; stroke-width: 0.8"/>
      </g>
     </g>
     <g id="text_5">
      <!-- 5 -->
      <g transform="translate(247.947684 203.518125) scale(0.12 -0.12)">
       <defs>
        <path id="DejaVuSans-35" d="M 691 4666 
L 3169 4666 
L 3169 4134 
L 1269 4134 
L 1269 2991 
Q 1406 3038 1543 3061 
Q 1681 3084 1819 3084 
Q 2600 3084 3056 2656 
Q 3513 2228 3513 1497 
Q 3513 744 3044 326 
Q 2575 -91 1722 -91 
Q 1428 -91 1123 -41 
Q 819 9 494 109 
L 494 744 
Q 775 591 1075 516 
Q 1375 441 1709 441 
Q 2250 441 2565 725 
Q 2881 1009 2881 1497 
Q 2881 1984 2565 2268 
Q 2250 2553 1709 2553 
Q 1456 2553 1204 2497 
Q 953 2441 691 2322 
L 691 4666 
z
" transform="scale(0.015625)"/>
       </defs>
       <use xlink:href="#DejaVuSans-35"/>
      </g>
     </g>
    </g>
    <g id="xtick_6">
     <g id="line2d_6">
      <g>
       <use xlink:href="#m57684ff678" x="305.722147" y="190.9" style="stroke: #000000; stroke-width: 0.8"/>
      </g>
     </g>
     <g id="text_6">
      <!-- 6 -->
      <g transform="translate(301.904647 203.518125) scale(0.12 -0.12)">
       <defs>
        <path id="DejaVuSans-36" d="M 2113 2584 
Q 1688 2584 1439 2293 
Q 1191 2003 1191 1497 
Q 1191 994 1439 701 
Q 1688 409 2113 409 
Q 2538 409 2786 701 
Q 3034 994 3034 1497 
Q 3034 2003 2786 2293 
Q 2538 2584 2113 2584 
z
M 3366 4563 
L 3366 3988 
Q 3128 4100 2886 4159 
Q 2644 4219 2406 4219 
Q 1781 4219 1451 3797 
Q 1122 3375 1075 2522 
Q 1259 2794 1537 2939 
Q 1816 3084 2150 3084 
Q 2853 3084 3261 2657 
Q 3669 2231 3669 1497 
Q 3669 778 3244 343 
Q 2819 -91 2113 -91 
Q 1303 -91 875 529 
Q 447 1150 447 2328 
Q 447 3434 972 4092 
Q 1497 4750 2381 4750 
Q 2619 4750 2861 4703 
Q 3103 4656 3366 4563 
z
" transform="scale(0.015625)"/>
       </defs>
       <use xlink:href="#DejaVuSans-36"/>
      </g>
     </g>
    </g>
    <g id="xtick_7">
     <g id="line2d_7">
      <g>
       <use xlink:href="#m57684ff678" x="359.67911" y="190.9" style="stroke: #000000; stroke-width: 0.8"/>
      </g>
     </g>
     <g id="text_7">
      <!-- 7 -->
      <g transform="translate(355.86161 203.518125) scale(0.12 -0.12)">
       <defs>
        <path id="DejaVuSans-37" d="M 525 4666 
L 3525 4666 
L 3525 4397 
L 1831 0 
L 1172 0 
L 2766 4134 
L 525 4134 
L 525 4666 
z
" transform="scale(0.015625)"/>
       </defs>
       <use xlink:href="#DejaVuSans-37"/>
      </g>
     </g>
    </g>
    <g id="xtick_8">
     <g id="line2d_8">
      <g>
       <use xlink:href="#m57684ff678" x="413.636073" y="190.9" style="stroke: #000000; stroke-width: 0.8"/>
      </g>
     </g>
     <g id="text_8">
      <!-- 8 -->
      <g transform="translate(409.818573 203.518125) scale(0.12 -0.12)">
       <defs>
        <path id="DejaVuSans-38" d="M 2034 2216 
Q 1584 2216 1326 1975 
Q 1069 1734 1069 1313 
Q 1069 891 1326 650 
Q 1584 409 2034 409 
Q 2484 409 2743 651 
Q 3003 894 3003 1313 
Q 3003 1734 2745 1975 
Q 2488 2216 2034 2216 
z
M 1403 2484 
Q 997 2584 770 2862 
Q 544 3141 544 3541 
Q 544 4100 942 4425 
Q 1341 4750 2034 4750 
Q 2731 4750 3128 4425 
Q 3525 4100 3525 3541 
Q 3525 3141 3298 2862 
Q 3072 2584 2669 2484 
Q 3125 2378 3379 2068 
Q 3634 1759 3634 1313 
Q 3634 634 3220 271 
Q 2806 -91 2034 -91 
Q 1263 -91 848 271 
Q 434 634 434 1313 
Q 434 1759 690 2068 
Q 947 2378 1403 2484 
z
M 1172 3481 
Q 1172 3119 1398 2916 
Q 1625 2713 2034 2713 
Q 2441 2713 2670 2916 
Q 2900 3119 2900 3481 
Q 2900 3844 2670 4047 
Q 2441 4250 2034 4250 
Q 1625 4250 1398 4047 
Q 1172 3844 1172 3481 
z
" transform="scale(0.015625)"/>
       </defs>
       <use xlink:href="#DejaVuSans-38"/>
      </g>
     </g>
    </g>
    <g id="xtick_9">
     <g id="line2d_9">
      <g>
       <use xlink:href="#m57684ff678" x="467.593037" y="190.9" style="stroke: #000000; stroke-width: 0.8"/>
      </g>
     </g>
     <g id="text_9">
      <!-- 9 -->
      <g transform="translate(463.775537 203.518125) scale(0.12 -0.12)">
       <defs>
        <path id="DejaVuSans-39" d="M 703 97 
L 703 672 
Q 941 559 1184 500 
Q 1428 441 1663 441 
Q 2288 441 2617 861 
Q 2947 1281 2994 2138 
Q 2813 1869 2534 1725 
Q 2256 1581 1919 1581 
Q 1219 1581 811 2004 
Q 403 2428 403 3163 
Q 403 3881 828 4315 
Q 1253 4750 1959 4750 
Q 2769 4750 3195 4129 
Q 3622 3509 3622 2328 
Q 3622 1225 3098 567 
Q 2575 -91 1691 -91 
Q 1453 -91 1209 -44 
Q 966 3 703 97 
z
M 1959 2075 
Q 2384 2075 2632 2365 
Q 2881 2656 2881 3163 
Q 2881 3666 2632 3958 
Q 2384 4250 1959 4250 
Q 1534 4250 1286 3958 
Q 1038 3666 1038 3163 
Q 1038 2656 1286 2365 
Q 1534 2075 1959 2075 
z
" transform="scale(0.015625)"/>
       </defs>
       <use xlink:href="#DejaVuSans-39"/>
      </g>
     </g>
    </g>
    <g id="xtick_10">
     <g id="line2d_10">
      <g>
       <use xlink:href="#m57684ff678" x="521.55" y="190.9" style="stroke: #000000; stroke-width: 0.8"/>
      </g>
     </g>
     <g id="text_10">
      <!-- 10 -->
      <g transform="translate(513.915 203.518125) scale(0.12 -0.12)">
       <defs>
        <path id="DejaVuSans-30" d="M 2034 4250 
Q 1547 4250 1301 3770 
Q 1056 3291 1056 2328 
Q 1056 1369 1301 889 
Q 1547 409 2034 409 
Q 2525 409 2770 889 
Q 3016 1369 3016 2328 
Q 3016 3291 2770 3770 
Q 2525 4250 2034 4250 
z
M 2034 4750 
Q 2819 4750 3233 4129 
Q 3647 3509 3647 2328 
Q 3647 1150 3233 529 
Q 2819 -91 2034 -91 
Q 1250 -91 836 529 
Q 422 1150 422 2328 
Q 422 3509 836 4129 
Q 1250 4750 2034 4750 
z
" transform="scale(0.015625)"/>
       </defs>
       <use xlink:href="#DejaVuSans-31"/>
       <use xlink:href="#DejaVuSans-30" x="63.623047"/>
      </g>
     </g>
    </g>
   </g>
   <g id="matplotlib.axis_2">
    <g id="ytick_1">
     <g id="line2d_11">
      <defs>
       <path id="mdb14f881a6" d="M 0 0 
L 3.5 0 
" style="stroke: #000000; stroke-width: 0.8"/>
      </defs>
      <g>
       <use xlink:href="#mdb14f881a6" x="35.937331" y="190.9" style="stroke: #000000; stroke-width: 0.8"/>
      </g>
     </g>
     <g id="text_11">
      <!-- $10^{0}$ -->
      <g transform="translate(11.317331 195.459063) scale(0.12 -0.12)">
       <use xlink:href="#DejaVuSans-31" transform="translate(0 0.765625)"/>
       <use xlink:href="#DejaVuSans-30" transform="translate(63.623047 0.765625)"/>
       <use xlink:href="#DejaVuSans-30" transform="translate(128.203125 39.046875) scale(0.7)"/>
      </g>
     </g>
    </g>
    <g id="ytick_2">
     <g id="line2d_12">
      <g>
       <use xlink:href="#mdb14f881a6" x="35.937331" y="158.210884" style="stroke: #000000; stroke-width: 0.8"/>
      </g>
     </g>
     <g id="text_12">
      <!-- $10^{1}$ -->
      <g transform="translate(11.317331 162.769947) scale(0.12 -0.12)">
       <use xlink:href="#DejaVuSans-31" transform="translate(0 0.684375)"/>
       <use xlink:href="#DejaVuSans-30" transform="translate(63.623047 0.684375)"/>
       <use xlink:href="#DejaVuSans-31" transform="translate(128.203125 38.965625) scale(0.7)"/>
      </g>
     </g>
    </g>
    <g id="ytick_3">
     <g id="line2d_13">
      <g>
       <use xlink:href="#mdb14f881a6" x="35.937331" y="125.521768" style="stroke: #000000; stroke-width: 0.8"/>
      </g>
     </g>
     <g id="text_13">
      <!-- $10^{2}$ -->
      <g transform="translate(11.317331 130.080831) scale(0.12 -0.12)">
       <use xlink:href="#DejaVuSans-31" transform="translate(0 0.765625)"/>
       <use xlink:href="#DejaVuSans-30" transform="translate(63.623047 0.765625)"/>
       <use xlink:href="#DejaVuSans-32" transform="translate(128.203125 39.046875) scale(0.7)"/>
      </g>
     </g>
    </g>
    <g id="ytick_4">
     <g id="line2d_14">
      <g>
       <use xlink:href="#mdb14f881a6" x="35.937331" y="92.832652" style="stroke: #000000; stroke-width: 0.8"/>
      </g>
     </g>
     <g id="text_14">
      <!-- $10^{3}$ -->
      <g transform="translate(11.317331 97.391715) scale(0.12 -0.12)">
       <use xlink:href="#DejaVuSans-31" transform="translate(0 0.765625)"/>
       <use xlink:href="#DejaVuSans-30" transform="translate(63.623047 0.765625)"/>
       <use xlink:href="#DejaVuSans-33" transform="translate(128.203125 39.046875) scale(0.7)"/>
      </g>
     </g>
    </g>
    <g id="ytick_5">
     <g id="line2d_15">
      <g>
       <use xlink:href="#mdb14f881a6" x="35.937331" y="60.143537" style="stroke: #000000; stroke-width: 0.8"/>
      </g>
     </g>
     <g id="text_15">
      <!-- $10^{4}$ -->
      <g transform="translate(11.317331 64.702599) scale(0.12 -0.12)">
       <use xlink:href="#DejaVuSans-31" transform="translate(0 0.684375)"/>
       <use xlink:href="#DejaVuSans-30" transform="translate(63.623047 0.684375)"/>
       <use xlink:href="#DejaVuSans-34" transform="translate(128.203125 38.965625) scale(0.7)"/>
      </g>
     </g>
    </g>
    <g id="ytick_6">
     <g id="line2d_16">
      <g>
       <use xlink:href="#mdb14f881a6" x="35.937331" y="27.454421" style="stroke: #000000; stroke-width: 0.8"/>
      </g>
     </g>
     <g id="text_16">
      <!-- $10^{5}$ -->
      <g transform="translate(11.317331 32.013483) scale(0.12 -0.12)">
       <use xlink:href="#DejaVuSans-31" transform="translate(0 0.684375)"/>
       <use xlink:href="#DejaVuSans-30" transform="translate(63.623047 0.684375)"/>
       <use xlink:href="#DejaVuSans-35" transform="translate(128.203125 38.965625) scale(0.7)"/>
      </g>
     </g>
    </g>
   </g>
   <g id="line2d_17">
    <path d="M 37.771867 190.9 
L 43.275478 190.9 
L 48.779088 180.416169 
L 54.282698 148.964674 
L 59.786308 138.480843 
L 65.289919 169.932337 
L 70.793529 190.9 
L 76.297139 190.9 
L 81.800749 190.9 
L 87.30436 190.9 
L 92.80797 190.9 
L 98.31158 190.9 
L 103.81519 178.776101 
L 109.318801 142.404405 
L 114.822411 130.280506 
L 120.326021 166.652202 
L 125.829631 180.416169 
L 131.333242 148.964674 
L 136.836852 138.480843 
L 142.340462 169.932337 
L 147.844072 190.9 
L 153.347683 190.9 
L 158.851293 182.171679 
L 164.354903 155.986717 
L 169.858513 134.675101 
L 175.362124 123.11018 
L 180.865734 117.864434 
L 186.369344 125.257039 
L 191.872954 131.82551 
L 197.376565 136.745712 
L 202.880175 135.658405 
L 208.383785 122.556079 
L 213.887395 116.548569 
L 219.391006 124.730693 
L 224.894616 129.504753 
L 230.398226 127.462685 
L 235.901837 124.461239 
L 241.405447 119.541036 
L 246.909057 115.617475 
L 252.412667 113.687194 
L 257.916278 115.364523 
L 263.419888 124.257075 
L 268.923498 129.820704 
L 274.427108 128.726489 
L 279.930719 126.532292 
L 285.434329 122.138134 
L 290.937939 120.357464 
L 296.441549 123.803769 
L 301.94516 123.70774 
L 307.44877 116.527041 
L 312.95238 115.245559 
L 318.45599 125.762508 
L 323.959601 127.974972 
L 329.463211 113.578463 
L 334.966821 108.779626 
L 340.470431 123.176135 
L 345.974042 131.661724 
L 351.477652 128.325473 
L 356.981262 124.952538 
L 362.484872 121.506233 
L 367.988483 117.568629 
L 373.492093 112.648426 
L 378.995703 109.763561 
L 384.499313 110.94937 
L 390.002924 111.634731 
L 395.506534 111.319196 
L 401.010144 113.607585 
L 406.513754 121.103817 
L 412.017365 125.347807 
L 417.520975 123.087311 
L 423.024585 119.940246 
L 428.528195 115.020044 
L 434.031806 111.53403 
L 439.535416 110.916392 
L 445.039026 109.417327 
L 450.542636 106.155405 
L 456.046247 107.139559 
L 461.549857 116.615866 
L 467.053467 120.583253 
L 472.557077 113.532803 
L 478.060688 113.350705 
L 483.564298 126.905308 
L 489.067908 132.661576 
L 494.571518 122.821171 
L 500.075129 113.867335 
L 505.578739 106.686637 
L 511.082349 104.609021 
L 516.585959 112.737573 
L 522.08957 116.881278 
L 527.59318 113.055292 
L 533.09679 111.464012 
L 538.6004 114.342146 
L 541 114.401113 
" clip-path="url(#p89fcbcb77d)" style="fill: none; stroke: #ff0000; stroke-opacity: 0.7; stroke-width: 2; stroke-linecap: square"/>
   </g>
   <g id="line2d_18">
    <path d="M 37.771867 190.9 
L 43.275478 190.9 
L 48.779088 167.901803 
L 54.282698 98.907212 
L 59.786308 75.909015 
L 65.289919 144.903606 
L 70.793529 190.9 
L 76.297139 190.9 
L 81.800749 190.9 
L 87.30436 190.9 
L 92.80797 190.9 
L 98.31158 190.9 
L 103.81519 166.261736 
L 109.318801 92.346942 
L 114.822411 44.710481 
L 120.326021 49.630683 
L 125.829631 75.909015 
L 131.333242 144.903606 
L 136.836852 190.9 
L 142.340462 190.9 
L 147.844072 173.128147 
L 153.347683 119.812588 
L 158.851293 79.898445 
L 164.354903 66.787132 
L 169.858513 54.987415 
L 175.362124 45.810891 
L 180.865734 42.984352 
L 186.369344 52.857779 
L 191.872954 56.016644 
L 197.376565 45.746382 
L 202.880175 42.080475 
L 208.383785 51.623282 
L 213.887395 57.773759 
L 219.391006 57.139577 
L 224.894616 56.499229 
L 230.398226 55.846549 
L 235.901837 52.472373 
L 241.405447 43.655206 
L 246.909057 37.865681 
L 252.412667 38.13144 
L 257.916278 41.138824 
L 263.419888 49.629458 
L 268.923498 53.421183 
L 274.427108 47.81509 
L 279.930719 45.674512 
L 285.434329 50.464965 
L 290.937939 53.491422 
L 296.441549 52.989888 
L 301.94516 50.055808 
L 307.44877 42.256634 
L 312.95238 35.8578 
L 318.45599 32.259645 
L 323.959601 33.492889 
L 329.463211 44.38893 
L 334.966821 51.549104 
L 340.470431 51.237542 
L 345.974042 49.521102 
L 351.477652 44.994905 
L 356.981262 43.284116 
L 362.484872 47.20414 
L 367.988483 46.47524 
L 373.492093 36.448491 
L 378.995703 33.182219 
L 384.499313 43.436898 
L 390.002924 47.893886 
L 395.506534 40.755492 
L 401.010144 38.081989 
L 406.513754 44.338267 
L 412.017365 48.39454 
L 417.520975 48.050802 
L 423.024585 45.763214 
L 428.528195 39.587925 
L 434.031806 35.482831 
L 439.535416 35.518127 
L 445.039026 34.428299 
L 450.542636 31.088222 
L 456.046247 31.947021 
L 461.549857 41.203572 
L 467.053467 45.319031 
L 472.557077 39.152307 
L 478.060688 36.988919 
L 483.564298 42.832204 
L 489.067908 46.39585 
L 494.571518 45.400221 
L 500.075129 41.709522 
L 505.578739 32.628683 
L 511.082349 29.047205 
L 516.585959 36.464451 
L 522.08957 40.589241 
L 527.59318 38.129123 
L 533.09679 37.854998 
L 538.6004 41.952859 
L 541 41.930001 
" clip-path="url(#p89fcbcb77d)" style="fill: none; stroke: #4169e1; stroke-opacity: 0.7; stroke-width: 2; stroke-linecap: square"/>
   </g>
   <g id="line2d_19">
    <path d="M 37.771867 190.9 
L 43.275478 190.9 
L 48.779088 166.247279 
L 54.282698 92.289118 
L 59.786308 67.636397 
L 65.289919 141.594559 
L 70.793529 190.9 
L 76.297139 190.9 
L 81.800749 190.9 
L 87.30436 190.9 
L 92.80797 190.9 
L 98.31158 190.9 
L 103.81519 164.607212 
L 109.318801 85.728848 
L 114.822411 34.822375 
L 120.326021 39.859682 
L 125.829631 52.910186 
L 131.333242 81.987085 
L 136.836852 116.293071 
L 142.340462 161.057228 
L 147.844072 171.164375 
L 153.347683 111.957501 
L 158.851293 68.266008 
L 164.354903 55.605277 
L 169.858513 44.26104 
L 175.362124 35.549792 
L 180.865734 33.207263 
L 186.369344 43.602175 
L 191.872954 46.915962 
L 197.376565 36.067501 
L 202.880175 32.025972 
L 208.383785 41.598308 
L 213.887395 47.895797 
L 219.391006 47.64359 
L 224.894616 47.174379 
L 230.398226 46.271162 
L 235.901837 42.592807 
L 241.405447 33.364176 
L 246.909057 27.437382 
L 252.412667 28.114262 
L 257.916278 31.498434 
L 263.419888 40.297191 
L 268.923498 44.225376 
L 274.427108 38.412419 
L 279.930719 36.114426 
L 285.434329 40.846361 
L 290.937939 43.720475 
L 296.441549 42.878948 
L 301.94516 39.758457 
L 307.44877 32.080041 
L 312.95238 25.787232 
L 318.45599 22.265638 
L 323.959601 23.623901 
L 329.463211 34.741876 
L 334.966821 42.010367 
L 340.470431 41.579891 
L 345.974042 39.672868 
L 351.477652 34.81275 
L 356.981262 32.725094 
L 362.484872 36.182366 
L 367.988483 35.458021 
L 373.492093 26.370446 
L 378.995703 23.764878 
L 384.499313 34.123329 
L 390.002924 38.570547 
L 395.506534 31.195301 
L 401.010144 28.253194 
L 406.513754 34.177364 
L 412.017365 37.967322 
L 417.520975 37.488856 
L 423.024585 35.20068 
L 428.528195 29.293087 
L 434.031806 25.410779 
L 439.535416 25.579043 
L 445.039026 24.593052 
L 450.542636 21.298552 
L 456.046247 22.167296 
L 461.549857 31.362526 
L 467.053467 35.400539 
L 472.557077 29.124116 
L 478.060688 26.928967 
L 483.564298 32.896369 
L 489.067908 36.396629 
L 494.571518 34.962607 
L 500.075129 31.18511 
L 505.578739 22.720665 
L 511.082349 19.37619 
L 516.585959 26.271655 
L 522.08957 30.196353 
L 527.59318 28.179518 
L 533.09679 28.01437 
L 538.6004 31.552596 
L 541 31.425868 
" clip-path="url(#p89fcbcb77d)" style="fill: none; stroke: #ffa500; stroke-opacity: 0.7; stroke-width: 2; stroke-linecap: square"/>
   </g>
   <g id="line2d_20">
    <path d="M 37.771867 127.523529 
L 43.275478 79.313067 
L 48.779088 46.250811 
L 54.282698 43.484967 
L 59.786308 52.158954 
L 65.289919 83.712602 
L 70.793529 119.106972 
L 76.297139 162.182789 
L 81.800749 186.660487 
L 87.30436 173.941949 
L 92.80797 144.690555 
L 98.31158 82.373449 
L 103.81519 39.037976 
L 109.318801 33.665771 
L 114.822411 32.577882 
L 120.326021 40.058626 
L 125.829631 44.580519 
L 131.333242 43.184708 
L 136.836852 53.350556 
L 142.340462 86.639725 
L 147.844072 105.466318 
L 153.347683 95.367764 
L 158.851293 81.202405 
L 164.354903 58.903439 
L 169.858513 40.607981 
L 175.362124 30.319539 
L 180.865734 25.340498 
L 186.369344 30.980258 
L 191.872954 33.579617 
L 197.376565 30.098169 
L 202.880175 27.457922 
L 208.383785 26.500073 
L 213.887395 27.928211 
L 219.391006 34.128321 
L 224.894616 37.045246 
L 230.398226 33.3958 
L 235.901837 29.106592 
L 241.405447 23.537859 
L 246.909057 20.204438 
L 252.412667 21.34164 
L 257.916278 24.245554 
L 263.419888 30.682893 
L 268.923498 34.101592 
L 274.427108 31.483011 
L 279.930719 29.564205 
L 285.434329 29.044953 
L 290.937939 29.261778 
L 296.441549 30.95076 
L 301.94516 30.218535 
L 307.44877 24.643895 
L 312.95238 20.604078 
L 318.45599 19.633906 
L 323.959601 18.602102 
L 329.463211 17.447035 
L 334.966821 19.303748 
L 340.470431 27.184023 
L 345.974042 31.585913 
L 351.477652 29.031036 
L 356.981262 27.240534 
L 362.484872 26.978781 
L 367.988483 24.689412 
L 373.492093 18.34481 
L 378.995703 15.462827 
L 384.499313 19.506084 
L 390.002924 22.215126 
L 395.506534 22.255742 
L 401.010144 22.338231 
L 406.513754 22.50447 
L 412.017365 23.846218 
L 417.520975 27.538982 
L 423.024585 28.500822 
L 428.528195 24.000813 
L 434.031806 19.882979 
L 439.535416 16.529493 
L 445.039026 13.984444 
L 450.542636 13.056268 
L 456.046247 13.932558 
L 461.549857 18.417782 
L 467.053467 21.193793 
L 472.557077 20.551378 
L 478.060688 20.472885 
L 483.564298 21.522236 
L 489.067908 22.79157 
L 494.571518 24.50087 
L 500.075129 23.408269 
L 505.578739 16.711864 
L 511.082349 12.902542 
L 516.585959 14.867387 
L 522.08957 16.424869 
L 527.59318 17.167624 
L 533.09679 18.834997 
L 538.6004 22.351604 
L 541 22.549996 
" clip-path="url(#p89fcbcb77d)" style="fill: none; stroke: #808080; stroke-opacity: 0.7; stroke-width: 2; stroke-linecap: square"/>
   </g>
   <g id="patch_3">
    <path d="M 35.937331 190.9 
L 35.937331 10.8 
" style="fill: none; stroke: #000000; stroke-width: 0.8; stroke-linejoin: miter; stroke-linecap: square"/>
   </g>
   <g id="patch_4">
    <path d="M 521.55 190.9 
L 521.55 10.8 
" style="fill: none; stroke: #000000; stroke-width: 0.8; stroke-linejoin: miter; stroke-linecap: square"/>
   </g>
   <g id="patch_5">
    <path d="M 35.937331 190.9 
L 521.55 190.9 
" style="fill: none; stroke: #000000; stroke-width: 0.8; stroke-linejoin: miter; stroke-linecap: square"/>
   </g>
   <g id="patch_6">
    <path d="M 35.937331 10.8 
L 521.55 10.8 
" style="fill: none; stroke: #000000; stroke-width: 0.8; stroke-linejoin: miter; stroke-linecap: square"/>
   </g>
   <g id="legend_1">
    <g id="patch_7">
     <path d="M 303.99 184.9 
L 513.15 184.9 
Q 515.55 184.9 515.55 182.5 
L 515.55 113.245 
Q 515.55 110.845 513.15 110.845 
L 303.99 110.845 
Q 301.59 110.845 301.59 113.245 
L 301.59 182.5 
Q 301.59 184.9 303.99 184.9 
z
" style="fill: #ffffff; opacity: 0.8; stroke: #cccccc; stroke-linejoin: miter"/>
    </g>
    <g id="line2d_21">
     <path d="M 306.39 120.563125 
L 318.39 120.563125 
L 330.39 120.563125 
" style="fill: none; stroke: #808080; stroke-width: 1.5; stroke-linecap: square"/>
    </g>
    <g id="text_17">
     <!-- dataset -->
     <g transform="translate(339.99 124.763125) scale(0.12 -0.12)">
      <defs>
       <path id="DejaVuSans-64" d="M 2906 2969 
L 2906 4863 
L 3481 4863 
L 3481 0 
L 2906 0 
L 2906 525 
Q 2725 213 2448 61 
Q 2172 -91 1784 -91 
Q 1150 -91 751 415 
Q 353 922 353 1747 
Q 353 2572 751 3078 
Q 1150 3584 1784 3584 
Q 2172 3584 2448 3432 
Q 2725 3281 2906 2969 
z
M 947 1747 
Q 947 1113 1208 752 
Q 1469 391 1925 391 
Q 2381 391 2643 752 
Q 2906 1113 2906 1747 
Q 2906 2381 2643 2742 
Q 2381 3103 1925 3103 
Q 1469 3103 1208 2742 
Q 947 2381 947 1747 
z
" transform="scale(0.015625)"/>
       <path id="DejaVuSans-61" d="M 2194 1759 
Q 1497 1759 1228 1600 
Q 959 1441 959 1056 
Q 959 750 1161 570 
Q 1363 391 1709 391 
Q 2188 391 2477 730 
Q 2766 1069 2766 1631 
L 2766 1759 
L 2194 1759 
z
M 3341 1997 
L 3341 0 
L 2766 0 
L 2766 531 
Q 2569 213 2275 61 
Q 1981 -91 1556 -91 
Q 1019 -91 701 211 
Q 384 513 384 1019 
Q 384 1609 779 1909 
Q 1175 2209 1959 2209 
L 2766 2209 
L 2766 2266 
Q 2766 2663 2505 2880 
Q 2244 3097 1772 3097 
Q 1472 3097 1187 3025 
Q 903 2953 641 2809 
L 641 3341 
Q 956 3463 1253 3523 
Q 1550 3584 1831 3584 
Q 2591 3584 2966 3190 
Q 3341 2797 3341 1997 
z
" transform="scale(0.015625)"/>
       <path id="DejaVuSans-74" d="M 1172 4494 
L 1172 3500 
L 2356 3500 
L 2356 3053 
L 1172 3053 
L 1172 1153 
Q 1172 725 1289 603 
Q 1406 481 1766 481 
L 2356 481 
L 2356 0 
L 1766 0 
Q 1100 0 847 248 
Q 594 497 594 1153 
L 594 3053 
L 172 3053 
L 172 3500 
L 594 3500 
L 594 4494 
L 1172 4494 
z
" transform="scale(0.015625)"/>
       <path id="DejaVuSans-73" d="M 2834 3397 
L 2834 2853 
Q 2591 2978 2328 3040 
Q 2066 3103 1784 3103 
Q 1356 3103 1142 2972 
Q 928 2841 928 2578 
Q 928 2378 1081 2264 
Q 1234 2150 1697 2047 
L 1894 2003 
Q 2506 1872 2764 1633 
Q 3022 1394 3022 966 
Q 3022 478 2636 193 
Q 2250 -91 1575 -91 
Q 1294 -91 989 -36 
Q 684 19 347 128 
L 347 722 
Q 666 556 975 473 
Q 1284 391 1588 391 
Q 1994 391 2212 530 
Q 2431 669 2431 922 
Q 2431 1156 2273 1281 
Q 2116 1406 1581 1522 
L 1381 1569 
Q 847 1681 609 1914 
Q 372 2147 372 2553 
Q 372 3047 722 3315 
Q 1072 3584 1716 3584 
Q 2034 3584 2315 3537 
Q 2597 3491 2834 3397 
z
" transform="scale(0.015625)"/>
       <path id="DejaVuSans-65" d="M 3597 1894 
L 3597 1613 
L 953 1613 
Q 991 1019 1311 708 
Q 1631 397 2203 397 
Q 2534 397 2845 478 
Q 3156 559 3463 722 
L 3463 178 
Q 3153 47 2828 -22 
Q 2503 -91 2169 -91 
Q 1331 -91 842 396 
Q 353 884 353 1716 
Q 353 2575 817 3079 
Q 1281 3584 2069 3584 
Q 2775 3584 3186 3129 
Q 3597 2675 3597 1894 
z
M 3022 2063 
Q 3016 2534 2758 2815 
Q 2500 3097 2075 3097 
Q 1594 3097 1305 2825 
Q 1016 2553 972 2059 
L 3022 2063 
z
" transform="scale(0.015625)"/>
      </defs>
      <use xlink:href="#DejaVuSans-64"/>
      <use xlink:href="#DejaVuSans-61" x="63.476562"/>
      <use xlink:href="#DejaVuSans-74" x="124.755859"/>
      <use xlink:href="#DejaVuSans-61" x="163.964844"/>
      <use xlink:href="#DejaVuSans-73" x="225.244141"/>
      <use xlink:href="#DejaVuSans-65" x="277.34375"/>
      <use xlink:href="#DejaVuSans-74" x="338.867188"/>
     </g>
    </g>
    <g id="line2d_22">
     <path d="M 306.39 138.176875 
L 318.39 138.176875 
L 330.39 138.176875 
" style="fill: none; stroke: #ff0000; stroke-width: 1.5; stroke-linecap: square"/>
    </g>
    <g id="text_18">
     <!-- 21.79$^\circ$ (2-1, 28 atoms) -->
     <g transform="translate(339.99 142.376875) scale(0.12 -0.12)">
      <defs>
       <path id="DejaVuSans-2e" d="M 684 794 
L 1344 794 
L 1344 0 
L 684 0 
L 684 794 
z
" transform="scale(0.015625)"/>
       <path id="DejaVuSans-2218" d="M 2003 2603 
Q 1753 2603 1581 2429 
Q 1409 2256 1409 2006 
Q 1409 1759 1581 1589 
Q 1753 1419 2003 1419 
Q 2253 1419 2425 1589 
Q 2597 1759 2597 2006 
Q 2597 2253 2423 2428 
Q 2250 2603 2003 2603 
z
M 2003 3006 
Q 2203 3006 2387 2929 
Q 2572 2853 2706 2709 
Q 2850 2569 2922 2390 
Q 2994 2212 2994 2006 
Q 2994 1594 2705 1308 
Q 2416 1022 1997 1022 
Q 1575 1022 1294 1303 
Q 1013 1584 1013 2006 
Q 1013 2425 1300 2715 
Q 1588 3006 2003 3006 
z
" transform="scale(0.015625)"/>
       <path id="DejaVuSans-20" transform="scale(0.015625)"/>
       <path id="DejaVuSans-28" d="M 1984 4856 
Q 1566 4138 1362 3434 
Q 1159 2731 1159 2009 
Q 1159 1288 1364 580 
Q 1569 -128 1984 -844 
L 1484 -844 
Q 1016 -109 783 600 
Q 550 1309 550 2009 
Q 550 2706 781 3412 
Q 1013 4119 1484 4856 
L 1984 4856 
z
" transform="scale(0.015625)"/>
       <path id="DejaVuSans-2d" d="M 313 2009 
L 1997 2009 
L 1997 1497 
L 313 1497 
L 313 2009 
z
" transform="scale(0.015625)"/>
       <path id="DejaVuSans-2c" d="M 750 794 
L 1409 794 
L 1409 256 
L 897 -744 
L 494 -744 
L 750 256 
L 750 794 
z
" transform="scale(0.015625)"/>
       <path id="DejaVuSans-6f" d="M 1959 3097 
Q 1497 3097 1228 2736 
Q 959 2375 959 1747 
Q 959 1119 1226 758 
Q 1494 397 1959 397 
Q 2419 397 2687 759 
Q 2956 1122 2956 1747 
Q 2956 2369 2687 2733 
Q 2419 3097 1959 3097 
z
M 1959 3584 
Q 2709 3584 3137 3096 
Q 3566 2609 3566 1747 
Q 3566 888 3137 398 
Q 2709 -91 1959 -91 
Q 1206 -91 779 398 
Q 353 888 353 1747 
Q 353 2609 779 3096 
Q 1206 3584 1959 3584 
z
" transform="scale(0.015625)"/>
       <path id="DejaVuSans-6d" d="M 3328 2828 
Q 3544 3216 3844 3400 
Q 4144 3584 4550 3584 
Q 5097 3584 5394 3201 
Q 5691 2819 5691 2113 
L 5691 0 
L 5113 0 
L 5113 2094 
Q 5113 2597 4934 2840 
Q 4756 3084 4391 3084 
Q 3944 3084 3684 2787 
Q 3425 2491 3425 1978 
L 3425 0 
L 2847 0 
L 2847 2094 
Q 2847 2600 2669 2842 
Q 2491 3084 2119 3084 
Q 1678 3084 1418 2786 
Q 1159 2488 1159 1978 
L 1159 0 
L 581 0 
L 581 3500 
L 1159 3500 
L 1159 2956 
Q 1356 3278 1631 3431 
Q 1906 3584 2284 3584 
Q 2666 3584 2933 3390 
Q 3200 3197 3328 2828 
z
" transform="scale(0.015625)"/>
       <path id="DejaVuSans-29" d="M 513 4856 
L 1013 4856 
Q 1481 4119 1714 3412 
Q 1947 2706 1947 2009 
Q 1947 1309 1714 600 
Q 1481 -109 1013 -844 
L 513 -844 
Q 928 -128 1133 580 
Q 1338 1288 1338 2009 
Q 1338 2731 1133 3434 
Q 928 4138 513 4856 
z
" transform="scale(0.015625)"/>
      </defs>
      <use xlink:href="#DejaVuSans-32" transform="translate(0 0.125)"/>
      <use xlink:href="#DejaVuSans-31" transform="translate(63.623047 0.125)"/>
      <use xlink:href="#DejaVuSans-2e" transform="translate(127.246094 0.125)"/>
      <use xlink:href="#DejaVuSans-37" transform="translate(151.283203 0.125)"/>
      <use xlink:href="#DejaVuSans-39" transform="translate(214.90625 0.125)"/>
      <use xlink:href="#DejaVuSans-2218" transform="translate(293.124023 38.40625) scale(0.7)"/>
      <use xlink:href="#DejaVuSans-20" transform="translate(353.314453 0.125)"/>
      <use xlink:href="#DejaVuSans-28" transform="translate(385.101562 0.125)"/>
      <use xlink:href="#DejaVuSans-32" transform="translate(424.115234 0.125)"/>
      <use xlink:href="#DejaVuSans-2d" transform="translate(487.738281 0.125)"/>
      <use xlink:href="#DejaVuSans-31" transform="translate(523.822266 0.125)"/>
      <use xlink:href="#DejaVuSans-2c" transform="translate(587.445312 0.125)"/>
      <use xlink:href="#DejaVuSans-20" transform="translate(619.232422 0.125)"/>
      <use xlink:href="#DejaVuSans-32" transform="translate(651.019531 0.125)"/>
      <use xlink:href="#DejaVuSans-38" transform="translate(714.642578 0.125)"/>
      <use xlink:href="#DejaVuSans-20" transform="translate(778.265625 0.125)"/>
      <use xlink:href="#DejaVuSans-61" transform="translate(810.052734 0.125)"/>
      <use xlink:href="#DejaVuSans-74" transform="translate(871.332031 0.125)"/>
      <use xlink:href="#DejaVuSans-6f" transform="translate(910.541016 0.125)"/>
      <use xlink:href="#DejaVuSans-6d" transform="translate(971.722656 0.125)"/>
      <use xlink:href="#DejaVuSans-73" transform="translate(1069.134766 0.125)"/>
      <use xlink:href="#DejaVuSans-29" transform="translate(1121.234375 0.125)"/>
     </g>
    </g>
    <g id="line2d_23">
     <path d="M 306.39 155.790625 
L 318.39 155.790625 
L 330.39 155.790625 
" style="fill: none; stroke: #4169e1; stroke-width: 1.5; stroke-linecap: square"/>
    </g>
    <g id="text_19">
     <!-- 1.54$^\circ$ (22-21, 5548 atoms) -->
     <g transform="translate(339.99 159.990625) scale(0.12 -0.12)">
      <use xlink:href="#DejaVuSans-31" transform="translate(0 0.125)"/>
      <use xlink:href="#DejaVuSans-2e" transform="translate(63.623047 0.125)"/>
      <use xlink:href="#DejaVuSans-35" transform="translate(95.410156 0.125)"/>
      <use xlink:href="#DejaVuSans-34" transform="translate(159.033203 0.125)"/>
      <use xlink:href="#DejaVuSans-2218" transform="translate(237.250977 38.40625) scale(0.7)"/>
      <use xlink:href="#DejaVuSans-20" transform="translate(297.441406 0.125)"/>
      <use xlink:href="#DejaVuSans-28" transform="translate(329.228516 0.125)"/>
      <use xlink:href="#DejaVuSans-32" transform="translate(368.242188 0.125)"/>
      <use xlink:href="#DejaVuSans-32" transform="translate(431.865234 0.125)"/>
      <use xlink:href="#DejaVuSans-2d" transform="translate(495.488281 0.125)"/>
      <use xlink:href="#DejaVuSans-32" transform="translate(531.572266 0.125)"/>
      <use xlink:href="#DejaVuSans-31" transform="translate(595.195312 0.125)"/>
      <use xlink:href="#DejaVuSans-2c" transform="translate(658.818359 0.125)"/>
      <use xlink:href="#DejaVuSans-20" transform="translate(690.605469 0.125)"/>
      <use xlink:href="#DejaVuSans-35" transform="translate(722.392578 0.125)"/>
      <use xlink:href="#DejaVuSans-35" transform="translate(786.015625 0.125)"/>
      <use xlink:href="#DejaVuSans-34" transform="translate(849.638672 0.125)"/>
      <use xlink:href="#DejaVuSans-38" transform="translate(913.261719 0.125)"/>
      <use xlink:href="#DejaVuSans-20" transform="translate(976.884766 0.125)"/>
      <use xlink:href="#DejaVuSans-61" transform="translate(1008.671875 0.125)"/>
      <use xlink:href="#DejaVuSans-74" transform="translate(1069.951172 0.125)"/>
      <use xlink:href="#DejaVuSans-6f" transform="translate(1109.160156 0.125)"/>
      <use xlink:href="#DejaVuSans-6d" transform="translate(1170.341797 0.125)"/>
      <use xlink:href="#DejaVuSans-73" transform="translate(1267.753906 0.125)"/>
      <use xlink:href="#DejaVuSans-29" transform="translate(1319.853516 0.125)"/>
     </g>
    </g>
    <g id="line2d_24">
     <path d="M 306.39 173.404375 
L 318.39 173.404375 
L 330.39 173.404375 
" style="fill: none; stroke: #ffa500; stroke-width: 1.5; stroke-linecap: square"/>
    </g>
    <g id="text_20">
     <!-- 1.08$^\circ$ (31-30, 11164 atoms) -->
     <g transform="translate(339.99 177.604375) scale(0.12 -0.12)">
      <use xlink:href="#DejaVuSans-31" transform="translate(0 0.125)"/>
      <use xlink:href="#DejaVuSans-2e" transform="translate(63.623047 0.125)"/>
      <use xlink:href="#DejaVuSans-30" transform="translate(95.410156 0.125)"/>
      <use xlink:href="#DejaVuSans-38" transform="translate(159.033203 0.125)"/>
      <use xlink:href="#DejaVuSans-2218" transform="translate(237.250977 38.40625) scale(0.7)"/>
      <use xlink:href="#DejaVuSans-20" transform="translate(297.441406 0.125)"/>
      <use xlink:href="#DejaVuSans-28" transform="translate(329.228516 0.125)"/>
      <use xlink:href="#DejaVuSans-33" transform="translate(368.242188 0.125)"/>
      <use xlink:href="#DejaVuSans-31" transform="translate(431.865234 0.125)"/>
      <use xlink:href="#DejaVuSans-2d" transform="translate(495.488281 0.125)"/>
      <use xlink:href="#DejaVuSans-33" transform="translate(531.572266 0.125)"/>
      <use xlink:href="#DejaVuSans-30" transform="translate(595.195312 0.125)"/>
      <use xlink:href="#DejaVuSans-2c" transform="translate(658.818359 0.125)"/>
      <use xlink:href="#DejaVuSans-20" transform="translate(690.605469 0.125)"/>
      <use xlink:href="#DejaVuSans-31" transform="translate(722.392578 0.125)"/>
      <use xlink:href="#DejaVuSans-31" transform="translate(786.015625 0.125)"/>
      <use xlink:href="#DejaVuSans-31" transform="translate(849.638672 0.125)"/>
      <use xlink:href="#DejaVuSans-36" transform="translate(913.261719 0.125)"/>
      <use xlink:href="#DejaVuSans-34" transform="translate(976.884766 0.125)"/>
      <use xlink:href="#DejaVuSans-20" transform="translate(1040.507812 0.125)"/>
      <use xlink:href="#DejaVuSans-61" transform="translate(1072.294922 0.125)"/>
      <use xlink:href="#DejaVuSans-74" transform="translate(1133.574219 0.125)"/>
      <use xlink:href="#DejaVuSans-6f" transform="translate(1172.783203 0.125)"/>
      <use xlink:href="#DejaVuSans-6d" transform="translate(1233.964844 0.125)"/>
      <use xlink:href="#DejaVuSans-73" transform="translate(1331.376953 0.125)"/>
      <use xlink:href="#DejaVuSans-29" transform="translate(1383.476562 0.125)"/>
     </g>
    </g>
   </g>
  </g>
 </g>
 <defs>
  <clipPath id="p89fcbcb77d">
   <rect x="35.937331" y="10.8" width="485.612669" height="180.1"/>
  </clipPath>
 </defs>
</svg>
