<?xml version="1.0" encoding="utf-8" standalone="no"?>
<!DOCTYPE svg PUBLIC "-//W3C//DTD SVG 1.1//EN"
  "http://www.w3.org/Graphics/SVG/1.1/DTD/svg11.dtd">
<svg xmlns:xlink="http://www.w3.org/1999/xlink" width="540pt" height="216pt" viewBox="0 0 540 216" xmlns="http://www.w3.org/2000/svg" version="1.1">
 <metadata>
  <rdf:RDF xmlns:dc="http://purl.org/dc/elements/1.1/" xmlns:cc="http://creativecommons.org/ns#" xmlns:rdf="http://www.w3.org/1999/02/22-rdf-syntax-ns#">
   <cc:Work>
    <dc:type rdf:resource="http://purl.org/dc/dcmitype/StillImage"/>
    <dc:date>2023-04-17T20:16:00.094797</dc:date>
    <dc:format>image/svg+xml</dc:format>
    <dc:creator>
     <cc:Agent>
      <dc:title>Matplotlib v3.7.1, https://matplotlib.org/</dc:title>
     </cc:Agent>
    </dc:creator>
   </cc:Work>
  </rdf:RDF>
 </metadata>
 <defs>
  <style type="text/css">*{stroke-linejoin: round; stroke-linecap: butt}</style>
 </defs>
 <g id="figure_1">
  <g id="patch_1">
   <path d="M 0 216 
L 540 216 
L 540 0 
L 0 0 
z
" style="fill: #ffffff"/>
  </g>
  <g id="axes_1">
   <g id="patch_2">
    <path d="M 35.937331 190.9 
L 521.55 190.9 
L 521.55 10.8 
L 35.937331 10.8 
z
" style="fill: #ffffff"/>
   </g>
   <g id="PolyCollection_1">
    <path d="M 37.771867 190.932712 
L 37.771867 127.479746 
L 43.275478 79.235978 
L 48.779088 46.150881 
L 54.282698 43.383127 
L 59.786308 52.063106 
L 65.289919 83.638552 
L 70.793529 119.057375 
L 76.297139 162.16295 
L 81.800749 186.657558 
L 87.30436 173.930234 
L 92.80797 144.658631 
L 98.31158 82.298474 
L 103.81519 38.933064 
L 109.318801 33.557147 
L 114.822411 32.468507 
L 120.326021 39.954419 
L 125.829631 44.479436 
L 131.333242 43.08266 
L 136.836852 53.255532 
L 142.340462 86.567697 
L 147.844072 105.407297 
L 153.347683 95.301766 
L 158.851293 81.126622 
L 164.354903 58.81225 
L 169.858513 40.504153 
L 175.362124 30.208603 
L 180.865734 25.226123 
L 186.369344 30.869779 
L 191.872954 33.470933 
L 197.376565 29.987081 
L 202.880175 27.345009 
L 208.383785 26.386499 
L 213.887395 27.815623 
L 219.391006 34.020017 
L 224.894616 36.938957 
L 230.398226 33.28699 
L 235.901837 28.994819 
L 241.405447 23.422238 
L 246.909057 20.086514 
L 252.412667 21.224502 
L 257.916278 24.130422 
L 263.419888 30.572208 
L 268.923498 33.993269 
L 274.427108 31.372879 
L 279.930719 29.452748 
L 285.434329 28.933137 
L 290.937939 29.150112 
L 296.441549 30.840261 
L 301.94516 30.10753 
L 307.44877 24.529039 
L 312.95238 20.486431 
L 318.45599 19.515588 
L 323.959601 18.483071 
L 329.463211 17.327207 
L 334.966821 19.185203 
L 340.470431 27.070921 
L 345.974042 31.475853 
L 351.477652 28.919211 
L 356.981262 27.127471 
L 362.484872 26.865538 
L 367.988483 24.574587 
L 373.492093 18.225602 
L 378.995703 15.341628 
L 384.499313 19.387678 
L 390.002924 22.098592 
L 395.506534 22.139235 
L 401.010144 22.221782 
L 406.513754 22.388136 
L 412.017365 23.73081 
L 417.520975 27.426126 
L 423.024585 28.388631 
L 428.528195 23.885513 
L 434.031806 19.764833 
L 439.535416 16.409031 
L 445.039026 13.862224 
L 450.542636 12.933406 
L 456.046247 13.810302 
L 461.549857 18.298624 
L 467.053467 21.076553 
L 472.557077 20.433694 
L 478.060688 20.355147 
L 483.564298 21.405223 
L 489.067908 22.675434 
L 494.571518 24.385915 
L 500.075129 23.292558 
L 505.578739 16.591528 
L 511.082349 12.779574 
L 516.585959 14.745776 
L 522.08957 16.304334 
L 527.59318 17.047603 
L 533.09679 18.716127 
L 538.6004 22.235164 
L 544.104011 22.690502 
L 549.607621 17.018446 
L 555.111231 13.948271 
L 560.614841 16.081859 
L 566.118452 27.42133 
L 571.622062 57.172566 
L 577.125672 95.988936 
L 582.629282 152.935574 
L 582.629282 190.932712 
L 582.629282 190.932712 
L 577.125672 190.932712 
L 571.622062 190.932712 
L 566.118452 190.932712 
L 560.614841 190.932712 
L 555.111231 190.932712 
L 549.607621 190.932712 
L 544.104011 190.932712 
L 538.6004 190.932712 
L 533.09679 190.932712 
L 527.59318 190.932712 
L 522.08957 190.932712 
L 516.585959 190.932712 
L 511.082349 190.932712 
L 505.578739 190.932712 
L 500.075129 190.932712 
L 494.571518 190.932712 
L 489.067908 190.932712 
L 483.564298 190.932712 
L 478.060688 190.932712 
L 472.557077 190.932712 
L 467.053467 190.932712 
L 461.549857 190.932712 
L 456.046247 190.932712 
L 450.542636 190.932712 
L 445.039026 190.932712 
L 439.535416 190.932712 
L 434.031806 190.932712 
L 428.528195 190.932712 
L 423.024585 190.932712 
L 417.520975 190.932712 
L 412.017365 190.932712 
L 406.513754 190.932712 
L 401.010144 190.932712 
L 395.506534 190.932712 
L 390.002924 190.932712 
L 384.499313 190.932712 
L 378.995703 190.932712 
L 373.492093 190.932712 
L 367.988483 190.932712 
L 362.484872 190.932712 
L 356.981262 190.932712 
L 351.477652 190.932712 
L 345.974042 190.932712 
L 340.470431 190.932712 
L 334.966821 190.932712 
L 329.463211 190.932712 
L 323.959601 190.932712 
L 318.45599 190.932712 
L 312.95238 190.932712 
L 307.44877 190.932712 
L 301.94516 190.932712 
L 296.441549 190.932712 
L 290.937939 190.932712 
L 285.434329 190.932712 
L 279.930719 190.932712 
L 274.427108 190.932712 
L 268.923498 190.932712 
L 263.419888 190.932712 
L 257.916278 190.932712 
L 252.412667 190.932712 
L 246.909057 190.932712 
L 241.405447 190.932712 
L 235.901837 190.932712 
L 230.398226 190.932712 
L 224.894616 190.932712 
L 219.391006 190.932712 
L 213.887395 190.932712 
L 208.383785 190.932712 
L 202.880175 190.932712 
L 197.376565 190.932712 
L 191.872954 190.932712 
L 186.369344 190.932712 
L 180.865734 190.932712 
L 175.362124 190.932712 
L 169.858513 190.932712 
L 164.354903 190.932712 
L 158.851293 190.932712 
L 153.347683 190.932712 
L 147.844072 190.932712 
L 142.340462 190.932712 
L 136.836852 190.932712 
L 131.333242 190.932712 
L 125.829631 190.932712 
L 120.326021 190.932712 
L 114.822411 190.932712 
L 109.318801 190.932712 
L 103.81519 190.932712 
L 98.31158 190.932712 
L 92.80797 190.932712 
L 87.30436 190.932712 
L 81.800749 190.932712 
L 76.297139 190.932712 
L 70.793529 190.932712 
L 65.289919 190.932712 
L 59.786308 190.932712 
L 54.282698 190.932712 
L 48.779088 190.932712 
L 43.275478 190.932712 
L 37.771867 190.932712 
z
" clip-path="url(#p6d295f0e1a)" style="fill: #808080; fill-opacity: 0.15"/>
   </g>
   <g id="matplotlib.axis_1">
    <g id="xtick_1">
     <g id="line2d_1">
      <defs>
       <path id="m14e8da7bd8" d="M 0 0 
L 0 -3.5 
" style="stroke: #000000; stroke-width: 0.8"/>
      </defs>
      <g>
       <use xlink:href="#m14e8da7bd8" x="35.937331" y="190.9" style="stroke: #000000; stroke-width: 0.8"/>
      </g>
     </g>
     <g id="text_1">
      <!-- 1 -->
      <g transform="translate(32.119831 203.518125) scale(0.12 -0.12)">
       <defs>
        <path id="DejaVuSans-31" d="M 794 531 
L 1825 531 
L 1825 4091 
L 703 3866 
L 703 4441 
L 1819 4666 
L 2450 4666 
L 2450 531 
L 3481 531 
L 3481 0 
L 794 0 
L 794 531 
z
" transform="scale(0.015625)"/>
       </defs>
       <use xlink:href="#DejaVuSans-31"/>
      </g>
     </g>
    </g>
    <g id="xtick_2">
     <g id="line2d_2">
      <g>
       <use xlink:href="#m14e8da7bd8" x="89.894294" y="190.9" style="stroke: #000000; stroke-width: 0.8"/>
      </g>
     </g>
     <g id="text_2">
      <!-- 2 -->
      <g transform="translate(86.076794 203.518125) scale(0.12 -0.12)">
       <defs>
        <path id="DejaVuSans-32" d="M 1228 531 
L 3431 531 
L 3431 0 
L 469 0 
L 469 531 
Q 828 903 1448 1529 
Q 2069 2156 2228 2338 
Q 2531 2678 2651 2914 
Q 2772 3150 2772 3378 
Q 2772 3750 2511 3984 
Q 2250 4219 1831 4219 
Q 1534 4219 1204 4116 
Q 875 4013 500 3803 
L 500 4441 
Q 881 4594 1212 4672 
Q 1544 4750 1819 4750 
Q 2544 4750 2975 4387 
Q 3406 4025 3406 3419 
Q 3406 3131 3298 2873 
Q 3191 2616 2906 2266 
Q 2828 2175 2409 1742 
Q 1991 1309 1228 531 
z
" transform="scale(0.015625)"/>
       </defs>
       <use xlink:href="#DejaVuSans-32"/>
      </g>
     </g>
    </g>
    <g id="xtick_3">
     <g id="line2d_3">
      <g>
       <use xlink:href="#m14e8da7bd8" x="143.851257" y="190.9" style="stroke: #000000; stroke-width: 0.8"/>
      </g>
     </g>
     <g id="text_3">
      <!-- 3 -->
      <g transform="translate(140.033757 203.518125) scale(0.12 -0.12)">
       <defs>
        <path id="DejaVuSans-33" d="M 2597 2516 
Q 3050 2419 3304 2112 
Q 3559 1806 3559 1356 
Q 3559 666 3084 287 
Q 2609 -91 1734 -91 
Q 1441 -91 1130 -33 
Q 819 25 488 141 
L 488 750 
Q 750 597 1062 519 
Q 1375 441 1716 441 
Q 2309 441 2620 675 
Q 2931 909 2931 1356 
Q 2931 1769 2642 2001 
Q 2353 2234 1838 2234 
L 1294 2234 
L 1294 2753 
L 1863 2753 
Q 2328 2753 2575 2939 
Q 2822 3125 2822 3475 
Q 2822 3834 2567 4026 
Q 2313 4219 1838 4219 
Q 1578 4219 1281 4162 
Q 984 4106 628 3988 
L 628 4550 
Q 988 4650 1302 4700 
Q 1616 4750 1894 4750 
Q 2613 4750 3031 4423 
Q 3450 4097 3450 3541 
Q 3450 3153 3228 2886 
Q 3006 2619 2597 2516 
z
" transform="scale(0.015625)"/>
       </defs>
       <use xlink:href="#DejaVuSans-33"/>
      </g>
     </g>
    </g>
    <g id="xtick_4">
     <g id="line2d_4">
      <g>
       <use xlink:href="#m14e8da7bd8" x="197.80822" y="190.9" style="stroke: #000000; stroke-width: 0.8"/>
      </g>
     </g>
     <g id="text_4">
      <!-- 4 -->
      <g transform="translate(193.99072 203.518125) scale(0.12 -0.12)">
       <defs>
        <path id="DejaVuSans-34" d="M 2419 4116 
L 825 1625 
L 2419 1625 
L 2419 4116 
z
M 2253 4666 
L 3047 4666 
L 3047 1625 
L 3713 1625 
L 3713 1100 
L 3047 1100 
L 3047 0 
L 2419 0 
L 2419 1100 
L 313 1100 
L 313 1709 
L 2253 4666 
z
" transform="scale(0.015625)"/>
       </defs>
       <use xlink:href="#DejaVuSans-34"/>
      </g>
     </g>
    </g>
    <g id="xtick_5">
     <g id="line2d_5">
      <g>
       <use xlink:href="#m14e8da7bd8" x="251.765184" y="190.9" style="stroke: #000000; stroke-width: 0.8"/>
      </g>
     </g>
     <g id="text_5">
      <!-- 5 -->
      <g transform="translate(247.947684 203.518125) scale(0.12 -0.12)">
       <defs>
        <path id="DejaVuSans-35" d="M 691 4666 
L 3169 4666 
L 3169 4134 
L 1269 4134 
L 1269 2991 
Q 1406 3038 1543 3061 
Q 1681 3084 1819 3084 
Q 2600 3084 3056 2656 
Q 3513 2228 3513 1497 
Q 3513 744 3044 326 
Q 2575 -91 1722 -91 
Q 1428 -91 1123 -41 
Q 819 9 494 109 
L 494 744 
Q 775 591 1075 516 
Q 1375 441 1709 441 
Q 2250 441 2565 725 
Q 2881 1009 2881 1497 
Q 2881 1984 2565 2268 
Q 2250 2553 1709 2553 
Q 1456 2553 1204 2497 
Q 953 2441 691 2322 
L 691 4666 
z
" transform="scale(0.015625)"/>
       </defs>
       <use xlink:href="#DejaVuSans-35"/>
      </g>
     </g>
    </g>
    <g id="xtick_6">
     <g id="line2d_6">
      <g>
       <use xlink:href="#m14e8da7bd8" x="305.722147" y="190.9" style="stroke: #000000; stroke-width: 0.8"/>
      </g>
     </g>
     <g id="text_6">
      <!-- 6 -->
      <g transform="translate(301.904647 203.518125) scale(0.12 -0.12)">
       <defs>
        <path id="DejaVuSans-36" d="M 2113 2584 
Q 1688 2584 1439 2293 
Q 1191 2003 1191 1497 
Q 1191 994 1439 701 
Q 1688 409 2113 409 
Q 2538 409 2786 701 
Q 3034 994 3034 1497 
Q 3034 2003 2786 2293 
Q 2538 2584 2113 2584 
z
M 3366 4563 
L 3366 3988 
Q 3128 4100 2886 4159 
Q 2644 4219 2406 4219 
Q 1781 4219 1451 3797 
Q 1122 3375 1075 2522 
Q 1259 2794 1537 2939 
Q 1816 3084 2150 3084 
Q 2853 3084 3261 2657 
Q 3669 2231 3669 1497 
Q 3669 778 3244 343 
Q 2819 -91 2113 -91 
Q 1303 -91 875 529 
Q 447 1150 447 2328 
Q 447 3434 972 4092 
Q 1497 4750 2381 4750 
Q 2619 4750 2861 4703 
Q 3103 4656 3366 4563 
z
" transform="scale(0.015625)"/>
       </defs>
       <use xlink:href="#DejaVuSans-36"/>
      </g>
     </g>
    </g>
    <g id="xtick_7">
     <g id="line2d_7">
      <g>
       <use xlink:href="#m14e8da7bd8" x="359.67911" y="190.9" style="stroke: #000000; stroke-width: 0.8"/>
      </g>
     </g>
     <g id="text_7">
      <!-- 7 -->
      <g transform="translate(355.86161 203.518125) scale(0.12 -0.12)">
       <defs>
        <path id="DejaVuSans-37" d="M 525 4666 
L 3525 4666 
L 3525 4397 
L 1831 0 
L 1172 0 
L 2766 4134 
L 525 4134 
L 525 4666 
z
" transform="scale(0.015625)"/>
       </defs>
       <use xlink:href="#DejaVuSans-37"/>
      </g>
     </g>
    </g>
    <g id="xtick_8">
     <g id="line2d_8">
      <g>
       <use xlink:href="#m14e8da7bd8" x="413.636073" y="190.9" style="stroke: #000000; stroke-width: 0.8"/>
      </g>
     </g>
     <g id="text_8">
      <!-- 8 -->
      <g transform="translate(409.818573 203.518125) scale(0.12 -0.12)">
       <defs>
        <path id="DejaVuSans-38" d="M 2034 2216 
Q 1584 2216 1326 1975 
Q 1069 1734 1069 1313 
Q 1069 891 1326 650 
Q 1584 409 2034 409 
Q 2484 409 2743 651 
Q 3003 894 3003 1313 
Q 3003 1734 2745 1975 
Q 2488 2216 2034 2216 
z
M 1403 2484 
Q 997 2584 770 2862 
Q 544 3141 544 3541 
Q 544 4100 942 4425 
Q 1341 4750 2034 4750 
Q 2731 4750 3128 4425 
Q 3525 4100 3525 3541 
Q 3525 3141 3298 2862 
Q 3072 2584 2669 2484 
Q 3125 2378 3379 2068 
Q 3634 1759 3634 1313 
Q 3634 634 3220 271 
Q 2806 -91 2034 -91 
Q 1263 -91 848 271 
Q 434 634 434 1313 
Q 434 1759 690 2068 
Q 947 2378 1403 2484 
z
M 1172 3481 
Q 1172 3119 1398 2916 
Q 1625 2713 2034 2713 
Q 2441 2713 2670 2916 
Q 2900 3119 2900 3481 
Q 2900 3844 2670 4047 
Q 2441 4250 2034 4250 
Q 1625 4250 1398 4047 
Q 1172 3844 1172 3481 
z
" transform="scale(0.015625)"/>
       </defs>
       <use xlink:href="#DejaVuSans-38"/>
      </g>
     </g>
    </g>
    <g id="xtick_9">
     <g id="line2d_9">
      <g>
       <use xlink:href="#m14e8da7bd8" x="467.593037" y="190.9" style="stroke: #000000; stroke-width: 0.8"/>
      </g>
     </g>
     <g id="text_9">
      <!-- 9 -->
      <g transform="translate(463.775537 203.518125) scale(0.12 -0.12)">
       <defs>
        <path id="DejaVuSans-39" d="M 703 97 
L 703 672 
Q 941 559 1184 500 
Q 1428 441 1663 441 
Q 2288 441 2617 861 
Q 2947 1281 2994 2138 
Q 2813 1869 2534 1725 
Q 2256 1581 1919 1581 
Q 1219 1581 811 2004 
Q 403 2428 403 3163 
Q 403 3881 828 4315 
Q 1253 4750 1959 4750 
Q 2769 4750 3195 4129 
Q 3622 3509 3622 2328 
Q 3622 1225 3098 567 
Q 2575 -91 1691 -91 
Q 1453 -91 1209 -44 
Q 966 3 703 97 
z
M 1959 2075 
Q 2384 2075 2632 2365 
Q 2881 2656 2881 3163 
Q 2881 3666 2632 3958 
Q 2384 4250 1959 4250 
Q 1534 4250 1286 3958 
Q 1038 3666 1038 3163 
Q 1038 2656 1286 2365 
Q 1534 2075 1959 2075 
z
" transform="scale(0.015625)"/>
       </defs>
       <use xlink:href="#DejaVuSans-39"/>
      </g>
     </g>
    </g>
    <g id="xtick_10">
     <g id="line2d_10">
      <g>
       <use xlink:href="#m14e8da7bd8" x="521.55" y="190.9" style="stroke: #000000; stroke-width: 0.8"/>
      </g>
     </g>
     <g id="text_10">
      <!-- 10 -->
      <g transform="translate(513.915 203.518125) scale(0.12 -0.12)">
       <defs>
        <path id="DejaVuSans-30" d="M 2034 4250 
Q 1547 4250 1301 3770 
Q 1056 3291 1056 2328 
Q 1056 1369 1301 889 
Q 1547 409 2034 409 
Q 2525 409 2770 889 
Q 3016 1369 3016 2328 
Q 3016 3291 2770 3770 
Q 2525 4250 2034 4250 
z
M 2034 4750 
Q 2819 4750 3233 4129 
Q 3647 3509 3647 2328 
Q 3647 1150 3233 529 
Q 2819 -91 2034 -91 
Q 1250 -91 836 529 
Q 422 1150 422 2328 
Q 422 3509 836 4129 
Q 1250 4750 2034 4750 
z
" transform="scale(0.015625)"/>
       </defs>
       <use xlink:href="#DejaVuSans-31"/>
       <use xlink:href="#DejaVuSans-30" x="63.623047"/>
      </g>
     </g>
    </g>
   </g>
   <g id="matplotlib.axis_2">
    <g id="ytick_1">
     <g id="line2d_11">
      <defs>
       <path id="m57d93699e0" d="M 0 0 
L 3.5 0 
" style="stroke: #000000; stroke-width: 0.8"/>
      </defs>
      <g>
       <use xlink:href="#m57d93699e0" x="35.937331" y="190.9" style="stroke: #000000; stroke-width: 0.8"/>
      </g>
     </g>
     <g id="text_11">
      <!-- $10^{0}$ -->
      <g transform="translate(11.317331 195.459063) scale(0.12 -0.12)">
       <use xlink:href="#DejaVuSans-31" transform="translate(0 0.765625)"/>
       <use xlink:href="#DejaVuSans-30" transform="translate(63.623047 0.765625)"/>
       <use xlink:href="#DejaVuSans-30" transform="translate(128.203125 39.046875) scale(0.7)"/>
      </g>
     </g>
    </g>
    <g id="ytick_2">
     <g id="line2d_12">
      <g>
       <use xlink:href="#m57d93699e0" x="35.937331" y="158.188301" style="stroke: #000000; stroke-width: 0.8"/>
      </g>
     </g>
     <g id="text_12">
      <!-- $10^{1}$ -->
      <g transform="translate(11.317331 162.747364) scale(0.12 -0.12)">
       <use xlink:href="#DejaVuSans-31" transform="translate(0 0.684375)"/>
       <use xlink:href="#DejaVuSans-30" transform="translate(63.623047 0.684375)"/>
       <use xlink:href="#DejaVuSans-31" transform="translate(128.203125 38.965625) scale(0.7)"/>
      </g>
     </g>
    </g>
    <g id="ytick_3">
     <g id="line2d_13">
      <g>
       <use xlink:href="#m57d93699e0" x="35.937331" y="125.476602" style="stroke: #000000; stroke-width: 0.8"/>
      </g>
     </g>
     <g id="text_13">
      <!-- $10^{2}$ -->
      <g transform="translate(11.317331 130.035665) scale(0.12 -0.12)">
       <use xlink:href="#DejaVuSans-31" transform="translate(0 0.765625)"/>
       <use xlink:href="#DejaVuSans-30" transform="translate(63.623047 0.765625)"/>
       <use xlink:href="#DejaVuSans-32" transform="translate(128.203125 39.046875) scale(0.7)"/>
      </g>
     </g>
    </g>
    <g id="ytick_4">
     <g id="line2d_14">
      <g>
       <use xlink:href="#m57d93699e0" x="35.937331" y="92.764904" style="stroke: #000000; stroke-width: 0.8"/>
      </g>
     </g>
     <g id="text_14">
      <!-- $10^{3}$ -->
      <g transform="translate(11.317331 97.323966) scale(0.12 -0.12)">
       <use xlink:href="#DejaVuSans-31" transform="translate(0 0.765625)"/>
       <use xlink:href="#DejaVuSans-30" transform="translate(63.623047 0.765625)"/>
       <use xlink:href="#DejaVuSans-33" transform="translate(128.203125 39.046875) scale(0.7)"/>
      </g>
     </g>
    </g>
    <g id="ytick_5">
     <g id="line2d_15">
      <g>
       <use xlink:href="#m57d93699e0" x="35.937331" y="60.053205" style="stroke: #000000; stroke-width: 0.8"/>
      </g>
     </g>
     <g id="text_15">
      <!-- $10^{4}$ -->
      <g transform="translate(11.317331 64.612267) scale(0.12 -0.12)">
       <use xlink:href="#DejaVuSans-31" transform="translate(0 0.684375)"/>
       <use xlink:href="#DejaVuSans-30" transform="translate(63.623047 0.684375)"/>
       <use xlink:href="#DejaVuSans-34" transform="translate(128.203125 38.965625) scale(0.7)"/>
      </g>
     </g>
    </g>
    <g id="ytick_6">
     <g id="line2d_16">
      <g>
       <use xlink:href="#m57d93699e0" x="35.937331" y="27.341506" style="stroke: #000000; stroke-width: 0.8"/>
      </g>
     </g>
     <g id="text_16">
      <!-- $10^{5}$ -->
      <g transform="translate(11.317331 31.900568) scale(0.12 -0.12)">
       <use xlink:href="#DejaVuSans-31" transform="translate(0 0.684375)"/>
       <use xlink:href="#DejaVuSans-30" transform="translate(63.623047 0.684375)"/>
       <use xlink:href="#DejaVuSans-35" transform="translate(128.203125 38.965625) scale(0.7)"/>
      </g>
     </g>
    </g>
   </g>
   <g id="line2d_17">
    <path d="M 37.771867 190.9 
L 43.275478 190.9 
L 48.779088 180.408926 
L 54.282698 148.935704 
L 59.786308 138.44463 
L 65.289919 169.917852 
L 70.793529 190.9 
L 76.297139 190.9 
L 81.800749 190.9 
L 87.30436 190.9 
L 92.80797 190.9 
L 98.31158 190.9 
L 103.81519 178.767725 
L 109.318801 142.370902 
L 114.822411 130.238627 
L 120.326021 166.635451 
L 125.829631 180.408926 
L 131.333242 148.935704 
L 136.836852 138.44463 
L 142.340462 169.917852 
L 147.844072 190.9 
L 153.347683 190.9 
L 158.851293 187.617599 
L 164.354903 177.770397 
L 169.858513 161.760671 
L 175.362124 133.4259 
L 180.865734 118.097334 
L 186.369344 128.781179 
L 191.872954 135.375394 
L 197.376565 133.790349 
L 202.880175 129.451251 
L 208.383785 119.604048 
L 213.887395 116.321648 
L 219.391006 126.16885 
L 224.894616 133.262 
L 230.398226 134.847046 
L 235.901837 131.867323 
L 241.405447 119.758062 
L 246.909057 112.032342 
L 252.412667 113.073704 
L 257.916278 116.497204 
L 263.419888 124.684981 
L 268.923498 129.778508 
L 274.427108 128.683537 
L 279.930719 126.883367 
L 285.434329 123.672801 
L 290.937939 122.286444 
L 296.441549 124.548502 
L 301.94516 123.661321 
L 307.44877 116.475661 
L 312.95238 114.396611 
L 318.45599 122.530778 
L 323.959601 124.211441 
L 329.463211 112.985099 
L 334.966821 108.398467 
L 340.470431 117.091257 
L 345.974042 123.135917 
L 351.477652 123.884319 
L 356.981262 123.512574 
L 362.484872 120.900531 
L 367.988483 117.707489 
L 373.492093 113.352452 
L 378.995703 110.655115 
L 384.499313 111.273179 
L 390.002924 111.382544 
L 395.506534 110.474511 
L 401.010144 112.567053 
L 406.513754 120.660745 
L 412.017365 126.05654 
L 417.520975 126.05654 
L 423.024585 123.55607 
L 428.528195 116.054658 
L 434.031806 110.763425 
L 439.535416 109.89255 
L 445.039026 108.413429 
L 450.542636 105.717817 
L 456.046247 107.081694 
L 461.549857 116.564547 
L 467.053467 120.914327 
L 472.557077 114.997961 
L 478.060688 114.235348 
L 483.564298 123.780238 
L 489.067908 127.542258 
L 494.571518 119.738534 
L 500.075129 112.529861 
L 505.578739 106.511288 
L 511.082349 105.100147 
L 516.585959 112.903871 
L 522.08957 117.036164 
L 527.59318 113.825599 
L 533.09679 112.439241 
L 538.6004 114.701299 
L 541 114.46583 
" clip-path="url(#p6d295f0e1a)" style="fill: none; stroke: #ff0000; stroke-opacity: 0.7; stroke-width: 2; stroke-linecap: square"/>
   </g>
   <g id="line2d_18">
    <path d="M 37.771867 190.9 
L 43.275478 190.9 
L 48.779088 168.111415 
L 54.282698 99.74566 
L 59.786308 76.957075 
L 65.289919 145.32283 
L 70.793529 190.9 
L 76.297139 190.9 
L 81.800749 190.9 
L 87.30436 190.9 
L 92.80797 190.9 
L 98.31158 190.9 
L 103.81519 166.470215 
L 109.318801 93.180858 
L 114.822411 68.751073 
L 120.326021 142.040429 
L 125.829631 168.111415 
L 131.333242 99.74566 
L 136.836852 76.957075 
L 142.340462 145.32283 
L 147.844072 190.9 
L 153.347683 190.9 
L 158.851293 173.485182 
L 164.354903 121.240726 
L 169.858513 78.76813 
L 175.362124 55.839253 
L 180.865734 43.867634 
L 186.369344 53.810534 
L 191.872954 60.314038 
L 197.376565 59.938748 
L 202.880175 56.4117 
L 208.383785 46.581133 
L 213.887395 43.082385 
L 219.391006 52.247278 
L 224.894616 58.272989 
L 230.398226 58.020336 
L 235.901837 54.798641 
L 241.405447 45.638862 
L 246.909057 39.501713 
L 252.412667 39.409825 
L 257.916278 42.133382 
L 263.419888 50.487829 
L 268.923498 55.962864 
L 274.427108 55.679074 
L 279.930719 53.698962 
L 285.434329 48.326207 
L 290.937939 46.393321 
L 296.441549 51.340173 
L 301.94516 51.956693 
L 307.44877 43.912546 
L 312.95238 41.07714 
L 318.45599 48.659215 
L 323.959601 49.945753 
L 329.463211 38.641217 
L 334.966821 34.721592 
L 340.470431 45.571787 
L 345.974042 52.70178 
L 351.477652 52.39137 
L 356.981262 50.676742 
L 362.484872 46.153679 
L 367.988483 42.222146 
L 373.492093 39.473674 
L 378.995703 37.612207 
L 384.499313 37.524749 
L 390.002924 37.445674 
L 395.506534 37.383364 
L 401.010144 39.537074 
L 406.513754 46.122823 
L 412.017365 50.429183 
L 417.520975 50.176767 
L 423.024585 47.831667 
L 428.528195 41.301198 
L 434.031806 36.906016 
L 439.535416 36.781409 
L 445.039026 35.607824 
L 450.542636 32.336285 
L 456.046247 33.242284 
L 461.549857 42.503359 
L 467.053467 46.622874 
L 472.557077 40.459265 
L 478.060688 38.313386 
L 483.564298 44.202964 
L 489.067908 48.060399 
L 494.571518 47.853546 
L 500.075129 44.324315 
L 505.578739 34.150328 
L 511.082349 30.672379 
L 516.585959 40.586504 
L 522.08957 45.275329 
L 527.59318 39.513553 
L 533.09679 37.509398 
L 538.6004 43.020485 
L 541 43.364533 
" clip-path="url(#p6d295f0e1a)" style="fill: none; stroke: #4169e1; stroke-opacity: 0.7; stroke-width: 2; stroke-linecap: square"/>
   </g>
   <g id="line2d_19">
    <path d="M 37.771867 190.9 
L 43.275478 190.9 
L 48.779088 166.230248 
L 54.282698 92.220993 
L 59.786308 67.551242 
L 65.289919 141.560497 
L 70.793529 190.9 
L 76.297139 190.9 
L 81.800749 190.9 
L 87.30436 190.9 
L 92.80797 190.9 
L 98.31158 190.9 
L 103.81519 164.589048 
L 109.318801 85.656192 
L 114.822411 59.34524 
L 120.326021 138.278096 
L 125.829631 166.230248 
L 131.333242 92.220993 
L 136.836852 67.551242 
L 142.340462 141.560497 
L 147.844072 190.9 
L 153.347683 190.9 
L 158.851293 171.621616 
L 164.354903 113.786463 
L 169.858513 67.566014 
L 175.362124 44.574975 
L 180.865734 32.57297 
L 186.369344 42.549031 
L 191.872954 49.089831 
L 197.376565 48.760109 
L 202.880175 45.236825 
L 208.383785 35.326415 
L 213.887395 31.78513 
L 219.391006 40.982095 
L 224.894616 47.021508 
L 230.398226 46.745814 
L 235.901837 43.503393 
L 241.405447 34.327517 
L 246.909057 28.185627 
L 252.412667 28.111709 
L 257.916278 30.850181 
L 263.419888 39.213431 
L 268.923498 44.703804 
L 274.427108 44.448422 
L 279.930719 42.475231 
L 285.434329 37.066425 
L 290.937939 35.094335 
L 296.441549 39.995679 
L 301.94516 40.596397 
L 307.44877 32.595862 
L 312.95238 29.777949 
L 318.45599 37.325281 
L 323.959601 38.599 
L 329.463211 27.32549 
L 334.966821 23.421802 
L 340.470431 34.257758 
L 345.974042 41.416521 
L 351.477652 41.220902 
L 356.981262 39.551296 
L 362.484872 34.933714 
L 367.988483 30.936901 
L 373.492093 28.181625 
L 378.995703 26.320792 
L 384.499313 26.248846 
L 390.002924 26.173509 
L 395.506534 26.091389 
L 401.010144 28.216582 
L 406.513754 34.756401 
L 412.017365 39.067326 
L 417.520975 38.920463 
L 423.024585 36.62084 
L 428.528195 30.015693 
L 434.031806 25.590476 
L 439.535416 25.525119 
L 445.039026 24.375154 
L 450.542636 21.055973 
L 456.046247 21.927442 
L 461.549857 31.180208 
L 467.053467 35.308619 
L 472.557077 29.188317 
L 478.060688 27.04862 
L 483.564298 32.87013 
L 489.067908 36.711792 
L 494.571518 36.593757 
L 500.075129 33.108488 
L 505.578739 22.888751 
L 511.082349 19.37619 
L 516.585959 29.277985 
L 522.08957 33.975335 
L 527.59318 28.263797 
L 533.09679 26.259505 
L 538.6004 31.669702 
L 541 31.991465 
" clip-path="url(#p6d295f0e1a)" style="fill: none; stroke: #ffa500; stroke-opacity: 0.7; stroke-width: 2; stroke-linecap: square"/>
   </g>
   <g id="line2d_20">
    <path d="M 37.771867 127.479746 
L 43.275478 79.235978 
L 48.779088 46.150881 
L 54.282698 43.383127 
L 59.786308 52.063106 
L 65.289919 83.638552 
L 70.793529 119.057375 
L 76.297139 162.16295 
L 81.800749 186.657558 
L 87.30436 173.930234 
L 92.80797 144.658631 
L 98.31158 82.298474 
L 103.81519 38.933064 
L 109.318801 33.557147 
L 114.822411 32.468507 
L 120.326021 39.954419 
L 125.829631 44.479436 
L 131.333242 43.08266 
L 136.836852 53.255532 
L 142.340462 86.567697 
L 147.844072 105.407297 
L 153.347683 95.301766 
L 158.851293 81.126622 
L 164.354903 58.81225 
L 169.858513 40.504153 
L 175.362124 30.208603 
L 180.865734 25.226123 
L 186.369344 30.869779 
L 191.872954 33.470933 
L 197.376565 29.987081 
L 202.880175 27.345009 
L 208.383785 26.386499 
L 213.887395 27.815623 
L 219.391006 34.020017 
L 224.894616 36.938957 
L 230.398226 33.28699 
L 235.901837 28.994819 
L 241.405447 23.422238 
L 246.909057 20.086514 
L 252.412667 21.224502 
L 257.916278 24.130422 
L 263.419888 30.572208 
L 268.923498 33.993269 
L 274.427108 31.372879 
L 279.930719 29.452748 
L 285.434329 28.933137 
L 290.937939 29.150112 
L 296.441549 30.840261 
L 301.94516 30.10753 
L 307.44877 24.529039 
L 312.95238 20.486431 
L 318.45599 19.515588 
L 323.959601 18.483071 
L 329.463211 17.327207 
L 334.966821 19.185203 
L 340.470431 27.070921 
L 345.974042 31.475853 
L 351.477652 28.919211 
L 356.981262 27.127471 
L 362.484872 26.865538 
L 367.988483 24.574587 
L 373.492093 18.225602 
L 378.995703 15.341628 
L 384.499313 19.387678 
L 390.002924 22.098592 
L 395.506534 22.139235 
L 401.010144 22.221782 
L 406.513754 22.388136 
L 412.017365 23.73081 
L 417.520975 27.426126 
L 423.024585 28.388631 
L 428.528195 23.885513 
L 434.031806 19.764833 
L 439.535416 16.409031 
L 445.039026 13.862224 
L 450.542636 12.933406 
L 456.046247 13.810302 
L 461.549857 18.298624 
L 467.053467 21.076553 
L 472.557077 20.433694 
L 478.060688 20.355147 
L 483.564298 21.405223 
L 489.067908 22.675434 
L 494.571518 24.385915 
L 500.075129 23.292558 
L 505.578739 16.591528 
L 511.082349 12.779574 
L 516.585959 14.745776 
L 522.08957 16.304334 
L 527.59318 17.047603 
L 533.09679 18.716127 
L 538.6004 22.235164 
L 541 22.433693 
" clip-path="url(#p6d295f0e1a)" style="fill: none; stroke: #808080; stroke-opacity: 0.7; stroke-width: 2; stroke-linecap: square"/>
   </g>
   <g id="patch_3">
    <path d="M 35.937331 190.9 
L 35.937331 10.8 
" style="fill: none; stroke: #000000; stroke-width: 0.8; stroke-linejoin: miter; stroke-linecap: square"/>
   </g>
   <g id="patch_4">
    <path d="M 521.55 190.9 
L 521.55 10.8 
" style="fill: none; stroke: #000000; stroke-width: 0.8; stroke-linejoin: miter; stroke-linecap: square"/>
   </g>
   <g id="patch_5">
    <path d="M 35.937331 190.9 
L 521.55 190.9 
" style="fill: none; stroke: #000000; stroke-width: 0.8; stroke-linejoin: miter; stroke-linecap: square"/>
   </g>
   <g id="patch_6">
    <path d="M 35.937331 10.8 
L 521.55 10.8 
" style="fill: none; stroke: #000000; stroke-width: 0.8; stroke-linejoin: miter; stroke-linecap: square"/>
   </g>
   <g id="legend_1">
    <g id="patch_7">
     <path d="M 303.99 184.9 
L 513.15 184.9 
Q 515.55 184.9 515.55 182.5 
L 515.55 113.245 
Q 515.55 110.845 513.15 110.845 
L 303.99 110.845 
Q 301.59 110.845 301.59 113.245 
L 301.59 182.5 
Q 301.59 184.9 303.99 184.9 
z
" style="fill: #ffffff; opacity: 0.8; stroke: #cccccc; stroke-linejoin: miter"/>
    </g>
    <g id="line2d_21">
     <path d="M 306.39 120.563125 
L 318.39 120.563125 
L 330.39 120.563125 
" style="fill: none; stroke: #808080; stroke-width: 1.5; stroke-linecap: square"/>
    </g>
    <g id="text_17">
     <!-- dataset -->
     <g transform="translate(339.99 124.763125) scale(0.12 -0.12)">
      <defs>
       <path id="DejaVuSans-64" d="M 2906 2969 
L 2906 4863 
L 3481 4863 
L 3481 0 
L 2906 0 
L 2906 525 
Q 2725 213 2448 61 
Q 2172 -91 1784 -91 
Q 1150 -91 751 415 
Q 353 922 353 1747 
Q 353 2572 751 3078 
Q 1150 3584 1784 3584 
Q 2172 3584 2448 3432 
Q 2725 3281 2906 2969 
z
M 947 1747 
Q 947 1113 1208 752 
Q 1469 391 1925 391 
Q 2381 391 2643 752 
Q 2906 1113 2906 1747 
Q 2906 2381 2643 2742 
Q 2381 3103 1925 3103 
Q 1469 3103 1208 2742 
Q 947 2381 947 1747 
z
" transform="scale(0.015625)"/>
       <path id="DejaVuSans-61" d="M 2194 1759 
Q 1497 1759 1228 1600 
Q 959 1441 959 1056 
Q 959 750 1161 570 
Q 1363 391 1709 391 
Q 2188 391 2477 730 
Q 2766 1069 2766 1631 
L 2766 1759 
L 2194 1759 
z
M 3341 1997 
L 3341 0 
L 2766 0 
L 2766 531 
Q 2569 213 2275 61 
Q 1981 -91 1556 -91 
Q 1019 -91 701 211 
Q 384 513 384 1019 
Q 384 1609 779 1909 
Q 1175 2209 1959 2209 
L 2766 2209 
L 2766 2266 
Q 2766 2663 2505 2880 
Q 2244 3097 1772 3097 
Q 1472 3097 1187 3025 
Q 903 2953 641 2809 
L 641 3341 
Q 956 3463 1253 3523 
Q 1550 3584 1831 3584 
Q 2591 3584 2966 3190 
Q 3341 2797 3341 1997 
z
" transform="scale(0.015625)"/>
       <path id="DejaVuSans-74" d="M 1172 4494 
L 1172 3500 
L 2356 3500 
L 2356 3053 
L 1172 3053 
L 1172 1153 
Q 1172 725 1289 603 
Q 1406 481 1766 481 
L 2356 481 
L 2356 0 
L 1766 0 
Q 1100 0 847 248 
Q 594 497 594 1153 
L 594 3053 
L 172 3053 
L 172 3500 
L 594 3500 
L 594 4494 
L 1172 4494 
z
" transform="scale(0.015625)"/>
       <path id="DejaVuSans-73" d="M 2834 3397 
L 2834 2853 
Q 2591 2978 2328 3040 
Q 2066 3103 1784 3103 
Q 1356 3103 1142 2972 
Q 928 2841 928 2578 
Q 928 2378 1081 2264 
Q 1234 2150 1697 2047 
L 1894 2003 
Q 2506 1872 2764 1633 
Q 3022 1394 3022 966 
Q 3022 478 2636 193 
Q 2250 -91 1575 -91 
Q 1294 -91 989 -36 
Q 684 19 347 128 
L 347 722 
Q 666 556 975 473 
Q 1284 391 1588 391 
Q 1994 391 2212 530 
Q 2431 669 2431 922 
Q 2431 1156 2273 1281 
Q 2116 1406 1581 1522 
L 1381 1569 
Q 847 1681 609 1914 
Q 372 2147 372 2553 
Q 372 3047 722 3315 
Q 1072 3584 1716 3584 
Q 2034 3584 2315 3537 
Q 2597 3491 2834 3397 
z
" transform="scale(0.015625)"/>
       <path id="DejaVuSans-65" d="M 3597 1894 
L 3597 1613 
L 953 1613 
Q 991 1019 1311 708 
Q 1631 397 2203 397 
Q 2534 397 2845 478 
Q 3156 559 3463 722 
L 3463 178 
Q 3153 47 2828 -22 
Q 2503 -91 2169 -91 
Q 1331 -91 842 396 
Q 353 884 353 1716 
Q 353 2575 817 3079 
Q 1281 3584 2069 3584 
Q 2775 3584 3186 3129 
Q 3597 2675 3597 1894 
z
M 3022 2063 
Q 3016 2534 2758 2815 
Q 2500 3097 2075 3097 
Q 1594 3097 1305 2825 
Q 1016 2553 972 2059 
L 3022 2063 
z
" transform="scale(0.015625)"/>
      </defs>
      <use xlink:href="#DejaVuSans-64"/>
      <use xlink:href="#DejaVuSans-61" x="63.476562"/>
      <use xlink:href="#DejaVuSans-74" x="124.755859"/>
      <use xlink:href="#DejaVuSans-61" x="163.964844"/>
      <use xlink:href="#DejaVuSans-73" x="225.244141"/>
      <use xlink:href="#DejaVuSans-65" x="277.34375"/>
      <use xlink:href="#DejaVuSans-74" x="338.867188"/>
     </g>
    </g>
    <g id="line2d_22">
     <path d="M 306.39 138.176875 
L 318.39 138.176875 
L 330.39 138.176875 
" style="fill: none; stroke: #ff0000; stroke-width: 1.5; stroke-linecap: square"/>
    </g>
    <g id="text_18">
     <!-- 21.79$^\circ$ (2-1, 28 atoms) -->
     <g transform="translate(339.99 142.376875) scale(0.12 -0.12)">
      <defs>
       <path id="DejaVuSans-2e" d="M 684 794 
L 1344 794 
L 1344 0 
L 684 0 
L 684 794 
z
" transform="scale(0.015625)"/>
       <path id="DejaVuSans-2218" d="M 2003 2603 
Q 1753 2603 1581 2429 
Q 1409 2256 1409 2006 
Q 1409 1759 1581 1589 
Q 1753 1419 2003 1419 
Q 2253 1419 2425 1589 
Q 2597 1759 2597 2006 
Q 2597 2253 2423 2428 
Q 2250 2603 2003 2603 
z
M 2003 3006 
Q 2203 3006 2387 2929 
Q 2572 2853 2706 2709 
Q 2850 2569 2922 2390 
Q 2994 2212 2994 2006 
Q 2994 1594 2705 1308 
Q 2416 1022 1997 1022 
Q 1575 1022 1294 1303 
Q 1013 1584 1013 2006 
Q 1013 2425 1300 2715 
Q 1588 3006 2003 3006 
z
" transform="scale(0.015625)"/>
       <path id="DejaVuSans-20" transform="scale(0.015625)"/>
       <path id="DejaVuSans-28" d="M 1984 4856 
Q 1566 4138 1362 3434 
Q 1159 2731 1159 2009 
Q 1159 1288 1364 580 
Q 1569 -128 1984 -844 
L 1484 -844 
Q 1016 -109 783 600 
Q 550 1309 550 2009 
Q 550 2706 781 3412 
Q 1013 4119 1484 4856 
L 1984 4856 
z
" transform="scale(0.015625)"/>
       <path id="DejaVuSans-2d" d="M 313 2009 
L 1997 2009 
L 1997 1497 
L 313 1497 
L 313 2009 
z
" transform="scale(0.015625)"/>
       <path id="DejaVuSans-2c" d="M 750 794 
L 1409 794 
L 1409 256 
L 897 -744 
L 494 -744 
L 750 256 
L 750 794 
z
" transform="scale(0.015625)"/>
       <path id="DejaVuSans-6f" d="M 1959 3097 
Q 1497 3097 1228 2736 
Q 959 2375 959 1747 
Q 959 1119 1226 758 
Q 1494 397 1959 397 
Q 2419 397 2687 759 
Q 2956 1122 2956 1747 
Q 2956 2369 2687 2733 
Q 2419 3097 1959 3097 
z
M 1959 3584 
Q 2709 3584 3137 3096 
Q 3566 2609 3566 1747 
Q 3566 888 3137 398 
Q 2709 -91 1959 -91 
Q 1206 -91 779 398 
Q 353 888 353 1747 
Q 353 2609 779 3096 
Q 1206 3584 1959 3584 
z
" transform="scale(0.015625)"/>
       <path id="DejaVuSans-6d" d="M 3328 2828 
Q 3544 3216 3844 3400 
Q 4144 3584 4550 3584 
Q 5097 3584 5394 3201 
Q 5691 2819 5691 2113 
L 5691 0 
L 5113 0 
L 5113 2094 
Q 5113 2597 4934 2840 
Q 4756 3084 4391 3084 
Q 3944 3084 3684 2787 
Q 3425 2491 3425 1978 
L 3425 0 
L 2847 0 
L 2847 2094 
Q 2847 2600 2669 2842 
Q 2491 3084 2119 3084 
Q 1678 3084 1418 2786 
Q 1159 2488 1159 1978 
L 1159 0 
L 581 0 
L 581 3500 
L 1159 3500 
L 1159 2956 
Q 1356 3278 1631 3431 
Q 1906 3584 2284 3584 
Q 2666 3584 2933 3390 
Q 3200 3197 3328 2828 
z
" transform="scale(0.015625)"/>
       <path id="DejaVuSans-29" d="M 513 4856 
L 1013 4856 
Q 1481 4119 1714 3412 
Q 1947 2706 1947 2009 
Q 1947 1309 1714 600 
Q 1481 -109 1013 -844 
L 513 -844 
Q 928 -128 1133 580 
Q 1338 1288 1338 2009 
Q 1338 2731 1133 3434 
Q 928 4138 513 4856 
z
" transform="scale(0.015625)"/>
      </defs>
      <use xlink:href="#DejaVuSans-32" transform="translate(0 0.125)"/>
      <use xlink:href="#DejaVuSans-31" transform="translate(63.623047 0.125)"/>
      <use xlink:href="#DejaVuSans-2e" transform="translate(127.246094 0.125)"/>
      <use xlink:href="#DejaVuSans-37" transform="translate(151.283203 0.125)"/>
      <use xlink:href="#DejaVuSans-39" transform="translate(214.90625 0.125)"/>
      <use xlink:href="#DejaVuSans-2218" transform="translate(293.124023 38.40625) scale(0.7)"/>
      <use xlink:href="#DejaVuSans-20" transform="translate(353.314453 0.125)"/>
      <use xlink:href="#DejaVuSans-28" transform="translate(385.101562 0.125)"/>
      <use xlink:href="#DejaVuSans-32" transform="translate(424.115234 0.125)"/>
      <use xlink:href="#DejaVuSans-2d" transform="translate(487.738281 0.125)"/>
      <use xlink:href="#DejaVuSans-31" transform="translate(523.822266 0.125)"/>
      <use xlink:href="#DejaVuSans-2c" transform="translate(587.445312 0.125)"/>
      <use xlink:href="#DejaVuSans-20" transform="translate(619.232422 0.125)"/>
      <use xlink:href="#DejaVuSans-32" transform="translate(651.019531 0.125)"/>
      <use xlink:href="#DejaVuSans-38" transform="translate(714.642578 0.125)"/>
      <use xlink:href="#DejaVuSans-20" transform="translate(778.265625 0.125)"/>
      <use xlink:href="#DejaVuSans-61" transform="translate(810.052734 0.125)"/>
      <use xlink:href="#DejaVuSans-74" transform="translate(871.332031 0.125)"/>
      <use xlink:href="#DejaVuSans-6f" transform="translate(910.541016 0.125)"/>
      <use xlink:href="#DejaVuSans-6d" transform="translate(971.722656 0.125)"/>
      <use xlink:href="#DejaVuSans-73" transform="translate(1069.134766 0.125)"/>
      <use xlink:href="#DejaVuSans-29" transform="translate(1121.234375 0.125)"/>
     </g>
    </g>
    <g id="line2d_23">
     <path d="M 306.39 155.790625 
L 318.39 155.790625 
L 330.39 155.790625 
" style="fill: none; stroke: #4169e1; stroke-width: 1.5; stroke-linecap: square"/>
    </g>
    <g id="text_19">
     <!-- 1.61$^\circ$ (21-20, 5044 atoms) -->
     <g transform="translate(339.99 159.990625) scale(0.12 -0.12)">
      <use xlink:href="#DejaVuSans-31" transform="translate(0 0.125)"/>
      <use xlink:href="#DejaVuSans-2e" transform="translate(63.623047 0.125)"/>
      <use xlink:href="#DejaVuSans-36" transform="translate(95.410156 0.125)"/>
      <use xlink:href="#DejaVuSans-31" transform="translate(159.033203 0.125)"/>
      <use xlink:href="#DejaVuSans-2218" transform="translate(237.250977 38.40625) scale(0.7)"/>
      <use xlink:href="#DejaVuSans-20" transform="translate(297.441406 0.125)"/>
      <use xlink:href="#DejaVuSans-28" transform="translate(329.228516 0.125)"/>
      <use xlink:href="#DejaVuSans-32" transform="translate(368.242188 0.125)"/>
      <use xlink:href="#DejaVuSans-31" transform="translate(431.865234 0.125)"/>
      <use xlink:href="#DejaVuSans-2d" transform="translate(495.488281 0.125)"/>
      <use xlink:href="#DejaVuSans-32" transform="translate(531.572266 0.125)"/>
      <use xlink:href="#DejaVuSans-30" transform="translate(595.195312 0.125)"/>
      <use xlink:href="#DejaVuSans-2c" transform="translate(658.818359 0.125)"/>
      <use xlink:href="#DejaVuSans-20" transform="translate(690.605469 0.125)"/>
      <use xlink:href="#DejaVuSans-35" transform="translate(722.392578 0.125)"/>
      <use xlink:href="#DejaVuSans-30" transform="translate(786.015625 0.125)"/>
      <use xlink:href="#DejaVuSans-34" transform="translate(849.638672 0.125)"/>
      <use xlink:href="#DejaVuSans-34" transform="translate(913.261719 0.125)"/>
      <use xlink:href="#DejaVuSans-20" transform="translate(976.884766 0.125)"/>
      <use xlink:href="#DejaVuSans-61" transform="translate(1008.671875 0.125)"/>
      <use xlink:href="#DejaVuSans-74" transform="translate(1069.951172 0.125)"/>
      <use xlink:href="#DejaVuSans-6f" transform="translate(1109.160156 0.125)"/>
      <use xlink:href="#DejaVuSans-6d" transform="translate(1170.341797 0.125)"/>
      <use xlink:href="#DejaVuSans-73" transform="translate(1267.753906 0.125)"/>
      <use xlink:href="#DejaVuSans-29" transform="translate(1319.853516 0.125)"/>
     </g>
    </g>
    <g id="line2d_24">
     <path d="M 306.39 173.404375 
L 318.39 173.404375 
L 330.39 173.404375 
" style="fill: none; stroke: #ffa500; stroke-width: 1.5; stroke-linecap: square"/>
    </g>
    <g id="text_20">
     <!-- 1.08$^\circ$ (31-30, 11164 atoms) -->
     <g transform="translate(339.99 177.604375) scale(0.12 -0.12)">
      <use xlink:href="#DejaVuSans-31" transform="translate(0 0.125)"/>
      <use xlink:href="#DejaVuSans-2e" transform="translate(63.623047 0.125)"/>
      <use xlink:href="#DejaVuSans-30" transform="translate(95.410156 0.125)"/>
      <use xlink:href="#DejaVuSans-38" transform="translate(159.033203 0.125)"/>
      <use xlink:href="#DejaVuSans-2218" transform="translate(237.250977 38.40625) scale(0.7)"/>
      <use xlink:href="#DejaVuSans-20" transform="translate(297.441406 0.125)"/>
      <use xlink:href="#DejaVuSans-28" transform="translate(329.228516 0.125)"/>
      <use xlink:href="#DejaVuSans-33" transform="translate(368.242188 0.125)"/>
      <use xlink:href="#DejaVuSans-31" transform="translate(431.865234 0.125)"/>
      <use xlink:href="#DejaVuSans-2d" transform="translate(495.488281 0.125)"/>
      <use xlink:href="#DejaVuSans-33" transform="translate(531.572266 0.125)"/>
      <use xlink:href="#DejaVuSans-30" transform="translate(595.195312 0.125)"/>
      <use xlink:href="#DejaVuSans-2c" transform="translate(658.818359 0.125)"/>
      <use xlink:href="#DejaVuSans-20" transform="translate(690.605469 0.125)"/>
      <use xlink:href="#DejaVuSans-31" transform="translate(722.392578 0.125)"/>
      <use xlink:href="#DejaVuSans-31" transform="translate(786.015625 0.125)"/>
      <use xlink:href="#DejaVuSans-31" transform="translate(849.638672 0.125)"/>
      <use xlink:href="#DejaVuSans-36" transform="translate(913.261719 0.125)"/>
      <use xlink:href="#DejaVuSans-34" transform="translate(976.884766 0.125)"/>
      <use xlink:href="#DejaVuSans-20" transform="translate(1040.507812 0.125)"/>
      <use xlink:href="#DejaVuSans-61" transform="translate(1072.294922 0.125)"/>
      <use xlink:href="#DejaVuSans-74" transform="translate(1133.574219 0.125)"/>
      <use xlink:href="#DejaVuSans-6f" transform="translate(1172.783203 0.125)"/>
      <use xlink:href="#DejaVuSans-6d" transform="translate(1233.964844 0.125)"/>
      <use xlink:href="#DejaVuSans-73" transform="translate(1331.376953 0.125)"/>
      <use xlink:href="#DejaVuSans-29" transform="translate(1383.476562 0.125)"/>
     </g>
    </g>
   </g>
  </g>
 </g>
 <defs>
  <clipPath id="p6d295f0e1a">
   <rect x="35.937331" y="10.8" width="485.612669" height="180.1"/>
  </clipPath>
 </defs>
</svg>
