<?xml version="1.0" encoding="utf-8" standalone="no"?>
<!DOCTYPE svg PUBLIC "-//W3C//DTD SVG 1.1//EN"
  "http://www.w3.org/Graphics/SVG/1.1/DTD/svg11.dtd">
<svg xmlns:xlink="http://www.w3.org/1999/xlink" width="460.8pt" height="345.6pt" viewBox="0 0 460.8 345.6" xmlns="http://www.w3.org/2000/svg" version="1.1">
 <metadata>
  <rdf:RDF xmlns:dc="http://purl.org/dc/elements/1.1/" xmlns:cc="http://creativecommons.org/ns#" xmlns:rdf="http://www.w3.org/1999/02/22-rdf-syntax-ns#">
   <cc:Work>
    <dc:type rdf:resource="http://purl.org/dc/dcmitype/StillImage"/>
    <dc:date>2023-03-07T17:57:26.686439</dc:date>
    <dc:format>image/svg+xml</dc:format>
    <dc:creator>
     <cc:Agent>
      <dc:title>Matplotlib v3.5.1, https://matplotlib.org/</dc:title>
     </cc:Agent>
    </dc:creator>
   </cc:Work>
  </rdf:RDF>
 </metadata>
 <defs>
  <style type="text/css">*{stroke-linejoin: round; stroke-linecap: butt}</style>
 </defs>
 <g id="figure_1">
  <g id="patch_1">
   <path d="M 0 345.6 
L 460.8 345.6 
L 460.8 0 
L 0 0 
z
" style="fill: #ffffff"/>
  </g>
  <g id="axes_1">
   <g id="patch_2">
    <path d="M 57.6 307.584 
L 414.72 307.584 
L 414.72 41.472 
L 57.6 41.472 
z
" style="fill: #ffffff"/>
   </g>
   <g id="patch_3">
    <path d="M 57.6 307.584 
L 64.7424 307.584 
L 64.7424 307.584 
L 57.6 307.584 
z
" clip-path="url(#pba66bf9d22)" style="fill: #0000ff"/>
   </g>
   <g id="patch_4">
    <path d="M 64.7424 307.584 
L 71.8848 307.584 
L 71.8848 307.584 
L 64.7424 307.584 
z
" clip-path="url(#pba66bf9d22)" style="fill: #0000ff"/>
   </g>
   <g id="patch_5">
    <path d="M 71.8848 307.584 
L 79.0272 307.584 
L 79.0272 307.584 
L 71.8848 307.584 
z
" clip-path="url(#pba66bf9d22)" style="fill: #0000ff"/>
   </g>
   <g id="patch_6">
    <path d="M 79.0272 307.584 
L 86.1696 307.584 
L 86.1696 307.584 
L 79.0272 307.584 
z
" clip-path="url(#pba66bf9d22)" style="fill: #0000ff"/>
   </g>
   <g id="patch_7">
    <path d="M 86.1696 307.584 
L 93.312 307.584 
L 93.312 307.584 
L 86.1696 307.584 
z
" clip-path="url(#pba66bf9d22)" style="fill: #0000ff"/>
   </g>
   <g id="patch_8">
    <path d="M 93.312 307.584 
L 100.4544 307.584 
L 100.4544 307.584 
L 93.312 307.584 
z
" clip-path="url(#pba66bf9d22)" style="fill: #0000ff"/>
   </g>
   <g id="patch_9">
    <path d="M 100.4544 307.584 
L 107.5968 307.584 
L 107.5968 307.584 
L 100.4544 307.584 
z
" clip-path="url(#pba66bf9d22)" style="fill: #0000ff"/>
   </g>
   <g id="patch_10">
    <path d="M 107.5968 307.584 
L 114.7392 307.584 
L 114.7392 307.584 
L 107.5968 307.584 
z
" clip-path="url(#pba66bf9d22)" style="fill: #0000ff"/>
   </g>
   <g id="patch_11">
    <path d="M 114.7392 307.584 
L 121.8816 307.584 
L 121.8816 192.082271 
L 114.7392 192.082271 
z
" clip-path="url(#pba66bf9d22)" style="fill: #0000ff"/>
   </g>
   <g id="patch_12">
    <path d="M 121.8816 307.584 
L 129.024 307.584 
L 129.024 307.584 
L 121.8816 307.584 
z
" clip-path="url(#pba66bf9d22)" style="fill: #0000ff"/>
   </g>
   <g id="patch_13">
    <path d="M 129.024 307.584 
L 136.1664 307.584 
L 136.1664 307.584 
L 129.024 307.584 
z
" clip-path="url(#pba66bf9d22)" style="fill: #0000ff"/>
   </g>
   <g id="patch_14">
    <path d="M 136.1664 307.584 
L 143.3088 307.584 
L 143.3088 307.584 
L 136.1664 307.584 
z
" clip-path="url(#pba66bf9d22)" style="fill: #0000ff"/>
   </g>
   <g id="patch_15">
    <path d="M 143.3088 307.584 
L 150.4512 307.584 
L 150.4512 307.584 
L 143.3088 307.584 
z
" clip-path="url(#pba66bf9d22)" style="fill: #0000ff"/>
   </g>
   <g id="patch_16">
    <path d="M 150.4512 307.584 
L 157.5936 307.584 
L 157.5936 307.584 
L 150.4512 307.584 
z
" clip-path="url(#pba66bf9d22)" style="fill: #0000ff"/>
   </g>
   <g id="patch_17">
    <path d="M 157.5936 307.584 
L 164.736 307.584 
L 164.736 307.584 
L 157.5936 307.584 
z
" clip-path="url(#pba66bf9d22)" style="fill: #0000ff"/>
   </g>
   <g id="patch_18">
    <path d="M 164.736 307.584 
L 171.8784 307.584 
L 171.8784 262.710915 
L 164.736 262.710915 
z
" clip-path="url(#pba66bf9d22)" style="fill: #0000ff"/>
   </g>
   <g id="patch_19">
    <path d="M 171.8784 307.584 
L 179.0208 307.584 
L 179.0208 185.17872 
L 171.8784 185.17872 
z
" clip-path="url(#pba66bf9d22)" style="fill: #0000ff"/>
   </g>
   <g id="patch_20">
    <path d="M 179.0208 307.584 
L 186.1632 307.584 
L 186.1632 145.616059 
L 179.0208 145.616059 
z
" clip-path="url(#pba66bf9d22)" style="fill: #0000ff"/>
   </g>
   <g id="patch_21">
    <path d="M 186.1632 307.584 
L 193.3056 307.584 
L 193.3056 298.556279 
L 186.1632 298.556279 
z
" clip-path="url(#pba66bf9d22)" style="fill: #0000ff"/>
   </g>
   <g id="patch_22">
    <path d="M 193.3056 307.584 
L 200.448 307.584 
L 200.448 298.556279 
L 193.3056 298.556279 
z
" clip-path="url(#pba66bf9d22)" style="fill: #0000ff"/>
   </g>
   <g id="patch_23">
    <path d="M 200.448 307.584 
L 207.5904 307.584 
L 207.5904 220.758563 
L 200.448 220.758563 
z
" clip-path="url(#pba66bf9d22)" style="fill: #0000ff"/>
   </g>
   <g id="patch_24">
    <path d="M 207.5904 307.584 
L 214.7328 307.584 
L 214.7328 297.892476 
L 207.5904 297.892476 
z
" clip-path="url(#pba66bf9d22)" style="fill: #0000ff"/>
   </g>
   <g id="patch_25">
    <path d="M 214.7328 307.584 
L 221.8752 307.584 
L 221.8752 260.321224 
L 214.7328 260.321224 
z
" clip-path="url(#pba66bf9d22)" style="fill: #0000ff"/>
   </g>
   <g id="patch_26">
    <path d="M 221.8752 307.584 
L 229.0176 307.584 
L 229.0176 295.901067 
L 221.8752 295.901067 
z
" clip-path="url(#pba66bf9d22)" style="fill: #0000ff"/>
   </g>
   <g id="patch_27">
    <path d="M 229.0176 307.584 
L 236.16 307.584 
L 236.16 220.360281 
L 229.0176 220.360281 
z
" clip-path="url(#pba66bf9d22)" style="fill: #0000ff"/>
   </g>
   <g id="patch_28">
    <path d="M 236.16 307.584 
L 243.3024 307.584 
L 243.3024 298.157997 
L 236.16 298.157997 
z
" clip-path="url(#pba66bf9d22)" style="fill: #0000ff"/>
   </g>
   <g id="patch_29">
    <path d="M 243.3024 307.584 
L 250.4448 307.584 
L 250.4448 294.706221 
L 243.3024 294.706221 
z
" clip-path="url(#pba66bf9d22)" style="fill: #0000ff"/>
   </g>
   <g id="patch_30">
    <path d="M 250.4448 307.584 
L 257.5872 307.584 
L 257.5872 297.095912 
L 250.4448 297.095912 
z
" clip-path="url(#pba66bf9d22)" style="fill: #0000ff"/>
   </g>
   <g id="patch_31">
    <path d="M 257.5872 307.584 
L 264.7296 307.584 
L 264.7296 257.002208 
L 257.5872 257.002208 
z
" clip-path="url(#pba66bf9d22)" style="fill: #0000ff"/>
   </g>
   <g id="patch_32">
    <path d="M 264.7296 307.584 
L 271.872 307.584 
L 271.872 255.14356 
L 264.7296 255.14356 
z
" clip-path="url(#pba66bf9d22)" style="fill: #0000ff"/>
   </g>
   <g id="patch_33">
    <path d="M 271.872 307.584 
L 279.0144 307.584 
L 279.0144 194.604723 
L 271.872 194.604723 
z
" clip-path="url(#pba66bf9d22)" style="fill: #0000ff"/>
   </g>
   <g id="patch_34">
    <path d="M 279.0144 307.584 
L 286.1568 307.584 
L 286.1568 112.956949 
L 279.0144 112.956949 
z
" clip-path="url(#pba66bf9d22)" style="fill: #0000ff"/>
   </g>
   <g id="patch_35">
    <path d="M 286.1568 307.584 
L 293.2992 307.584 
L 293.2992 210.801517 
L 286.1568 210.801517 
z
" clip-path="url(#pba66bf9d22)" style="fill: #0000ff"/>
   </g>
   <g id="patch_36">
    <path d="M 293.2992 307.584 
L 300.4416 307.584 
L 300.4416 54.144 
L 293.2992 54.144 
z
" clip-path="url(#pba66bf9d22)" style="fill: #0000ff"/>
   </g>
   <g id="patch_37">
    <path d="M 300.4416 307.584 
L 307.584 307.584 
L 307.584 266.826493 
L 300.4416 266.826493 
z
" clip-path="url(#pba66bf9d22)" style="fill: #0000ff"/>
   </g>
   <g id="patch_38">
    <path d="M 307.584 307.584 
L 314.7264 307.584 
L 314.7264 245.717557 
L 307.584 245.717557 
z
" clip-path="url(#pba66bf9d22)" style="fill: #0000ff"/>
   </g>
   <g id="patch_39">
    <path d="M 314.7264 307.584 
L 321.8688 307.584 
L 321.8688 202.304838 
L 314.7264 202.304838 
z
" clip-path="url(#pba66bf9d22)" style="fill: #0000ff"/>
   </g>
   <g id="patch_40">
    <path d="M 321.8688 307.584 
L 329.0112 307.584 
L 329.0112 264.835084 
L 321.8688 264.835084 
z
" clip-path="url(#pba66bf9d22)" style="fill: #0000ff"/>
   </g>
   <g id="patch_41">
    <path d="M 329.0112 307.584 
L 336.1536 307.584 
L 336.1536 143.491889 
L 329.0112 143.491889 
z
" clip-path="url(#pba66bf9d22)" style="fill: #0000ff"/>
   </g>
   <g id="patch_42">
    <path d="M 336.1536 307.584 
L 343.296 307.584 
L 343.296 227.396593 
L 336.1536 227.396593 
z
" clip-path="url(#pba66bf9d22)" style="fill: #0000ff"/>
   </g>
   <g id="patch_43">
    <path d="M 343.296 307.584 
L 350.4384 307.584 
L 350.4384 257.666012 
L 343.296 257.666012 
z
" clip-path="url(#pba66bf9d22)" style="fill: #0000ff"/>
   </g>
   <g id="patch_44">
    <path d="M 350.4384 307.584 
L 357.5808 307.584 
L 357.5808 180.399338 
L 350.4384 180.399338 
z
" clip-path="url(#pba66bf9d22)" style="fill: #0000ff"/>
   </g>
   <g id="patch_45">
    <path d="M 357.5808 307.584 
L 364.7232 307.584 
L 364.7232 255.276321 
L 357.5808 255.276321 
z
" clip-path="url(#pba66bf9d22)" style="fill: #0000ff"/>
   </g>
   <g id="patch_46">
    <path d="M 364.7232 307.584 
L 371.8656 307.584 
L 371.8656 107.115482 
L 364.7232 107.115482 
z
" clip-path="url(#pba66bf9d22)" style="fill: #0000ff"/>
   </g>
   <g id="patch_47">
    <path d="M 371.8656 307.584 
L 379.008 307.584 
L 379.008 246.646881 
L 371.8656 246.646881 
z
" clip-path="url(#pba66bf9d22)" style="fill: #0000ff"/>
   </g>
   <g id="patch_48">
    <path d="M 379.008 307.584 
L 386.1504 307.584 
L 386.1504 238.282963 
L 379.008 238.282963 
z
" clip-path="url(#pba66bf9d22)" style="fill: #0000ff"/>
   </g>
   <g id="patch_49">
    <path d="M 386.1504 307.584 
L 393.2928 307.584 
L 393.2928 141.102198 
L 386.1504 141.102198 
z
" clip-path="url(#pba66bf9d22)" style="fill: #0000ff"/>
   </g>
   <g id="patch_50">
    <path d="M 393.2928 307.584 
L 400.4352 307.584 
L 400.4352 96.229113 
L 393.2928 96.229113 
z
" clip-path="url(#pba66bf9d22)" style="fill: #0000ff"/>
   </g>
   <g id="patch_51">
    <path d="M 400.4352 307.584 
L 407.5776 307.584 
L 407.5776 190.621905 
L 400.4352 190.621905 
z
" clip-path="url(#pba66bf9d22)" style="fill: #0000ff"/>
   </g>
   <g id="patch_52">
    <path d="M 407.5776 307.584 
L 414.72 307.584 
L 414.72 307.584 
L 407.5776 307.584 
z
" clip-path="url(#pba66bf9d22)" style="fill: #0000ff"/>
   </g>
   <g id="matplotlib.axis_1">
    <g id="xtick_1">
     <g id="line2d_1">
      <defs>
       <path id="m071002a89b" d="M 0 0 
L 0 3.5 
" style="stroke: #000000; stroke-width: 0.8"/>
      </defs>
      <g>
       <use xlink:href="#m071002a89b" x="57.6" y="307.584" style="stroke: #000000; stroke-width: 0.8"/>
      </g>
     </g>
     <g id="text_1">
      <!-- 1 -->
      <g transform="translate(54.41875 322.182437)scale(0.1 -0.1)">
       <defs>
        <path id="DejaVuSans-31" d="M 794 531 
L 1825 531 
L 1825 4091 
L 703 3866 
L 703 4441 
L 1819 4666 
L 2450 4666 
L 2450 531 
L 3481 531 
L 3481 0 
L 794 0 
L 794 531 
z
" transform="scale(0.015625)"/>
       </defs>
       <use xlink:href="#DejaVuSans-31"/>
      </g>
     </g>
    </g>
    <g id="xtick_2">
     <g id="line2d_2">
      <g>
       <use xlink:href="#m071002a89b" x="107.2" y="307.584" style="stroke: #000000; stroke-width: 0.8"/>
      </g>
     </g>
     <g id="text_2">
      <!-- 2 -->
      <g transform="translate(104.01875 322.182437)scale(0.1 -0.1)">
       <defs>
        <path id="DejaVuSans-32" d="M 1228 531 
L 3431 531 
L 3431 0 
L 469 0 
L 469 531 
Q 828 903 1448 1529 
Q 2069 2156 2228 2338 
Q 2531 2678 2651 2914 
Q 2772 3150 2772 3378 
Q 2772 3750 2511 3984 
Q 2250 4219 1831 4219 
Q 1534 4219 1204 4116 
Q 875 4013 500 3803 
L 500 4441 
Q 881 4594 1212 4672 
Q 1544 4750 1819 4750 
Q 2544 4750 2975 4387 
Q 3406 4025 3406 3419 
Q 3406 3131 3298 2873 
Q 3191 2616 2906 2266 
Q 2828 2175 2409 1742 
Q 1991 1309 1228 531 
z
" transform="scale(0.015625)"/>
       </defs>
       <use xlink:href="#DejaVuSans-32"/>
      </g>
     </g>
    </g>
    <g id="xtick_3">
     <g id="line2d_3">
      <g>
       <use xlink:href="#m071002a89b" x="156.8" y="307.584" style="stroke: #000000; stroke-width: 0.8"/>
      </g>
     </g>
     <g id="text_3">
      <!-- 3 -->
      <g transform="translate(153.61875 322.182437)scale(0.1 -0.1)">
       <defs>
        <path id="DejaVuSans-33" d="M 2597 2516 
Q 3050 2419 3304 2112 
Q 3559 1806 3559 1356 
Q 3559 666 3084 287 
Q 2609 -91 1734 -91 
Q 1441 -91 1130 -33 
Q 819 25 488 141 
L 488 750 
Q 750 597 1062 519 
Q 1375 441 1716 441 
Q 2309 441 2620 675 
Q 2931 909 2931 1356 
Q 2931 1769 2642 2001 
Q 2353 2234 1838 2234 
L 1294 2234 
L 1294 2753 
L 1863 2753 
Q 2328 2753 2575 2939 
Q 2822 3125 2822 3475 
Q 2822 3834 2567 4026 
Q 2313 4219 1838 4219 
Q 1578 4219 1281 4162 
Q 984 4106 628 3988 
L 628 4550 
Q 988 4650 1302 4700 
Q 1616 4750 1894 4750 
Q 2613 4750 3031 4423 
Q 3450 4097 3450 3541 
Q 3450 3153 3228 2886 
Q 3006 2619 2597 2516 
z
" transform="scale(0.015625)"/>
       </defs>
       <use xlink:href="#DejaVuSans-33"/>
      </g>
     </g>
    </g>
    <g id="xtick_4">
     <g id="line2d_4">
      <g>
       <use xlink:href="#m071002a89b" x="206.4" y="307.584" style="stroke: #000000; stroke-width: 0.8"/>
      </g>
     </g>
     <g id="text_4">
      <!-- 4 -->
      <g transform="translate(203.21875 322.182437)scale(0.1 -0.1)">
       <defs>
        <path id="DejaVuSans-34" d="M 2419 4116 
L 825 1625 
L 2419 1625 
L 2419 4116 
z
M 2253 4666 
L 3047 4666 
L 3047 1625 
L 3713 1625 
L 3713 1100 
L 3047 1100 
L 3047 0 
L 2419 0 
L 2419 1100 
L 313 1100 
L 313 1709 
L 2253 4666 
z
" transform="scale(0.015625)"/>
       </defs>
       <use xlink:href="#DejaVuSans-34"/>
      </g>
     </g>
    </g>
    <g id="xtick_5">
     <g id="line2d_5">
      <g>
       <use xlink:href="#m071002a89b" x="256" y="307.584" style="stroke: #000000; stroke-width: 0.8"/>
      </g>
     </g>
     <g id="text_5">
      <!-- 5 -->
      <g transform="translate(252.81875 322.182437)scale(0.1 -0.1)">
       <defs>
        <path id="DejaVuSans-35" d="M 691 4666 
L 3169 4666 
L 3169 4134 
L 1269 4134 
L 1269 2991 
Q 1406 3038 1543 3061 
Q 1681 3084 1819 3084 
Q 2600 3084 3056 2656 
Q 3513 2228 3513 1497 
Q 3513 744 3044 326 
Q 2575 -91 1722 -91 
Q 1428 -91 1123 -41 
Q 819 9 494 109 
L 494 744 
Q 775 591 1075 516 
Q 1375 441 1709 441 
Q 2250 441 2565 725 
Q 2881 1009 2881 1497 
Q 2881 1984 2565 2268 
Q 2250 2553 1709 2553 
Q 1456 2553 1204 2497 
Q 953 2441 691 2322 
L 691 4666 
z
" transform="scale(0.015625)"/>
       </defs>
       <use xlink:href="#DejaVuSans-35"/>
      </g>
     </g>
    </g>
    <g id="xtick_6">
     <g id="line2d_6">
      <g>
       <use xlink:href="#m071002a89b" x="305.6" y="307.584" style="stroke: #000000; stroke-width: 0.8"/>
      </g>
     </g>
     <g id="text_6">
      <!-- 6 -->
      <g transform="translate(302.41875 322.182437)scale(0.1 -0.1)">
       <defs>
        <path id="DejaVuSans-36" d="M 2113 2584 
Q 1688 2584 1439 2293 
Q 1191 2003 1191 1497 
Q 1191 994 1439 701 
Q 1688 409 2113 409 
Q 2538 409 2786 701 
Q 3034 994 3034 1497 
Q 3034 2003 2786 2293 
Q 2538 2584 2113 2584 
z
M 3366 4563 
L 3366 3988 
Q 3128 4100 2886 4159 
Q 2644 4219 2406 4219 
Q 1781 4219 1451 3797 
Q 1122 3375 1075 2522 
Q 1259 2794 1537 2939 
Q 1816 3084 2150 3084 
Q 2853 3084 3261 2657 
Q 3669 2231 3669 1497 
Q 3669 778 3244 343 
Q 2819 -91 2113 -91 
Q 1303 -91 875 529 
Q 447 1150 447 2328 
Q 447 3434 972 4092 
Q 1497 4750 2381 4750 
Q 2619 4750 2861 4703 
Q 3103 4656 3366 4563 
z
" transform="scale(0.015625)"/>
       </defs>
       <use xlink:href="#DejaVuSans-36"/>
      </g>
     </g>
    </g>
    <g id="xtick_7">
     <g id="line2d_7">
      <g>
       <use xlink:href="#m071002a89b" x="355.2" y="307.584" style="stroke: #000000; stroke-width: 0.8"/>
      </g>
     </g>
     <g id="text_7">
      <!-- 7 -->
      <g transform="translate(352.01875 322.182437)scale(0.1 -0.1)">
       <defs>
        <path id="DejaVuSans-37" d="M 525 4666 
L 3525 4666 
L 3525 4397 
L 1831 0 
L 1172 0 
L 2766 4134 
L 525 4134 
L 525 4666 
z
" transform="scale(0.015625)"/>
       </defs>
       <use xlink:href="#DejaVuSans-37"/>
      </g>
     </g>
    </g>
    <g id="xtick_8">
     <g id="line2d_8">
      <g>
       <use xlink:href="#m071002a89b" x="404.8" y="307.584" style="stroke: #000000; stroke-width: 0.8"/>
      </g>
     </g>
     <g id="text_8">
      <!-- 8 -->
      <g transform="translate(401.61875 322.182437)scale(0.1 -0.1)">
       <defs>
        <path id="DejaVuSans-38" d="M 2034 2216 
Q 1584 2216 1326 1975 
Q 1069 1734 1069 1313 
Q 1069 891 1326 650 
Q 1584 409 2034 409 
Q 2484 409 2743 651 
Q 3003 894 3003 1313 
Q 3003 1734 2745 1975 
Q 2488 2216 2034 2216 
z
M 1403 2484 
Q 997 2584 770 2862 
Q 544 3141 544 3541 
Q 544 4100 942 4425 
Q 1341 4750 2034 4750 
Q 2731 4750 3128 4425 
Q 3525 4100 3525 3541 
Q 3525 3141 3298 2862 
Q 3072 2584 2669 2484 
Q 3125 2378 3379 2068 
Q 3634 1759 3634 1313 
Q 3634 634 3220 271 
Q 2806 -91 2034 -91 
Q 1263 -91 848 271 
Q 434 634 434 1313 
Q 434 1759 690 2068 
Q 947 2378 1403 2484 
z
M 1172 3481 
Q 1172 3119 1398 2916 
Q 1625 2713 2034 2713 
Q 2441 2713 2670 2916 
Q 2900 3119 2900 3481 
Q 2900 3844 2670 4047 
Q 2441 4250 2034 4250 
Q 1625 4250 1398 4047 
Q 1172 3844 1172 3481 
z
" transform="scale(0.015625)"/>
       </defs>
       <use xlink:href="#DejaVuSans-38"/>
      </g>
     </g>
    </g>
    <g id="text_9">
     <!-- Neighbor atom distance/ $\AA$ -->
     <g transform="translate(169.26 337.562125)scale(0.1 -0.1)">
      <defs>
       <path id="DejaVuSans-4e" d="M 628 4666 
L 1478 4666 
L 3547 763 
L 3547 4666 
L 4159 4666 
L 4159 0 
L 3309 0 
L 1241 3903 
L 1241 0 
L 628 0 
L 628 4666 
z
" transform="scale(0.015625)"/>
       <path id="DejaVuSans-65" d="M 3597 1894 
L 3597 1613 
L 953 1613 
Q 991 1019 1311 708 
Q 1631 397 2203 397 
Q 2534 397 2845 478 
Q 3156 559 3463 722 
L 3463 178 
Q 3153 47 2828 -22 
Q 2503 -91 2169 -91 
Q 1331 -91 842 396 
Q 353 884 353 1716 
Q 353 2575 817 3079 
Q 1281 3584 2069 3584 
Q 2775 3584 3186 3129 
Q 3597 2675 3597 1894 
z
M 3022 2063 
Q 3016 2534 2758 2815 
Q 2500 3097 2075 3097 
Q 1594 3097 1305 2825 
Q 1016 2553 972 2059 
L 3022 2063 
z
" transform="scale(0.015625)"/>
       <path id="DejaVuSans-69" d="M 603 3500 
L 1178 3500 
L 1178 0 
L 603 0 
L 603 3500 
z
M 603 4863 
L 1178 4863 
L 1178 4134 
L 603 4134 
L 603 4863 
z
" transform="scale(0.015625)"/>
       <path id="DejaVuSans-67" d="M 2906 1791 
Q 2906 2416 2648 2759 
Q 2391 3103 1925 3103 
Q 1463 3103 1205 2759 
Q 947 2416 947 1791 
Q 947 1169 1205 825 
Q 1463 481 1925 481 
Q 2391 481 2648 825 
Q 2906 1169 2906 1791 
z
M 3481 434 
Q 3481 -459 3084 -895 
Q 2688 -1331 1869 -1331 
Q 1566 -1331 1297 -1286 
Q 1028 -1241 775 -1147 
L 775 -588 
Q 1028 -725 1275 -790 
Q 1522 -856 1778 -856 
Q 2344 -856 2625 -561 
Q 2906 -266 2906 331 
L 2906 616 
Q 2728 306 2450 153 
Q 2172 0 1784 0 
Q 1141 0 747 490 
Q 353 981 353 1791 
Q 353 2603 747 3093 
Q 1141 3584 1784 3584 
Q 2172 3584 2450 3431 
Q 2728 3278 2906 2969 
L 2906 3500 
L 3481 3500 
L 3481 434 
z
" transform="scale(0.015625)"/>
       <path id="DejaVuSans-68" d="M 3513 2113 
L 3513 0 
L 2938 0 
L 2938 2094 
Q 2938 2591 2744 2837 
Q 2550 3084 2163 3084 
Q 1697 3084 1428 2787 
Q 1159 2491 1159 1978 
L 1159 0 
L 581 0 
L 581 4863 
L 1159 4863 
L 1159 2956 
Q 1366 3272 1645 3428 
Q 1925 3584 2291 3584 
Q 2894 3584 3203 3211 
Q 3513 2838 3513 2113 
z
" transform="scale(0.015625)"/>
       <path id="DejaVuSans-62" d="M 3116 1747 
Q 3116 2381 2855 2742 
Q 2594 3103 2138 3103 
Q 1681 3103 1420 2742 
Q 1159 2381 1159 1747 
Q 1159 1113 1420 752 
Q 1681 391 2138 391 
Q 2594 391 2855 752 
Q 3116 1113 3116 1747 
z
M 1159 2969 
Q 1341 3281 1617 3432 
Q 1894 3584 2278 3584 
Q 2916 3584 3314 3078 
Q 3713 2572 3713 1747 
Q 3713 922 3314 415 
Q 2916 -91 2278 -91 
Q 1894 -91 1617 61 
Q 1341 213 1159 525 
L 1159 0 
L 581 0 
L 581 4863 
L 1159 4863 
L 1159 2969 
z
" transform="scale(0.015625)"/>
       <path id="DejaVuSans-6f" d="M 1959 3097 
Q 1497 3097 1228 2736 
Q 959 2375 959 1747 
Q 959 1119 1226 758 
Q 1494 397 1959 397 
Q 2419 397 2687 759 
Q 2956 1122 2956 1747 
Q 2956 2369 2687 2733 
Q 2419 3097 1959 3097 
z
M 1959 3584 
Q 2709 3584 3137 3096 
Q 3566 2609 3566 1747 
Q 3566 888 3137 398 
Q 2709 -91 1959 -91 
Q 1206 -91 779 398 
Q 353 888 353 1747 
Q 353 2609 779 3096 
Q 1206 3584 1959 3584 
z
" transform="scale(0.015625)"/>
       <path id="DejaVuSans-72" d="M 2631 2963 
Q 2534 3019 2420 3045 
Q 2306 3072 2169 3072 
Q 1681 3072 1420 2755 
Q 1159 2438 1159 1844 
L 1159 0 
L 581 0 
L 581 3500 
L 1159 3500 
L 1159 2956 
Q 1341 3275 1631 3429 
Q 1922 3584 2338 3584 
Q 2397 3584 2469 3576 
Q 2541 3569 2628 3553 
L 2631 2963 
z
" transform="scale(0.015625)"/>
       <path id="DejaVuSans-20" transform="scale(0.015625)"/>
       <path id="DejaVuSans-61" d="M 2194 1759 
Q 1497 1759 1228 1600 
Q 959 1441 959 1056 
Q 959 750 1161 570 
Q 1363 391 1709 391 
Q 2188 391 2477 730 
Q 2766 1069 2766 1631 
L 2766 1759 
L 2194 1759 
z
M 3341 1997 
L 3341 0 
L 2766 0 
L 2766 531 
Q 2569 213 2275 61 
Q 1981 -91 1556 -91 
Q 1019 -91 701 211 
Q 384 513 384 1019 
Q 384 1609 779 1909 
Q 1175 2209 1959 2209 
L 2766 2209 
L 2766 2266 
Q 2766 2663 2505 2880 
Q 2244 3097 1772 3097 
Q 1472 3097 1187 3025 
Q 903 2953 641 2809 
L 641 3341 
Q 956 3463 1253 3523 
Q 1550 3584 1831 3584 
Q 2591 3584 2966 3190 
Q 3341 2797 3341 1997 
z
" transform="scale(0.015625)"/>
       <path id="DejaVuSans-74" d="M 1172 4494 
L 1172 3500 
L 2356 3500 
L 2356 3053 
L 1172 3053 
L 1172 1153 
Q 1172 725 1289 603 
Q 1406 481 1766 481 
L 2356 481 
L 2356 0 
L 1766 0 
Q 1100 0 847 248 
Q 594 497 594 1153 
L 594 3053 
L 172 3053 
L 172 3500 
L 594 3500 
L 594 4494 
L 1172 4494 
z
" transform="scale(0.015625)"/>
       <path id="DejaVuSans-6d" d="M 3328 2828 
Q 3544 3216 3844 3400 
Q 4144 3584 4550 3584 
Q 5097 3584 5394 3201 
Q 5691 2819 5691 2113 
L 5691 0 
L 5113 0 
L 5113 2094 
Q 5113 2597 4934 2840 
Q 4756 3084 4391 3084 
Q 3944 3084 3684 2787 
Q 3425 2491 3425 1978 
L 3425 0 
L 2847 0 
L 2847 2094 
Q 2847 2600 2669 2842 
Q 2491 3084 2119 3084 
Q 1678 3084 1418 2786 
Q 1159 2488 1159 1978 
L 1159 0 
L 581 0 
L 581 3500 
L 1159 3500 
L 1159 2956 
Q 1356 3278 1631 3431 
Q 1906 3584 2284 3584 
Q 2666 3584 2933 3390 
Q 3200 3197 3328 2828 
z
" transform="scale(0.015625)"/>
       <path id="DejaVuSans-64" d="M 2906 2969 
L 2906 4863 
L 3481 4863 
L 3481 0 
L 2906 0 
L 2906 525 
Q 2725 213 2448 61 
Q 2172 -91 1784 -91 
Q 1150 -91 751 415 
Q 353 922 353 1747 
Q 353 2572 751 3078 
Q 1150 3584 1784 3584 
Q 2172 3584 2448 3432 
Q 2725 3281 2906 2969 
z
M 947 1747 
Q 947 1113 1208 752 
Q 1469 391 1925 391 
Q 2381 391 2643 752 
Q 2906 1113 2906 1747 
Q 2906 2381 2643 2742 
Q 2381 3103 1925 3103 
Q 1469 3103 1208 2742 
Q 947 2381 947 1747 
z
" transform="scale(0.015625)"/>
       <path id="DejaVuSans-73" d="M 2834 3397 
L 2834 2853 
Q 2591 2978 2328 3040 
Q 2066 3103 1784 3103 
Q 1356 3103 1142 2972 
Q 928 2841 928 2578 
Q 928 2378 1081 2264 
Q 1234 2150 1697 2047 
L 1894 2003 
Q 2506 1872 2764 1633 
Q 3022 1394 3022 966 
Q 3022 478 2636 193 
Q 2250 -91 1575 -91 
Q 1294 -91 989 -36 
Q 684 19 347 128 
L 347 722 
Q 666 556 975 473 
Q 1284 391 1588 391 
Q 1994 391 2212 530 
Q 2431 669 2431 922 
Q 2431 1156 2273 1281 
Q 2116 1406 1581 1522 
L 1381 1569 
Q 847 1681 609 1914 
Q 372 2147 372 2553 
Q 372 3047 722 3315 
Q 1072 3584 1716 3584 
Q 2034 3584 2315 3537 
Q 2597 3491 2834 3397 
z
" transform="scale(0.015625)"/>
       <path id="DejaVuSans-6e" d="M 3513 2113 
L 3513 0 
L 2938 0 
L 2938 2094 
Q 2938 2591 2744 2837 
Q 2550 3084 2163 3084 
Q 1697 3084 1428 2787 
Q 1159 2491 1159 1978 
L 1159 0 
L 581 0 
L 581 3500 
L 1159 3500 
L 1159 2956 
Q 1366 3272 1645 3428 
Q 1925 3584 2291 3584 
Q 2894 3584 3203 3211 
Q 3513 2838 3513 2113 
z
" transform="scale(0.015625)"/>
       <path id="DejaVuSans-63" d="M 3122 3366 
L 3122 2828 
Q 2878 2963 2633 3030 
Q 2388 3097 2138 3097 
Q 1578 3097 1268 2742 
Q 959 2388 959 1747 
Q 959 1106 1268 751 
Q 1578 397 2138 397 
Q 2388 397 2633 464 
Q 2878 531 3122 666 
L 3122 134 
Q 2881 22 2623 -34 
Q 2366 -91 2075 -91 
Q 1284 -91 818 406 
Q 353 903 353 1747 
Q 353 2603 823 3093 
Q 1294 3584 2113 3584 
Q 2378 3584 2631 3529 
Q 2884 3475 3122 3366 
z
" transform="scale(0.015625)"/>
       <path id="DejaVuSans-2f" d="M 1625 4666 
L 2156 4666 
L 531 -594 
L 0 -594 
L 1625 4666 
z
" transform="scale(0.015625)"/>
       <path id="DejaVuSans-Oblique-c5" d="M 3188 5081 
Q 3188 5278 3048 5417 
Q 2909 5556 2713 5556 
Q 2513 5556 2377 5420 
Q 2241 5284 2241 5081 
Q 2241 4884 2377 4746 
Q 2513 4609 2713 4609 
Q 2909 4609 3048 4746 
Q 3188 4884 3188 5081 
z
M 2203 4397 
Q 2034 4513 1945 4689 
Q 1856 4866 1856 5081 
Q 1856 5438 2106 5689 
Q 2356 5941 2713 5941 
Q 3069 5941 3320 5689 
Q 3572 5438 3572 5081 
Q 3572 4834 3458 4643 
Q 3344 4453 3128 4341 
L 3938 0 
L 3278 0 
L 3084 1197 
L 984 1197 
L 325 0 
L -341 0 
L 2203 4397 
z
M 2584 4044 
L 1275 1722 
L 2988 1722 
L 2584 4044 
z
" transform="scale(0.015625)"/>
      </defs>
      <use xlink:href="#DejaVuSans-4e" transform="translate(0 0.171875)"/>
      <use xlink:href="#DejaVuSans-65" transform="translate(74.804688 0.171875)"/>
      <use xlink:href="#DejaVuSans-69" transform="translate(136.328125 0.171875)"/>
      <use xlink:href="#DejaVuSans-67" transform="translate(164.111328 0.171875)"/>
      <use xlink:href="#DejaVuSans-68" transform="translate(227.587891 0.171875)"/>
      <use xlink:href="#DejaVuSans-62" transform="translate(290.966797 0.171875)"/>
      <use xlink:href="#DejaVuSans-6f" transform="translate(354.443359 0.171875)"/>
      <use xlink:href="#DejaVuSans-72" transform="translate(415.625 0.171875)"/>
      <use xlink:href="#DejaVuSans-20" transform="translate(456.738281 0.171875)"/>
      <use xlink:href="#DejaVuSans-61" transform="translate(488.525391 0.171875)"/>
      <use xlink:href="#DejaVuSans-74" transform="translate(549.804688 0.171875)"/>
      <use xlink:href="#DejaVuSans-6f" transform="translate(589.013672 0.171875)"/>
      <use xlink:href="#DejaVuSans-6d" transform="translate(650.195312 0.171875)"/>
      <use xlink:href="#DejaVuSans-20" transform="translate(747.607422 0.171875)"/>
      <use xlink:href="#DejaVuSans-64" transform="translate(779.394531 0.171875)"/>
      <use xlink:href="#DejaVuSans-69" transform="translate(842.871094 0.171875)"/>
      <use xlink:href="#DejaVuSans-73" transform="translate(870.654297 0.171875)"/>
      <use xlink:href="#DejaVuSans-74" transform="translate(922.753906 0.171875)"/>
      <use xlink:href="#DejaVuSans-61" transform="translate(961.962891 0.171875)"/>
      <use xlink:href="#DejaVuSans-6e" transform="translate(1023.242188 0.171875)"/>
      <use xlink:href="#DejaVuSans-63" transform="translate(1086.621094 0.171875)"/>
      <use xlink:href="#DejaVuSans-65" transform="translate(1141.601562 0.171875)"/>
      <use xlink:href="#DejaVuSans-2f" transform="translate(1203.125 0.171875)"/>
      <use xlink:href="#DejaVuSans-20" transform="translate(1236.816406 0.171875)"/>
      <use xlink:href="#DejaVuSans-Oblique-c5" transform="translate(1268.603516 0.171875)"/>
     </g>
    </g>
   </g>
   <g id="matplotlib.axis_2">
    <g id="ytick_1">
     <g id="line2d_9">
      <defs>
       <path id="mdaa9fb4853" d="M 0 0 
L -3.5 0 
" style="stroke: #000000; stroke-width: 0.8"/>
      </defs>
      <g>
       <use xlink:href="#mdaa9fb4853" x="57.6" y="307.584" style="stroke: #000000; stroke-width: 0.8"/>
      </g>
     </g>
     <g id="text_10">
      <!-- 0.0 -->
      <g transform="translate(34.696875 311.383219)scale(0.1 -0.1)">
       <defs>
        <path id="DejaVuSans-30" d="M 2034 4250 
Q 1547 4250 1301 3770 
Q 1056 3291 1056 2328 
Q 1056 1369 1301 889 
Q 1547 409 2034 409 
Q 2525 409 2770 889 
Q 3016 1369 3016 2328 
Q 3016 3291 2770 3770 
Q 2525 4250 2034 4250 
z
M 2034 4750 
Q 2819 4750 3233 4129 
Q 3647 3509 3647 2328 
Q 3647 1150 3233 529 
Q 2819 -91 2034 -91 
Q 1250 -91 836 529 
Q 422 1150 422 2328 
Q 422 3509 836 4129 
Q 1250 4750 2034 4750 
z
" transform="scale(0.015625)"/>
        <path id="DejaVuSans-2e" d="M 684 794 
L 1344 794 
L 1344 0 
L 684 0 
L 684 794 
z
" transform="scale(0.015625)"/>
       </defs>
       <use xlink:href="#DejaVuSans-30"/>
       <use xlink:href="#DejaVuSans-2e" x="63.623047"/>
       <use xlink:href="#DejaVuSans-30" x="95.410156"/>
      </g>
     </g>
    </g>
    <g id="ytick_2">
     <g id="line2d_10">
      <g>
       <use xlink:href="#mdaa9fb4853" x="57.6" y="274.393848" style="stroke: #000000; stroke-width: 0.8"/>
      </g>
     </g>
     <g id="text_11">
      <!-- 0.5 -->
      <g transform="translate(34.696875 278.193067)scale(0.1 -0.1)">
       <use xlink:href="#DejaVuSans-30"/>
       <use xlink:href="#DejaVuSans-2e" x="63.623047"/>
       <use xlink:href="#DejaVuSans-35" x="95.410156"/>
      </g>
     </g>
    </g>
    <g id="ytick_3">
     <g id="line2d_11">
      <g>
       <use xlink:href="#mdaa9fb4853" x="57.6" y="241.203696" style="stroke: #000000; stroke-width: 0.8"/>
      </g>
     </g>
     <g id="text_12">
      <!-- 1.0 -->
      <g transform="translate(34.696875 245.002915)scale(0.1 -0.1)">
       <use xlink:href="#DejaVuSans-31"/>
       <use xlink:href="#DejaVuSans-2e" x="63.623047"/>
       <use xlink:href="#DejaVuSans-30" x="95.410156"/>
      </g>
     </g>
    </g>
    <g id="ytick_4">
     <g id="line2d_12">
      <g>
       <use xlink:href="#mdaa9fb4853" x="57.6" y="208.013544" style="stroke: #000000; stroke-width: 0.8"/>
      </g>
     </g>
     <g id="text_13">
      <!-- 1.5 -->
      <g transform="translate(34.696875 211.812763)scale(0.1 -0.1)">
       <use xlink:href="#DejaVuSans-31"/>
       <use xlink:href="#DejaVuSans-2e" x="63.623047"/>
       <use xlink:href="#DejaVuSans-35" x="95.410156"/>
      </g>
     </g>
    </g>
    <g id="ytick_5">
     <g id="line2d_13">
      <g>
       <use xlink:href="#mdaa9fb4853" x="57.6" y="174.823392" style="stroke: #000000; stroke-width: 0.8"/>
      </g>
     </g>
     <g id="text_14">
      <!-- 2.0 -->
      <g transform="translate(34.696875 178.622611)scale(0.1 -0.1)">
       <use xlink:href="#DejaVuSans-32"/>
       <use xlink:href="#DejaVuSans-2e" x="63.623047"/>
       <use xlink:href="#DejaVuSans-30" x="95.410156"/>
      </g>
     </g>
    </g>
    <g id="ytick_6">
     <g id="line2d_14">
      <g>
       <use xlink:href="#mdaa9fb4853" x="57.6" y="141.63324" style="stroke: #000000; stroke-width: 0.8"/>
      </g>
     </g>
     <g id="text_15">
      <!-- 2.5 -->
      <g transform="translate(34.696875 145.432459)scale(0.1 -0.1)">
       <use xlink:href="#DejaVuSans-32"/>
       <use xlink:href="#DejaVuSans-2e" x="63.623047"/>
       <use xlink:href="#DejaVuSans-35" x="95.410156"/>
      </g>
     </g>
    </g>
    <g id="ytick_7">
     <g id="line2d_15">
      <g>
       <use xlink:href="#mdaa9fb4853" x="57.6" y="108.443089" style="stroke: #000000; stroke-width: 0.8"/>
      </g>
     </g>
     <g id="text_16">
      <!-- 3.0 -->
      <g transform="translate(34.696875 112.242307)scale(0.1 -0.1)">
       <use xlink:href="#DejaVuSans-33"/>
       <use xlink:href="#DejaVuSans-2e" x="63.623047"/>
       <use xlink:href="#DejaVuSans-30" x="95.410156"/>
      </g>
     </g>
    </g>
    <g id="ytick_8">
     <g id="line2d_16">
      <g>
       <use xlink:href="#mdaa9fb4853" x="57.6" y="75.252937" style="stroke: #000000; stroke-width: 0.8"/>
      </g>
     </g>
     <g id="text_17">
      <!-- 3.5 -->
      <g transform="translate(34.696875 79.052155)scale(0.1 -0.1)">
       <use xlink:href="#DejaVuSans-33"/>
       <use xlink:href="#DejaVuSans-2e" x="63.623047"/>
       <use xlink:href="#DejaVuSans-35" x="95.410156"/>
      </g>
     </g>
    </g>
    <g id="ytick_9">
     <g id="line2d_17">
      <g>
       <use xlink:href="#mdaa9fb4853" x="57.6" y="42.062785" style="stroke: #000000; stroke-width: 0.8"/>
      </g>
     </g>
     <g id="text_18">
      <!-- 4.0 -->
      <g transform="translate(34.696875 45.862003)scale(0.1 -0.1)">
       <use xlink:href="#DejaVuSans-34"/>
       <use xlink:href="#DejaVuSans-2e" x="63.623047"/>
       <use xlink:href="#DejaVuSans-30" x="95.410156"/>
      </g>
     </g>
    </g>
    <g id="text_19">
     <!-- Frequency -->
     <g style="fill: #0000ff" transform="translate(28.617187 200.357687)rotate(-90)scale(0.1 -0.1)">
      <defs>
       <path id="DejaVuSans-46" d="M 628 4666 
L 3309 4666 
L 3309 4134 
L 1259 4134 
L 1259 2759 
L 3109 2759 
L 3109 2228 
L 1259 2228 
L 1259 0 
L 628 0 
L 628 4666 
z
" transform="scale(0.015625)"/>
       <path id="DejaVuSans-71" d="M 947 1747 
Q 947 1113 1208 752 
Q 1469 391 1925 391 
Q 2381 391 2643 752 
Q 2906 1113 2906 1747 
Q 2906 2381 2643 2742 
Q 2381 3103 1925 3103 
Q 1469 3103 1208 2742 
Q 947 2381 947 1747 
z
M 2906 525 
Q 2725 213 2448 61 
Q 2172 -91 1784 -91 
Q 1150 -91 751 415 
Q 353 922 353 1747 
Q 353 2572 751 3078 
Q 1150 3584 1784 3584 
Q 2172 3584 2448 3432 
Q 2725 3281 2906 2969 
L 2906 3500 
L 3481 3500 
L 3481 -1331 
L 2906 -1331 
L 2906 525 
z
" transform="scale(0.015625)"/>
       <path id="DejaVuSans-75" d="M 544 1381 
L 544 3500 
L 1119 3500 
L 1119 1403 
Q 1119 906 1312 657 
Q 1506 409 1894 409 
Q 2359 409 2629 706 
Q 2900 1003 2900 1516 
L 2900 3500 
L 3475 3500 
L 3475 0 
L 2900 0 
L 2900 538 
Q 2691 219 2414 64 
Q 2138 -91 1772 -91 
Q 1169 -91 856 284 
Q 544 659 544 1381 
z
M 1991 3584 
L 1991 3584 
z
" transform="scale(0.015625)"/>
       <path id="DejaVuSans-79" d="M 2059 -325 
Q 1816 -950 1584 -1140 
Q 1353 -1331 966 -1331 
L 506 -1331 
L 506 -850 
L 844 -850 
Q 1081 -850 1212 -737 
Q 1344 -625 1503 -206 
L 1606 56 
L 191 3500 
L 800 3500 
L 1894 763 
L 2988 3500 
L 3597 3500 
L 2059 -325 
z
" transform="scale(0.015625)"/>
      </defs>
      <use xlink:href="#DejaVuSans-46"/>
      <use xlink:href="#DejaVuSans-72" x="50.269531"/>
      <use xlink:href="#DejaVuSans-65" x="89.132812"/>
      <use xlink:href="#DejaVuSans-71" x="150.65625"/>
      <use xlink:href="#DejaVuSans-75" x="214.132812"/>
      <use xlink:href="#DejaVuSans-65" x="277.511719"/>
      <use xlink:href="#DejaVuSans-6e" x="339.035156"/>
      <use xlink:href="#DejaVuSans-63" x="402.414062"/>
      <use xlink:href="#DejaVuSans-79" x="457.394531"/>
     </g>
    </g>
    <g id="text_20">
     <!-- 1e3 -->
     <g transform="translate(57.6 38.472)scale(0.1 -0.1)">
      <use xlink:href="#DejaVuSans-31"/>
      <use xlink:href="#DejaVuSans-65" x="63.623047"/>
      <use xlink:href="#DejaVuSans-33" x="125.146484"/>
     </g>
    </g>
   </g>
   <g id="patch_53">
    <path d="M 57.6 307.584 
L 57.6 41.472 
" style="fill: none; stroke: #000000; stroke-width: 0.8; stroke-linejoin: miter; stroke-linecap: square"/>
   </g>
   <g id="patch_54">
    <path d="M 57.6 307.584 
L 414.72 307.584 
" style="fill: none; stroke: #000000; stroke-width: 0.8; stroke-linejoin: miter; stroke-linecap: square"/>
   </g>
   <g id="patch_55">
    <path d="M 57.6 41.472 
L 414.72 41.472 
" style="fill: none; stroke: #000000; stroke-width: 0.8; stroke-linejoin: miter; stroke-linecap: square"/>
   </g>
   <g id="text_21">
    <!-- Neighbor atom distance distribution -->
    <g transform="translate(127.873125 35.472)scale(0.12 -0.12)">
     <use xlink:href="#DejaVuSans-4e"/>
     <use xlink:href="#DejaVuSans-65" x="74.804688"/>
     <use xlink:href="#DejaVuSans-69" x="136.328125"/>
     <use xlink:href="#DejaVuSans-67" x="164.111328"/>
     <use xlink:href="#DejaVuSans-68" x="227.587891"/>
     <use xlink:href="#DejaVuSans-62" x="290.966797"/>
     <use xlink:href="#DejaVuSans-6f" x="354.443359"/>
     <use xlink:href="#DejaVuSans-72" x="415.625"/>
     <use xlink:href="#DejaVuSans-20" x="456.738281"/>
     <use xlink:href="#DejaVuSans-61" x="488.525391"/>
     <use xlink:href="#DejaVuSans-74" x="549.804688"/>
     <use xlink:href="#DejaVuSans-6f" x="589.013672"/>
     <use xlink:href="#DejaVuSans-6d" x="650.195312"/>
     <use xlink:href="#DejaVuSans-20" x="747.607422"/>
     <use xlink:href="#DejaVuSans-64" x="779.394531"/>
     <use xlink:href="#DejaVuSans-69" x="842.871094"/>
     <use xlink:href="#DejaVuSans-73" x="870.654297"/>
     <use xlink:href="#DejaVuSans-74" x="922.753906"/>
     <use xlink:href="#DejaVuSans-61" x="961.962891"/>
     <use xlink:href="#DejaVuSans-6e" x="1023.242188"/>
     <use xlink:href="#DejaVuSans-63" x="1086.621094"/>
     <use xlink:href="#DejaVuSans-65" x="1141.601562"/>
     <use xlink:href="#DejaVuSans-20" x="1203.125"/>
     <use xlink:href="#DejaVuSans-64" x="1234.912109"/>
     <use xlink:href="#DejaVuSans-69" x="1298.388672"/>
     <use xlink:href="#DejaVuSans-73" x="1326.171875"/>
     <use xlink:href="#DejaVuSans-74" x="1378.271484"/>
     <use xlink:href="#DejaVuSans-72" x="1417.480469"/>
     <use xlink:href="#DejaVuSans-69" x="1458.59375"/>
     <use xlink:href="#DejaVuSans-62" x="1486.376953"/>
     <use xlink:href="#DejaVuSans-75" x="1549.853516"/>
     <use xlink:href="#DejaVuSans-74" x="1613.232422"/>
     <use xlink:href="#DejaVuSans-69" x="1652.441406"/>
     <use xlink:href="#DejaVuSans-6f" x="1680.224609"/>
     <use xlink:href="#DejaVuSans-6e" x="1741.40625"/>
    </g>
   </g>
   <g id="legend_1">
    <g id="patch_56">
     <path d="M 64.6 78.82825 
L 167.846875 78.82825 
Q 169.846875 78.82825 169.846875 76.82825 
L 169.846875 48.472 
Q 169.846875 46.472 167.846875 46.472 
L 64.6 46.472 
Q 62.6 46.472 62.6 48.472 
L 62.6 76.82825 
Q 62.6 78.82825 64.6 78.82825 
z
" style="fill: #ffffff; opacity: 0.8; stroke: #cccccc; stroke-linejoin: miter"/>
    </g>
    <g id="line2d_18">
     <path d="M 66.6 54.570437 
L 76.6 54.570437 
L 86.6 54.570437 
" style="fill: none"/>
     <defs>
      <path id="m16059278d4" d="M -2.5 2.5 
L 2.5 2.5 
L 2.5 -2.5 
L -2.5 -2.5 
z
" style="stroke: #0000ff; stroke-linejoin: miter"/>
     </defs>
     <g>
      <use xlink:href="#m16059278d4" x="76.6" y="54.570437" style="fill: #0000ff; stroke: #0000ff; stroke-linejoin: miter"/>
     </g>
    </g>
    <g id="text_22">
     <!-- 12-6 structure -->
     <g transform="translate(94.6 58.070437)scale(0.1 -0.1)">
      <defs>
       <path id="DejaVuSans-2d" d="M 313 2009 
L 1997 2009 
L 1997 1497 
L 313 1497 
L 313 2009 
z
" transform="scale(0.015625)"/>
      </defs>
      <use xlink:href="#DejaVuSans-31"/>
      <use xlink:href="#DejaVuSans-32" x="63.623047"/>
      <use xlink:href="#DejaVuSans-2d" x="127.246094"/>
      <use xlink:href="#DejaVuSans-36" x="163.330078"/>
      <use xlink:href="#DejaVuSans-20" x="226.953125"/>
      <use xlink:href="#DejaVuSans-73" x="258.740234"/>
      <use xlink:href="#DejaVuSans-74" x="310.839844"/>
      <use xlink:href="#DejaVuSans-72" x="350.048828"/>
      <use xlink:href="#DejaVuSans-75" x="391.162109"/>
      <use xlink:href="#DejaVuSans-63" x="454.541016"/>
      <use xlink:href="#DejaVuSans-74" x="509.521484"/>
      <use xlink:href="#DejaVuSans-75" x="548.730469"/>
      <use xlink:href="#DejaVuSans-72" x="612.109375"/>
      <use xlink:href="#DejaVuSans-65" x="650.972656"/>
     </g>
    </g>
    <g id="line2d_19">
     <path d="M 66.6 69.248562 
L 76.6 69.248562 
L 86.6 69.248562 
" style="fill: none; stroke: #ff0000; stroke-width: 1.5; stroke-linecap: square"/>
    </g>
    <g id="text_23">
     <!-- dataset -->
     <g transform="translate(94.6 72.748562)scale(0.1 -0.1)">
      <use xlink:href="#DejaVuSans-64"/>
      <use xlink:href="#DejaVuSans-61" x="63.476562"/>
      <use xlink:href="#DejaVuSans-74" x="124.755859"/>
      <use xlink:href="#DejaVuSans-61" x="163.964844"/>
      <use xlink:href="#DejaVuSans-73" x="225.244141"/>
      <use xlink:href="#DejaVuSans-65" x="277.34375"/>
      <use xlink:href="#DejaVuSans-74" x="338.867188"/>
     </g>
    </g>
   </g>
  </g>
  <g id="axes_2">
   <g id="matplotlib.axis_3">
    <g id="ytick_10">
     <g id="line2d_20">
      <defs>
       <path id="mcb028c9a21" d="M 0 0 
L 3.5 0 
" style="stroke: #000000; stroke-width: 0.8"/>
      </defs>
      <g>
       <use xlink:href="#mcb028c9a21" x="414.72" y="307.584" style="stroke: #000000; stroke-width: 0.8"/>
      </g>
     </g>
     <g id="text_24">
      <!-- 0 -->
      <g transform="translate(421.72 311.383219)scale(0.1 -0.1)">
       <use xlink:href="#DejaVuSans-30"/>
      </g>
     </g>
    </g>
    <g id="ytick_11">
     <g id="line2d_21">
      <g>
       <use xlink:href="#mcb028c9a21" x="414.72" y="268.326321" style="stroke: #000000; stroke-width: 0.8"/>
      </g>
     </g>
     <g id="text_25">
      <!-- 1 -->
      <g transform="translate(421.72 272.12554)scale(0.1 -0.1)">
       <use xlink:href="#DejaVuSans-31"/>
      </g>
     </g>
    </g>
    <g id="ytick_12">
     <g id="line2d_22">
      <g>
       <use xlink:href="#mcb028c9a21" x="414.72" y="229.068642" style="stroke: #000000; stroke-width: 0.8"/>
      </g>
     </g>
     <g id="text_26">
      <!-- 2 -->
      <g transform="translate(421.72 232.867861)scale(0.1 -0.1)">
       <use xlink:href="#DejaVuSans-32"/>
      </g>
     </g>
    </g>
    <g id="ytick_13">
     <g id="line2d_23">
      <g>
       <use xlink:href="#mcb028c9a21" x="414.72" y="189.810963" style="stroke: #000000; stroke-width: 0.8"/>
      </g>
     </g>
     <g id="text_27">
      <!-- 3 -->
      <g transform="translate(421.72 193.610182)scale(0.1 -0.1)">
       <use xlink:href="#DejaVuSans-33"/>
      </g>
     </g>
    </g>
    <g id="ytick_14">
     <g id="line2d_24">
      <g>
       <use xlink:href="#mcb028c9a21" x="414.72" y="150.553284" style="stroke: #000000; stroke-width: 0.8"/>
      </g>
     </g>
     <g id="text_28">
      <!-- 4 -->
      <g transform="translate(421.72 154.352503)scale(0.1 -0.1)">
       <use xlink:href="#DejaVuSans-34"/>
      </g>
     </g>
    </g>
    <g id="ytick_15">
     <g id="line2d_25">
      <g>
       <use xlink:href="#mcb028c9a21" x="414.72" y="111.295605" style="stroke: #000000; stroke-width: 0.8"/>
      </g>
     </g>
     <g id="text_29">
      <!-- 5 -->
      <g transform="translate(421.72 115.094824)scale(0.1 -0.1)">
       <use xlink:href="#DejaVuSans-35"/>
      </g>
     </g>
    </g>
    <g id="ytick_16">
     <g id="line2d_26">
      <g>
       <use xlink:href="#mcb028c9a21" x="414.72" y="72.037926" style="stroke: #000000; stroke-width: 0.8"/>
      </g>
     </g>
     <g id="text_30">
      <!-- 6 -->
      <g transform="translate(421.72 75.837145)scale(0.1 -0.1)">
       <use xlink:href="#DejaVuSans-36"/>
      </g>
     </g>
    </g>
    <g id="text_31">
     <!-- Frequency -->
     <g style="fill: #ff0000" transform="translate(439.680938 200.357687)rotate(-90)scale(0.1 -0.1)">
      <use xlink:href="#DejaVuSans-46"/>
      <use xlink:href="#DejaVuSans-72" x="50.269531"/>
      <use xlink:href="#DejaVuSans-65" x="89.132812"/>
      <use xlink:href="#DejaVuSans-71" x="150.65625"/>
      <use xlink:href="#DejaVuSans-75" x="214.132812"/>
      <use xlink:href="#DejaVuSans-65" x="277.511719"/>
      <use xlink:href="#DejaVuSans-6e" x="339.035156"/>
      <use xlink:href="#DejaVuSans-63" x="402.414062"/>
      <use xlink:href="#DejaVuSans-79" x="457.394531"/>
     </g>
    </g>
    <g id="text_32">
     <!-- 1e4 -->
     <g transform="translate(395.841875 38.472)scale(0.1 -0.1)">
      <use xlink:href="#DejaVuSans-31"/>
      <use xlink:href="#DejaVuSans-65" x="63.623047"/>
      <use xlink:href="#DejaVuSans-34" x="125.146484"/>
     </g>
    </g>
   </g>
   <g id="line2d_27">
    <path d="M 58.7904 307.557064 
L 65.9328 307.600308 
L 70.6944 307.600031 
L 73.0752 307.515351 
L 75.456 307.282535 
L 77.8368 306.762845 
L 80.2176 305.824224 
L 87.36 302.108684 
L 89.7408 301.363359 
L 92.1216 300.927094 
L 94.5024 300.742806 
L 99.264 300.495544 
L 101.6448 300.006166 
L 104.0256 299.372694 
L 106.4064 299.139278 
L 108.7872 299.813131 
L 111.168 300.676446 
L 113.5488 299.786399 
L 115.9296 295.1915 
L 118.3104 285.966019 
L 120.6912 272.209987 
L 125.4528 236.114596 
L 127.8336 225.713244 
L 130.2144 230.662497 
L 132.5952 249.732915 
L 134.976 272.831159 
L 137.3568 289.770259 
L 139.7376 297.073509 
L 142.1184 297.974471 
L 146.88 293.956602 
L 149.2608 294.210358 
L 151.6416 298.707129 
L 154.0224 302.93937 
L 156.4032 295.91814 
L 158.784 266.908585 
L 161.1648 217.501266 
L 163.5456 161.612157 
L 165.9264 113.559 
L 168.3072 84.574733 
L 170.688 82.807497 
L 173.0688 115.587989 
L 177.8304 235.533126 
L 180.2112 274.606044 
L 182.592 286.059572 
L 184.9728 282.503957 
L 187.3536 277.032614 
L 189.7344 275.551783 
L 192.1152 276.780528 
L 194.496 279.074275 
L 196.8768 279.612001 
L 199.2576 274.396225 
L 201.6384 259.648229 
L 204.0192 237.797187 
L 206.4 217.480167 
L 208.7808 207.333408 
L 211.1616 209.766181 
L 213.5424 220.960789 
L 215.9232 236.838072 
L 218.304 253.532267 
L 220.6848 267.391006 
L 223.0656 274.918129 
L 225.4464 275.996904 
L 230.208 271.919671 
L 232.5888 271.396558 
L 237.3504 271.816683 
L 239.7312 271.558413 
L 242.112 270.761695 
L 246.8736 268.07299 
L 249.2544 268.131756 
L 251.6352 270.701569 
L 254.016 272.202306 
L 256.3968 264.33592 
L 258.7776 239.085549 
L 263.5392 160.291294 
L 265.92 135.59616 
L 268.3008 132.104784 
L 270.6816 148.463261 
L 273.0624 182.525454 
L 275.4432 221.848515 
L 277.824 243.692881 
L 280.2048 225.972547 
L 282.5856 171.930022 
L 284.9664 110.13633 
L 287.3472 69.52908 
L 289.728 62.148775 
L 292.1088 83.138812 
L 294.4896 126.682254 
L 296.8704 181.771606 
L 299.2512 232.208812 
L 301.632 262.149036 
L 304.0128 269.062044 
L 306.3936 263.73221 
L 308.7744 257.277495 
L 311.1552 255.173853 
L 313.536 257.255225 
L 315.9168 262.918618 
L 318.2976 267.153531 
L 320.6784 260.541954 
L 323.0592 233.926943 
L 325.44 188.563582 
L 327.8208 136.11898 
L 330.2016 88.68823 
L 332.5824 57.798025 
L 334.9632 54.406657 
L 337.344 88.578968 
L 342.1056 209.969109 
L 344.4864 237.525584 
L 346.8672 226.340914 
L 349.248 192.724673 
L 351.6288 153.834527 
L 354.0096 123.297275 
L 356.3904 111.208857 
L 358.7712 126.907362 
L 361.152 165.831263 
L 363.5328 209.519416 
L 365.9136 239.489218 
L 368.2944 250.664205 
L 370.6752 251.374043 
L 373.056 250.294517 
L 375.4368 250.655932 
L 377.8176 250.243113 
L 380.1984 246.643798 
L 382.5792 238.358146 
L 384.96 224.798741 
L 387.3408 205.634879 
L 389.7216 185.527837 
L 392.1024 174.130865 
L 394.4832 180.887363 
L 396.864 205.422078 
L 399.2448 237.541111 
L 401.6256 266.860876 
L 404.0064 288.453633 
L 406.3872 302.847494 
L 408.768 310.807777 
L 411.1488 313.099803 
L 413.5296 310.488894 
L 413.5296 310.488894 
" clip-path="url(#pba66bf9d22)" style="fill: none; stroke: #ff0000; stroke-width: 1.5; stroke-linecap: square"/>
   </g>
   <g id="patch_57">
    <path d="M 57.6 307.584 
L 57.6 41.472 
" style="fill: none; stroke: #000000; stroke-width: 0.8; stroke-linejoin: miter; stroke-linecap: square"/>
   </g>
   <g id="patch_58">
    <path d="M 414.72 307.584 
L 414.72 41.472 
" style="fill: none; stroke: #000000; stroke-width: 0.8; stroke-linejoin: miter; stroke-linecap: square"/>
   </g>
   <g id="patch_59">
    <path d="M 57.6 307.584 
L 414.72 307.584 
" style="fill: none; stroke: #000000; stroke-width: 0.8; stroke-linejoin: miter; stroke-linecap: square"/>
   </g>
   <g id="patch_60">
    <path d="M 57.6 41.472 
L 414.72 41.472 
" style="fill: none; stroke: #000000; stroke-width: 0.8; stroke-linejoin: miter; stroke-linecap: square"/>
   </g>
  </g>
 </g>
 <defs>
  <clipPath id="pba66bf9d22">
   <rect x="57.6" y="41.472" width="357.12" height="266.112"/>
  </clipPath>
 </defs>
</svg>
