<?xml version="1.0" encoding="utf-8" standalone="no"?>
<!DOCTYPE svg PUBLIC "-//W3C//DTD SVG 1.1//EN"
  "http://www.w3.org/Graphics/SVG/1.1/DTD/svg11.dtd">
<svg xmlns:xlink="http://www.w3.org/1999/xlink" width="720pt" height="288pt" viewBox="0 0 720 288" xmlns="http://www.w3.org/2000/svg" version="1.1">
 <metadata>
  <rdf:RDF xmlns:dc="http://purl.org/dc/elements/1.1/" xmlns:cc="http://creativecommons.org/ns#" xmlns:rdf="http://www.w3.org/1999/02/22-rdf-syntax-ns#">
   <cc:Work>
    <dc:type rdf:resource="http://purl.org/dc/dcmitype/StillImage"/>
    <dc:date>2023-03-24T22:44:37.244529</dc:date>
    <dc:format>image/svg+xml</dc:format>
    <dc:creator>
     <cc:Agent>
      <dc:title>Matplotlib v3.7.1, https://matplotlib.org/</dc:title>
     </cc:Agent>
    </dc:creator>
   </cc:Work>
  </rdf:RDF>
 </metadata>
 <defs>
  <style type="text/css">*{stroke-linejoin: round; stroke-linecap: butt}</style>
 </defs>
 <g id="figure_1">
  <g id="patch_1">
   <path d="M 0 288 
L 720 288 
L 720 0 
L 0 0 
z
" style="fill: #ffffff"/>
  </g>
  <g id="axes_1">
   <g id="patch_2">
    <path d="M 35.937331 262.9 
L 701.55 262.9 
L 701.55 10.8 
L 35.937331 10.8 
z
" style="fill: #ffffff"/>
   </g>
   <g id="PolyCollection_1">
    <path d="M 38.451867 262.946955 
L 38.451867 260.544212 
L 45.995478 253.476849 
L 53.539088 229.590216 
L 61.082698 172.065047 
L 68.626308 129.076452 
L 76.169919 115.161003 
L 83.713529 105.365409 
L 91.257139 103.809526 
L 98.800749 102.206336 
L 106.34436 100.508535 
L 113.88797 95.057158 
L 121.43158 82.098631 
L 128.97519 70.489826 
L 136.518801 61.580466 
L 144.062411 61.323578 
L 151.606021 78.371634 
L 159.149631 90.290093 
L 166.693242 91.949359 
L 174.236852 87.071753 
L 181.780462 69.120403 
L 189.324072 53.10479 
L 196.867683 40.960652 
L 204.411293 38.44433 
L 211.954903 55.183637 
L 219.498513 67.657829 
L 227.042124 71.601792 
L 234.585734 72.760655 
L 242.129344 68.349319 
L 249.672954 62.720453 
L 257.216565 54.65653 
L 264.760175 52.329229 
L 272.303785 61.475171 
L 279.847395 67.99726 
L 287.391006 69.271642 
L 294.934616 69.98951 
L 302.478226 69.59435 
L 310.021837 69.138071 
L 317.565447 68.559555 
L 325.109057 64.719598 
L 332.652667 54.356762 
L 340.196278 46.435797 
L 347.739888 43.398576 
L 355.283498 42.172975 
L 362.827108 44.570616 
L 370.370719 43.851173 
L 377.914329 36.897561 
L 385.457939 37.123171 
L 393.001549 51.707226 
L 400.54516 61.866009 
L 408.08877 63.174246 
L 415.63238 62.891274 
L 423.17599 59.425884 
L 430.719601 52.681591 
L 438.263211 39.37949 
L 445.806821 33.522549 
L 453.350431 42.555924 
L 460.894042 46.899033 
L 468.437652 41.861609 
L 475.981262 39.822695 
L 483.524872 43.7808 
L 491.068483 48.727818 
L 498.612093 55.65266 
L 506.155703 59.507805 
L 513.699313 57.223552 
L 521.242924 53.748605 
L 528.786534 47.892268 
L 536.330144 46.06405 
L 543.873754 52.292069 
L 551.417365 56.451448 
L 558.960975 56.473546 
L 566.504585 53.103923 
L 574.048195 42.950855 
L 581.591806 34.38404 
L 589.135416 28.98973 
L 596.679026 24.798011 
L 604.222636 23.011475 
L 611.766247 27.373601 
L 619.309857 44.033052 
L 626.853467 55.216399 
L 634.397077 55.447538 
L 641.940688 55.363818 
L 649.484298 54.650378 
L 657.027908 52.201276 
L 664.571518 46.280849 
L 672.115129 39.14032 
L 679.658739 29.559592 
L 687.202349 27.118379 
L 694.745959 38.956195 
L 702.28957 44.678147 
L 709.83318 38.168371 
L 717.37679 36.628225 
L 724.9204 45.027342 
L 732.464011 48.352561 
L 740.007621 41.529983 
L 747.551231 37.403247 
L 755.094841 38.668195 
L 762.638452 54.912328 
L 770.182062 101.114831 
L 777.725672 153.747083 
L 785.269282 219.238833 
L 785.269282 262.946955 
L 785.269282 262.946955 
L 777.725672 262.946955 
L 770.182062 262.946955 
L 762.638452 262.946955 
L 755.094841 262.946955 
L 747.551231 262.946955 
L 740.007621 262.946955 
L 732.464011 262.946955 
L 724.9204 262.946955 
L 717.37679 262.946955 
L 709.83318 262.946955 
L 702.28957 262.946955 
L 694.745959 262.946955 
L 687.202349 262.946955 
L 679.658739 262.946955 
L 672.115129 262.946955 
L 664.571518 262.946955 
L 657.027908 262.946955 
L 649.484298 262.946955 
L 641.940688 262.946955 
L 634.397077 262.946955 
L 626.853467 262.946955 
L 619.309857 262.946955 
L 611.766247 262.946955 
L 604.222636 262.946955 
L 596.679026 262.946955 
L 589.135416 262.946955 
L 581.591806 262.946955 
L 574.048195 262.946955 
L 566.504585 262.946955 
L 558.960975 262.946955 
L 551.417365 262.946955 
L 543.873754 262.946955 
L 536.330144 262.946955 
L 528.786534 262.946955 
L 521.242924 262.946955 
L 513.699313 262.946955 
L 506.155703 262.946955 
L 498.612093 262.946955 
L 491.068483 262.946955 
L 483.524872 262.946955 
L 475.981262 262.946955 
L 468.437652 262.946955 
L 460.894042 262.946955 
L 453.350431 262.946955 
L 445.806821 262.946955 
L 438.263211 262.946955 
L 430.719601 262.946955 
L 423.17599 262.946955 
L 415.63238 262.946955 
L 408.08877 262.946955 
L 400.54516 262.946955 
L 393.001549 262.946955 
L 385.457939 262.946955 
L 377.914329 262.946955 
L 370.370719 262.946955 
L 362.827108 262.946955 
L 355.283498 262.946955 
L 347.739888 262.946955 
L 340.196278 262.946955 
L 332.652667 262.946955 
L 325.109057 262.946955 
L 317.565447 262.946955 
L 310.021837 262.946955 
L 302.478226 262.946955 
L 294.934616 262.946955 
L 287.391006 262.946955 
L 279.847395 262.946955 
L 272.303785 262.946955 
L 264.760175 262.946955 
L 257.216565 262.946955 
L 249.672954 262.946955 
L 242.129344 262.946955 
L 234.585734 262.946955 
L 227.042124 262.946955 
L 219.498513 262.946955 
L 211.954903 262.946955 
L 204.411293 262.946955 
L 196.867683 262.946955 
L 189.324072 262.946955 
L 181.780462 262.946955 
L 174.236852 262.946955 
L 166.693242 262.946955 
L 159.149631 262.946955 
L 151.606021 262.946955 
L 144.062411 262.946955 
L 136.518801 262.946955 
L 128.97519 262.946955 
L 121.43158 262.946955 
L 113.88797 262.946955 
L 106.34436 262.946955 
L 98.800749 262.946955 
L 91.257139 262.946955 
L 83.713529 262.946955 
L 76.169919 262.946955 
L 68.626308 262.946955 
L 61.082698 262.946955 
L 53.539088 262.946955 
L 45.995478 262.946955 
L 38.451867 262.946955 
z
" clip-path="url(#pd85e2647b4)" style="fill: #808080; fill-opacity: 0.5"/>
   </g>
   <g id="matplotlib.axis_1">
    <g id="xtick_1">
     <g id="line2d_1">
      <defs>
       <path id="m48419cecb8" d="M 0 0 
L 0 -3.5 
" style="stroke: #000000; stroke-width: 0.8"/>
      </defs>
      <g>
       <use xlink:href="#m48419cecb8" x="35.937331" y="262.9" style="stroke: #000000; stroke-width: 0.8"/>
      </g>
     </g>
     <g id="text_1">
      <!-- 1 -->
      <g transform="translate(32.119831 275.518125) scale(0.12 -0.12)">
       <defs>
        <path id="DejaVuSans-31" d="M 794 531 
L 1825 531 
L 1825 4091 
L 703 3866 
L 703 4441 
L 1819 4666 
L 2450 4666 
L 2450 531 
L 3481 531 
L 3481 0 
L 794 0 
L 794 531 
z
" transform="scale(0.015625)"/>
       </defs>
       <use xlink:href="#DejaVuSans-31"/>
      </g>
     </g>
    </g>
    <g id="xtick_2">
     <g id="line2d_2">
      <g>
       <use xlink:href="#m48419cecb8" x="109.894294" y="262.9" style="stroke: #000000; stroke-width: 0.8"/>
      </g>
     </g>
     <g id="text_2">
      <!-- 2 -->
      <g transform="translate(106.076794 275.518125) scale(0.12 -0.12)">
       <defs>
        <path id="DejaVuSans-32" d="M 1228 531 
L 3431 531 
L 3431 0 
L 469 0 
L 469 531 
Q 828 903 1448 1529 
Q 2069 2156 2228 2338 
Q 2531 2678 2651 2914 
Q 2772 3150 2772 3378 
Q 2772 3750 2511 3984 
Q 2250 4219 1831 4219 
Q 1534 4219 1204 4116 
Q 875 4013 500 3803 
L 500 4441 
Q 881 4594 1212 4672 
Q 1544 4750 1819 4750 
Q 2544 4750 2975 4387 
Q 3406 4025 3406 3419 
Q 3406 3131 3298 2873 
Q 3191 2616 2906 2266 
Q 2828 2175 2409 1742 
Q 1991 1309 1228 531 
z
" transform="scale(0.015625)"/>
       </defs>
       <use xlink:href="#DejaVuSans-32"/>
      </g>
     </g>
    </g>
    <g id="xtick_3">
     <g id="line2d_3">
      <g>
       <use xlink:href="#m48419cecb8" x="183.851257" y="262.9" style="stroke: #000000; stroke-width: 0.8"/>
      </g>
     </g>
     <g id="text_3">
      <!-- 3 -->
      <g transform="translate(180.033757 275.518125) scale(0.12 -0.12)">
       <defs>
        <path id="DejaVuSans-33" d="M 2597 2516 
Q 3050 2419 3304 2112 
Q 3559 1806 3559 1356 
Q 3559 666 3084 287 
Q 2609 -91 1734 -91 
Q 1441 -91 1130 -33 
Q 819 25 488 141 
L 488 750 
Q 750 597 1062 519 
Q 1375 441 1716 441 
Q 2309 441 2620 675 
Q 2931 909 2931 1356 
Q 2931 1769 2642 2001 
Q 2353 2234 1838 2234 
L 1294 2234 
L 1294 2753 
L 1863 2753 
Q 2328 2753 2575 2939 
Q 2822 3125 2822 3475 
Q 2822 3834 2567 4026 
Q 2313 4219 1838 4219 
Q 1578 4219 1281 4162 
Q 984 4106 628 3988 
L 628 4550 
Q 988 4650 1302 4700 
Q 1616 4750 1894 4750 
Q 2613 4750 3031 4423 
Q 3450 4097 3450 3541 
Q 3450 3153 3228 2886 
Q 3006 2619 2597 2516 
z
" transform="scale(0.015625)"/>
       </defs>
       <use xlink:href="#DejaVuSans-33"/>
      </g>
     </g>
    </g>
    <g id="xtick_4">
     <g id="line2d_4">
      <g>
       <use xlink:href="#m48419cecb8" x="257.80822" y="262.9" style="stroke: #000000; stroke-width: 0.8"/>
      </g>
     </g>
     <g id="text_4">
      <!-- 4 -->
      <g transform="translate(253.99072 275.518125) scale(0.12 -0.12)">
       <defs>
        <path id="DejaVuSans-34" d="M 2419 4116 
L 825 1625 
L 2419 1625 
L 2419 4116 
z
M 2253 4666 
L 3047 4666 
L 3047 1625 
L 3713 1625 
L 3713 1100 
L 3047 1100 
L 3047 0 
L 2419 0 
L 2419 1100 
L 313 1100 
L 313 1709 
L 2253 4666 
z
" transform="scale(0.015625)"/>
       </defs>
       <use xlink:href="#DejaVuSans-34"/>
      </g>
     </g>
    </g>
    <g id="xtick_5">
     <g id="line2d_5">
      <g>
       <use xlink:href="#m48419cecb8" x="331.765184" y="262.9" style="stroke: #000000; stroke-width: 0.8"/>
      </g>
     </g>
     <g id="text_5">
      <!-- 5 -->
      <g transform="translate(327.947684 275.518125) scale(0.12 -0.12)">
       <defs>
        <path id="DejaVuSans-35" d="M 691 4666 
L 3169 4666 
L 3169 4134 
L 1269 4134 
L 1269 2991 
Q 1406 3038 1543 3061 
Q 1681 3084 1819 3084 
Q 2600 3084 3056 2656 
Q 3513 2228 3513 1497 
Q 3513 744 3044 326 
Q 2575 -91 1722 -91 
Q 1428 -91 1123 -41 
Q 819 9 494 109 
L 494 744 
Q 775 591 1075 516 
Q 1375 441 1709 441 
Q 2250 441 2565 725 
Q 2881 1009 2881 1497 
Q 2881 1984 2565 2268 
Q 2250 2553 1709 2553 
Q 1456 2553 1204 2497 
Q 953 2441 691 2322 
L 691 4666 
z
" transform="scale(0.015625)"/>
       </defs>
       <use xlink:href="#DejaVuSans-35"/>
      </g>
     </g>
    </g>
    <g id="xtick_6">
     <g id="line2d_6">
      <g>
       <use xlink:href="#m48419cecb8" x="405.722147" y="262.9" style="stroke: #000000; stroke-width: 0.8"/>
      </g>
     </g>
     <g id="text_6">
      <!-- 6 -->
      <g transform="translate(401.904647 275.518125) scale(0.12 -0.12)">
       <defs>
        <path id="DejaVuSans-36" d="M 2113 2584 
Q 1688 2584 1439 2293 
Q 1191 2003 1191 1497 
Q 1191 994 1439 701 
Q 1688 409 2113 409 
Q 2538 409 2786 701 
Q 3034 994 3034 1497 
Q 3034 2003 2786 2293 
Q 2538 2584 2113 2584 
z
M 3366 4563 
L 3366 3988 
Q 3128 4100 2886 4159 
Q 2644 4219 2406 4219 
Q 1781 4219 1451 3797 
Q 1122 3375 1075 2522 
Q 1259 2794 1537 2939 
Q 1816 3084 2150 3084 
Q 2853 3084 3261 2657 
Q 3669 2231 3669 1497 
Q 3669 778 3244 343 
Q 2819 -91 2113 -91 
Q 1303 -91 875 529 
Q 447 1150 447 2328 
Q 447 3434 972 4092 
Q 1497 4750 2381 4750 
Q 2619 4750 2861 4703 
Q 3103 4656 3366 4563 
z
" transform="scale(0.015625)"/>
       </defs>
       <use xlink:href="#DejaVuSans-36"/>
      </g>
     </g>
    </g>
    <g id="xtick_7">
     <g id="line2d_7">
      <g>
       <use xlink:href="#m48419cecb8" x="479.67911" y="262.9" style="stroke: #000000; stroke-width: 0.8"/>
      </g>
     </g>
     <g id="text_7">
      <!-- 7 -->
      <g transform="translate(475.86161 275.518125) scale(0.12 -0.12)">
       <defs>
        <path id="DejaVuSans-37" d="M 525 4666 
L 3525 4666 
L 3525 4397 
L 1831 0 
L 1172 0 
L 2766 4134 
L 525 4134 
L 525 4666 
z
" transform="scale(0.015625)"/>
       </defs>
       <use xlink:href="#DejaVuSans-37"/>
      </g>
     </g>
    </g>
    <g id="xtick_8">
     <g id="line2d_8">
      <g>
       <use xlink:href="#m48419cecb8" x="553.636073" y="262.9" style="stroke: #000000; stroke-width: 0.8"/>
      </g>
     </g>
     <g id="text_8">
      <!-- 8 -->
      <g transform="translate(549.818573 275.518125) scale(0.12 -0.12)">
       <defs>
        <path id="DejaVuSans-38" d="M 2034 2216 
Q 1584 2216 1326 1975 
Q 1069 1734 1069 1313 
Q 1069 891 1326 650 
Q 1584 409 2034 409 
Q 2484 409 2743 651 
Q 3003 894 3003 1313 
Q 3003 1734 2745 1975 
Q 2488 2216 2034 2216 
z
M 1403 2484 
Q 997 2584 770 2862 
Q 544 3141 544 3541 
Q 544 4100 942 4425 
Q 1341 4750 2034 4750 
Q 2731 4750 3128 4425 
Q 3525 4100 3525 3541 
Q 3525 3141 3298 2862 
Q 3072 2584 2669 2484 
Q 3125 2378 3379 2068 
Q 3634 1759 3634 1313 
Q 3634 634 3220 271 
Q 2806 -91 2034 -91 
Q 1263 -91 848 271 
Q 434 634 434 1313 
Q 434 1759 690 2068 
Q 947 2378 1403 2484 
z
M 1172 3481 
Q 1172 3119 1398 2916 
Q 1625 2713 2034 2713 
Q 2441 2713 2670 2916 
Q 2900 3119 2900 3481 
Q 2900 3844 2670 4047 
Q 2441 4250 2034 4250 
Q 1625 4250 1398 4047 
Q 1172 3844 1172 3481 
z
" transform="scale(0.015625)"/>
       </defs>
       <use xlink:href="#DejaVuSans-38"/>
      </g>
     </g>
    </g>
    <g id="xtick_9">
     <g id="line2d_9">
      <g>
       <use xlink:href="#m48419cecb8" x="627.593037" y="262.9" style="stroke: #000000; stroke-width: 0.8"/>
      </g>
     </g>
     <g id="text_9">
      <!-- 9 -->
      <g transform="translate(623.775537 275.518125) scale(0.12 -0.12)">
       <defs>
        <path id="DejaVuSans-39" d="M 703 97 
L 703 672 
Q 941 559 1184 500 
Q 1428 441 1663 441 
Q 2288 441 2617 861 
Q 2947 1281 2994 2138 
Q 2813 1869 2534 1725 
Q 2256 1581 1919 1581 
Q 1219 1581 811 2004 
Q 403 2428 403 3163 
Q 403 3881 828 4315 
Q 1253 4750 1959 4750 
Q 2769 4750 3195 4129 
Q 3622 3509 3622 2328 
Q 3622 1225 3098 567 
Q 2575 -91 1691 -91 
Q 1453 -91 1209 -44 
Q 966 3 703 97 
z
M 1959 2075 
Q 2384 2075 2632 2365 
Q 2881 2656 2881 3163 
Q 2881 3666 2632 3958 
Q 2384 4250 1959 4250 
Q 1534 4250 1286 3958 
Q 1038 3666 1038 3163 
Q 1038 2656 1286 2365 
Q 1534 2075 1959 2075 
z
" transform="scale(0.015625)"/>
       </defs>
       <use xlink:href="#DejaVuSans-39"/>
      </g>
     </g>
    </g>
    <g id="xtick_10">
     <g id="line2d_10">
      <g>
       <use xlink:href="#m48419cecb8" x="701.55" y="262.9" style="stroke: #000000; stroke-width: 0.8"/>
      </g>
     </g>
     <g id="text_10">
      <!-- 10 -->
      <g transform="translate(693.915 275.518125) scale(0.12 -0.12)">
       <defs>
        <path id="DejaVuSans-30" d="M 2034 4250 
Q 1547 4250 1301 3770 
Q 1056 3291 1056 2328 
Q 1056 1369 1301 889 
Q 1547 409 2034 409 
Q 2525 409 2770 889 
Q 3016 1369 3016 2328 
Q 3016 3291 2770 3770 
Q 2525 4250 2034 4250 
z
M 2034 4750 
Q 2819 4750 3233 4129 
Q 3647 3509 3647 2328 
Q 3647 1150 3233 529 
Q 2819 -91 2034 -91 
Q 1250 -91 836 529 
Q 422 1150 422 2328 
Q 422 3509 836 4129 
Q 1250 4750 2034 4750 
z
" transform="scale(0.015625)"/>
       </defs>
       <use xlink:href="#DejaVuSans-31"/>
       <use xlink:href="#DejaVuSans-30" x="63.623047"/>
      </g>
     </g>
    </g>
   </g>
   <g id="matplotlib.axis_2">
    <g id="ytick_1">
     <g id="line2d_11">
      <defs>
       <path id="mbe873cf76c" d="M 0 0 
L 3.5 0 
" style="stroke: #000000; stroke-width: 0.8"/>
      </defs>
      <g>
       <use xlink:href="#mbe873cf76c" x="35.937331" y="262.9" style="stroke: #000000; stroke-width: 0.8"/>
      </g>
     </g>
     <g id="text_11">
      <!-- $10^{0}$ -->
      <g transform="translate(11.317331 267.459063) scale(0.12 -0.12)">
       <use xlink:href="#DejaVuSans-31" transform="translate(0 0.765625)"/>
       <use xlink:href="#DejaVuSans-30" transform="translate(63.623047 0.765625)"/>
       <use xlink:href="#DejaVuSans-30" transform="translate(128.203125 39.046875) scale(0.7)"/>
      </g>
     </g>
    </g>
    <g id="ytick_2">
     <g id="line2d_12">
      <g>
       <use xlink:href="#mbe873cf76c" x="35.937331" y="215.945453" style="stroke: #000000; stroke-width: 0.8"/>
      </g>
     </g>
     <g id="text_12">
      <!-- $10^{1}$ -->
      <g transform="translate(11.317331 220.504515) scale(0.12 -0.12)">
       <use xlink:href="#DejaVuSans-31" transform="translate(0 0.684375)"/>
       <use xlink:href="#DejaVuSans-30" transform="translate(63.623047 0.684375)"/>
       <use xlink:href="#DejaVuSans-31" transform="translate(128.203125 38.965625) scale(0.7)"/>
      </g>
     </g>
    </g>
    <g id="ytick_3">
     <g id="line2d_13">
      <g>
       <use xlink:href="#mbe873cf76c" x="35.937331" y="168.990905" style="stroke: #000000; stroke-width: 0.8"/>
      </g>
     </g>
     <g id="text_13">
      <!-- $10^{2}$ -->
      <g transform="translate(11.317331 173.549968) scale(0.12 -0.12)">
       <use xlink:href="#DejaVuSans-31" transform="translate(0 0.765625)"/>
       <use xlink:href="#DejaVuSans-30" transform="translate(63.623047 0.765625)"/>
       <use xlink:href="#DejaVuSans-32" transform="translate(128.203125 39.046875) scale(0.7)"/>
      </g>
     </g>
    </g>
    <g id="ytick_4">
     <g id="line2d_14">
      <g>
       <use xlink:href="#mbe873cf76c" x="35.937331" y="122.036358" style="stroke: #000000; stroke-width: 0.8"/>
      </g>
     </g>
     <g id="text_14">
      <!-- $10^{3}$ -->
      <g transform="translate(11.317331 126.59542) scale(0.12 -0.12)">
       <use xlink:href="#DejaVuSans-31" transform="translate(0 0.765625)"/>
       <use xlink:href="#DejaVuSans-30" transform="translate(63.623047 0.765625)"/>
       <use xlink:href="#DejaVuSans-33" transform="translate(128.203125 39.046875) scale(0.7)"/>
      </g>
     </g>
    </g>
    <g id="ytick_5">
     <g id="line2d_15">
      <g>
       <use xlink:href="#mbe873cf76c" x="35.937331" y="75.08181" style="stroke: #000000; stroke-width: 0.8"/>
      </g>
     </g>
     <g id="text_15">
      <!-- $10^{4}$ -->
      <g transform="translate(11.317331 79.640873) scale(0.12 -0.12)">
       <use xlink:href="#DejaVuSans-31" transform="translate(0 0.684375)"/>
       <use xlink:href="#DejaVuSans-30" transform="translate(63.623047 0.684375)"/>
       <use xlink:href="#DejaVuSans-34" transform="translate(128.203125 38.965625) scale(0.7)"/>
      </g>
     </g>
    </g>
    <g id="ytick_6">
     <g id="line2d_16">
      <g>
       <use xlink:href="#mbe873cf76c" x="35.937331" y="28.127263" style="stroke: #000000; stroke-width: 0.8"/>
      </g>
     </g>
     <g id="text_16">
      <!-- $10^{5}$ -->
      <g transform="translate(11.317331 32.686325) scale(0.12 -0.12)">
       <use xlink:href="#DejaVuSans-31" transform="translate(0 0.684375)"/>
       <use xlink:href="#DejaVuSans-30" transform="translate(63.623047 0.684375)"/>
       <use xlink:href="#DejaVuSans-35" transform="translate(128.203125 38.965625) scale(0.7)"/>
      </g>
     </g>
    </g>
   </g>
   <g id="line2d_17">
    <path d="M 38.451867 262.9 
L 45.995478 262.9 
L 53.539088 262.9 
L 61.082698 262.9 
L 68.626308 262.9 
L 76.169919 262.9 
L 83.713529 262.9 
L 91.257139 262.9 
L 98.800749 244.388264 
L 106.34436 188.853055 
L 113.88797 149.562848 
L 121.43158 142.762645 
L 128.97519 159.007647 
L 136.518801 221.343059 
L 144.062411 262.9 
L 151.606021 262.9 
L 159.149631 262.9 
L 166.693242 262.9 
L 174.236852 253.476849 
L 181.780462 225.207394 
L 189.324072 192.41049 
L 196.867683 150.558687 
L 204.411293 122.588121 
L 211.954903 122.380032 
L 219.498513 131.056266 
L 227.042124 157.501149 
L 234.585734 168.414148 
L 242.129344 148.26338 
L 249.672954 138.201466 
L 257.216565 148.317262 
L 264.760175 152.441229 
L 272.303785 144.581541 
L 279.847395 140.22551 
L 287.391006 142.876795 
L 294.934616 149.376554 
L 302.478226 163.573264 
L 310.021837 172.363265 
L 317.565447 170.339849 
L 325.109057 163.111577 
L 332.652667 145.473591 
L 340.196278 131.85804 
L 347.739888 126.287356 
L 355.283498 121.509692 
L 362.827108 118.318067 
L 370.370719 115.516663 
L 377.914329 113.495697 
L 385.457939 116.480179 
L 393.001549 129.475559 
L 400.54516 136.534273 
L 408.08877 131.719659 
L 415.63238 129.07768 
L 423.17599 130.780972 
L 430.719601 130.027178 
L 438.263211 124.35921 
L 445.806821 122.548022 
L 453.350431 128.450392 
L 460.894042 131.951291 
L 468.437652 130.649251 
L 475.981262 127.52118 
L 483.524872 120.741048 
L 491.068483 119.559603 
L 498.612093 129.575531 
L 506.155703 132.944978 
L 513.699313 123.021461 
L 521.242924 115.485253 
L 528.786534 112.72366 
L 536.330144 112.290278 
L 543.873754 116.513314 
L 551.417365 120.316347 
L 558.960975 123.279372 
L 566.504585 122.828044 
L 574.048195 115.548009 
L 581.591806 110.037529 
L 589.135416 108.066162 
L 596.679026 106.923205 
L 604.222636 107.437068 
L 611.766247 108.79589 
L 619.309857 111.844628 
L 626.853467 116.32527 
L 634.397077 123.669717 
L 641.940688 126.829881 
L 649.484298 121.621477 
L 657.027908 118.076952 
L 664.571518 117.860184 
L 672.115129 117.461446 
L 679.658739 116.698769 
L 687.202349 115.963326 
L 694.745959 115.28235 
L 702.28957 114.795115 
L 709.83318 114.695362 
L 717.37679 114.614709 
L 721 114.594318 
" clip-path="url(#pd85e2647b4)" style="fill: none; stroke: #ff0000; stroke-width: 1.2; stroke-linecap: square"/>
   </g>
   <g id="line2d_18">
    <path d="M 38.451867 262.9 
L 45.995478 262.9 
L 53.539088 262.9 
L 61.082698 262.9 
L 68.626308 262.9 
L 76.169919 262.9 
L 83.713529 262.9 
L 91.257139 262.9 
L 98.800749 231.383575 
L 106.34436 136.834301 
L 113.88797 76.157239 
L 121.43158 83.224603 
L 128.97519 117.096816 
L 136.518801 204.578726 
L 144.062411 262.9 
L 151.606021 262.9 
L 159.149631 242.121529 
L 166.693242 179.786117 
L 174.236852 134.207144 
L 181.780462 122.141048 
L 189.324072 104.785006 
L 196.867683 76.849073 
L 204.411293 58.207911 
L 211.954903 58.156295 
L 219.498513 66.864579 
L 227.042124 93.092667 
L 234.585734 103.907976 
L 242.129344 83.897728 
L 249.672954 76.850237 
L 257.216565 95.728258 
L 264.760175 100.777272 
L 272.303785 78.168272 
L 279.847395 70.346055 
L 287.391006 92.097404 
L 294.934616 106.41824 
L 302.478226 105.878049 
L 310.021837 105.431345 
L 317.565447 105.171616 
L 325.109057 98.110786 
L 332.652667 77.447754 
L 340.196278 63.534606 
L 347.739888 63.121227 
L 355.283498 60.682076 
L 362.827108 54.191382 
L 370.370719 49.349491 
L 377.914329 47.805206 
L 385.457939 52.073826 
L 393.001549 67.968256 
L 400.54516 75.755377 
L 408.08877 67.327882 
L 415.63238 61.642823 
L 423.17599 61.442637 
L 430.719601 61.247471 
L 438.263211 61.062345 
L 445.806821 63.452563 
L 453.350431 70.993471 
L 460.894042 73.429853 
L 468.437652 65.657184 
L 475.981262 58.845251 
L 483.524872 53.954788 
L 491.068483 53.638368 
L 498.612093 62.470036 
L 506.155703 65.162775 
L 513.699313 55.577658 
L 521.242924 49.708372 
L 528.786534 51.270749 
L 536.330144 52.251678 
L 543.873754 52.069713 
L 551.417365 54.343991 
L 558.960975 61.530755 
L 566.504585 63.094723 
L 574.048195 53.413099 
L 581.591806 46.304179 
L 589.135416 44.340666 
L 596.679026 42.179198 
L 604.222636 39.62182 
L 611.766247 40.671211 
L 619.309857 48.934143 
L 626.853467 56.002078 
L 634.397077 60.680022 
L 641.940688 61.058359 
L 649.484298 52.83748 
L 657.027908 49.965692 
L 664.571518 57.792089 
L 672.115129 60.816808 
L 679.658739 54.238172 
L 687.202349 49.338439 
L 694.745959 47.796511 
L 702.28957 47.764038 
L 709.83318 50.750473 
L 717.37679 52.689778 
L 721 52.615352 
" clip-path="url(#pd85e2647b4)" style="fill: none; stroke: #008000; stroke-width: 1.2; stroke-linecap: square"/>
   </g>
   <g id="line2d_19">
    <path d="M 38.451867 262.9 
L 45.995478 262.9 
L 53.539088 262.9 
L 61.082698 262.9 
L 68.626308 262.9 
L 76.169919 262.9 
L 83.713529 262.9 
L 91.257139 262.9 
L 98.800749 228.65683 
L 106.34436 125.927319 
L 113.88797 59.796766 
L 121.43158 66.864129 
L 128.97519 103.463088 
L 136.518801 199.125235 
L 144.062411 262.9 
L 151.606021 262.9 
L 159.149631 239.395645 
L 166.693242 168.88258 
L 174.236852 117.857636 
L 181.780462 105.808934 
L 189.324072 88.458484 
L 196.867683 60.504536 
L 204.411293 41.852341 
L 211.954903 41.803652 
L 219.498513 50.509276 
L 227.042124 76.723529 
L 234.585734 87.530093 
L 242.129344 67.521278 
L 249.672954 60.477309 
L 257.216565 79.36303 
L 264.760175 84.415402 
L 272.303785 61.801075 
L 279.847395 53.965429 
L 287.391006 75.687143 
L 294.934616 90.039702 
L 302.478226 89.65395 
L 310.021837 89.257054 
L 317.565447 88.837868 
L 325.109057 81.683995 
L 332.652667 61.060746 
L 340.196278 47.180397 
L 347.739888 46.785847 
L 355.283498 44.350928 
L 362.827108 37.835269 
L 370.370719 32.97729 
L 377.914329 31.434671 
L 385.457939 35.72082 
L 393.001549 51.664508 
L 400.54516 59.454845 
L 408.08877 50.93848 
L 415.63238 45.208241 
L 423.17599 45.050254 
L 430.719601 44.908377 
L 438.263211 44.798718 
L 445.806821 47.206873 
L 453.350431 54.650652 
L 460.894042 57.028124 
L 468.437652 49.27298 
L 475.981262 42.470354 
L 483.524872 37.572762 
L 491.068483 37.26096 
L 498.612093 46.120736 
L 506.155703 48.829444 
L 513.699313 39.236014 
L 521.242924 34.000337 
L 528.786534 37.480168 
L 536.330144 38.573954 
L 543.873754 34.895651 
L 551.417365 35.357393 
L 558.960975 44.099225 
L 566.504585 46.935608 
L 574.048195 37.961092 
L 581.591806 31.001367 
L 589.135416 28.071226 
L 596.679026 25.289539 
L 604.222636 22.804762 
L 611.766247 23.961858 
L 619.309857 32.4027 
L 626.853467 39.616513 
L 634.397077 44.376267 
L 641.940688 44.788373 
L 649.484298 36.505181 
L 657.027908 33.588126 
L 664.571518 41.403342 
L 672.115129 44.433126 
L 679.658739 37.892047 
L 687.202349 33.004483 
L 694.745959 31.423949 
L 702.28957 31.377467 
L 709.83318 34.399087 
L 717.37679 36.367584 
L 721 36.301421 
" clip-path="url(#pd85e2647b4)" style="fill: none; stroke: #0000ff; stroke-width: 1.2; stroke-linecap: square"/>
   </g>
   <g id="line2d_20">
    <path d="M 38.451867 260.544212 
L 45.995478 253.476849 
L 53.539088 229.590216 
L 61.082698 172.065047 
L 68.626308 129.076452 
L 76.169919 115.161003 
L 83.713529 105.365409 
L 91.257139 103.809526 
L 98.800749 102.206336 
L 106.34436 100.508535 
L 113.88797 95.057158 
L 121.43158 82.098631 
L 128.97519 70.489826 
L 136.518801 61.580466 
L 144.062411 61.323578 
L 151.606021 78.371634 
L 159.149631 90.290093 
L 166.693242 91.949359 
L 174.236852 87.071753 
L 181.780462 69.120403 
L 189.324072 53.10479 
L 196.867683 40.960652 
L 204.411293 38.44433 
L 211.954903 55.183637 
L 219.498513 67.657829 
L 227.042124 71.601792 
L 234.585734 72.760655 
L 242.129344 68.349319 
L 249.672954 62.720453 
L 257.216565 54.65653 
L 264.760175 52.329229 
L 272.303785 61.475171 
L 279.847395 67.99726 
L 287.391006 69.271642 
L 294.934616 69.98951 
L 302.478226 69.59435 
L 310.021837 69.138071 
L 317.565447 68.559555 
L 325.109057 64.719598 
L 332.652667 54.356762 
L 340.196278 46.435797 
L 347.739888 43.398576 
L 355.283498 42.172975 
L 362.827108 44.570616 
L 370.370719 43.851173 
L 377.914329 36.897561 
L 385.457939 37.123171 
L 393.001549 51.707226 
L 400.54516 61.866009 
L 408.08877 63.174246 
L 415.63238 62.891274 
L 423.17599 59.425884 
L 430.719601 52.681591 
L 438.263211 39.37949 
L 445.806821 33.522549 
L 453.350431 42.555924 
L 460.894042 46.899033 
L 468.437652 41.861609 
L 475.981262 39.822695 
L 483.524872 43.7808 
L 491.068483 48.727818 
L 498.612093 55.65266 
L 506.155703 59.507805 
L 513.699313 57.223552 
L 521.242924 53.748605 
L 528.786534 47.892268 
L 536.330144 46.06405 
L 543.873754 52.292069 
L 551.417365 56.451448 
L 558.960975 56.473546 
L 566.504585 53.103923 
L 574.048195 42.950855 
L 581.591806 34.38404 
L 589.135416 28.98973 
L 596.679026 24.798011 
L 604.222636 23.011475 
L 611.766247 27.373601 
L 619.309857 44.033052 
L 626.853467 55.216399 
L 634.397077 55.447538 
L 641.940688 55.363818 
L 649.484298 54.650378 
L 657.027908 52.201276 
L 664.571518 46.280849 
L 672.115129 39.14032 
L 679.658739 29.559592 
L 687.202349 27.118379 
L 694.745959 38.956195 
L 702.28957 44.678147 
L 709.83318 38.168371 
L 717.37679 36.628225 
L 721 40.662337 
" clip-path="url(#pd85e2647b4)" style="fill: none; stroke: #808080; stroke-width: 1.5; stroke-linecap: square"/>
   </g>
   <g id="patch_3">
    <path d="M 35.937331 262.9 
L 35.937331 10.8 
" style="fill: none; stroke: #000000; stroke-width: 0.8; stroke-linejoin: miter; stroke-linecap: square"/>
   </g>
   <g id="patch_4">
    <path d="M 701.55 262.9 
L 701.55 10.8 
" style="fill: none; stroke: #000000; stroke-width: 0.8; stroke-linejoin: miter; stroke-linecap: square"/>
   </g>
   <g id="patch_5">
    <path d="M 35.937331 262.9 
L 701.55 262.9 
" style="fill: none; stroke: #000000; stroke-width: 0.8; stroke-linejoin: miter; stroke-linecap: square"/>
   </g>
   <g id="patch_6">
    <path d="M 35.937331 10.8 
L 701.55 10.8 
" style="fill: none; stroke: #000000; stroke-width: 0.8; stroke-linejoin: miter; stroke-linecap: square"/>
   </g>
   <g id="legend_1">
    <g id="patch_7">
     <path d="M 483.99 256.9 
L 693.15 256.9 
Q 695.55 256.9 695.55 254.5 
L 695.55 185.245 
Q 695.55 182.845 693.15 182.845 
L 483.99 182.845 
Q 481.59 182.845 481.59 185.245 
L 481.59 254.5 
Q 481.59 256.9 483.99 256.9 
z
" style="fill: #ffffff; opacity: 0.8; stroke: #cccccc; stroke-linejoin: miter"/>
    </g>
    <g id="line2d_21">
     <path d="M 486.39 192.563125 
L 498.39 192.563125 
L 510.39 192.563125 
" style="fill: none; stroke: #808080; stroke-width: 1.5; stroke-linecap: square"/>
    </g>
    <g id="text_17">
     <!-- dataset -->
     <g transform="translate(519.99 196.763125) scale(0.12 -0.12)">
      <defs>
       <path id="DejaVuSans-64" d="M 2906 2969 
L 2906 4863 
L 3481 4863 
L 3481 0 
L 2906 0 
L 2906 525 
Q 2725 213 2448 61 
Q 2172 -91 1784 -91 
Q 1150 -91 751 415 
Q 353 922 353 1747 
Q 353 2572 751 3078 
Q 1150 3584 1784 3584 
Q 2172 3584 2448 3432 
Q 2725 3281 2906 2969 
z
M 947 1747 
Q 947 1113 1208 752 
Q 1469 391 1925 391 
Q 2381 391 2643 752 
Q 2906 1113 2906 1747 
Q 2906 2381 2643 2742 
Q 2381 3103 1925 3103 
Q 1469 3103 1208 2742 
Q 947 2381 947 1747 
z
" transform="scale(0.015625)"/>
       <path id="DejaVuSans-61" d="M 2194 1759 
Q 1497 1759 1228 1600 
Q 959 1441 959 1056 
Q 959 750 1161 570 
Q 1363 391 1709 391 
Q 2188 391 2477 730 
Q 2766 1069 2766 1631 
L 2766 1759 
L 2194 1759 
z
M 3341 1997 
L 3341 0 
L 2766 0 
L 2766 531 
Q 2569 213 2275 61 
Q 1981 -91 1556 -91 
Q 1019 -91 701 211 
Q 384 513 384 1019 
Q 384 1609 779 1909 
Q 1175 2209 1959 2209 
L 2766 2209 
L 2766 2266 
Q 2766 2663 2505 2880 
Q 2244 3097 1772 3097 
Q 1472 3097 1187 3025 
Q 903 2953 641 2809 
L 641 3341 
Q 956 3463 1253 3523 
Q 1550 3584 1831 3584 
Q 2591 3584 2966 3190 
Q 3341 2797 3341 1997 
z
" transform="scale(0.015625)"/>
       <path id="DejaVuSans-74" d="M 1172 4494 
L 1172 3500 
L 2356 3500 
L 2356 3053 
L 1172 3053 
L 1172 1153 
Q 1172 725 1289 603 
Q 1406 481 1766 481 
L 2356 481 
L 2356 0 
L 1766 0 
Q 1100 0 847 248 
Q 594 497 594 1153 
L 594 3053 
L 172 3053 
L 172 3500 
L 594 3500 
L 594 4494 
L 1172 4494 
z
" transform="scale(0.015625)"/>
       <path id="DejaVuSans-73" d="M 2834 3397 
L 2834 2853 
Q 2591 2978 2328 3040 
Q 2066 3103 1784 3103 
Q 1356 3103 1142 2972 
Q 928 2841 928 2578 
Q 928 2378 1081 2264 
Q 1234 2150 1697 2047 
L 1894 2003 
Q 2506 1872 2764 1633 
Q 3022 1394 3022 966 
Q 3022 478 2636 193 
Q 2250 -91 1575 -91 
Q 1294 -91 989 -36 
Q 684 19 347 128 
L 347 722 
Q 666 556 975 473 
Q 1284 391 1588 391 
Q 1994 391 2212 530 
Q 2431 669 2431 922 
Q 2431 1156 2273 1281 
Q 2116 1406 1581 1522 
L 1381 1569 
Q 847 1681 609 1914 
Q 372 2147 372 2553 
Q 372 3047 722 3315 
Q 1072 3584 1716 3584 
Q 2034 3584 2315 3537 
Q 2597 3491 2834 3397 
z
" transform="scale(0.015625)"/>
       <path id="DejaVuSans-65" d="M 3597 1894 
L 3597 1613 
L 953 1613 
Q 991 1019 1311 708 
Q 1631 397 2203 397 
Q 2534 397 2845 478 
Q 3156 559 3463 722 
L 3463 178 
Q 3153 47 2828 -22 
Q 2503 -91 2169 -91 
Q 1331 -91 842 396 
Q 353 884 353 1716 
Q 353 2575 817 3079 
Q 1281 3584 2069 3584 
Q 2775 3584 3186 3129 
Q 3597 2675 3597 1894 
z
M 3022 2063 
Q 3016 2534 2758 2815 
Q 2500 3097 2075 3097 
Q 1594 3097 1305 2825 
Q 1016 2553 972 2059 
L 3022 2063 
z
" transform="scale(0.015625)"/>
      </defs>
      <use xlink:href="#DejaVuSans-64"/>
      <use xlink:href="#DejaVuSans-61" x="63.476562"/>
      <use xlink:href="#DejaVuSans-74" x="124.755859"/>
      <use xlink:href="#DejaVuSans-61" x="163.964844"/>
      <use xlink:href="#DejaVuSans-73" x="225.244141"/>
      <use xlink:href="#DejaVuSans-65" x="277.34375"/>
      <use xlink:href="#DejaVuSans-74" x="338.867188"/>
     </g>
    </g>
    <g id="line2d_22">
     <path d="M 486.39 210.176875 
L 498.39 210.176875 
L 510.39 210.176875 
" style="fill: none; stroke: #ff0000; stroke-width: 1.5; stroke-linecap: square"/>
    </g>
    <g id="text_18">
     <!-- 10.87$^\circ$ (7-4, 228 atoms) -->
     <g transform="translate(519.99 214.376875) scale(0.12 -0.12)">
      <defs>
       <path id="DejaVuSans-2e" d="M 684 794 
L 1344 794 
L 1344 0 
L 684 0 
L 684 794 
z
" transform="scale(0.015625)"/>
       <path id="DejaVuSans-2218" d="M 2003 2603 
Q 1753 2603 1581 2429 
Q 1409 2256 1409 2006 
Q 1409 1759 1581 1589 
Q 1753 1419 2003 1419 
Q 2253 1419 2425 1589 
Q 2597 1759 2597 2006 
Q 2597 2253 2423 2428 
Q 2250 2603 2003 2603 
z
M 2003 3006 
Q 2203 3006 2387 2929 
Q 2572 2853 2706 2709 
Q 2850 2569 2922 2390 
Q 2994 2212 2994 2006 
Q 2994 1594 2705 1308 
Q 2416 1022 1997 1022 
Q 1575 1022 1294 1303 
Q 1013 1584 1013 2006 
Q 1013 2425 1300 2715 
Q 1588 3006 2003 3006 
z
" transform="scale(0.015625)"/>
       <path id="DejaVuSans-20" transform="scale(0.015625)"/>
       <path id="DejaVuSans-28" d="M 1984 4856 
Q 1566 4138 1362 3434 
Q 1159 2731 1159 2009 
Q 1159 1288 1364 580 
Q 1569 -128 1984 -844 
L 1484 -844 
Q 1016 -109 783 600 
Q 550 1309 550 2009 
Q 550 2706 781 3412 
Q 1013 4119 1484 4856 
L 1984 4856 
z
" transform="scale(0.015625)"/>
       <path id="DejaVuSans-2d" d="M 313 2009 
L 1997 2009 
L 1997 1497 
L 313 1497 
L 313 2009 
z
" transform="scale(0.015625)"/>
       <path id="DejaVuSans-2c" d="M 750 794 
L 1409 794 
L 1409 256 
L 897 -744 
L 494 -744 
L 750 256 
L 750 794 
z
" transform="scale(0.015625)"/>
       <path id="DejaVuSans-6f" d="M 1959 3097 
Q 1497 3097 1228 2736 
Q 959 2375 959 1747 
Q 959 1119 1226 758 
Q 1494 397 1959 397 
Q 2419 397 2687 759 
Q 2956 1122 2956 1747 
Q 2956 2369 2687 2733 
Q 2419 3097 1959 3097 
z
M 1959 3584 
Q 2709 3584 3137 3096 
Q 3566 2609 3566 1747 
Q 3566 888 3137 398 
Q 2709 -91 1959 -91 
Q 1206 -91 779 398 
Q 353 888 353 1747 
Q 353 2609 779 3096 
Q 1206 3584 1959 3584 
z
" transform="scale(0.015625)"/>
       <path id="DejaVuSans-6d" d="M 3328 2828 
Q 3544 3216 3844 3400 
Q 4144 3584 4550 3584 
Q 5097 3584 5394 3201 
Q 5691 2819 5691 2113 
L 5691 0 
L 5113 0 
L 5113 2094 
Q 5113 2597 4934 2840 
Q 4756 3084 4391 3084 
Q 3944 3084 3684 2787 
Q 3425 2491 3425 1978 
L 3425 0 
L 2847 0 
L 2847 2094 
Q 2847 2600 2669 2842 
Q 2491 3084 2119 3084 
Q 1678 3084 1418 2786 
Q 1159 2488 1159 1978 
L 1159 0 
L 581 0 
L 581 3500 
L 1159 3500 
L 1159 2956 
Q 1356 3278 1631 3431 
Q 1906 3584 2284 3584 
Q 2666 3584 2933 3390 
Q 3200 3197 3328 2828 
z
" transform="scale(0.015625)"/>
       <path id="DejaVuSans-29" d="M 513 4856 
L 1013 4856 
Q 1481 4119 1714 3412 
Q 1947 2706 1947 2009 
Q 1947 1309 1714 600 
Q 1481 -109 1013 -844 
L 513 -844 
Q 928 -128 1133 580 
Q 1338 1288 1338 2009 
Q 1338 2731 1133 3434 
Q 928 4138 513 4856 
z
" transform="scale(0.015625)"/>
      </defs>
      <use xlink:href="#DejaVuSans-31" transform="translate(0 0.125)"/>
      <use xlink:href="#DejaVuSans-30" transform="translate(63.623047 0.125)"/>
      <use xlink:href="#DejaVuSans-2e" transform="translate(127.246094 0.125)"/>
      <use xlink:href="#DejaVuSans-38" transform="translate(156.408203 0.125)"/>
      <use xlink:href="#DejaVuSans-37" transform="translate(220.03125 0.125)"/>
      <use xlink:href="#DejaVuSans-2218" transform="translate(298.249023 38.40625) scale(0.7)"/>
      <use xlink:href="#DejaVuSans-20" transform="translate(358.439453 0.125)"/>
      <use xlink:href="#DejaVuSans-28" transform="translate(390.226562 0.125)"/>
      <use xlink:href="#DejaVuSans-37" transform="translate(429.240234 0.125)"/>
      <use xlink:href="#DejaVuSans-2d" transform="translate(492.863281 0.125)"/>
      <use xlink:href="#DejaVuSans-34" transform="translate(528.947266 0.125)"/>
      <use xlink:href="#DejaVuSans-2c" transform="translate(592.570312 0.125)"/>
      <use xlink:href="#DejaVuSans-20" transform="translate(624.357422 0.125)"/>
      <use xlink:href="#DejaVuSans-32" transform="translate(656.144531 0.125)"/>
      <use xlink:href="#DejaVuSans-32" transform="translate(719.767578 0.125)"/>
      <use xlink:href="#DejaVuSans-38" transform="translate(783.390625 0.125)"/>
      <use xlink:href="#DejaVuSans-20" transform="translate(847.013672 0.125)"/>
      <use xlink:href="#DejaVuSans-61" transform="translate(878.800781 0.125)"/>
      <use xlink:href="#DejaVuSans-74" transform="translate(940.080078 0.125)"/>
      <use xlink:href="#DejaVuSans-6f" transform="translate(979.289062 0.125)"/>
      <use xlink:href="#DejaVuSans-6d" transform="translate(1040.470703 0.125)"/>
      <use xlink:href="#DejaVuSans-73" transform="translate(1137.882812 0.125)"/>
      <use xlink:href="#DejaVuSans-29" transform="translate(1189.982422 0.125)"/>
     </g>
    </g>
    <g id="line2d_23">
     <path d="M 486.39 227.790625 
L 498.39 227.790625 
L 510.39 227.790625 
" style="fill: none; stroke: #008000; stroke-width: 1.5; stroke-linecap: square"/>
    </g>
    <g id="text_19">
     <!-- 2.20$^\circ$ (35-19, 5324 atoms) -->
     <g transform="translate(519.99 231.990625) scale(0.12 -0.12)">
      <use xlink:href="#DejaVuSans-32" transform="translate(0 0.125)"/>
      <use xlink:href="#DejaVuSans-2e" transform="translate(63.623047 0.125)"/>
      <use xlink:href="#DejaVuSans-32" transform="translate(89.910156 0.125)"/>
      <use xlink:href="#DejaVuSans-30" transform="translate(153.533203 0.125)"/>
      <use xlink:href="#DejaVuSans-2218" transform="translate(231.750977 38.40625) scale(0.7)"/>
      <use xlink:href="#DejaVuSans-20" transform="translate(291.941406 0.125)"/>
      <use xlink:href="#DejaVuSans-28" transform="translate(323.728516 0.125)"/>
      <use xlink:href="#DejaVuSans-33" transform="translate(362.742188 0.125)"/>
      <use xlink:href="#DejaVuSans-35" transform="translate(426.365234 0.125)"/>
      <use xlink:href="#DejaVuSans-2d" transform="translate(489.988281 0.125)"/>
      <use xlink:href="#DejaVuSans-31" transform="translate(526.072266 0.125)"/>
      <use xlink:href="#DejaVuSans-39" transform="translate(589.695312 0.125)"/>
      <use xlink:href="#DejaVuSans-2c" transform="translate(653.318359 0.125)"/>
      <use xlink:href="#DejaVuSans-20" transform="translate(685.105469 0.125)"/>
      <use xlink:href="#DejaVuSans-35" transform="translate(716.892578 0.125)"/>
      <use xlink:href="#DejaVuSans-33" transform="translate(780.515625 0.125)"/>
      <use xlink:href="#DejaVuSans-32" transform="translate(844.138672 0.125)"/>
      <use xlink:href="#DejaVuSans-34" transform="translate(907.761719 0.125)"/>
      <use xlink:href="#DejaVuSans-20" transform="translate(971.384766 0.125)"/>
      <use xlink:href="#DejaVuSans-61" transform="translate(1003.171875 0.125)"/>
      <use xlink:href="#DejaVuSans-74" transform="translate(1064.451172 0.125)"/>
      <use xlink:href="#DejaVuSans-6f" transform="translate(1103.660156 0.125)"/>
      <use xlink:href="#DejaVuSans-6d" transform="translate(1164.841797 0.125)"/>
      <use xlink:href="#DejaVuSans-73" transform="translate(1262.253906 0.125)"/>
      <use xlink:href="#DejaVuSans-29" transform="translate(1314.353516 0.125)"/>
     </g>
    </g>
    <g id="line2d_24">
     <path d="M 486.39 245.404375 
L 498.39 245.404375 
L 510.39 245.404375 
" style="fill: none; stroke: #0000ff; stroke-width: 1.5; stroke-linecap: square"/>
    </g>
    <g id="text_20">
     <!-- 1.45$^\circ$ (53-28, 11876 atoms) -->
     <g transform="translate(519.99 249.604375) scale(0.12 -0.12)">
      <use xlink:href="#DejaVuSans-31" transform="translate(0 0.125)"/>
      <use xlink:href="#DejaVuSans-2e" transform="translate(63.623047 0.125)"/>
      <use xlink:href="#DejaVuSans-34" transform="translate(95.410156 0.125)"/>
      <use xlink:href="#DejaVuSans-35" transform="translate(159.033203 0.125)"/>
      <use xlink:href="#DejaVuSans-2218" transform="translate(237.250977 38.40625) scale(0.7)"/>
      <use xlink:href="#DejaVuSans-20" transform="translate(297.441406 0.125)"/>
      <use xlink:href="#DejaVuSans-28" transform="translate(329.228516 0.125)"/>
      <use xlink:href="#DejaVuSans-35" transform="translate(368.242188 0.125)"/>
      <use xlink:href="#DejaVuSans-33" transform="translate(431.865234 0.125)"/>
      <use xlink:href="#DejaVuSans-2d" transform="translate(495.488281 0.125)"/>
      <use xlink:href="#DejaVuSans-32" transform="translate(531.572266 0.125)"/>
      <use xlink:href="#DejaVuSans-38" transform="translate(595.195312 0.125)"/>
      <use xlink:href="#DejaVuSans-2c" transform="translate(658.818359 0.125)"/>
      <use xlink:href="#DejaVuSans-20" transform="translate(690.605469 0.125)"/>
      <use xlink:href="#DejaVuSans-31" transform="translate(722.392578 0.125)"/>
      <use xlink:href="#DejaVuSans-31" transform="translate(786.015625 0.125)"/>
      <use xlink:href="#DejaVuSans-38" transform="translate(849.638672 0.125)"/>
      <use xlink:href="#DejaVuSans-37" transform="translate(913.261719 0.125)"/>
      <use xlink:href="#DejaVuSans-36" transform="translate(976.884766 0.125)"/>
      <use xlink:href="#DejaVuSans-20" transform="translate(1040.507812 0.125)"/>
      <use xlink:href="#DejaVuSans-61" transform="translate(1072.294922 0.125)"/>
      <use xlink:href="#DejaVuSans-74" transform="translate(1133.574219 0.125)"/>
      <use xlink:href="#DejaVuSans-6f" transform="translate(1172.783203 0.125)"/>
      <use xlink:href="#DejaVuSans-6d" transform="translate(1233.964844 0.125)"/>
      <use xlink:href="#DejaVuSans-73" transform="translate(1331.376953 0.125)"/>
      <use xlink:href="#DejaVuSans-29" transform="translate(1383.476562 0.125)"/>
     </g>
    </g>
   </g>
  </g>
 </g>
 <defs>
  <clipPath id="pd85e2647b4">
   <rect x="35.937331" y="10.8" width="665.612669" height="252.1"/>
  </clipPath>
 </defs>
</svg>
