<?xml version="1.0" encoding="utf-8" standalone="no"?>
<!DOCTYPE svg PUBLIC "-//W3C//DTD SVG 1.1//EN"
  "http://www.w3.org/Graphics/SVG/1.1/DTD/svg11.dtd">
<svg xmlns:xlink="http://www.w3.org/1999/xlink" width="540pt" height="216pt" viewBox="0 0 540 216" xmlns="http://www.w3.org/2000/svg" version="1.1">
 <metadata>
  <rdf:RDF xmlns:dc="http://purl.org/dc/elements/1.1/" xmlns:cc="http://creativecommons.org/ns#" xmlns:rdf="http://www.w3.org/1999/02/22-rdf-syntax-ns#">
   <cc:Work>
    <dc:type rdf:resource="http://purl.org/dc/dcmitype/StillImage"/>
    <dc:date>2023-04-17T20:16:03.697477</dc:date>
    <dc:format>image/svg+xml</dc:format>
    <dc:creator>
     <cc:Agent>
      <dc:title>Matplotlib v3.7.1, https://matplotlib.org/</dc:title>
     </cc:Agent>
    </dc:creator>
   </cc:Work>
  </rdf:RDF>
 </metadata>
 <defs>
  <style type="text/css">*{stroke-linejoin: round; stroke-linecap: butt}</style>
 </defs>
 <g id="figure_1">
  <g id="patch_1">
   <path d="M 0 216 
L 540 216 
L 540 0 
L 0 0 
z
" style="fill: #ffffff"/>
  </g>
  <g id="axes_1">
   <g id="patch_2">
    <path d="M 35.937331 190.9 
L 521.55 190.9 
L 521.55 10.8 
L 35.937331 10.8 
z
" style="fill: #ffffff"/>
   </g>
   <g id="PolyCollection_1">
    <path d="M 37.771867 190.933544 
L 37.771867 189.217027 
L 43.275478 184.16811 
L 48.779088 167.103522 
L 54.282698 126.007596 
L 59.786308 95.296584 
L 65.289919 85.355401 
L 70.793529 78.357438 
L 76.297139 77.245917 
L 81.800749 76.1006 
L 87.30436 74.887692 
L 92.80797 70.993234 
L 98.31158 61.735674 
L 103.81519 53.442355 
L 109.318801 47.077517 
L 114.822411 46.893996 
L 120.326021 59.073111 
L 125.829631 67.587647 
L 131.333242 68.773025 
L 136.836852 65.288468 
L 142.340462 52.46404 
L 147.844072 41.022502 
L 153.347683 32.346741 
L 158.851293 30.549083 
L 164.354903 42.507628 
L 169.858513 51.419179 
L 175.362124 54.236742 
L 180.865734 55.064633 
L 186.369344 51.913178 
L 191.872954 47.891922 
L 197.376565 42.131063 
L 202.880175 40.468441 
L 208.383785 47.002294 
L 213.887395 51.661668 
L 219.391006 52.572085 
L 224.894616 53.08493 
L 230.398226 52.802628 
L 235.901837 52.476663 
L 241.405447 52.063371 
L 246.909057 49.32011 
L 252.412667 41.916909 
L 257.916278 36.258179 
L 263.419888 34.088392 
L 268.923498 33.212824 
L 274.427108 34.925696 
L 279.930719 34.411726 
L 285.434329 29.444073 
L 290.937939 29.605248 
L 296.441549 40.024083 
L 301.94516 47.281508 
L 307.44877 48.216111 
L 312.95238 48.013956 
L 318.45599 45.538285 
L 323.959601 40.720168 
L 329.463211 31.217161 
L 334.966821 27.032967 
L 340.470431 33.486402 
L 345.974042 36.589115 
L 351.477652 32.990384 
L 356.981262 31.533786 
L 362.484872 34.361452 
L 367.988483 37.895597 
L 373.492093 42.842698 
L 378.995703 45.596809 
L 384.499313 43.964941 
L 390.002924 41.482442 
L 395.506534 37.298681 
L 401.010144 35.992604 
L 406.513754 40.441895 
L 412.017365 43.413351 
L 417.520975 43.429138 
L 423.024585 41.021882 
L 428.528195 33.76854 
L 434.031806 27.648416 
L 439.535416 23.794726 
L 445.039026 20.800166 
L 450.542636 19.523866 
L 456.046247 22.640165 
L 461.549857 34.541661 
L 467.053467 42.531033 
L 472.557077 42.696159 
L 478.060688 42.636349 
L 483.564298 42.126669 
L 489.067908 40.377032 
L 494.571518 36.147484 
L 500.075129 31.046298 
L 505.578739 24.201835 
L 511.082349 22.457834 
L 516.585959 30.914759 
L 522.08957 35.002516 
L 527.59318 30.351938 
L 533.09679 29.251659 
L 538.6004 35.251981 
L 544.104011 37.627514 
L 549.607621 32.75347 
L 555.111231 29.805334 
L 560.614841 30.709012 
L 566.118452 42.313805 
L 571.622062 75.320829 
L 577.125672 112.92126 
L 582.629282 159.708504 
L 582.629282 190.933544 
L 582.629282 190.933544 
L 577.125672 190.933544 
L 571.622062 190.933544 
L 566.118452 190.933544 
L 560.614841 190.933544 
L 555.111231 190.933544 
L 549.607621 190.933544 
L 544.104011 190.933544 
L 538.6004 190.933544 
L 533.09679 190.933544 
L 527.59318 190.933544 
L 522.08957 190.933544 
L 516.585959 190.933544 
L 511.082349 190.933544 
L 505.578739 190.933544 
L 500.075129 190.933544 
L 494.571518 190.933544 
L 489.067908 190.933544 
L 483.564298 190.933544 
L 478.060688 190.933544 
L 472.557077 190.933544 
L 467.053467 190.933544 
L 461.549857 190.933544 
L 456.046247 190.933544 
L 450.542636 190.933544 
L 445.039026 190.933544 
L 439.535416 190.933544 
L 434.031806 190.933544 
L 428.528195 190.933544 
L 423.024585 190.933544 
L 417.520975 190.933544 
L 412.017365 190.933544 
L 406.513754 190.933544 
L 401.010144 190.933544 
L 395.506534 190.933544 
L 390.002924 190.933544 
L 384.499313 190.933544 
L 378.995703 190.933544 
L 373.492093 190.933544 
L 367.988483 190.933544 
L 362.484872 190.933544 
L 356.981262 190.933544 
L 351.477652 190.933544 
L 345.974042 190.933544 
L 340.470431 190.933544 
L 334.966821 190.933544 
L 329.463211 190.933544 
L 323.959601 190.933544 
L 318.45599 190.933544 
L 312.95238 190.933544 
L 307.44877 190.933544 
L 301.94516 190.933544 
L 296.441549 190.933544 
L 290.937939 190.933544 
L 285.434329 190.933544 
L 279.930719 190.933544 
L 274.427108 190.933544 
L 268.923498 190.933544 
L 263.419888 190.933544 
L 257.916278 190.933544 
L 252.412667 190.933544 
L 246.909057 190.933544 
L 241.405447 190.933544 
L 235.901837 190.933544 
L 230.398226 190.933544 
L 224.894616 190.933544 
L 219.391006 190.933544 
L 213.887395 190.933544 
L 208.383785 190.933544 
L 202.880175 190.933544 
L 197.376565 190.933544 
L 191.872954 190.933544 
L 186.369344 190.933544 
L 180.865734 190.933544 
L 175.362124 190.933544 
L 169.858513 190.933544 
L 164.354903 190.933544 
L 158.851293 190.933544 
L 153.347683 190.933544 
L 147.844072 190.933544 
L 142.340462 190.933544 
L 136.836852 190.933544 
L 131.333242 190.933544 
L 125.829631 190.933544 
L 120.326021 190.933544 
L 114.822411 190.933544 
L 109.318801 190.933544 
L 103.81519 190.933544 
L 98.31158 190.933544 
L 92.80797 190.933544 
L 87.30436 190.933544 
L 81.800749 190.933544 
L 76.297139 190.933544 
L 70.793529 190.933544 
L 65.289919 190.933544 
L 59.786308 190.933544 
L 54.282698 190.933544 
L 48.779088 190.933544 
L 43.275478 190.933544 
L 37.771867 190.933544 
z
" clip-path="url(#p88f8476a35)" style="fill: #808080; fill-opacity: 0.15"/>
   </g>
   <g id="matplotlib.axis_1">
    <g id="xtick_1">
     <g id="line2d_1">
      <defs>
       <path id="m45dad6123a" d="M 0 0 
L 0 -3.5 
" style="stroke: #000000; stroke-width: 0.8"/>
      </defs>
      <g>
       <use xlink:href="#m45dad6123a" x="35.937331" y="190.9" style="stroke: #000000; stroke-width: 0.8"/>
      </g>
     </g>
     <g id="text_1">
      <!-- 1 -->
      <g transform="translate(32.119831 203.518125) scale(0.12 -0.12)">
       <defs>
        <path id="DejaVuSans-31" d="M 794 531 
L 1825 531 
L 1825 4091 
L 703 3866 
L 703 4441 
L 1819 4666 
L 2450 4666 
L 2450 531 
L 3481 531 
L 3481 0 
L 794 0 
L 794 531 
z
" transform="scale(0.015625)"/>
       </defs>
       <use xlink:href="#DejaVuSans-31"/>
      </g>
     </g>
    </g>
    <g id="xtick_2">
     <g id="line2d_2">
      <g>
       <use xlink:href="#m45dad6123a" x="89.894294" y="190.9" style="stroke: #000000; stroke-width: 0.8"/>
      </g>
     </g>
     <g id="text_2">
      <!-- 2 -->
      <g transform="translate(86.076794 203.518125) scale(0.12 -0.12)">
       <defs>
        <path id="DejaVuSans-32" d="M 1228 531 
L 3431 531 
L 3431 0 
L 469 0 
L 469 531 
Q 828 903 1448 1529 
Q 2069 2156 2228 2338 
Q 2531 2678 2651 2914 
Q 2772 3150 2772 3378 
Q 2772 3750 2511 3984 
Q 2250 4219 1831 4219 
Q 1534 4219 1204 4116 
Q 875 4013 500 3803 
L 500 4441 
Q 881 4594 1212 4672 
Q 1544 4750 1819 4750 
Q 2544 4750 2975 4387 
Q 3406 4025 3406 3419 
Q 3406 3131 3298 2873 
Q 3191 2616 2906 2266 
Q 2828 2175 2409 1742 
Q 1991 1309 1228 531 
z
" transform="scale(0.015625)"/>
       </defs>
       <use xlink:href="#DejaVuSans-32"/>
      </g>
     </g>
    </g>
    <g id="xtick_3">
     <g id="line2d_3">
      <g>
       <use xlink:href="#m45dad6123a" x="143.851257" y="190.9" style="stroke: #000000; stroke-width: 0.8"/>
      </g>
     </g>
     <g id="text_3">
      <!-- 3 -->
      <g transform="translate(140.033757 203.518125) scale(0.12 -0.12)">
       <defs>
        <path id="DejaVuSans-33" d="M 2597 2516 
Q 3050 2419 3304 2112 
Q 3559 1806 3559 1356 
Q 3559 666 3084 287 
Q 2609 -91 1734 -91 
Q 1441 -91 1130 -33 
Q 819 25 488 141 
L 488 750 
Q 750 597 1062 519 
Q 1375 441 1716 441 
Q 2309 441 2620 675 
Q 2931 909 2931 1356 
Q 2931 1769 2642 2001 
Q 2353 2234 1838 2234 
L 1294 2234 
L 1294 2753 
L 1863 2753 
Q 2328 2753 2575 2939 
Q 2822 3125 2822 3475 
Q 2822 3834 2567 4026 
Q 2313 4219 1838 4219 
Q 1578 4219 1281 4162 
Q 984 4106 628 3988 
L 628 4550 
Q 988 4650 1302 4700 
Q 1616 4750 1894 4750 
Q 2613 4750 3031 4423 
Q 3450 4097 3450 3541 
Q 3450 3153 3228 2886 
Q 3006 2619 2597 2516 
z
" transform="scale(0.015625)"/>
       </defs>
       <use xlink:href="#DejaVuSans-33"/>
      </g>
     </g>
    </g>
    <g id="xtick_4">
     <g id="line2d_4">
      <g>
       <use xlink:href="#m45dad6123a" x="197.80822" y="190.9" style="stroke: #000000; stroke-width: 0.8"/>
      </g>
     </g>
     <g id="text_4">
      <!-- 4 -->
      <g transform="translate(193.99072 203.518125) scale(0.12 -0.12)">
       <defs>
        <path id="DejaVuSans-34" d="M 2419 4116 
L 825 1625 
L 2419 1625 
L 2419 4116 
z
M 2253 4666 
L 3047 4666 
L 3047 1625 
L 3713 1625 
L 3713 1100 
L 3047 1100 
L 3047 0 
L 2419 0 
L 2419 1100 
L 313 1100 
L 313 1709 
L 2253 4666 
z
" transform="scale(0.015625)"/>
       </defs>
       <use xlink:href="#DejaVuSans-34"/>
      </g>
     </g>
    </g>
    <g id="xtick_5">
     <g id="line2d_5">
      <g>
       <use xlink:href="#m45dad6123a" x="251.765184" y="190.9" style="stroke: #000000; stroke-width: 0.8"/>
      </g>
     </g>
     <g id="text_5">
      <!-- 5 -->
      <g transform="translate(247.947684 203.518125) scale(0.12 -0.12)">
       <defs>
        <path id="DejaVuSans-35" d="M 691 4666 
L 3169 4666 
L 3169 4134 
L 1269 4134 
L 1269 2991 
Q 1406 3038 1543 3061 
Q 1681 3084 1819 3084 
Q 2600 3084 3056 2656 
Q 3513 2228 3513 1497 
Q 3513 744 3044 326 
Q 2575 -91 1722 -91 
Q 1428 -91 1123 -41 
Q 819 9 494 109 
L 494 744 
Q 775 591 1075 516 
Q 1375 441 1709 441 
Q 2250 441 2565 725 
Q 2881 1009 2881 1497 
Q 2881 1984 2565 2268 
Q 2250 2553 1709 2553 
Q 1456 2553 1204 2497 
Q 953 2441 691 2322 
L 691 4666 
z
" transform="scale(0.015625)"/>
       </defs>
       <use xlink:href="#DejaVuSans-35"/>
      </g>
     </g>
    </g>
    <g id="xtick_6">
     <g id="line2d_6">
      <g>
       <use xlink:href="#m45dad6123a" x="305.722147" y="190.9" style="stroke: #000000; stroke-width: 0.8"/>
      </g>
     </g>
     <g id="text_6">
      <!-- 6 -->
      <g transform="translate(301.904647 203.518125) scale(0.12 -0.12)">
       <defs>
        <path id="DejaVuSans-36" d="M 2113 2584 
Q 1688 2584 1439 2293 
Q 1191 2003 1191 1497 
Q 1191 994 1439 701 
Q 1688 409 2113 409 
Q 2538 409 2786 701 
Q 3034 994 3034 1497 
Q 3034 2003 2786 2293 
Q 2538 2584 2113 2584 
z
M 3366 4563 
L 3366 3988 
Q 3128 4100 2886 4159 
Q 2644 4219 2406 4219 
Q 1781 4219 1451 3797 
Q 1122 3375 1075 2522 
Q 1259 2794 1537 2939 
Q 1816 3084 2150 3084 
Q 2853 3084 3261 2657 
Q 3669 2231 3669 1497 
Q 3669 778 3244 343 
Q 2819 -91 2113 -91 
Q 1303 -91 875 529 
Q 447 1150 447 2328 
Q 447 3434 972 4092 
Q 1497 4750 2381 4750 
Q 2619 4750 2861 4703 
Q 3103 4656 3366 4563 
z
" transform="scale(0.015625)"/>
       </defs>
       <use xlink:href="#DejaVuSans-36"/>
      </g>
     </g>
    </g>
    <g id="xtick_7">
     <g id="line2d_7">
      <g>
       <use xlink:href="#m45dad6123a" x="359.67911" y="190.9" style="stroke: #000000; stroke-width: 0.8"/>
      </g>
     </g>
     <g id="text_7">
      <!-- 7 -->
      <g transform="translate(355.86161 203.518125) scale(0.12 -0.12)">
       <defs>
        <path id="DejaVuSans-37" d="M 525 4666 
L 3525 4666 
L 3525 4397 
L 1831 0 
L 1172 0 
L 2766 4134 
L 525 4134 
L 525 4666 
z
" transform="scale(0.015625)"/>
       </defs>
       <use xlink:href="#DejaVuSans-37"/>
      </g>
     </g>
    </g>
    <g id="xtick_8">
     <g id="line2d_8">
      <g>
       <use xlink:href="#m45dad6123a" x="413.636073" y="190.9" style="stroke: #000000; stroke-width: 0.8"/>
      </g>
     </g>
     <g id="text_8">
      <!-- 8 -->
      <g transform="translate(409.818573 203.518125) scale(0.12 -0.12)">
       <defs>
        <path id="DejaVuSans-38" d="M 2034 2216 
Q 1584 2216 1326 1975 
Q 1069 1734 1069 1313 
Q 1069 891 1326 650 
Q 1584 409 2034 409 
Q 2484 409 2743 651 
Q 3003 894 3003 1313 
Q 3003 1734 2745 1975 
Q 2488 2216 2034 2216 
z
M 1403 2484 
Q 997 2584 770 2862 
Q 544 3141 544 3541 
Q 544 4100 942 4425 
Q 1341 4750 2034 4750 
Q 2731 4750 3128 4425 
Q 3525 4100 3525 3541 
Q 3525 3141 3298 2862 
Q 3072 2584 2669 2484 
Q 3125 2378 3379 2068 
Q 3634 1759 3634 1313 
Q 3634 634 3220 271 
Q 2806 -91 2034 -91 
Q 1263 -91 848 271 
Q 434 634 434 1313 
Q 434 1759 690 2068 
Q 947 2378 1403 2484 
z
M 1172 3481 
Q 1172 3119 1398 2916 
Q 1625 2713 2034 2713 
Q 2441 2713 2670 2916 
Q 2900 3119 2900 3481 
Q 2900 3844 2670 4047 
Q 2441 4250 2034 4250 
Q 1625 4250 1398 4047 
Q 1172 3844 1172 3481 
z
" transform="scale(0.015625)"/>
       </defs>
       <use xlink:href="#DejaVuSans-38"/>
      </g>
     </g>
    </g>
    <g id="xtick_9">
     <g id="line2d_9">
      <g>
       <use xlink:href="#m45dad6123a" x="467.593037" y="190.9" style="stroke: #000000; stroke-width: 0.8"/>
      </g>
     </g>
     <g id="text_9">
      <!-- 9 -->
      <g transform="translate(463.775537 203.518125) scale(0.12 -0.12)">
       <defs>
        <path id="DejaVuSans-39" d="M 703 97 
L 703 672 
Q 941 559 1184 500 
Q 1428 441 1663 441 
Q 2288 441 2617 861 
Q 2947 1281 2994 2138 
Q 2813 1869 2534 1725 
Q 2256 1581 1919 1581 
Q 1219 1581 811 2004 
Q 403 2428 403 3163 
Q 403 3881 828 4315 
Q 1253 4750 1959 4750 
Q 2769 4750 3195 4129 
Q 3622 3509 3622 2328 
Q 3622 1225 3098 567 
Q 2575 -91 1691 -91 
Q 1453 -91 1209 -44 
Q 966 3 703 97 
z
M 1959 2075 
Q 2384 2075 2632 2365 
Q 2881 2656 2881 3163 
Q 2881 3666 2632 3958 
Q 2384 4250 1959 4250 
Q 1534 4250 1286 3958 
Q 1038 3666 1038 3163 
Q 1038 2656 1286 2365 
Q 1534 2075 1959 2075 
z
" transform="scale(0.015625)"/>
       </defs>
       <use xlink:href="#DejaVuSans-39"/>
      </g>
     </g>
    </g>
    <g id="xtick_10">
     <g id="line2d_10">
      <g>
       <use xlink:href="#m45dad6123a" x="521.55" y="190.9" style="stroke: #000000; stroke-width: 0.8"/>
      </g>
     </g>
     <g id="text_10">
      <!-- 10 -->
      <g transform="translate(513.915 203.518125) scale(0.12 -0.12)">
       <defs>
        <path id="DejaVuSans-30" d="M 2034 4250 
Q 1547 4250 1301 3770 
Q 1056 3291 1056 2328 
Q 1056 1369 1301 889 
Q 1547 409 2034 409 
Q 2525 409 2770 889 
Q 3016 1369 3016 2328 
Q 3016 3291 2770 3770 
Q 2525 4250 2034 4250 
z
M 2034 4750 
Q 2819 4750 3233 4129 
Q 3647 3509 3647 2328 
Q 3647 1150 3233 529 
Q 2819 -91 2034 -91 
Q 1250 -91 836 529 
Q 422 1150 422 2328 
Q 422 3509 836 4129 
Q 1250 4750 2034 4750 
z
" transform="scale(0.015625)"/>
       </defs>
       <use xlink:href="#DejaVuSans-31"/>
       <use xlink:href="#DejaVuSans-30" x="63.623047"/>
      </g>
     </g>
    </g>
   </g>
   <g id="matplotlib.axis_2">
    <g id="ytick_1">
     <g id="line2d_11">
      <defs>
       <path id="m0fecb25554" d="M 0 0 
L 3.5 0 
" style="stroke: #000000; stroke-width: 0.8"/>
      </defs>
      <g>
       <use xlink:href="#m0fecb25554" x="35.937331" y="190.9" style="stroke: #000000; stroke-width: 0.8"/>
      </g>
     </g>
     <g id="text_11">
      <!-- $10^{0}$ -->
      <g transform="translate(11.317331 195.459063) scale(0.12 -0.12)">
       <use xlink:href="#DejaVuSans-31" transform="translate(0 0.765625)"/>
       <use xlink:href="#DejaVuSans-30" transform="translate(63.623047 0.765625)"/>
       <use xlink:href="#DejaVuSans-30" transform="translate(128.203125 39.046875) scale(0.7)"/>
      </g>
     </g>
    </g>
    <g id="ytick_2">
     <g id="line2d_12">
      <g>
       <use xlink:href="#m0fecb25554" x="35.937331" y="157.355716" style="stroke: #000000; stroke-width: 0.8"/>
      </g>
     </g>
     <g id="text_12">
      <!-- $10^{1}$ -->
      <g transform="translate(11.317331 161.914778) scale(0.12 -0.12)">
       <use xlink:href="#DejaVuSans-31" transform="translate(0 0.684375)"/>
       <use xlink:href="#DejaVuSans-30" transform="translate(63.623047 0.684375)"/>
       <use xlink:href="#DejaVuSans-31" transform="translate(128.203125 38.965625) scale(0.7)"/>
      </g>
     </g>
    </g>
    <g id="ytick_3">
     <g id="line2d_13">
      <g>
       <use xlink:href="#m0fecb25554" x="35.937331" y="123.811432" style="stroke: #000000; stroke-width: 0.8"/>
      </g>
     </g>
     <g id="text_13">
      <!-- $10^{2}$ -->
      <g transform="translate(11.317331 128.370494) scale(0.12 -0.12)">
       <use xlink:href="#DejaVuSans-31" transform="translate(0 0.765625)"/>
       <use xlink:href="#DejaVuSans-30" transform="translate(63.623047 0.765625)"/>
       <use xlink:href="#DejaVuSans-32" transform="translate(128.203125 39.046875) scale(0.7)"/>
      </g>
     </g>
    </g>
    <g id="ytick_4">
     <g id="line2d_14">
      <g>
       <use xlink:href="#m0fecb25554" x="35.937331" y="90.267148" style="stroke: #000000; stroke-width: 0.8"/>
      </g>
     </g>
     <g id="text_14">
      <!-- $10^{3}$ -->
      <g transform="translate(11.317331 94.82621) scale(0.12 -0.12)">
       <use xlink:href="#DejaVuSans-31" transform="translate(0 0.765625)"/>
       <use xlink:href="#DejaVuSans-30" transform="translate(63.623047 0.765625)"/>
       <use xlink:href="#DejaVuSans-33" transform="translate(128.203125 39.046875) scale(0.7)"/>
      </g>
     </g>
    </g>
    <g id="ytick_5">
     <g id="line2d_15">
      <g>
       <use xlink:href="#m0fecb25554" x="35.937331" y="56.722864" style="stroke: #000000; stroke-width: 0.8"/>
      </g>
     </g>
     <g id="text_15">
      <!-- $10^{4}$ -->
      <g transform="translate(11.317331 61.281926) scale(0.12 -0.12)">
       <use xlink:href="#DejaVuSans-31" transform="translate(0 0.684375)"/>
       <use xlink:href="#DejaVuSans-30" transform="translate(63.623047 0.684375)"/>
       <use xlink:href="#DejaVuSans-34" transform="translate(128.203125 38.965625) scale(0.7)"/>
      </g>
     </g>
    </g>
    <g id="ytick_6">
     <g id="line2d_16">
      <g>
       <use xlink:href="#m0fecb25554" x="35.937331" y="23.17858" style="stroke: #000000; stroke-width: 0.8"/>
      </g>
     </g>
     <g id="text_16">
      <!-- $10^{5}$ -->
      <g transform="translate(11.317331 27.737642) scale(0.12 -0.12)">
       <use xlink:href="#DejaVuSans-31" transform="translate(0 0.684375)"/>
       <use xlink:href="#DejaVuSans-30" transform="translate(63.623047 0.684375)"/>
       <use xlink:href="#DejaVuSans-35" transform="translate(128.203125 38.965625) scale(0.7)"/>
      </g>
     </g>
    </g>
   </g>
   <g id="line2d_17">
    <path d="M 37.771867 190.9 
L 43.275478 190.9 
L 48.779088 190.9 
L 54.282698 190.9 
L 59.786308 190.9 
L 65.289919 190.9 
L 70.793529 190.9 
L 76.297139 190.9 
L 81.800749 177.675233 
L 87.30436 138.000933 
L 92.80797 109.932046 
L 98.31158 105.073988 
L 103.81519 116.679402 
L 109.318801 161.211761 
L 114.822411 190.9 
L 120.326021 190.9 
L 125.829631 190.9 
L 131.333242 190.9 
L 136.836852 184.16811 
L 142.340462 163.972438 
L 147.844072 140.542361 
L 153.347683 110.643473 
L 158.851293 90.661328 
L 164.354903 90.512668 
L 169.858513 96.710962 
L 175.362124 115.603161 
L 180.865734 123.399397 
L 186.369344 109.003708 
L 191.872954 101.815486 
L 197.376565 109.042201 
L 202.880175 111.988359 
L 208.383785 106.373405 
L 213.887395 103.261461 
L 219.391006 105.155536 
L 224.894616 109.798958 
L 230.398226 119.941074 
L 235.901837 126.220642 
L 241.405447 124.775116 
L 246.909057 119.611245 
L 252.412667 107.010686 
L 257.916278 97.283748 
L 263.419888 93.304057 
L 268.923498 89.890898 
L 274.427108 87.610805 
L 279.930719 85.609484 
L 285.434329 84.165708 
L 290.937939 86.297819 
L 296.441549 95.581706 
L 301.94516 100.624445 
L 307.44877 97.184889 
L 312.95238 95.297462 
L 318.45599 96.514292 
L 323.959601 95.975782 
L 329.463211 91.926592 
L 334.966821 90.632681 
L 340.470431 94.849328 
L 345.974042 97.350367 
L 351.477652 96.420191 
L 356.981262 94.1855 
L 362.484872 89.34178 
L 367.988483 88.497757 
L 373.492093 95.653126 
L 378.995703 98.060256 
L 384.499313 90.970905 
L 390.002924 85.587045 
L 395.506534 83.614166 
L 401.010144 83.304558 
L 406.513754 86.321491 
L 412.017365 89.038374 
L 417.520975 91.155156 
L 423.024585 90.832728 
L 428.528195 85.631878 
L 434.031806 81.695196 
L 439.535416 80.286853 
L 445.039026 79.470326 
L 450.542636 79.837429 
L 456.046247 80.80817 
L 461.549857 82.986186 
L 467.053467 86.187153 
L 472.557077 91.434019 
L 478.060688 93.691636 
L 483.564298 89.970758 
L 489.067908 87.438552 
L 494.571518 87.283693 
L 500.075129 86.998836 
L 505.578739 86.45398 
L 511.082349 85.92858 
L 516.585959 85.442091 
L 522.08957 85.094011 
L 527.59318 85.022748 
L 533.09679 84.965129 
L 538.6004 84.9348 
L 541 84.317347 
" clip-path="url(#p88f8476a35)" style="fill: none; stroke: #ff0000; stroke-opacity: 0.7; stroke-width: 2; stroke-linecap: square"/>
   </g>
   <g id="line2d_18">
    <path d="M 37.771867 190.9 
L 43.275478 190.9 
L 48.779088 190.9 
L 54.282698 190.9 
L 59.786308 190.9 
L 65.289919 190.9 
L 70.793529 190.9 
L 76.297139 190.9 
L 81.800749 168.384696 
L 87.30436 100.838785 
L 92.80797 57.49115 
L 98.31158 62.540067 
L 103.81519 86.738344 
L 109.318801 149.235338 
L 114.822411 190.9 
L 120.326021 190.9 
L 125.829631 176.05588 
L 131.333242 131.523521 
L 136.836852 98.961946 
L 142.340462 90.341939 
L 147.844072 77.942799 
L 153.347683 57.985395 
L 158.851293 44.668167 
L 164.354903 44.631292 
L 169.858513 50.852482 
L 175.362124 69.589803 
L 180.865734 77.316249 
L 186.369344 63.020947 
L 191.872954 57.986226 
L 197.376565 71.472667 
L 202.880175 75.079678 
L 208.383785 58.927829 
L 213.887395 53.339645 
L 219.391006 68.878788 
L 224.894616 79.109579 
L 230.398226 78.723667 
L 235.901837 78.404543 
L 241.405447 78.218992 
L 246.909057 73.174742 
L 252.412667 58.413092 
L 257.916278 48.473552 
L 263.419888 48.178235 
L 268.923498 46.435708 
L 274.427108 41.798762 
L 279.930719 38.33972 
L 285.434329 37.236484 
L 290.937939 40.285982 
L 296.441549 51.640948 
L 301.94516 57.20406 
L 307.44877 51.183465 
L 312.95238 47.122064 
L 318.45599 46.979052 
L 323.959601 46.839625 
L 329.463211 46.707371 
L 334.966821 48.414941 
L 340.470431 53.802158 
L 345.974042 55.542707 
L 351.477652 49.98992 
L 356.981262 45.123481 
L 362.484872 41.629739 
L 367.988483 41.40369 
L 373.492093 47.713024 
L 378.995703 49.636715 
L 384.499313 42.789116 
L 390.002924 38.596104 
L 395.506534 39.712264 
L 401.010144 40.41304 
L 406.513754 40.283044 
L 412.017365 41.907786 
L 417.520975 47.042003 
L 423.024585 48.1593 
L 428.528195 41.242757 
L 434.031806 36.164151 
L 439.535416 34.76142 
L 445.039026 33.217269 
L 450.542636 31.390281 
L 456.046247 32.139965 
L 461.549857 38.042995 
L 467.053467 43.092322 
L 472.557077 46.43424 
L 478.060688 46.704524 
L 483.564298 40.831535 
L 489.067908 38.779933 
L 494.571518 44.371103 
L 500.075129 46.53196 
L 505.578739 41.832189 
L 511.082349 38.331824 
L 516.585959 37.230272 
L 522.08957 37.207073 
L 527.59318 39.34058 
L 533.09679 40.726017 
L 538.6004 40.615317 
L 541 40.131802 
" clip-path="url(#p88f8476a35)" style="fill: none; stroke: #4169e1; stroke-opacity: 0.7; stroke-width: 2; stroke-linecap: square"/>
   </g>
   <g id="line2d_19">
    <path d="M 37.771867 190.9 
L 43.275478 190.9 
L 48.779088 190.9 
L 54.282698 190.9 
L 59.786308 190.9 
L 65.289919 190.9 
L 70.793529 190.9 
L 76.297139 190.9 
L 81.800749 166.436712 
L 87.30436 93.046847 
L 92.80797 45.803243 
L 98.31158 50.852161 
L 103.81519 76.998422 
L 109.318801 145.339369 
L 114.822411 190.9 
L 120.326021 190.9 
L 125.829631 174.108511 
L 131.333242 123.734045 
L 136.836852 87.281873 
L 142.340462 78.674292 
L 147.844072 66.279147 
L 153.347683 46.308873 
L 158.851293 32.983763 
L 164.354903 32.948979 
L 169.858513 39.168269 
L 175.362124 57.895706 
L 180.865734 65.615905 
L 186.369344 51.321627 
L 191.872954 46.289422 
L 197.376565 59.781363 
L 202.880175 63.390773 
L 208.383785 47.23512 
L 213.887395 41.637341 
L 219.391006 57.155313 
L 224.894616 67.408767 
L 230.398226 67.133187 
L 235.901837 66.849644 
L 241.405447 66.550179 
L 246.909057 61.439459 
L 252.412667 46.706229 
L 257.916278 36.790121 
L 263.419888 36.508255 
L 268.923498 34.768751 
L 274.427108 30.11397 
L 279.930719 26.643435 
L 285.434329 25.541389 
L 290.937939 28.60341 
L 296.441549 39.993566 
L 301.94516 45.558975 
L 307.44877 39.474892 
L 312.95238 35.381215 
L 318.45599 35.268349 
L 323.959601 35.166992 
L 329.463211 35.088652 
L 334.966821 36.809035 
L 340.470431 42.126864 
L 345.974042 43.825327 
L 351.477652 38.28506 
L 356.981262 33.42527 
L 362.484872 29.926436 
L 367.988483 29.703684 
L 373.492093 36.0331 
L 378.995703 37.968199 
L 384.499313 31.114661 
L 390.002924 27.374299 
L 395.506534 29.860287 
L 401.010144 30.641687 
L 406.513754 28.01391 
L 412.017365 28.343778 
L 417.520975 34.588935 
L 423.024585 36.615244 
L 428.528195 30.203858 
L 434.031806 25.231838 
L 439.535416 23.138547 
L 445.039026 21.151313 
L 450.542636 19.37619 
L 456.046247 20.202819 
L 461.549857 26.232948 
L 467.053467 31.386489 
L 472.557077 34.786854 
L 478.060688 35.081261 
L 483.564298 29.163757 
L 489.067908 27.079815 
L 494.571518 32.662998 
L 500.075129 34.827473 
L 505.578739 30.154532 
L 511.082349 26.662861 
L 516.585959 25.53373 
L 522.08957 25.500523 
L 527.59318 27.659165 
L 533.09679 29.065457 
L 538.6004 28.967048 
L 541 28.481261 
" clip-path="url(#p88f8476a35)" style="fill: none; stroke: #ffa500; stroke-opacity: 0.7; stroke-width: 2; stroke-linecap: square"/>
   </g>
   <g id="line2d_20">
    <path d="M 37.771867 189.217027 
L 43.275478 184.16811 
L 48.779088 167.103522 
L 54.282698 126.007596 
L 59.786308 95.296584 
L 65.289919 85.355401 
L 70.793529 78.357438 
L 76.297139 77.245917 
L 81.800749 76.1006 
L 87.30436 74.887692 
L 92.80797 70.993234 
L 98.31158 61.735674 
L 103.81519 53.442355 
L 109.318801 47.077517 
L 114.822411 46.893996 
L 120.326021 59.073111 
L 125.829631 67.587647 
L 131.333242 68.773025 
L 136.836852 65.288468 
L 142.340462 52.46404 
L 147.844072 41.022502 
L 153.347683 32.346741 
L 158.851293 30.549083 
L 164.354903 42.507628 
L 169.858513 51.419179 
L 175.362124 54.236742 
L 180.865734 55.064633 
L 186.369344 51.913178 
L 191.872954 47.891922 
L 197.376565 42.131063 
L 202.880175 40.468441 
L 208.383785 47.002294 
L 213.887395 51.661668 
L 219.391006 52.572085 
L 224.894616 53.08493 
L 230.398226 52.802628 
L 235.901837 52.476663 
L 241.405447 52.063371 
L 246.909057 49.32011 
L 252.412667 41.916909 
L 257.916278 36.258179 
L 263.419888 34.088392 
L 268.923498 33.212824 
L 274.427108 34.925696 
L 279.930719 34.411726 
L 285.434329 29.444073 
L 290.937939 29.605248 
L 296.441549 40.024083 
L 301.94516 47.281508 
L 307.44877 48.216111 
L 312.95238 48.013956 
L 318.45599 45.538285 
L 323.959601 40.720168 
L 329.463211 31.217161 
L 334.966821 27.032967 
L 340.470431 33.486402 
L 345.974042 36.589115 
L 351.477652 32.990384 
L 356.981262 31.533786 
L 362.484872 34.361452 
L 367.988483 37.895597 
L 373.492093 42.842698 
L 378.995703 45.596809 
L 384.499313 43.964941 
L 390.002924 41.482442 
L 395.506534 37.298681 
L 401.010144 35.992604 
L 406.513754 40.441895 
L 412.017365 43.413351 
L 417.520975 43.429138 
L 423.024585 41.021882 
L 428.528195 33.76854 
L 434.031806 27.648416 
L 439.535416 23.794726 
L 445.039026 20.800166 
L 450.542636 19.523866 
L 456.046247 22.640165 
L 461.549857 34.541661 
L 467.053467 42.531033 
L 472.557077 42.696159 
L 478.060688 42.636349 
L 483.564298 42.126669 
L 489.067908 40.377032 
L 494.571518 36.147484 
L 500.075129 31.046298 
L 505.578739 24.201835 
L 511.082349 22.457834 
L 516.585959 30.914759 
L 522.08957 35.002516 
L 527.59318 30.351938 
L 533.09679 29.251659 
L 538.6004 35.251981 
L 541 36.287724 
" clip-path="url(#p88f8476a35)" style="fill: none; stroke: #808080; stroke-opacity: 0.7; stroke-width: 2; stroke-linecap: square"/>
   </g>
   <g id="patch_3">
    <path d="M 35.937331 190.9 
L 35.937331 10.8 
" style="fill: none; stroke: #000000; stroke-width: 0.8; stroke-linejoin: miter; stroke-linecap: square"/>
   </g>
   <g id="patch_4">
    <path d="M 521.55 190.9 
L 521.55 10.8 
" style="fill: none; stroke: #000000; stroke-width: 0.8; stroke-linejoin: miter; stroke-linecap: square"/>
   </g>
   <g id="patch_5">
    <path d="M 35.937331 190.9 
L 521.55 190.9 
" style="fill: none; stroke: #000000; stroke-width: 0.8; stroke-linejoin: miter; stroke-linecap: square"/>
   </g>
   <g id="patch_6">
    <path d="M 35.937331 10.8 
L 521.55 10.8 
" style="fill: none; stroke: #000000; stroke-width: 0.8; stroke-linejoin: miter; stroke-linecap: square"/>
   </g>
   <g id="legend_1">
    <g id="patch_7">
     <path d="M 303.99 184.9 
L 513.15 184.9 
Q 515.55 184.9 515.55 182.5 
L 515.55 113.245 
Q 515.55 110.845 513.15 110.845 
L 303.99 110.845 
Q 301.59 110.845 301.59 113.245 
L 301.59 182.5 
Q 301.59 184.9 303.99 184.9 
z
" style="fill: #ffffff; opacity: 0.8; stroke: #cccccc; stroke-linejoin: miter"/>
    </g>
    <g id="line2d_21">
     <path d="M 306.39 120.563125 
L 318.39 120.563125 
L 330.39 120.563125 
" style="fill: none; stroke: #808080; stroke-width: 1.5; stroke-linecap: square"/>
    </g>
    <g id="text_17">
     <!-- dataset -->
     <g transform="translate(339.99 124.763125) scale(0.12 -0.12)">
      <defs>
       <path id="DejaVuSans-64" d="M 2906 2969 
L 2906 4863 
L 3481 4863 
L 3481 0 
L 2906 0 
L 2906 525 
Q 2725 213 2448 61 
Q 2172 -91 1784 -91 
Q 1150 -91 751 415 
Q 353 922 353 1747 
Q 353 2572 751 3078 
Q 1150 3584 1784 3584 
Q 2172 3584 2448 3432 
Q 2725 3281 2906 2969 
z
M 947 1747 
Q 947 1113 1208 752 
Q 1469 391 1925 391 
Q 2381 391 2643 752 
Q 2906 1113 2906 1747 
Q 2906 2381 2643 2742 
Q 2381 3103 1925 3103 
Q 1469 3103 1208 2742 
Q 947 2381 947 1747 
z
" transform="scale(0.015625)"/>
       <path id="DejaVuSans-61" d="M 2194 1759 
Q 1497 1759 1228 1600 
Q 959 1441 959 1056 
Q 959 750 1161 570 
Q 1363 391 1709 391 
Q 2188 391 2477 730 
Q 2766 1069 2766 1631 
L 2766 1759 
L 2194 1759 
z
M 3341 1997 
L 3341 0 
L 2766 0 
L 2766 531 
Q 2569 213 2275 61 
Q 1981 -91 1556 -91 
Q 1019 -91 701 211 
Q 384 513 384 1019 
Q 384 1609 779 1909 
Q 1175 2209 1959 2209 
L 2766 2209 
L 2766 2266 
Q 2766 2663 2505 2880 
Q 2244 3097 1772 3097 
Q 1472 3097 1187 3025 
Q 903 2953 641 2809 
L 641 3341 
Q 956 3463 1253 3523 
Q 1550 3584 1831 3584 
Q 2591 3584 2966 3190 
Q 3341 2797 3341 1997 
z
" transform="scale(0.015625)"/>
       <path id="DejaVuSans-74" d="M 1172 4494 
L 1172 3500 
L 2356 3500 
L 2356 3053 
L 1172 3053 
L 1172 1153 
Q 1172 725 1289 603 
Q 1406 481 1766 481 
L 2356 481 
L 2356 0 
L 1766 0 
Q 1100 0 847 248 
Q 594 497 594 1153 
L 594 3053 
L 172 3053 
L 172 3500 
L 594 3500 
L 594 4494 
L 1172 4494 
z
" transform="scale(0.015625)"/>
       <path id="DejaVuSans-73" d="M 2834 3397 
L 2834 2853 
Q 2591 2978 2328 3040 
Q 2066 3103 1784 3103 
Q 1356 3103 1142 2972 
Q 928 2841 928 2578 
Q 928 2378 1081 2264 
Q 1234 2150 1697 2047 
L 1894 2003 
Q 2506 1872 2764 1633 
Q 3022 1394 3022 966 
Q 3022 478 2636 193 
Q 2250 -91 1575 -91 
Q 1294 -91 989 -36 
Q 684 19 347 128 
L 347 722 
Q 666 556 975 473 
Q 1284 391 1588 391 
Q 1994 391 2212 530 
Q 2431 669 2431 922 
Q 2431 1156 2273 1281 
Q 2116 1406 1581 1522 
L 1381 1569 
Q 847 1681 609 1914 
Q 372 2147 372 2553 
Q 372 3047 722 3315 
Q 1072 3584 1716 3584 
Q 2034 3584 2315 3537 
Q 2597 3491 2834 3397 
z
" transform="scale(0.015625)"/>
       <path id="DejaVuSans-65" d="M 3597 1894 
L 3597 1613 
L 953 1613 
Q 991 1019 1311 708 
Q 1631 397 2203 397 
Q 2534 397 2845 478 
Q 3156 559 3463 722 
L 3463 178 
Q 3153 47 2828 -22 
Q 2503 -91 2169 -91 
Q 1331 -91 842 396 
Q 353 884 353 1716 
Q 353 2575 817 3079 
Q 1281 3584 2069 3584 
Q 2775 3584 3186 3129 
Q 3597 2675 3597 1894 
z
M 3022 2063 
Q 3016 2534 2758 2815 
Q 2500 3097 2075 3097 
Q 1594 3097 1305 2825 
Q 1016 2553 972 2059 
L 3022 2063 
z
" transform="scale(0.015625)"/>
      </defs>
      <use xlink:href="#DejaVuSans-64"/>
      <use xlink:href="#DejaVuSans-61" x="63.476562"/>
      <use xlink:href="#DejaVuSans-74" x="124.755859"/>
      <use xlink:href="#DejaVuSans-61" x="163.964844"/>
      <use xlink:href="#DejaVuSans-73" x="225.244141"/>
      <use xlink:href="#DejaVuSans-65" x="277.34375"/>
      <use xlink:href="#DejaVuSans-74" x="338.867188"/>
     </g>
    </g>
    <g id="line2d_22">
     <path d="M 306.39 138.176875 
L 318.39 138.176875 
L 330.39 138.176875 
" style="fill: none; stroke: #ff0000; stroke-width: 1.5; stroke-linecap: square"/>
    </g>
    <g id="text_18">
     <!-- 10.87$^\circ$ (7-4, 228 atoms) -->
     <g transform="translate(339.99 142.376875) scale(0.12 -0.12)">
      <defs>
       <path id="DejaVuSans-2e" d="M 684 794 
L 1344 794 
L 1344 0 
L 684 0 
L 684 794 
z
" transform="scale(0.015625)"/>
       <path id="DejaVuSans-2218" d="M 2003 2603 
Q 1753 2603 1581 2429 
Q 1409 2256 1409 2006 
Q 1409 1759 1581 1589 
Q 1753 1419 2003 1419 
Q 2253 1419 2425 1589 
Q 2597 1759 2597 2006 
Q 2597 2253 2423 2428 
Q 2250 2603 2003 2603 
z
M 2003 3006 
Q 2203 3006 2387 2929 
Q 2572 2853 2706 2709 
Q 2850 2569 2922 2390 
Q 2994 2212 2994 2006 
Q 2994 1594 2705 1308 
Q 2416 1022 1997 1022 
Q 1575 1022 1294 1303 
Q 1013 1584 1013 2006 
Q 1013 2425 1300 2715 
Q 1588 3006 2003 3006 
z
" transform="scale(0.015625)"/>
       <path id="DejaVuSans-20" transform="scale(0.015625)"/>
       <path id="DejaVuSans-28" d="M 1984 4856 
Q 1566 4138 1362 3434 
Q 1159 2731 1159 2009 
Q 1159 1288 1364 580 
Q 1569 -128 1984 -844 
L 1484 -844 
Q 1016 -109 783 600 
Q 550 1309 550 2009 
Q 550 2706 781 3412 
Q 1013 4119 1484 4856 
L 1984 4856 
z
" transform="scale(0.015625)"/>
       <path id="DejaVuSans-2d" d="M 313 2009 
L 1997 2009 
L 1997 1497 
L 313 1497 
L 313 2009 
z
" transform="scale(0.015625)"/>
       <path id="DejaVuSans-2c" d="M 750 794 
L 1409 794 
L 1409 256 
L 897 -744 
L 494 -744 
L 750 256 
L 750 794 
z
" transform="scale(0.015625)"/>
       <path id="DejaVuSans-6f" d="M 1959 3097 
Q 1497 3097 1228 2736 
Q 959 2375 959 1747 
Q 959 1119 1226 758 
Q 1494 397 1959 397 
Q 2419 397 2687 759 
Q 2956 1122 2956 1747 
Q 2956 2369 2687 2733 
Q 2419 3097 1959 3097 
z
M 1959 3584 
Q 2709 3584 3137 3096 
Q 3566 2609 3566 1747 
Q 3566 888 3137 398 
Q 2709 -91 1959 -91 
Q 1206 -91 779 398 
Q 353 888 353 1747 
Q 353 2609 779 3096 
Q 1206 3584 1959 3584 
z
" transform="scale(0.015625)"/>
       <path id="DejaVuSans-6d" d="M 3328 2828 
Q 3544 3216 3844 3400 
Q 4144 3584 4550 3584 
Q 5097 3584 5394 3201 
Q 5691 2819 5691 2113 
L 5691 0 
L 5113 0 
L 5113 2094 
Q 5113 2597 4934 2840 
Q 4756 3084 4391 3084 
Q 3944 3084 3684 2787 
Q 3425 2491 3425 1978 
L 3425 0 
L 2847 0 
L 2847 2094 
Q 2847 2600 2669 2842 
Q 2491 3084 2119 3084 
Q 1678 3084 1418 2786 
Q 1159 2488 1159 1978 
L 1159 0 
L 581 0 
L 581 3500 
L 1159 3500 
L 1159 2956 
Q 1356 3278 1631 3431 
Q 1906 3584 2284 3584 
Q 2666 3584 2933 3390 
Q 3200 3197 3328 2828 
z
" transform="scale(0.015625)"/>
       <path id="DejaVuSans-29" d="M 513 4856 
L 1013 4856 
Q 1481 4119 1714 3412 
Q 1947 2706 1947 2009 
Q 1947 1309 1714 600 
Q 1481 -109 1013 -844 
L 513 -844 
Q 928 -128 1133 580 
Q 1338 1288 1338 2009 
Q 1338 2731 1133 3434 
Q 928 4138 513 4856 
z
" transform="scale(0.015625)"/>
      </defs>
      <use xlink:href="#DejaVuSans-31" transform="translate(0 0.125)"/>
      <use xlink:href="#DejaVuSans-30" transform="translate(63.623047 0.125)"/>
      <use xlink:href="#DejaVuSans-2e" transform="translate(127.246094 0.125)"/>
      <use xlink:href="#DejaVuSans-38" transform="translate(156.408203 0.125)"/>
      <use xlink:href="#DejaVuSans-37" transform="translate(220.03125 0.125)"/>
      <use xlink:href="#DejaVuSans-2218" transform="translate(298.249023 38.40625) scale(0.7)"/>
      <use xlink:href="#DejaVuSans-20" transform="translate(358.439453 0.125)"/>
      <use xlink:href="#DejaVuSans-28" transform="translate(390.226562 0.125)"/>
      <use xlink:href="#DejaVuSans-37" transform="translate(429.240234 0.125)"/>
      <use xlink:href="#DejaVuSans-2d" transform="translate(492.863281 0.125)"/>
      <use xlink:href="#DejaVuSans-34" transform="translate(528.947266 0.125)"/>
      <use xlink:href="#DejaVuSans-2c" transform="translate(592.570312 0.125)"/>
      <use xlink:href="#DejaVuSans-20" transform="translate(624.357422 0.125)"/>
      <use xlink:href="#DejaVuSans-32" transform="translate(656.144531 0.125)"/>
      <use xlink:href="#DejaVuSans-32" transform="translate(719.767578 0.125)"/>
      <use xlink:href="#DejaVuSans-38" transform="translate(783.390625 0.125)"/>
      <use xlink:href="#DejaVuSans-20" transform="translate(847.013672 0.125)"/>
      <use xlink:href="#DejaVuSans-61" transform="translate(878.800781 0.125)"/>
      <use xlink:href="#DejaVuSans-74" transform="translate(940.080078 0.125)"/>
      <use xlink:href="#DejaVuSans-6f" transform="translate(979.289062 0.125)"/>
      <use xlink:href="#DejaVuSans-6d" transform="translate(1040.470703 0.125)"/>
      <use xlink:href="#DejaVuSans-73" transform="translate(1137.882812 0.125)"/>
      <use xlink:href="#DejaVuSans-29" transform="translate(1189.982422 0.125)"/>
     </g>
    </g>
    <g id="line2d_23">
     <path d="M 306.39 155.790625 
L 318.39 155.790625 
L 330.39 155.790625 
" style="fill: none; stroke: #4169e1; stroke-width: 1.5; stroke-linecap: square"/>
    </g>
    <g id="text_19">
     <!-- 2.20$^\circ$ (35-19, 5324 atoms) -->
     <g transform="translate(339.99 159.990625) scale(0.12 -0.12)">
      <use xlink:href="#DejaVuSans-32" transform="translate(0 0.125)"/>
      <use xlink:href="#DejaVuSans-2e" transform="translate(63.623047 0.125)"/>
      <use xlink:href="#DejaVuSans-32" transform="translate(89.910156 0.125)"/>
      <use xlink:href="#DejaVuSans-30" transform="translate(153.533203 0.125)"/>
      <use xlink:href="#DejaVuSans-2218" transform="translate(231.750977 38.40625) scale(0.7)"/>
      <use xlink:href="#DejaVuSans-20" transform="translate(291.941406 0.125)"/>
      <use xlink:href="#DejaVuSans-28" transform="translate(323.728516 0.125)"/>
      <use xlink:href="#DejaVuSans-33" transform="translate(362.742188 0.125)"/>
      <use xlink:href="#DejaVuSans-35" transform="translate(426.365234 0.125)"/>
      <use xlink:href="#DejaVuSans-2d" transform="translate(489.988281 0.125)"/>
      <use xlink:href="#DejaVuSans-31" transform="translate(526.072266 0.125)"/>
      <use xlink:href="#DejaVuSans-39" transform="translate(589.695312 0.125)"/>
      <use xlink:href="#DejaVuSans-2c" transform="translate(653.318359 0.125)"/>
      <use xlink:href="#DejaVuSans-20" transform="translate(685.105469 0.125)"/>
      <use xlink:href="#DejaVuSans-35" transform="translate(716.892578 0.125)"/>
      <use xlink:href="#DejaVuSans-33" transform="translate(780.515625 0.125)"/>
      <use xlink:href="#DejaVuSans-32" transform="translate(844.138672 0.125)"/>
      <use xlink:href="#DejaVuSans-34" transform="translate(907.761719 0.125)"/>
      <use xlink:href="#DejaVuSans-20" transform="translate(971.384766 0.125)"/>
      <use xlink:href="#DejaVuSans-61" transform="translate(1003.171875 0.125)"/>
      <use xlink:href="#DejaVuSans-74" transform="translate(1064.451172 0.125)"/>
      <use xlink:href="#DejaVuSans-6f" transform="translate(1103.660156 0.125)"/>
      <use xlink:href="#DejaVuSans-6d" transform="translate(1164.841797 0.125)"/>
      <use xlink:href="#DejaVuSans-73" transform="translate(1262.253906 0.125)"/>
      <use xlink:href="#DejaVuSans-29" transform="translate(1314.353516 0.125)"/>
     </g>
    </g>
    <g id="line2d_24">
     <path d="M 306.39 173.404375 
L 318.39 173.404375 
L 330.39 173.404375 
" style="fill: none; stroke: #ffa500; stroke-width: 1.5; stroke-linecap: square"/>
    </g>
    <g id="text_20">
     <!-- 1.45$^\circ$ (53-28, 11876 atoms) -->
     <g transform="translate(339.99 177.604375) scale(0.12 -0.12)">
      <use xlink:href="#DejaVuSans-31" transform="translate(0 0.125)"/>
      <use xlink:href="#DejaVuSans-2e" transform="translate(63.623047 0.125)"/>
      <use xlink:href="#DejaVuSans-34" transform="translate(95.410156 0.125)"/>
      <use xlink:href="#DejaVuSans-35" transform="translate(159.033203 0.125)"/>
      <use xlink:href="#DejaVuSans-2218" transform="translate(237.250977 38.40625) scale(0.7)"/>
      <use xlink:href="#DejaVuSans-20" transform="translate(297.441406 0.125)"/>
      <use xlink:href="#DejaVuSans-28" transform="translate(329.228516 0.125)"/>
      <use xlink:href="#DejaVuSans-35" transform="translate(368.242188 0.125)"/>
      <use xlink:href="#DejaVuSans-33" transform="translate(431.865234 0.125)"/>
      <use xlink:href="#DejaVuSans-2d" transform="translate(495.488281 0.125)"/>
      <use xlink:href="#DejaVuSans-32" transform="translate(531.572266 0.125)"/>
      <use xlink:href="#DejaVuSans-38" transform="translate(595.195312 0.125)"/>
      <use xlink:href="#DejaVuSans-2c" transform="translate(658.818359 0.125)"/>
      <use xlink:href="#DejaVuSans-20" transform="translate(690.605469 0.125)"/>
      <use xlink:href="#DejaVuSans-31" transform="translate(722.392578 0.125)"/>
      <use xlink:href="#DejaVuSans-31" transform="translate(786.015625 0.125)"/>
      <use xlink:href="#DejaVuSans-38" transform="translate(849.638672 0.125)"/>
      <use xlink:href="#DejaVuSans-37" transform="translate(913.261719 0.125)"/>
      <use xlink:href="#DejaVuSans-36" transform="translate(976.884766 0.125)"/>
      <use xlink:href="#DejaVuSans-20" transform="translate(1040.507812 0.125)"/>
      <use xlink:href="#DejaVuSans-61" transform="translate(1072.294922 0.125)"/>
      <use xlink:href="#DejaVuSans-74" transform="translate(1133.574219 0.125)"/>
      <use xlink:href="#DejaVuSans-6f" transform="translate(1172.783203 0.125)"/>
      <use xlink:href="#DejaVuSans-6d" transform="translate(1233.964844 0.125)"/>
      <use xlink:href="#DejaVuSans-73" transform="translate(1331.376953 0.125)"/>
      <use xlink:href="#DejaVuSans-29" transform="translate(1383.476562 0.125)"/>
     </g>
    </g>
   </g>
  </g>
 </g>
 <defs>
  <clipPath id="p88f8476a35">
   <rect x="35.937331" y="10.8" width="485.612669" height="180.1"/>
  </clipPath>
 </defs>
</svg>
