<?xml version="1.0" encoding="utf-8" standalone="no"?>
<!DOCTYPE svg PUBLIC "-//W3C//DTD SVG 1.1//EN"
  "http://www.w3.org/Graphics/SVG/1.1/DTD/svg11.dtd">
<svg xmlns:xlink="http://www.w3.org/1999/xlink" width="720pt" height="288pt" viewBox="0 0 720 288" xmlns="http://www.w3.org/2000/svg" version="1.1">
 <metadata>
  <rdf:RDF xmlns:dc="http://purl.org/dc/elements/1.1/" xmlns:cc="http://creativecommons.org/ns#" xmlns:rdf="http://www.w3.org/1999/02/22-rdf-syntax-ns#">
   <cc:Work>
    <dc:type rdf:resource="http://purl.org/dc/dcmitype/StillImage"/>
    <dc:date>2023-03-24T23:39:35.070883</dc:date>
    <dc:format>image/svg+xml</dc:format>
    <dc:creator>
     <cc:Agent>
      <dc:title>Matplotlib v3.7.1, https://matplotlib.org/</dc:title>
     </cc:Agent>
    </dc:creator>
   </cc:Work>
  </rdf:RDF>
 </metadata>
 <defs>
  <style type="text/css">*{stroke-linejoin: round; stroke-linecap: butt}</style>
 </defs>
 <g id="figure_1">
  <g id="patch_1">
   <path d="M 0 288 
L 720 288 
L 720 0 
L 0 0 
z
" style="fill: #ffffff"/>
  </g>
  <g id="axes_1">
   <g id="patch_2">
    <path d="M 35.937331 262.9 
L 701.55 262.9 
L 701.55 10.8 
L 35.937331 10.8 
z
" style="fill: #ffffff"/>
   </g>
   <g id="PolyCollection_1">
    <path d="M 38.451867 262.944068 
L 38.451867 262.9 
L 45.995478 262.9 
L 53.539088 262.9 
L 61.082698 262.9 
L 68.626308 262.9 
L 76.169919 262.9 
L 83.713529 262.9 
L 91.257139 262.9 
L 98.800749 249.536154 
L 106.34436 209.444618 
L 113.88797 165.215123 
L 121.43158 112.709712 
L 128.97519 71.871546 
L 136.518801 54.367872 
L 144.062411 48.438679 
L 151.606021 65.658451 
L 159.149631 82.342674 
L 166.693242 97.9558 
L 174.236852 106.48394 
L 181.780462 100.842109 
L 189.324072 90.316158 
L 196.867683 70.021965 
L 204.411293 56.710628 
L 211.954903 57.365003 
L 219.498513 53.847104 
L 227.042124 41.984654 
L 234.585734 39.080503 
L 242.129344 54.092951 
L 249.672954 66.873725 
L 257.216565 75.191152 
L 264.760175 76.748517 
L 272.303785 64.785761 
L 279.847395 54.367098 
L 287.391006 47.036619 
L 294.934616 47.037526 
L 302.478226 61.701204 
L 310.021837 67.935555 
L 317.565447 57.311251 
L 325.109057 50.723621 
L 332.652667 52.20934 
L 340.196278 54.73648 
L 347.739888 59.346462 
L 355.283498 62.154554 
L 362.827108 61.358865 
L 370.370719 55.793687 
L 377.914329 40.689531 
L 385.457939 31.566713 
L 393.001549 34.406571 
L 400.54516 36.849796 
L 408.08877 38.499756 
L 415.63238 37.628892 
L 423.17599 31.716377 
L 430.719601 29.209195 
L 438.263211 33.512679 
L 445.806821 39.063673 
L 453.350431 47.10969 
L 460.894042 52.368482 
L 468.437652 52.052824 
L 475.981262 51.671634 
L 483.524872 51.159377 
L 491.068483 47.500488 
L 498.612093 37.548335 
L 506.155703 31.717462 
L 513.699313 34.129149 
L 521.242924 34.253675 
L 528.786534 29.803876 
L 536.330144 27.341207 
L 543.873754 28.852797 
L 551.417365 30.165706 
L 558.960975 31.081255 
L 566.504585 33.702418 
L 574.048195 39.734807 
L 581.591806 42.360227 
L 589.135416 38.171709 
L 596.679026 35.08253 
L 604.222636 34.192033 
L 611.766247 34.085942 
L 619.309857 35.548664 
L 626.853467 37.482434 
L 634.397077 40.358299 
L 641.940688 39.258469 
L 649.484298 30.207248 
L 657.027908 24.488839 
L 664.571518 25.436052 
L 672.115129 24.127071 
L 679.658739 18.305703 
L 687.202349 17.036716 
L 694.745959 24.872489 
L 702.28957 32.140946 
L 709.83318 38.27477 
L 717.37679 42.304374 
L 724.9204 42.125541 
L 732.464011 41.570166 
L 740.007621 40.261709 
L 747.551231 37.602824 
L 755.094841 32.243085 
L 762.638452 41.548107 
L 770.182062 80.182652 
L 777.725672 132.099179 
L 785.269282 210.579672 
L 785.269282 262.944068 
L 785.269282 262.944068 
L 777.725672 262.944068 
L 770.182062 262.944068 
L 762.638452 262.944068 
L 755.094841 262.944068 
L 747.551231 262.944068 
L 740.007621 262.944068 
L 732.464011 262.944068 
L 724.9204 262.944068 
L 717.37679 262.944068 
L 709.83318 262.944068 
L 702.28957 262.944068 
L 694.745959 262.944068 
L 687.202349 262.944068 
L 679.658739 262.944068 
L 672.115129 262.944068 
L 664.571518 262.944068 
L 657.027908 262.944068 
L 649.484298 262.944068 
L 641.940688 262.944068 
L 634.397077 262.944068 
L 626.853467 262.944068 
L 619.309857 262.944068 
L 611.766247 262.944068 
L 604.222636 262.944068 
L 596.679026 262.944068 
L 589.135416 262.944068 
L 581.591806 262.944068 
L 574.048195 262.944068 
L 566.504585 262.944068 
L 558.960975 262.944068 
L 551.417365 262.944068 
L 543.873754 262.944068 
L 536.330144 262.944068 
L 528.786534 262.944068 
L 521.242924 262.944068 
L 513.699313 262.944068 
L 506.155703 262.944068 
L 498.612093 262.944068 
L 491.068483 262.944068 
L 483.524872 262.944068 
L 475.981262 262.944068 
L 468.437652 262.944068 
L 460.894042 262.944068 
L 453.350431 262.944068 
L 445.806821 262.944068 
L 438.263211 262.944068 
L 430.719601 262.944068 
L 423.17599 262.944068 
L 415.63238 262.944068 
L 408.08877 262.944068 
L 400.54516 262.944068 
L 393.001549 262.944068 
L 385.457939 262.944068 
L 377.914329 262.944068 
L 370.370719 262.944068 
L 362.827108 262.944068 
L 355.283498 262.944068 
L 347.739888 262.944068 
L 340.196278 262.944068 
L 332.652667 262.944068 
L 325.109057 262.944068 
L 317.565447 262.944068 
L 310.021837 262.944068 
L 302.478226 262.944068 
L 294.934616 262.944068 
L 287.391006 262.944068 
L 279.847395 262.944068 
L 272.303785 262.944068 
L 264.760175 262.944068 
L 257.216565 262.944068 
L 249.672954 262.944068 
L 242.129344 262.944068 
L 234.585734 262.944068 
L 227.042124 262.944068 
L 219.498513 262.944068 
L 211.954903 262.944068 
L 204.411293 262.944068 
L 196.867683 262.944068 
L 189.324072 262.944068 
L 181.780462 262.944068 
L 174.236852 262.944068 
L 166.693242 262.944068 
L 159.149631 262.944068 
L 151.606021 262.944068 
L 144.062411 262.944068 
L 136.518801 262.944068 
L 128.97519 262.944068 
L 121.43158 262.944068 
L 113.88797 262.944068 
L 106.34436 262.944068 
L 98.800749 262.944068 
L 91.257139 262.944068 
L 83.713529 262.944068 
L 76.169919 262.944068 
L 68.626308 262.944068 
L 61.082698 262.944068 
L 53.539088 262.944068 
L 45.995478 262.944068 
L 38.451867 262.944068 
z
" clip-path="url(#p94b4247ed8)" style="fill: #808080; fill-opacity: 0.5"/>
   </g>
   <g id="matplotlib.axis_1">
    <g id="xtick_1">
     <g id="line2d_1">
      <defs>
       <path id="mf4ed14d608" d="M 0 0 
L 0 -3.5 
" style="stroke: #000000; stroke-width: 0.8"/>
      </defs>
      <g>
       <use xlink:href="#mf4ed14d608" x="35.937331" y="262.9" style="stroke: #000000; stroke-width: 0.8"/>
      </g>
     </g>
     <g id="text_1">
      <!-- 1 -->
      <g transform="translate(32.119831 275.518125) scale(0.12 -0.12)">
       <defs>
        <path id="DejaVuSans-31" d="M 794 531 
L 1825 531 
L 1825 4091 
L 703 3866 
L 703 4441 
L 1819 4666 
L 2450 4666 
L 2450 531 
L 3481 531 
L 3481 0 
L 794 0 
L 794 531 
z
" transform="scale(0.015625)"/>
       </defs>
       <use xlink:href="#DejaVuSans-31"/>
      </g>
     </g>
    </g>
    <g id="xtick_2">
     <g id="line2d_2">
      <g>
       <use xlink:href="#mf4ed14d608" x="109.894294" y="262.9" style="stroke: #000000; stroke-width: 0.8"/>
      </g>
     </g>
     <g id="text_2">
      <!-- 2 -->
      <g transform="translate(106.076794 275.518125) scale(0.12 -0.12)">
       <defs>
        <path id="DejaVuSans-32" d="M 1228 531 
L 3431 531 
L 3431 0 
L 469 0 
L 469 531 
Q 828 903 1448 1529 
Q 2069 2156 2228 2338 
Q 2531 2678 2651 2914 
Q 2772 3150 2772 3378 
Q 2772 3750 2511 3984 
Q 2250 4219 1831 4219 
Q 1534 4219 1204 4116 
Q 875 4013 500 3803 
L 500 4441 
Q 881 4594 1212 4672 
Q 1544 4750 1819 4750 
Q 2544 4750 2975 4387 
Q 3406 4025 3406 3419 
Q 3406 3131 3298 2873 
Q 3191 2616 2906 2266 
Q 2828 2175 2409 1742 
Q 1991 1309 1228 531 
z
" transform="scale(0.015625)"/>
       </defs>
       <use xlink:href="#DejaVuSans-32"/>
      </g>
     </g>
    </g>
    <g id="xtick_3">
     <g id="line2d_3">
      <g>
       <use xlink:href="#mf4ed14d608" x="183.851257" y="262.9" style="stroke: #000000; stroke-width: 0.8"/>
      </g>
     </g>
     <g id="text_3">
      <!-- 3 -->
      <g transform="translate(180.033757 275.518125) scale(0.12 -0.12)">
       <defs>
        <path id="DejaVuSans-33" d="M 2597 2516 
Q 3050 2419 3304 2112 
Q 3559 1806 3559 1356 
Q 3559 666 3084 287 
Q 2609 -91 1734 -91 
Q 1441 -91 1130 -33 
Q 819 25 488 141 
L 488 750 
Q 750 597 1062 519 
Q 1375 441 1716 441 
Q 2309 441 2620 675 
Q 2931 909 2931 1356 
Q 2931 1769 2642 2001 
Q 2353 2234 1838 2234 
L 1294 2234 
L 1294 2753 
L 1863 2753 
Q 2328 2753 2575 2939 
Q 2822 3125 2822 3475 
Q 2822 3834 2567 4026 
Q 2313 4219 1838 4219 
Q 1578 4219 1281 4162 
Q 984 4106 628 3988 
L 628 4550 
Q 988 4650 1302 4700 
Q 1616 4750 1894 4750 
Q 2613 4750 3031 4423 
Q 3450 4097 3450 3541 
Q 3450 3153 3228 2886 
Q 3006 2619 2597 2516 
z
" transform="scale(0.015625)"/>
       </defs>
       <use xlink:href="#DejaVuSans-33"/>
      </g>
     </g>
    </g>
    <g id="xtick_4">
     <g id="line2d_4">
      <g>
       <use xlink:href="#mf4ed14d608" x="257.80822" y="262.9" style="stroke: #000000; stroke-width: 0.8"/>
      </g>
     </g>
     <g id="text_4">
      <!-- 4 -->
      <g transform="translate(253.99072 275.518125) scale(0.12 -0.12)">
       <defs>
        <path id="DejaVuSans-34" d="M 2419 4116 
L 825 1625 
L 2419 1625 
L 2419 4116 
z
M 2253 4666 
L 3047 4666 
L 3047 1625 
L 3713 1625 
L 3713 1100 
L 3047 1100 
L 3047 0 
L 2419 0 
L 2419 1100 
L 313 1100 
L 313 1709 
L 2253 4666 
z
" transform="scale(0.015625)"/>
       </defs>
       <use xlink:href="#DejaVuSans-34"/>
      </g>
     </g>
    </g>
    <g id="xtick_5">
     <g id="line2d_5">
      <g>
       <use xlink:href="#mf4ed14d608" x="331.765184" y="262.9" style="stroke: #000000; stroke-width: 0.8"/>
      </g>
     </g>
     <g id="text_5">
      <!-- 5 -->
      <g transform="translate(327.947684 275.518125) scale(0.12 -0.12)">
       <defs>
        <path id="DejaVuSans-35" d="M 691 4666 
L 3169 4666 
L 3169 4134 
L 1269 4134 
L 1269 2991 
Q 1406 3038 1543 3061 
Q 1681 3084 1819 3084 
Q 2600 3084 3056 2656 
Q 3513 2228 3513 1497 
Q 3513 744 3044 326 
Q 2575 -91 1722 -91 
Q 1428 -91 1123 -41 
Q 819 9 494 109 
L 494 744 
Q 775 591 1075 516 
Q 1375 441 1709 441 
Q 2250 441 2565 725 
Q 2881 1009 2881 1497 
Q 2881 1984 2565 2268 
Q 2250 2553 1709 2553 
Q 1456 2553 1204 2497 
Q 953 2441 691 2322 
L 691 4666 
z
" transform="scale(0.015625)"/>
       </defs>
       <use xlink:href="#DejaVuSans-35"/>
      </g>
     </g>
    </g>
    <g id="xtick_6">
     <g id="line2d_6">
      <g>
       <use xlink:href="#mf4ed14d608" x="405.722147" y="262.9" style="stroke: #000000; stroke-width: 0.8"/>
      </g>
     </g>
     <g id="text_6">
      <!-- 6 -->
      <g transform="translate(401.904647 275.518125) scale(0.12 -0.12)">
       <defs>
        <path id="DejaVuSans-36" d="M 2113 2584 
Q 1688 2584 1439 2293 
Q 1191 2003 1191 1497 
Q 1191 994 1439 701 
Q 1688 409 2113 409 
Q 2538 409 2786 701 
Q 3034 994 3034 1497 
Q 3034 2003 2786 2293 
Q 2538 2584 2113 2584 
z
M 3366 4563 
L 3366 3988 
Q 3128 4100 2886 4159 
Q 2644 4219 2406 4219 
Q 1781 4219 1451 3797 
Q 1122 3375 1075 2522 
Q 1259 2794 1537 2939 
Q 1816 3084 2150 3084 
Q 2853 3084 3261 2657 
Q 3669 2231 3669 1497 
Q 3669 778 3244 343 
Q 2819 -91 2113 -91 
Q 1303 -91 875 529 
Q 447 1150 447 2328 
Q 447 3434 972 4092 
Q 1497 4750 2381 4750 
Q 2619 4750 2861 4703 
Q 3103 4656 3366 4563 
z
" transform="scale(0.015625)"/>
       </defs>
       <use xlink:href="#DejaVuSans-36"/>
      </g>
     </g>
    </g>
    <g id="xtick_7">
     <g id="line2d_7">
      <g>
       <use xlink:href="#mf4ed14d608" x="479.67911" y="262.9" style="stroke: #000000; stroke-width: 0.8"/>
      </g>
     </g>
     <g id="text_7">
      <!-- 7 -->
      <g transform="translate(475.86161 275.518125) scale(0.12 -0.12)">
       <defs>
        <path id="DejaVuSans-37" d="M 525 4666 
L 3525 4666 
L 3525 4397 
L 1831 0 
L 1172 0 
L 2766 4134 
L 525 4134 
L 525 4666 
z
" transform="scale(0.015625)"/>
       </defs>
       <use xlink:href="#DejaVuSans-37"/>
      </g>
     </g>
    </g>
    <g id="xtick_8">
     <g id="line2d_8">
      <g>
       <use xlink:href="#mf4ed14d608" x="553.636073" y="262.9" style="stroke: #000000; stroke-width: 0.8"/>
      </g>
     </g>
     <g id="text_8">
      <!-- 8 -->
      <g transform="translate(549.818573 275.518125) scale(0.12 -0.12)">
       <defs>
        <path id="DejaVuSans-38" d="M 2034 2216 
Q 1584 2216 1326 1975 
Q 1069 1734 1069 1313 
Q 1069 891 1326 650 
Q 1584 409 2034 409 
Q 2484 409 2743 651 
Q 3003 894 3003 1313 
Q 3003 1734 2745 1975 
Q 2488 2216 2034 2216 
z
M 1403 2484 
Q 997 2584 770 2862 
Q 544 3141 544 3541 
Q 544 4100 942 4425 
Q 1341 4750 2034 4750 
Q 2731 4750 3128 4425 
Q 3525 4100 3525 3541 
Q 3525 3141 3298 2862 
Q 3072 2584 2669 2484 
Q 3125 2378 3379 2068 
Q 3634 1759 3634 1313 
Q 3634 634 3220 271 
Q 2806 -91 2034 -91 
Q 1263 -91 848 271 
Q 434 634 434 1313 
Q 434 1759 690 2068 
Q 947 2378 1403 2484 
z
M 1172 3481 
Q 1172 3119 1398 2916 
Q 1625 2713 2034 2713 
Q 2441 2713 2670 2916 
Q 2900 3119 2900 3481 
Q 2900 3844 2670 4047 
Q 2441 4250 2034 4250 
Q 1625 4250 1398 4047 
Q 1172 3844 1172 3481 
z
" transform="scale(0.015625)"/>
       </defs>
       <use xlink:href="#DejaVuSans-38"/>
      </g>
     </g>
    </g>
    <g id="xtick_9">
     <g id="line2d_9">
      <g>
       <use xlink:href="#mf4ed14d608" x="627.593037" y="262.9" style="stroke: #000000; stroke-width: 0.8"/>
      </g>
     </g>
     <g id="text_9">
      <!-- 9 -->
      <g transform="translate(623.775537 275.518125) scale(0.12 -0.12)">
       <defs>
        <path id="DejaVuSans-39" d="M 703 97 
L 703 672 
Q 941 559 1184 500 
Q 1428 441 1663 441 
Q 2288 441 2617 861 
Q 2947 1281 2994 2138 
Q 2813 1869 2534 1725 
Q 2256 1581 1919 1581 
Q 1219 1581 811 2004 
Q 403 2428 403 3163 
Q 403 3881 828 4315 
Q 1253 4750 1959 4750 
Q 2769 4750 3195 4129 
Q 3622 3509 3622 2328 
Q 3622 1225 3098 567 
Q 2575 -91 1691 -91 
Q 1453 -91 1209 -44 
Q 966 3 703 97 
z
M 1959 2075 
Q 2384 2075 2632 2365 
Q 2881 2656 2881 3163 
Q 2881 3666 2632 3958 
Q 2384 4250 1959 4250 
Q 1534 4250 1286 3958 
Q 1038 3666 1038 3163 
Q 1038 2656 1286 2365 
Q 1534 2075 1959 2075 
z
" transform="scale(0.015625)"/>
       </defs>
       <use xlink:href="#DejaVuSans-39"/>
      </g>
     </g>
    </g>
    <g id="xtick_10">
     <g id="line2d_10">
      <g>
       <use xlink:href="#mf4ed14d608" x="701.55" y="262.9" style="stroke: #000000; stroke-width: 0.8"/>
      </g>
     </g>
     <g id="text_10">
      <!-- 10 -->
      <g transform="translate(693.915 275.518125) scale(0.12 -0.12)">
       <defs>
        <path id="DejaVuSans-30" d="M 2034 4250 
Q 1547 4250 1301 3770 
Q 1056 3291 1056 2328 
Q 1056 1369 1301 889 
Q 1547 409 2034 409 
Q 2525 409 2770 889 
Q 3016 1369 3016 2328 
Q 3016 3291 2770 3770 
Q 2525 4250 2034 4250 
z
M 2034 4750 
Q 2819 4750 3233 4129 
Q 3647 3509 3647 2328 
Q 3647 1150 3233 529 
Q 2819 -91 2034 -91 
Q 1250 -91 836 529 
Q 422 1150 422 2328 
Q 422 3509 836 4129 
Q 1250 4750 2034 4750 
z
" transform="scale(0.015625)"/>
       </defs>
       <use xlink:href="#DejaVuSans-31"/>
       <use xlink:href="#DejaVuSans-30" x="63.623047"/>
      </g>
     </g>
    </g>
   </g>
   <g id="matplotlib.axis_2">
    <g id="ytick_1">
     <g id="line2d_11">
      <defs>
       <path id="m20dfe2c926" d="M 0 0 
L 3.5 0 
" style="stroke: #000000; stroke-width: 0.8"/>
      </defs>
      <g>
       <use xlink:href="#m20dfe2c926" x="35.937331" y="262.9" style="stroke: #000000; stroke-width: 0.8"/>
      </g>
     </g>
     <g id="text_11">
      <!-- $10^{0}$ -->
      <g transform="translate(11.317331 267.459062) scale(0.12 -0.12)">
       <use xlink:href="#DejaVuSans-31" transform="translate(0 0.765625)"/>
       <use xlink:href="#DejaVuSans-30" transform="translate(63.623047 0.765625)"/>
       <use xlink:href="#DejaVuSans-30" transform="translate(128.203125 39.046875) scale(0.7)"/>
      </g>
     </g>
    </g>
    <g id="ytick_2">
     <g id="line2d_12">
      <g>
       <use xlink:href="#m20dfe2c926" x="35.937331" y="218.832323" style="stroke: #000000; stroke-width: 0.8"/>
      </g>
     </g>
     <g id="text_12">
      <!-- $10^{1}$ -->
      <g transform="translate(11.317331 223.391386) scale(0.12 -0.12)">
       <use xlink:href="#DejaVuSans-31" transform="translate(0 0.684375)"/>
       <use xlink:href="#DejaVuSans-30" transform="translate(63.623047 0.684375)"/>
       <use xlink:href="#DejaVuSans-31" transform="translate(128.203125 38.965625) scale(0.7)"/>
      </g>
     </g>
    </g>
    <g id="ytick_3">
     <g id="line2d_13">
      <g>
       <use xlink:href="#m20dfe2c926" x="35.937331" y="174.764647" style="stroke: #000000; stroke-width: 0.8"/>
      </g>
     </g>
     <g id="text_13">
      <!-- $10^{2}$ -->
      <g transform="translate(11.317331 179.323709) scale(0.12 -0.12)">
       <use xlink:href="#DejaVuSans-31" transform="translate(0 0.765625)"/>
       <use xlink:href="#DejaVuSans-30" transform="translate(63.623047 0.765625)"/>
       <use xlink:href="#DejaVuSans-32" transform="translate(128.203125 39.046875) scale(0.7)"/>
      </g>
     </g>
    </g>
    <g id="ytick_4">
     <g id="line2d_14">
      <g>
       <use xlink:href="#m20dfe2c926" x="35.937331" y="130.69697" style="stroke: #000000; stroke-width: 0.8"/>
      </g>
     </g>
     <g id="text_14">
      <!-- $10^{3}$ -->
      <g transform="translate(11.317331 135.256033) scale(0.12 -0.12)">
       <use xlink:href="#DejaVuSans-31" transform="translate(0 0.765625)"/>
       <use xlink:href="#DejaVuSans-30" transform="translate(63.623047 0.765625)"/>
       <use xlink:href="#DejaVuSans-33" transform="translate(128.203125 39.046875) scale(0.7)"/>
      </g>
     </g>
    </g>
    <g id="ytick_5">
     <g id="line2d_15">
      <g>
       <use xlink:href="#m20dfe2c926" x="35.937331" y="86.629294" style="stroke: #000000; stroke-width: 0.8"/>
      </g>
     </g>
     <g id="text_15">
      <!-- $10^{4}$ -->
      <g transform="translate(11.317331 91.188356) scale(0.12 -0.12)">
       <use xlink:href="#DejaVuSans-31" transform="translate(0 0.684375)"/>
       <use xlink:href="#DejaVuSans-30" transform="translate(63.623047 0.684375)"/>
       <use xlink:href="#DejaVuSans-34" transform="translate(128.203125 38.965625) scale(0.7)"/>
      </g>
     </g>
    </g>
    <g id="ytick_6">
     <g id="line2d_16">
      <g>
       <use xlink:href="#m20dfe2c926" x="35.937331" y="42.561617" style="stroke: #000000; stroke-width: 0.8"/>
      </g>
     </g>
     <g id="text_16">
      <!-- $10^{5}$ -->
      <g transform="translate(11.317331 47.12068) scale(0.12 -0.12)">
       <use xlink:href="#DejaVuSans-31" transform="translate(0 0.684375)"/>
       <use xlink:href="#DejaVuSans-30" transform="translate(63.623047 0.684375)"/>
       <use xlink:href="#DejaVuSans-35" transform="translate(128.203125 38.965625) scale(0.7)"/>
      </g>
     </g>
    </g>
   </g>
   <g id="line2d_17">
    <path d="M 38.451867 262.9 
L 45.995478 262.9 
L 53.539088 262.9 
L 61.082698 262.9 
L 68.626308 262.9 
L 76.169919 262.9 
L 83.713529 262.9 
L 91.257139 262.9 
L 98.800749 262.9 
L 106.34436 262.9 
L 113.88797 262.9 
L 121.43158 262.9 
L 128.97519 246.555965 
L 136.518801 197.52386 
L 144.062411 181.179825 
L 151.606021 230.21193 
L 159.149631 262.9 
L 166.693242 262.9 
L 174.236852 262.9 
L 181.780462 262.9 
L 189.324072 248.766914 
L 196.867683 206.367655 
L 204.411293 190.02362 
L 211.954903 225.790033 
L 219.498513 234.207899 
L 227.042124 187.928674 
L 234.585734 166.787046 
L 242.129344 195.920613 
L 249.672954 223.269158 
L 257.216565 247.047663 
L 264.760175 254.973832 
L 272.303785 231.195327 
L 279.847395 206.705055 
L 287.391006 180.79125 
L 294.934616 180.079484 
L 302.478226 229.771794 
L 310.021837 248.340985 
L 317.565447 204.663942 
L 325.109057 178.674488 
L 332.652667 188.060214 
L 340.196278 195.610687 
L 347.739888 199.490653 
L 355.283498 204.288246 
L 362.827108 210.921092 
L 370.370719 204.389516 
L 377.914329 171.529093 
L 385.457939 157.071348 
L 393.001549 179.418958 
L 400.54516 188.753345 
L 408.08877 172.061287 
L 415.63238 159.864421 
L 423.17599 156.657941 
L 430.719601 158.450487 
L 438.263211 170.241084 
L 445.806821 179.886503 
L 453.350431 185.241564 
L 460.894042 189.729232 
L 468.437652 192.482112 
L 475.981262 190.754565 
L 483.524872 180.066167 
L 491.068483 169.74031 
L 498.612093 160.139537 
L 506.155703 155.824867 
L 513.699313 162.082404 
L 521.242924 163.482103 
L 528.786534 155.166128 
L 536.330144 152.926993 
L 543.873754 162.841538 
L 551.417365 166.707429 
L 558.960975 158.476013 
L 566.504585 157.173916 
L 574.048195 169.730456 
L 581.591806 174.752839 
L 589.135416 164.706908 
L 596.679026 158.316293 
L 604.222636 159.236311 
L 611.766247 159.879054 
L 619.309857 159.96725 
L 626.853467 160.607603 
L 634.397077 162.35227 
L 641.940688 159.941003 
L 649.484298 149.217871 
L 657.027908 146.099945 
L 664.571518 158.192435 
L 672.115129 160.831323 
L 679.658739 144.563007 
L 687.202349 138.284546 
L 694.745959 151.985797 
L 702.28957 160.020019 
L 709.83318 156.72018 
L 717.37679 155.813609 
L 721 157.677164 
" clip-path="url(#p94b4247ed8)" style="fill: none; stroke: #ff0000; stroke-width: 1.2; stroke-linecap: square"/>
   </g>
   <g id="line2d_18">
    <path d="M 38.451867 262.9 
L 45.995478 262.9 
L 53.539088 262.9 
L 61.082698 262.9 
L 68.626308 262.9 
L 76.169919 262.9 
L 83.713529 262.9 
L 91.257139 262.9 
L 98.800749 262.9 
L 106.34436 262.9 
L 113.88797 262.9 
L 121.43158 262.9 
L 128.97519 229.989331 
L 136.518801 131.257325 
L 144.062411 98.346657 
L 151.606021 197.078663 
L 159.149631 262.9 
L 166.693242 262.9 
L 174.236852 262.9 
L 181.780462 262.9 
L 189.324072 232.20028 
L 196.867683 140.10112 
L 204.411293 93.019617 
L 211.954903 135.973426 
L 219.498513 146.717864 
L 227.042124 93.043563 
L 234.585734 69.326272 
L 242.129344 105.523003 
L 249.672954 129.512368 
L 257.216565 129.087001 
L 264.760175 128.70107 
L 272.303785 128.394012 
L 279.847395 117.601524 
L 287.391006 85.838179 
L 294.934616 75.055047 
L 302.478226 106.232341 
L 310.021837 118.265523 
L 317.565447 92.01048 
L 325.109057 79.35901 
L 332.652667 93.914685 
L 340.196278 103.490863 
L 347.739888 103.108045 
L 355.283498 102.695929 
L 362.827108 102.225219 
L 370.370719 93.389543 
L 377.914329 67.823936 
L 385.457939 59.104191 
L 393.001549 84.076171 
L 400.54516 94.153707 
L 408.08877 74.442355 
L 415.63238 60.043827 
L 423.17599 56.270946 
L 430.719601 59.123046 
L 438.263211 75.225108 
L 445.806821 85.776675 
L 453.350431 85.227252 
L 460.894042 84.819365 
L 468.437652 84.694548 
L 475.981262 84.129002 
L 483.524872 82.681997 
L 491.068483 76.835476 
L 498.612093 62.18992 
L 506.155703 56.228545 
L 513.699313 67.635533 
L 521.242924 70.530346 
L 528.786534 56.400808 
L 536.330144 51.520392 
L 543.873754 65.138219 
L 551.417365 71.147016 
L 558.960975 61.937751 
L 566.504585 58.517749 
L 574.048195 66.676272 
L 581.591806 70.08318 
L 589.135416 63.986857 
L 596.679026 59.760729 
L 604.222636 59.274992 
L 611.766247 58.846698 
L 619.309857 58.53329 
L 626.853467 59.569629 
L 634.397077 63.305461 
L 641.940688 62.234271 
L 649.484298 51.549036 
L 657.027908 47.87336 
L 664.571518 58.216802 
L 672.115129 59.861764 
L 679.658739 44.109767 
L 687.202349 38.00173 
L 694.745959 51.181617 
L 702.28957 59.908885 
L 709.83318 59.730914 
L 717.37679 59.562282 
L 721 59.490258 
" clip-path="url(#p94b4247ed8)" style="fill: none; stroke: #008000; stroke-width: 1.2; stroke-linecap: square"/>
   </g>
   <g id="line2d_19">
    <path d="M 38.451867 262.9 
L 45.995478 262.9 
L 53.539088 262.9 
L 61.082698 262.9 
L 68.626308 262.9 
L 76.169919 262.9 
L 83.713529 262.9 
L 91.257139 262.9 
L 98.800749 262.9 
L 106.34436 262.9 
L 113.88797 262.9 
L 121.43158 262.9 
L 128.97519 227.455111 
L 136.518801 121.120445 
L 144.062411 85.675556 
L 151.606021 192.010222 
L 159.149631 262.9 
L 166.693242 262.9 
L 174.236852 262.9 
L 181.780462 262.9 
L 189.324072 229.66606 
L 196.867683 129.96424 
L 204.411293 77.635166 
L 211.954903 120.051582 
L 219.498513 130.617899 
L 227.042124 77.484016 
L 234.585734 54.12227 
L 242.129344 90.304799 
L 249.672954 114.282564 
L 257.216565 113.850798 
L 264.760175 113.470492 
L 272.303785 113.193106 
L 279.847395 102.416469 
L 287.391006 70.641332 
L 294.934616 59.745606 
L 302.478226 90.608703 
L 310.021837 102.541567 
L 317.565447 76.613964 
L 325.109057 64.18119 
L 332.652667 78.738071 
L 340.196278 88.3027 
L 347.739888 87.882824 
L 355.283498 87.476564 
L 362.827108 87.097537 
L 370.370719 78.297749 
L 377.914329 52.656436 
L 385.457939 43.885138 
L 393.001549 68.853866 
L 400.54516 78.936988 
L 408.08877 59.2489 
L 415.63238 44.868296 
L 423.17599 41.102663 
L 430.719601 43.889942 
L 438.263211 59.783046 
L 445.806821 70.297609 
L 453.350431 70.055093 
L 460.894042 69.791298 
L 468.437652 69.484945 
L 475.981262 68.812511 
L 483.524872 67.407915 
L 491.068483 61.598357 
L 498.612093 46.978874 
L 506.155703 41.010443 
L 513.699313 52.344116 
L 521.242924 55.220865 
L 528.786534 41.183768 
L 536.330144 36.338663 
L 543.873754 49.877541 
L 551.417365 55.855918 
L 558.960975 46.713293 
L 566.504585 43.320971 
L 574.048195 51.429258 
L 581.591806 54.814185 
L 589.135416 48.752393 
L 596.679026 44.547112 
L 604.222636 44.054854 
L 611.766247 43.619548 
L 619.309857 43.298149 
L 626.853467 44.359553 
L 634.397077 48.186563 
L 641.940688 47.149474 
L 649.484298 36.384187 
L 657.027908 32.655142 
L 664.571518 42.998585 
L 672.115129 44.644965 
L 679.658739 28.897222 
L 687.202349 22.804762 
L 694.745959 36.022868 
L 702.28957 44.756596 
L 709.83318 44.52157 
L 717.37679 44.322202 
L 721 44.2607 
" clip-path="url(#p94b4247ed8)" style="fill: none; stroke: #0000ff; stroke-width: 1.2; stroke-linecap: square"/>
   </g>
   <g id="line2d_20">
    <path d="M 38.451867 262.9 
L 45.995478 262.9 
L 53.539088 262.9 
L 61.082698 262.9 
L 68.626308 262.9 
L 76.169919 262.9 
L 83.713529 262.9 
L 91.257139 262.9 
L 98.800749 249.536154 
L 106.34436 209.444618 
L 113.88797 165.215123 
L 121.43158 112.709712 
L 128.97519 71.871546 
L 136.518801 54.367872 
L 144.062411 48.438679 
L 151.606021 65.658451 
L 159.149631 82.342674 
L 166.693242 97.9558 
L 174.236852 106.48394 
L 181.780462 100.842109 
L 189.324072 90.316158 
L 196.867683 70.021965 
L 204.411293 56.710628 
L 211.954903 57.365003 
L 219.498513 53.847104 
L 227.042124 41.984654 
L 234.585734 39.080503 
L 242.129344 54.092951 
L 249.672954 66.873725 
L 257.216565 75.191152 
L 264.760175 76.748517 
L 272.303785 64.785761 
L 279.847395 54.367098 
L 287.391006 47.036619 
L 294.934616 47.037526 
L 302.478226 61.701204 
L 310.021837 67.935555 
L 317.565447 57.311251 
L 325.109057 50.723621 
L 332.652667 52.20934 
L 340.196278 54.73648 
L 347.739888 59.346462 
L 355.283498 62.154554 
L 362.827108 61.358865 
L 370.370719 55.793687 
L 377.914329 40.689531 
L 385.457939 31.566713 
L 393.001549 34.406571 
L 400.54516 36.849796 
L 408.08877 38.499756 
L 415.63238 37.628892 
L 423.17599 31.716377 
L 430.719601 29.209195 
L 438.263211 33.512679 
L 445.806821 39.063673 
L 453.350431 47.10969 
L 460.894042 52.368482 
L 468.437652 52.052824 
L 475.981262 51.671634 
L 483.524872 51.159377 
L 491.068483 47.500488 
L 498.612093 37.548335 
L 506.155703 31.717462 
L 513.699313 34.129149 
L 521.242924 34.253675 
L 528.786534 29.803876 
L 536.330144 27.341207 
L 543.873754 28.852797 
L 551.417365 30.165706 
L 558.960975 31.081255 
L 566.504585 33.702418 
L 574.048195 39.734807 
L 581.591806 42.360227 
L 589.135416 38.171709 
L 596.679026 35.08253 
L 604.222636 34.192033 
L 611.766247 34.085942 
L 619.309857 35.548664 
L 626.853467 37.482434 
L 634.397077 40.358299 
L 641.940688 39.258469 
L 649.484298 30.207248 
L 657.027908 24.488839 
L 664.571518 25.436052 
L 672.115129 24.127071 
L 679.658739 18.305703 
L 687.202349 17.036716 
L 694.745959 24.872489 
L 702.28957 32.140946 
L 709.83318 38.27477 
L 717.37679 42.304374 
L 721 42.21848 
" clip-path="url(#p94b4247ed8)" style="fill: none; stroke: #808080; stroke-width: 1.5; stroke-linecap: square"/>
   </g>
   <g id="patch_3">
    <path d="M 35.937331 262.9 
L 35.937331 10.8 
" style="fill: none; stroke: #000000; stroke-width: 0.8; stroke-linejoin: miter; stroke-linecap: square"/>
   </g>
   <g id="patch_4">
    <path d="M 701.55 262.9 
L 701.55 10.8 
" style="fill: none; stroke: #000000; stroke-width: 0.8; stroke-linejoin: miter; stroke-linecap: square"/>
   </g>
   <g id="patch_5">
    <path d="M 35.937331 262.9 
L 701.55 262.9 
" style="fill: none; stroke: #000000; stroke-width: 0.8; stroke-linejoin: miter; stroke-linecap: square"/>
   </g>
   <g id="patch_6">
    <path d="M 35.937331 10.8 
L 701.55 10.8 
" style="fill: none; stroke: #000000; stroke-width: 0.8; stroke-linejoin: miter; stroke-linecap: square"/>
   </g>
   <g id="legend_1">
    <g id="patch_7">
     <path d="M 483.99 256.9 
L 693.15 256.9 
Q 695.55 256.9 695.55 254.5 
L 695.55 185.245 
Q 695.55 182.845 693.15 182.845 
L 483.99 182.845 
Q 481.59 182.845 481.59 185.245 
L 481.59 254.5 
Q 481.59 256.9 483.99 256.9 
z
" style="fill: #ffffff; opacity: 0.8; stroke: #cccccc; stroke-linejoin: miter"/>
    </g>
    <g id="line2d_21">
     <path d="M 486.39 192.563125 
L 498.39 192.563125 
L 510.39 192.563125 
" style="fill: none; stroke: #808080; stroke-width: 1.5; stroke-linecap: square"/>
    </g>
    <g id="text_17">
     <!-- dataset -->
     <g transform="translate(519.99 196.763125) scale(0.12 -0.12)">
      <defs>
       <path id="DejaVuSans-64" d="M 2906 2969 
L 2906 4863 
L 3481 4863 
L 3481 0 
L 2906 0 
L 2906 525 
Q 2725 213 2448 61 
Q 2172 -91 1784 -91 
Q 1150 -91 751 415 
Q 353 922 353 1747 
Q 353 2572 751 3078 
Q 1150 3584 1784 3584 
Q 2172 3584 2448 3432 
Q 2725 3281 2906 2969 
z
M 947 1747 
Q 947 1113 1208 752 
Q 1469 391 1925 391 
Q 2381 391 2643 752 
Q 2906 1113 2906 1747 
Q 2906 2381 2643 2742 
Q 2381 3103 1925 3103 
Q 1469 3103 1208 2742 
Q 947 2381 947 1747 
z
" transform="scale(0.015625)"/>
       <path id="DejaVuSans-61" d="M 2194 1759 
Q 1497 1759 1228 1600 
Q 959 1441 959 1056 
Q 959 750 1161 570 
Q 1363 391 1709 391 
Q 2188 391 2477 730 
Q 2766 1069 2766 1631 
L 2766 1759 
L 2194 1759 
z
M 3341 1997 
L 3341 0 
L 2766 0 
L 2766 531 
Q 2569 213 2275 61 
Q 1981 -91 1556 -91 
Q 1019 -91 701 211 
Q 384 513 384 1019 
Q 384 1609 779 1909 
Q 1175 2209 1959 2209 
L 2766 2209 
L 2766 2266 
Q 2766 2663 2505 2880 
Q 2244 3097 1772 3097 
Q 1472 3097 1187 3025 
Q 903 2953 641 2809 
L 641 3341 
Q 956 3463 1253 3523 
Q 1550 3584 1831 3584 
Q 2591 3584 2966 3190 
Q 3341 2797 3341 1997 
z
" transform="scale(0.015625)"/>
       <path id="DejaVuSans-74" d="M 1172 4494 
L 1172 3500 
L 2356 3500 
L 2356 3053 
L 1172 3053 
L 1172 1153 
Q 1172 725 1289 603 
Q 1406 481 1766 481 
L 2356 481 
L 2356 0 
L 1766 0 
Q 1100 0 847 248 
Q 594 497 594 1153 
L 594 3053 
L 172 3053 
L 172 3500 
L 594 3500 
L 594 4494 
L 1172 4494 
z
" transform="scale(0.015625)"/>
       <path id="DejaVuSans-73" d="M 2834 3397 
L 2834 2853 
Q 2591 2978 2328 3040 
Q 2066 3103 1784 3103 
Q 1356 3103 1142 2972 
Q 928 2841 928 2578 
Q 928 2378 1081 2264 
Q 1234 2150 1697 2047 
L 1894 2003 
Q 2506 1872 2764 1633 
Q 3022 1394 3022 966 
Q 3022 478 2636 193 
Q 2250 -91 1575 -91 
Q 1294 -91 989 -36 
Q 684 19 347 128 
L 347 722 
Q 666 556 975 473 
Q 1284 391 1588 391 
Q 1994 391 2212 530 
Q 2431 669 2431 922 
Q 2431 1156 2273 1281 
Q 2116 1406 1581 1522 
L 1381 1569 
Q 847 1681 609 1914 
Q 372 2147 372 2553 
Q 372 3047 722 3315 
Q 1072 3584 1716 3584 
Q 2034 3584 2315 3537 
Q 2597 3491 2834 3397 
z
" transform="scale(0.015625)"/>
       <path id="DejaVuSans-65" d="M 3597 1894 
L 3597 1613 
L 953 1613 
Q 991 1019 1311 708 
Q 1631 397 2203 397 
Q 2534 397 2845 478 
Q 3156 559 3463 722 
L 3463 178 
Q 3153 47 2828 -22 
Q 2503 -91 2169 -91 
Q 1331 -91 842 396 
Q 353 884 353 1716 
Q 353 2575 817 3079 
Q 1281 3584 2069 3584 
Q 2775 3584 3186 3129 
Q 3597 2675 3597 1894 
z
M 3022 2063 
Q 3016 2534 2758 2815 
Q 2500 3097 2075 3097 
Q 1594 3097 1305 2825 
Q 1016 2553 972 2059 
L 3022 2063 
z
" transform="scale(0.015625)"/>
      </defs>
      <use xlink:href="#DejaVuSans-64"/>
      <use xlink:href="#DejaVuSans-61" x="63.476562"/>
      <use xlink:href="#DejaVuSans-74" x="124.755859"/>
      <use xlink:href="#DejaVuSans-61" x="163.964844"/>
      <use xlink:href="#DejaVuSans-73" x="225.244141"/>
      <use xlink:href="#DejaVuSans-65" x="277.34375"/>
      <use xlink:href="#DejaVuSans-74" x="338.867188"/>
     </g>
    </g>
    <g id="line2d_22">
     <path d="M 486.39 210.176875 
L 498.39 210.176875 
L 510.39 210.176875 
" style="fill: none; stroke: #ff0000; stroke-width: 1.5; stroke-linecap: square"/>
    </g>
    <g id="text_18">
     <!-- 21.79$^\circ$ (2-1, 42 atoms) -->
     <g transform="translate(519.99 214.376875) scale(0.12 -0.12)">
      <defs>
       <path id="DejaVuSans-2e" d="M 684 794 
L 1344 794 
L 1344 0 
L 684 0 
L 684 794 
z
" transform="scale(0.015625)"/>
       <path id="DejaVuSans-2218" d="M 2003 2603 
Q 1753 2603 1581 2429 
Q 1409 2256 1409 2006 
Q 1409 1759 1581 1589 
Q 1753 1419 2003 1419 
Q 2253 1419 2425 1589 
Q 2597 1759 2597 2006 
Q 2597 2253 2423 2428 
Q 2250 2603 2003 2603 
z
M 2003 3006 
Q 2203 3006 2387 2929 
Q 2572 2853 2706 2709 
Q 2850 2569 2922 2390 
Q 2994 2212 2994 2006 
Q 2994 1594 2705 1308 
Q 2416 1022 1997 1022 
Q 1575 1022 1294 1303 
Q 1013 1584 1013 2006 
Q 1013 2425 1300 2715 
Q 1588 3006 2003 3006 
z
" transform="scale(0.015625)"/>
       <path id="DejaVuSans-20" transform="scale(0.015625)"/>
       <path id="DejaVuSans-28" d="M 1984 4856 
Q 1566 4138 1362 3434 
Q 1159 2731 1159 2009 
Q 1159 1288 1364 580 
Q 1569 -128 1984 -844 
L 1484 -844 
Q 1016 -109 783 600 
Q 550 1309 550 2009 
Q 550 2706 781 3412 
Q 1013 4119 1484 4856 
L 1984 4856 
z
" transform="scale(0.015625)"/>
       <path id="DejaVuSans-2d" d="M 313 2009 
L 1997 2009 
L 1997 1497 
L 313 1497 
L 313 2009 
z
" transform="scale(0.015625)"/>
       <path id="DejaVuSans-2c" d="M 750 794 
L 1409 794 
L 1409 256 
L 897 -744 
L 494 -744 
L 750 256 
L 750 794 
z
" transform="scale(0.015625)"/>
       <path id="DejaVuSans-6f" d="M 1959 3097 
Q 1497 3097 1228 2736 
Q 959 2375 959 1747 
Q 959 1119 1226 758 
Q 1494 397 1959 397 
Q 2419 397 2687 759 
Q 2956 1122 2956 1747 
Q 2956 2369 2687 2733 
Q 2419 3097 1959 3097 
z
M 1959 3584 
Q 2709 3584 3137 3096 
Q 3566 2609 3566 1747 
Q 3566 888 3137 398 
Q 2709 -91 1959 -91 
Q 1206 -91 779 398 
Q 353 888 353 1747 
Q 353 2609 779 3096 
Q 1206 3584 1959 3584 
z
" transform="scale(0.015625)"/>
       <path id="DejaVuSans-6d" d="M 3328 2828 
Q 3544 3216 3844 3400 
Q 4144 3584 4550 3584 
Q 5097 3584 5394 3201 
Q 5691 2819 5691 2113 
L 5691 0 
L 5113 0 
L 5113 2094 
Q 5113 2597 4934 2840 
Q 4756 3084 4391 3084 
Q 3944 3084 3684 2787 
Q 3425 2491 3425 1978 
L 3425 0 
L 2847 0 
L 2847 2094 
Q 2847 2600 2669 2842 
Q 2491 3084 2119 3084 
Q 1678 3084 1418 2786 
Q 1159 2488 1159 1978 
L 1159 0 
L 581 0 
L 581 3500 
L 1159 3500 
L 1159 2956 
Q 1356 3278 1631 3431 
Q 1906 3584 2284 3584 
Q 2666 3584 2933 3390 
Q 3200 3197 3328 2828 
z
" transform="scale(0.015625)"/>
       <path id="DejaVuSans-29" d="M 513 4856 
L 1013 4856 
Q 1481 4119 1714 3412 
Q 1947 2706 1947 2009 
Q 1947 1309 1714 600 
Q 1481 -109 1013 -844 
L 513 -844 
Q 928 -128 1133 580 
Q 1338 1288 1338 2009 
Q 1338 2731 1133 3434 
Q 928 4138 513 4856 
z
" transform="scale(0.015625)"/>
      </defs>
      <use xlink:href="#DejaVuSans-32" transform="translate(0 0.125)"/>
      <use xlink:href="#DejaVuSans-31" transform="translate(63.623047 0.125)"/>
      <use xlink:href="#DejaVuSans-2e" transform="translate(127.246094 0.125)"/>
      <use xlink:href="#DejaVuSans-37" transform="translate(151.283203 0.125)"/>
      <use xlink:href="#DejaVuSans-39" transform="translate(214.90625 0.125)"/>
      <use xlink:href="#DejaVuSans-2218" transform="translate(293.124023 38.40625) scale(0.7)"/>
      <use xlink:href="#DejaVuSans-20" transform="translate(353.314453 0.125)"/>
      <use xlink:href="#DejaVuSans-28" transform="translate(385.101562 0.125)"/>
      <use xlink:href="#DejaVuSans-32" transform="translate(424.115234 0.125)"/>
      <use xlink:href="#DejaVuSans-2d" transform="translate(487.738281 0.125)"/>
      <use xlink:href="#DejaVuSans-31" transform="translate(523.822266 0.125)"/>
      <use xlink:href="#DejaVuSans-2c" transform="translate(587.445312 0.125)"/>
      <use xlink:href="#DejaVuSans-20" transform="translate(619.232422 0.125)"/>
      <use xlink:href="#DejaVuSans-34" transform="translate(651.019531 0.125)"/>
      <use xlink:href="#DejaVuSans-32" transform="translate(714.642578 0.125)"/>
      <use xlink:href="#DejaVuSans-20" transform="translate(778.265625 0.125)"/>
      <use xlink:href="#DejaVuSans-61" transform="translate(810.052734 0.125)"/>
      <use xlink:href="#DejaVuSans-74" transform="translate(871.332031 0.125)"/>
      <use xlink:href="#DejaVuSans-6f" transform="translate(910.541016 0.125)"/>
      <use xlink:href="#DejaVuSans-6d" transform="translate(971.722656 0.125)"/>
      <use xlink:href="#DejaVuSans-73" transform="translate(1069.134766 0.125)"/>
      <use xlink:href="#DejaVuSans-29" transform="translate(1121.234375 0.125)"/>
     </g>
    </g>
    <g id="line2d_23">
     <path d="M 486.39 227.790625 
L 498.39 227.790625 
L 510.39 227.790625 
" style="fill: none; stroke: #008000; stroke-width: 1.5; stroke-linecap: square"/>
    </g>
    <g id="text_19">
     <!-- 1.61$^\circ$ (21-20, 16746 atoms) -->
     <g transform="translate(519.99 231.990625) scale(0.12 -0.12)">
      <use xlink:href="#DejaVuSans-31" transform="translate(0 0.125)"/>
      <use xlink:href="#DejaVuSans-2e" transform="translate(63.623047 0.125)"/>
      <use xlink:href="#DejaVuSans-36" transform="translate(95.410156 0.125)"/>
      <use xlink:href="#DejaVuSans-31" transform="translate(159.033203 0.125)"/>
      <use xlink:href="#DejaVuSans-2218" transform="translate(237.250977 38.40625) scale(0.7)"/>
      <use xlink:href="#DejaVuSans-20" transform="translate(297.441406 0.125)"/>
      <use xlink:href="#DejaVuSans-28" transform="translate(329.228516 0.125)"/>
      <use xlink:href="#DejaVuSans-32" transform="translate(368.242188 0.125)"/>
      <use xlink:href="#DejaVuSans-31" transform="translate(431.865234 0.125)"/>
      <use xlink:href="#DejaVuSans-2d" transform="translate(495.488281 0.125)"/>
      <use xlink:href="#DejaVuSans-32" transform="translate(531.572266 0.125)"/>
      <use xlink:href="#DejaVuSans-30" transform="translate(595.195312 0.125)"/>
      <use xlink:href="#DejaVuSans-2c" transform="translate(658.818359 0.125)"/>
      <use xlink:href="#DejaVuSans-20" transform="translate(690.605469 0.125)"/>
      <use xlink:href="#DejaVuSans-31" transform="translate(722.392578 0.125)"/>
      <use xlink:href="#DejaVuSans-36" transform="translate(786.015625 0.125)"/>
      <use xlink:href="#DejaVuSans-37" transform="translate(849.638672 0.125)"/>
      <use xlink:href="#DejaVuSans-34" transform="translate(913.261719 0.125)"/>
      <use xlink:href="#DejaVuSans-36" transform="translate(976.884766 0.125)"/>
      <use xlink:href="#DejaVuSans-20" transform="translate(1040.507812 0.125)"/>
      <use xlink:href="#DejaVuSans-61" transform="translate(1072.294922 0.125)"/>
      <use xlink:href="#DejaVuSans-74" transform="translate(1133.574219 0.125)"/>
      <use xlink:href="#DejaVuSans-6f" transform="translate(1172.783203 0.125)"/>
      <use xlink:href="#DejaVuSans-6d" transform="translate(1233.964844 0.125)"/>
      <use xlink:href="#DejaVuSans-73" transform="translate(1331.376953 0.125)"/>
      <use xlink:href="#DejaVuSans-29" transform="translate(1383.476562 0.125)"/>
     </g>
    </g>
    <g id="line2d_24">
     <path d="M 486.39 245.404375 
L 498.39 245.404375 
L 510.39 245.404375 
" style="fill: none; stroke: #0000ff; stroke-width: 1.5; stroke-linecap: square"/>
    </g>
    <g id="text_20">
     <!-- 1.08$^\circ$ (31-30, 11164 atoms) -->
     <g transform="translate(519.99 249.604375) scale(0.12 -0.12)">
      <use xlink:href="#DejaVuSans-31" transform="translate(0 0.125)"/>
      <use xlink:href="#DejaVuSans-2e" transform="translate(63.623047 0.125)"/>
      <use xlink:href="#DejaVuSans-30" transform="translate(95.410156 0.125)"/>
      <use xlink:href="#DejaVuSans-38" transform="translate(159.033203 0.125)"/>
      <use xlink:href="#DejaVuSans-2218" transform="translate(237.250977 38.40625) scale(0.7)"/>
      <use xlink:href="#DejaVuSans-20" transform="translate(297.441406 0.125)"/>
      <use xlink:href="#DejaVuSans-28" transform="translate(329.228516 0.125)"/>
      <use xlink:href="#DejaVuSans-33" transform="translate(368.242188 0.125)"/>
      <use xlink:href="#DejaVuSans-31" transform="translate(431.865234 0.125)"/>
      <use xlink:href="#DejaVuSans-2d" transform="translate(495.488281 0.125)"/>
      <use xlink:href="#DejaVuSans-33" transform="translate(531.572266 0.125)"/>
      <use xlink:href="#DejaVuSans-30" transform="translate(595.195312 0.125)"/>
      <use xlink:href="#DejaVuSans-2c" transform="translate(658.818359 0.125)"/>
      <use xlink:href="#DejaVuSans-20" transform="translate(690.605469 0.125)"/>
      <use xlink:href="#DejaVuSans-31" transform="translate(722.392578 0.125)"/>
      <use xlink:href="#DejaVuSans-31" transform="translate(786.015625 0.125)"/>
      <use xlink:href="#DejaVuSans-31" transform="translate(849.638672 0.125)"/>
      <use xlink:href="#DejaVuSans-36" transform="translate(913.261719 0.125)"/>
      <use xlink:href="#DejaVuSans-34" transform="translate(976.884766 0.125)"/>
      <use xlink:href="#DejaVuSans-20" transform="translate(1040.507812 0.125)"/>
      <use xlink:href="#DejaVuSans-61" transform="translate(1072.294922 0.125)"/>
      <use xlink:href="#DejaVuSans-74" transform="translate(1133.574219 0.125)"/>
      <use xlink:href="#DejaVuSans-6f" transform="translate(1172.783203 0.125)"/>
      <use xlink:href="#DejaVuSans-6d" transform="translate(1233.964844 0.125)"/>
      <use xlink:href="#DejaVuSans-73" transform="translate(1331.376953 0.125)"/>
      <use xlink:href="#DejaVuSans-29" transform="translate(1383.476562 0.125)"/>
     </g>
    </g>
   </g>
  </g>
 </g>
 <defs>
  <clipPath id="p94b4247ed8">
   <rect x="35.937331" y="10.8" width="665.612669" height="252.1"/>
  </clipPath>
 </defs>
</svg>
