<?xml version="1.0" encoding="utf-8" standalone="no"?>
<!DOCTYPE svg PUBLIC "-//W3C//DTD SVG 1.1//EN"
  "http://www.w3.org/Graphics/SVG/1.1/DTD/svg11.dtd">
<svg xmlns:xlink="http://www.w3.org/1999/xlink" width="540pt" height="216pt" viewBox="0 0 540 216" xmlns="http://www.w3.org/2000/svg" version="1.1">
 <metadata>
  <rdf:RDF xmlns:dc="http://purl.org/dc/elements/1.1/" xmlns:cc="http://creativecommons.org/ns#" xmlns:rdf="http://www.w3.org/1999/02/22-rdf-syntax-ns#">
   <cc:Work>
    <dc:type rdf:resource="http://purl.org/dc/dcmitype/StillImage"/>
    <dc:date>2023-04-17T20:16:26.877930</dc:date>
    <dc:format>image/svg+xml</dc:format>
    <dc:creator>
     <cc:Agent>
      <dc:title>Matplotlib v3.7.1, https://matplotlib.org/</dc:title>
     </cc:Agent>
    </dc:creator>
   </cc:Work>
  </rdf:RDF>
 </metadata>
 <defs>
  <style type="text/css">*{stroke-linejoin: round; stroke-linecap: butt}</style>
 </defs>
 <g id="figure_1">
  <g id="patch_1">
   <path d="M 0 216 
L 540 216 
L 540 0 
L 0 0 
z
" style="fill: #ffffff"/>
  </g>
  <g id="axes_1">
   <g id="patch_2">
    <path d="M 35.937331 190.9 
L 521.55 190.9 
L 521.55 10.8 
L 35.937331 10.8 
z
" style="fill: #ffffff"/>
   </g>
   <g id="PolyCollection_1">
    <path d="M 37.771867 190.931482 
L 37.771867 190.9 
L 43.275478 190.9 
L 48.779088 190.9 
L 54.282698 190.9 
L 59.786308 190.9 
L 65.289919 190.9 
L 70.793529 190.9 
L 76.297139 190.9 
L 81.800749 181.352881 
L 87.30436 152.711526 
L 92.80797 121.114017 
L 98.31158 83.604201 
L 103.81519 54.429454 
L 109.318801 41.924846 
L 114.822411 37.689037 
L 120.326021 49.990825 
L 125.829631 61.910019 
L 131.333242 73.06402 
L 136.836852 79.156515 
L 142.340462 75.125997 
L 147.844072 67.606267 
L 153.347683 53.108115 
L 158.851293 43.598509 
L 164.354903 44.065994 
L 169.858513 41.55281 
L 175.362124 33.078287 
L 180.865734 31.003565 
L 186.369344 41.728443 
L 191.872954 50.859016 
L 197.376565 56.800978 
L 202.880175 57.913558 
L 208.383785 49.367376 
L 213.887395 41.924293 
L 219.391006 36.687406 
L 224.894616 36.688054 
L 230.398226 47.163772 
L 235.901837 51.617586 
L 241.405447 44.027594 
L 246.909057 39.321397 
L 252.412667 40.382793 
L 257.916278 42.188179 
L 263.419888 45.481546 
L 268.923498 47.487644 
L 274.427108 46.919205 
L 279.930719 42.943447 
L 285.434329 32.153053 
L 290.937939 25.63572 
L 296.441549 27.664512 
L 301.94516 29.40995 
L 307.44877 30.58868 
L 312.95238 29.966535 
L 318.45599 25.74264 
L 323.959601 23.951512 
L 329.463211 27.025916 
L 334.966821 30.991541 
L 340.470431 36.739608 
L 345.974042 40.496484 
L 351.477652 40.270978 
L 356.981262 39.998656 
L 362.484872 39.6327 
L 367.988483 37.018793 
L 373.492093 29.908985 
L 378.995703 25.743415 
L 384.499313 27.466322 
L 390.002924 27.555283 
L 395.506534 24.376351 
L 401.010144 22.617023 
L 406.513754 23.696901 
L 412.017365 24.634842 
L 417.520975 25.28891 
L 423.024585 27.161466 
L 428.528195 31.470999 
L 434.031806 33.346596 
L 439.535416 30.354323 
L 445.039026 28.147417 
L 450.542636 27.511246 
L 456.046247 27.435455 
L 461.549857 28.480422 
L 467.053467 29.861905 
L 472.557077 31.916421 
L 478.060688 31.130703 
L 483.564298 24.66452 
L 489.067908 20.579293 
L 494.571518 21.255981 
L 500.075129 20.320847 
L 505.578739 16.162067 
L 511.082349 15.255504 
L 516.585959 20.853373 
L 522.08957 26.045952 
L 527.59318 30.427949 
L 533.09679 33.306695 
L 538.6004 33.178937 
L 544.104011 32.782177 
L 549.607621 31.847417 
L 555.111231 29.947912 
L 560.614841 26.118919 
L 566.118452 32.766418 
L 571.622062 60.3669 
L 577.125672 97.456018 
L 582.629282 153.522407 
L 582.629282 190.931482 
L 582.629282 190.931482 
L 577.125672 190.931482 
L 571.622062 190.931482 
L 566.118452 190.931482 
L 560.614841 190.931482 
L 555.111231 190.931482 
L 549.607621 190.931482 
L 544.104011 190.931482 
L 538.6004 190.931482 
L 533.09679 190.931482 
L 527.59318 190.931482 
L 522.08957 190.931482 
L 516.585959 190.931482 
L 511.082349 190.931482 
L 505.578739 190.931482 
L 500.075129 190.931482 
L 494.571518 190.931482 
L 489.067908 190.931482 
L 483.564298 190.931482 
L 478.060688 190.931482 
L 472.557077 190.931482 
L 467.053467 190.931482 
L 461.549857 190.931482 
L 456.046247 190.931482 
L 450.542636 190.931482 
L 445.039026 190.931482 
L 439.535416 190.931482 
L 434.031806 190.931482 
L 428.528195 190.931482 
L 423.024585 190.931482 
L 417.520975 190.931482 
L 412.017365 190.931482 
L 406.513754 190.931482 
L 401.010144 190.931482 
L 395.506534 190.931482 
L 390.002924 190.931482 
L 384.499313 190.931482 
L 378.995703 190.931482 
L 373.492093 190.931482 
L 367.988483 190.931482 
L 362.484872 190.931482 
L 356.981262 190.931482 
L 351.477652 190.931482 
L 345.974042 190.931482 
L 340.470431 190.931482 
L 334.966821 190.931482 
L 329.463211 190.931482 
L 323.959601 190.931482 
L 318.45599 190.931482 
L 312.95238 190.931482 
L 307.44877 190.931482 
L 301.94516 190.931482 
L 296.441549 190.931482 
L 290.937939 190.931482 
L 285.434329 190.931482 
L 279.930719 190.931482 
L 274.427108 190.931482 
L 268.923498 190.931482 
L 263.419888 190.931482 
L 257.916278 190.931482 
L 252.412667 190.931482 
L 246.909057 190.931482 
L 241.405447 190.931482 
L 235.901837 190.931482 
L 230.398226 190.931482 
L 224.894616 190.931482 
L 219.391006 190.931482 
L 213.887395 190.931482 
L 208.383785 190.931482 
L 202.880175 190.931482 
L 197.376565 190.931482 
L 191.872954 190.931482 
L 186.369344 190.931482 
L 180.865734 190.931482 
L 175.362124 190.931482 
L 169.858513 190.931482 
L 164.354903 190.931482 
L 158.851293 190.931482 
L 153.347683 190.931482 
L 147.844072 190.931482 
L 142.340462 190.931482 
L 136.836852 190.931482 
L 131.333242 190.931482 
L 125.829631 190.931482 
L 120.326021 190.931482 
L 114.822411 190.931482 
L 109.318801 190.931482 
L 103.81519 190.931482 
L 98.31158 190.931482 
L 92.80797 190.931482 
L 87.30436 190.931482 
L 81.800749 190.931482 
L 76.297139 190.931482 
L 70.793529 190.931482 
L 65.289919 190.931482 
L 59.786308 190.931482 
L 54.282698 190.931482 
L 48.779088 190.931482 
L 43.275478 190.931482 
L 37.771867 190.931482 
z
" clip-path="url(#pddfbeb21d0)" style="fill: #808080; fill-opacity: 0.15"/>
   </g>
   <g id="matplotlib.axis_1">
    <g id="xtick_1">
     <g id="line2d_1">
      <defs>
       <path id="mc6f78e7fcc" d="M 0 0 
L 0 -3.5 
" style="stroke: #000000; stroke-width: 0.8"/>
      </defs>
      <g>
       <use xlink:href="#mc6f78e7fcc" x="35.937331" y="190.9" style="stroke: #000000; stroke-width: 0.8"/>
      </g>
     </g>
     <g id="text_1">
      <!-- 1 -->
      <g transform="translate(32.119831 203.518125) scale(0.12 -0.12)">
       <defs>
        <path id="DejaVuSans-31" d="M 794 531 
L 1825 531 
L 1825 4091 
L 703 3866 
L 703 4441 
L 1819 4666 
L 2450 4666 
L 2450 531 
L 3481 531 
L 3481 0 
L 794 0 
L 794 531 
z
" transform="scale(0.015625)"/>
       </defs>
       <use xlink:href="#DejaVuSans-31"/>
      </g>
     </g>
    </g>
    <g id="xtick_2">
     <g id="line2d_2">
      <g>
       <use xlink:href="#mc6f78e7fcc" x="89.894294" y="190.9" style="stroke: #000000; stroke-width: 0.8"/>
      </g>
     </g>
     <g id="text_2">
      <!-- 2 -->
      <g transform="translate(86.076794 203.518125) scale(0.12 -0.12)">
       <defs>
        <path id="DejaVuSans-32" d="M 1228 531 
L 3431 531 
L 3431 0 
L 469 0 
L 469 531 
Q 828 903 1448 1529 
Q 2069 2156 2228 2338 
Q 2531 2678 2651 2914 
Q 2772 3150 2772 3378 
Q 2772 3750 2511 3984 
Q 2250 4219 1831 4219 
Q 1534 4219 1204 4116 
Q 875 4013 500 3803 
L 500 4441 
Q 881 4594 1212 4672 
Q 1544 4750 1819 4750 
Q 2544 4750 2975 4387 
Q 3406 4025 3406 3419 
Q 3406 3131 3298 2873 
Q 3191 2616 2906 2266 
Q 2828 2175 2409 1742 
Q 1991 1309 1228 531 
z
" transform="scale(0.015625)"/>
       </defs>
       <use xlink:href="#DejaVuSans-32"/>
      </g>
     </g>
    </g>
    <g id="xtick_3">
     <g id="line2d_3">
      <g>
       <use xlink:href="#mc6f78e7fcc" x="143.851257" y="190.9" style="stroke: #000000; stroke-width: 0.8"/>
      </g>
     </g>
     <g id="text_3">
      <!-- 3 -->
      <g transform="translate(140.033757 203.518125) scale(0.12 -0.12)">
       <defs>
        <path id="DejaVuSans-33" d="M 2597 2516 
Q 3050 2419 3304 2112 
Q 3559 1806 3559 1356 
Q 3559 666 3084 287 
Q 2609 -91 1734 -91 
Q 1441 -91 1130 -33 
Q 819 25 488 141 
L 488 750 
Q 750 597 1062 519 
Q 1375 441 1716 441 
Q 2309 441 2620 675 
Q 2931 909 2931 1356 
Q 2931 1769 2642 2001 
Q 2353 2234 1838 2234 
L 1294 2234 
L 1294 2753 
L 1863 2753 
Q 2328 2753 2575 2939 
Q 2822 3125 2822 3475 
Q 2822 3834 2567 4026 
Q 2313 4219 1838 4219 
Q 1578 4219 1281 4162 
Q 984 4106 628 3988 
L 628 4550 
Q 988 4650 1302 4700 
Q 1616 4750 1894 4750 
Q 2613 4750 3031 4423 
Q 3450 4097 3450 3541 
Q 3450 3153 3228 2886 
Q 3006 2619 2597 2516 
z
" transform="scale(0.015625)"/>
       </defs>
       <use xlink:href="#DejaVuSans-33"/>
      </g>
     </g>
    </g>
    <g id="xtick_4">
     <g id="line2d_4">
      <g>
       <use xlink:href="#mc6f78e7fcc" x="197.80822" y="190.9" style="stroke: #000000; stroke-width: 0.8"/>
      </g>
     </g>
     <g id="text_4">
      <!-- 4 -->
      <g transform="translate(193.99072 203.518125) scale(0.12 -0.12)">
       <defs>
        <path id="DejaVuSans-34" d="M 2419 4116 
L 825 1625 
L 2419 1625 
L 2419 4116 
z
M 2253 4666 
L 3047 4666 
L 3047 1625 
L 3713 1625 
L 3713 1100 
L 3047 1100 
L 3047 0 
L 2419 0 
L 2419 1100 
L 313 1100 
L 313 1709 
L 2253 4666 
z
" transform="scale(0.015625)"/>
       </defs>
       <use xlink:href="#DejaVuSans-34"/>
      </g>
     </g>
    </g>
    <g id="xtick_5">
     <g id="line2d_5">
      <g>
       <use xlink:href="#mc6f78e7fcc" x="251.765184" y="190.9" style="stroke: #000000; stroke-width: 0.8"/>
      </g>
     </g>
     <g id="text_5">
      <!-- 5 -->
      <g transform="translate(247.947684 203.518125) scale(0.12 -0.12)">
       <defs>
        <path id="DejaVuSans-35" d="M 691 4666 
L 3169 4666 
L 3169 4134 
L 1269 4134 
L 1269 2991 
Q 1406 3038 1543 3061 
Q 1681 3084 1819 3084 
Q 2600 3084 3056 2656 
Q 3513 2228 3513 1497 
Q 3513 744 3044 326 
Q 2575 -91 1722 -91 
Q 1428 -91 1123 -41 
Q 819 9 494 109 
L 494 744 
Q 775 591 1075 516 
Q 1375 441 1709 441 
Q 2250 441 2565 725 
Q 2881 1009 2881 1497 
Q 2881 1984 2565 2268 
Q 2250 2553 1709 2553 
Q 1456 2553 1204 2497 
Q 953 2441 691 2322 
L 691 4666 
z
" transform="scale(0.015625)"/>
       </defs>
       <use xlink:href="#DejaVuSans-35"/>
      </g>
     </g>
    </g>
    <g id="xtick_6">
     <g id="line2d_6">
      <g>
       <use xlink:href="#mc6f78e7fcc" x="305.722147" y="190.9" style="stroke: #000000; stroke-width: 0.8"/>
      </g>
     </g>
     <g id="text_6">
      <!-- 6 -->
      <g transform="translate(301.904647 203.518125) scale(0.12 -0.12)">
       <defs>
        <path id="DejaVuSans-36" d="M 2113 2584 
Q 1688 2584 1439 2293 
Q 1191 2003 1191 1497 
Q 1191 994 1439 701 
Q 1688 409 2113 409 
Q 2538 409 2786 701 
Q 3034 994 3034 1497 
Q 3034 2003 2786 2293 
Q 2538 2584 2113 2584 
z
M 3366 4563 
L 3366 3988 
Q 3128 4100 2886 4159 
Q 2644 4219 2406 4219 
Q 1781 4219 1451 3797 
Q 1122 3375 1075 2522 
Q 1259 2794 1537 2939 
Q 1816 3084 2150 3084 
Q 2853 3084 3261 2657 
Q 3669 2231 3669 1497 
Q 3669 778 3244 343 
Q 2819 -91 2113 -91 
Q 1303 -91 875 529 
Q 447 1150 447 2328 
Q 447 3434 972 4092 
Q 1497 4750 2381 4750 
Q 2619 4750 2861 4703 
Q 3103 4656 3366 4563 
z
" transform="scale(0.015625)"/>
       </defs>
       <use xlink:href="#DejaVuSans-36"/>
      </g>
     </g>
    </g>
    <g id="xtick_7">
     <g id="line2d_7">
      <g>
       <use xlink:href="#mc6f78e7fcc" x="359.67911" y="190.9" style="stroke: #000000; stroke-width: 0.8"/>
      </g>
     </g>
     <g id="text_7">
      <!-- 7 -->
      <g transform="translate(355.86161 203.518125) scale(0.12 -0.12)">
       <defs>
        <path id="DejaVuSans-37" d="M 525 4666 
L 3525 4666 
L 3525 4397 
L 1831 0 
L 1172 0 
L 2766 4134 
L 525 4134 
L 525 4666 
z
" transform="scale(0.015625)"/>
       </defs>
       <use xlink:href="#DejaVuSans-37"/>
      </g>
     </g>
    </g>
    <g id="xtick_8">
     <g id="line2d_8">
      <g>
       <use xlink:href="#mc6f78e7fcc" x="413.636073" y="190.9" style="stroke: #000000; stroke-width: 0.8"/>
      </g>
     </g>
     <g id="text_8">
      <!-- 8 -->
      <g transform="translate(409.818573 203.518125) scale(0.12 -0.12)">
       <defs>
        <path id="DejaVuSans-38" d="M 2034 2216 
Q 1584 2216 1326 1975 
Q 1069 1734 1069 1313 
Q 1069 891 1326 650 
Q 1584 409 2034 409 
Q 2484 409 2743 651 
Q 3003 894 3003 1313 
Q 3003 1734 2745 1975 
Q 2488 2216 2034 2216 
z
M 1403 2484 
Q 997 2584 770 2862 
Q 544 3141 544 3541 
Q 544 4100 942 4425 
Q 1341 4750 2034 4750 
Q 2731 4750 3128 4425 
Q 3525 4100 3525 3541 
Q 3525 3141 3298 2862 
Q 3072 2584 2669 2484 
Q 3125 2378 3379 2068 
Q 3634 1759 3634 1313 
Q 3634 634 3220 271 
Q 2806 -91 2034 -91 
Q 1263 -91 848 271 
Q 434 634 434 1313 
Q 434 1759 690 2068 
Q 947 2378 1403 2484 
z
M 1172 3481 
Q 1172 3119 1398 2916 
Q 1625 2713 2034 2713 
Q 2441 2713 2670 2916 
Q 2900 3119 2900 3481 
Q 2900 3844 2670 4047 
Q 2441 4250 2034 4250 
Q 1625 4250 1398 4047 
Q 1172 3844 1172 3481 
z
" transform="scale(0.015625)"/>
       </defs>
       <use xlink:href="#DejaVuSans-38"/>
      </g>
     </g>
    </g>
    <g id="xtick_9">
     <g id="line2d_9">
      <g>
       <use xlink:href="#mc6f78e7fcc" x="467.593037" y="190.9" style="stroke: #000000; stroke-width: 0.8"/>
      </g>
     </g>
     <g id="text_9">
      <!-- 9 -->
      <g transform="translate(463.775537 203.518125) scale(0.12 -0.12)">
       <defs>
        <path id="DejaVuSans-39" d="M 703 97 
L 703 672 
Q 941 559 1184 500 
Q 1428 441 1663 441 
Q 2288 441 2617 861 
Q 2947 1281 2994 2138 
Q 2813 1869 2534 1725 
Q 2256 1581 1919 1581 
Q 1219 1581 811 2004 
Q 403 2428 403 3163 
Q 403 3881 828 4315 
Q 1253 4750 1959 4750 
Q 2769 4750 3195 4129 
Q 3622 3509 3622 2328 
Q 3622 1225 3098 567 
Q 2575 -91 1691 -91 
Q 1453 -91 1209 -44 
Q 966 3 703 97 
z
M 1959 2075 
Q 2384 2075 2632 2365 
Q 2881 2656 2881 3163 
Q 2881 3666 2632 3958 
Q 2384 4250 1959 4250 
Q 1534 4250 1286 3958 
Q 1038 3666 1038 3163 
Q 1038 2656 1286 2365 
Q 1534 2075 1959 2075 
z
" transform="scale(0.015625)"/>
       </defs>
       <use xlink:href="#DejaVuSans-39"/>
      </g>
     </g>
    </g>
    <g id="xtick_10">
     <g id="line2d_10">
      <g>
       <use xlink:href="#mc6f78e7fcc" x="521.55" y="190.9" style="stroke: #000000; stroke-width: 0.8"/>
      </g>
     </g>
     <g id="text_10">
      <!-- 10 -->
      <g transform="translate(513.915 203.518125) scale(0.12 -0.12)">
       <defs>
        <path id="DejaVuSans-30" d="M 2034 4250 
Q 1547 4250 1301 3770 
Q 1056 3291 1056 2328 
Q 1056 1369 1301 889 
Q 1547 409 2034 409 
Q 2525 409 2770 889 
Q 3016 1369 3016 2328 
Q 3016 3291 2770 3770 
Q 2525 4250 2034 4250 
z
M 2034 4750 
Q 2819 4750 3233 4129 
Q 3647 3509 3647 2328 
Q 3647 1150 3233 529 
Q 2819 -91 2034 -91 
Q 1250 -91 836 529 
Q 422 1150 422 2328 
Q 422 3509 836 4129 
Q 1250 4750 2034 4750 
z
" transform="scale(0.015625)"/>
       </defs>
       <use xlink:href="#DejaVuSans-31"/>
       <use xlink:href="#DejaVuSans-30" x="63.623047"/>
      </g>
     </g>
    </g>
   </g>
   <g id="matplotlib.axis_2">
    <g id="ytick_1">
     <g id="line2d_11">
      <defs>
       <path id="me249765a9f" d="M 0 0 
L 3.5 0 
" style="stroke: #000000; stroke-width: 0.8"/>
      </defs>
      <g>
       <use xlink:href="#me249765a9f" x="35.937331" y="190.9" style="stroke: #000000; stroke-width: 0.8"/>
      </g>
     </g>
     <g id="text_11">
      <!-- $10^{0}$ -->
      <g transform="translate(11.317331 195.459063) scale(0.12 -0.12)">
       <use xlink:href="#DejaVuSans-31" transform="translate(0 0.765625)"/>
       <use xlink:href="#DejaVuSans-30" transform="translate(63.623047 0.765625)"/>
       <use xlink:href="#DejaVuSans-30" transform="translate(128.203125 39.046875) scale(0.7)"/>
      </g>
     </g>
    </g>
    <g id="ytick_2">
     <g id="line2d_12">
      <g>
       <use xlink:href="#me249765a9f" x="35.937331" y="159.418094" style="stroke: #000000; stroke-width: 0.8"/>
      </g>
     </g>
     <g id="text_12">
      <!-- $10^{1}$ -->
      <g transform="translate(11.317331 163.977156) scale(0.12 -0.12)">
       <use xlink:href="#DejaVuSans-31" transform="translate(0 0.684375)"/>
       <use xlink:href="#DejaVuSans-30" transform="translate(63.623047 0.684375)"/>
       <use xlink:href="#DejaVuSans-31" transform="translate(128.203125 38.965625) scale(0.7)"/>
      </g>
     </g>
    </g>
    <g id="ytick_3">
     <g id="line2d_13">
      <g>
       <use xlink:href="#me249765a9f" x="35.937331" y="127.936188" style="stroke: #000000; stroke-width: 0.8"/>
      </g>
     </g>
     <g id="text_13">
      <!-- $10^{2}$ -->
      <g transform="translate(11.317331 132.49525) scale(0.12 -0.12)">
       <use xlink:href="#DejaVuSans-31" transform="translate(0 0.765625)"/>
       <use xlink:href="#DejaVuSans-30" transform="translate(63.623047 0.765625)"/>
       <use xlink:href="#DejaVuSans-32" transform="translate(128.203125 39.046875) scale(0.7)"/>
      </g>
     </g>
    </g>
    <g id="ytick_4">
     <g id="line2d_14">
      <g>
       <use xlink:href="#me249765a9f" x="35.937331" y="96.454281" style="stroke: #000000; stroke-width: 0.8"/>
      </g>
     </g>
     <g id="text_14">
      <!-- $10^{3}$ -->
      <g transform="translate(11.317331 101.013344) scale(0.12 -0.12)">
       <use xlink:href="#DejaVuSans-31" transform="translate(0 0.765625)"/>
       <use xlink:href="#DejaVuSans-30" transform="translate(63.623047 0.765625)"/>
       <use xlink:href="#DejaVuSans-33" transform="translate(128.203125 39.046875) scale(0.7)"/>
      </g>
     </g>
    </g>
    <g id="ytick_5">
     <g id="line2d_15">
      <g>
       <use xlink:href="#me249765a9f" x="35.937331" y="64.972375" style="stroke: #000000; stroke-width: 0.8"/>
      </g>
     </g>
     <g id="text_15">
      <!-- $10^{4}$ -->
      <g transform="translate(11.317331 69.531438) scale(0.12 -0.12)">
       <use xlink:href="#DejaVuSans-31" transform="translate(0 0.684375)"/>
       <use xlink:href="#DejaVuSans-30" transform="translate(63.623047 0.684375)"/>
       <use xlink:href="#DejaVuSans-34" transform="translate(128.203125 38.965625) scale(0.7)"/>
      </g>
     </g>
    </g>
    <g id="ytick_6">
     <g id="line2d_16">
      <g>
       <use xlink:href="#me249765a9f" x="35.937331" y="33.490469" style="stroke: #000000; stroke-width: 0.8"/>
      </g>
     </g>
     <g id="text_16">
      <!-- $10^{5}$ -->
      <g transform="translate(11.317331 38.049532) scale(0.12 -0.12)">
       <use xlink:href="#DejaVuSans-31" transform="translate(0 0.684375)"/>
       <use xlink:href="#DejaVuSans-30" transform="translate(63.623047 0.684375)"/>
       <use xlink:href="#DejaVuSans-35" transform="translate(128.203125 38.965625) scale(0.7)"/>
      </g>
     </g>
    </g>
   </g>
   <g id="line2d_17">
    <path d="M 37.771867 190.9 
L 43.275478 190.9 
L 48.779088 190.9 
L 54.282698 190.9 
L 59.786308 190.9 
L 65.289919 190.9 
L 70.793529 190.9 
L 76.297139 190.9 
L 81.800749 190.9 
L 87.30436 190.9 
L 92.80797 190.9 
L 98.31158 190.9 
L 103.81519 179.223837 
L 109.318801 144.195348 
L 114.822411 132.519185 
L 120.326021 167.547674 
L 125.829631 190.9 
L 131.333242 190.9 
L 136.836852 190.9 
L 142.340462 190.9 
L 147.844072 180.803337 
L 153.347683 150.513347 
L 158.851293 138.837184 
L 164.354903 164.388675 
L 169.858513 170.402391 
L 175.362124 137.340556 
L 180.865734 122.236997 
L 186.369344 143.049989 
L 191.872954 162.587764 
L 197.376565 179.575106 
L 202.880175 185.237553 
L 208.383785 168.250212 
L 213.887395 150.754385 
L 219.391006 132.241587 
L 224.894616 131.733102 
L 230.398226 167.233241 
L 235.901837 180.499054 
L 241.405447 149.296215 
L 246.909057 130.729374 
L 252.412667 137.434528 
L 257.916278 142.828579 
L 263.419888 145.600423 
L 268.923498 149.027819 
L 274.427108 153.766318 
L 279.930719 149.100166 
L 285.434329 125.624711 
L 290.937939 115.296112 
L 296.441549 131.261223 
L 301.94516 137.9297 
L 307.44877 126.00491 
L 312.95238 117.29148 
L 318.45599 115.000774 
L 323.959601 116.281367 
L 329.463211 124.704559 
L 334.966821 131.595237 
L 340.470431 135.420887 
L 345.974042 138.626873 
L 351.477652 140.593527 
L 356.981262 139.35937 
L 362.484872 131.723588 
L 367.988483 124.346806 
L 373.492093 117.488023 
L 378.995703 114.405627 
L 384.499313 118.876005 
L 390.002924 119.875949 
L 395.506534 113.935025 
L 401.010144 112.335389 
L 406.513754 119.41833 
L 412.017365 122.180119 
L 417.520975 116.299603 
L 423.024585 115.369386 
L 428.528195 124.339766 
L 434.031806 127.927752 
L 439.535416 120.750949 
L 445.039026 116.1855 
L 450.542636 116.842759 
L 456.046247 117.301934 
L 461.549857 117.364941 
L 467.053467 117.822409 
L 472.557077 119.068797 
L 478.060688 117.346191 
L 483.564298 109.685595 
L 489.067908 107.458152 
L 494.571518 116.097015 
L 500.075129 117.982234 
L 505.578739 106.360165 
L 511.082349 101.874839 
L 516.585959 111.662999 
L 522.08957 117.402639 
L 527.59318 115.045238 
L 533.09679 114.397585 
L 538.6004 117.169429 
L 541 117.704943 
" clip-path="url(#pddfbeb21d0)" style="fill: none; stroke: #ff0000; stroke-opacity: 0.7; stroke-width: 2; stroke-linecap: square"/>
   </g>
   <g id="line2d_18">
    <path d="M 37.771867 190.9 
L 43.275478 190.9 
L 48.779088 190.9 
L 54.282698 190.9 
L 59.786308 190.9 
L 65.289919 190.9 
L 70.793529 190.9 
L 76.297139 190.9 
L 81.800749 190.9 
L 87.30436 190.9 
L 92.80797 190.9 
L 98.31158 190.9 
L 103.81519 167.38865 
L 109.318801 96.854599 
L 114.822411 73.343248 
L 120.326021 143.877299 
L 125.829631 190.9 
L 131.333242 190.9 
L 136.836852 190.9 
L 142.340462 190.9 
L 147.844072 168.968149 
L 153.347683 103.172597 
L 158.851293 69.537616 
L 164.354903 100.223776 
L 169.858513 107.899593 
L 175.362124 69.554723 
L 180.865734 52.611113 
L 186.369344 78.470023 
L 191.872954 95.608002 
L 197.376565 95.304121 
L 202.880175 95.028412 
L 208.383785 94.80905 
L 213.887395 87.098907 
L 219.391006 64.407204 
L 224.894616 56.703745 
L 230.398226 78.976774 
L 235.901837 87.573267 
L 241.405447 68.816689 
L 246.909057 59.778491 
L 252.412667 70.177052 
L 257.916278 77.018264 
L 263.419888 76.744779 
L 268.923498 76.450364 
L 274.427108 76.11409 
L 279.930719 69.801891 
L 285.434329 51.537846 
L 290.937939 45.308468 
L 296.441549 63.148427 
L 301.94516 70.347809 
L 307.44877 56.266038 
L 312.95238 45.979743 
L 318.45599 43.2844 
L 323.959601 45.321938 
L 329.463211 56.825236 
L 334.966821 64.363265 
L 340.470431 63.970758 
L 345.974042 63.679364 
L 351.477652 63.590195 
L 356.981262 63.186169 
L 362.484872 62.15243 
L 367.988483 57.975681 
L 373.492093 47.51291 
L 378.995703 43.254109 
L 384.499313 51.403251 
L 390.002924 53.471302 
L 395.506534 43.377174 
L 401.010144 39.890609 
L 406.513754 49.619172 
L 412.017365 53.911851 
L 417.520975 47.332761 
L 423.024585 44.889515 
L 428.528195 50.717956 
L 434.031806 53.151847 
L 439.535416 48.79664 
L 445.039026 45.777498 
L 450.542636 45.430488 
L 456.046247 45.124516 
L 461.549857 44.900617 
L 467.053467 45.640976 
L 472.557077 48.309851 
L 478.060688 47.544594 
L 483.564298 39.911072 
L 489.067908 37.285173 
L 494.571518 44.674518 
L 500.075129 45.849678 
L 505.578739 34.596466 
L 511.082349 30.23289 
L 516.585959 39.648589 
L 522.08957 45.883341 
L 527.59318 45.756199 
L 533.09679 45.635728 
L 538.6004 45.5286 
L 541 45.474835 
" clip-path="url(#pddfbeb21d0)" style="fill: none; stroke: #4169e1; stroke-opacity: 0.7; stroke-width: 2; stroke-linecap: square"/>
   </g>
   <g id="line2d_19">
    <path d="M 37.771867 190.9 
L 43.275478 190.9 
L 48.779088 190.9 
L 54.282698 190.9 
L 59.786308 190.9 
L 65.289919 190.9 
L 70.793529 190.9 
L 76.297139 190.9 
L 81.800749 190.9 
L 87.30436 190.9 
L 92.80797 190.9 
L 98.31158 190.9 
L 103.81519 165.578205 
L 109.318801 89.612821 
L 114.822411 64.291026 
L 120.326021 140.25641 
L 125.829631 190.9 
L 131.333242 190.9 
L 136.836852 190.9 
L 142.340462 190.9 
L 147.844072 167.157705 
L 153.347683 95.93082 
L 158.851293 58.546979 
L 164.354903 88.849227 
L 169.858513 96.397793 
L 175.362124 58.438998 
L 180.865734 41.749389 
L 186.369344 67.598153 
L 191.872954 84.727845 
L 197.376565 84.419392 
L 202.880175 84.147702 
L 208.383785 83.949537 
L 213.887395 76.250718 
L 219.391006 53.55059 
L 224.894616 45.766694 
L 230.398226 67.815262 
L 235.901837 76.340088 
L 241.405447 57.817433 
L 246.909057 48.935471 
L 252.412667 59.334893 
L 257.916278 66.167855 
L 263.419888 65.867896 
L 268.923498 65.577664 
L 274.427108 65.306888 
L 279.930719 59.020327 
L 285.434329 40.702198 
L 290.937939 34.435991 
L 296.441549 52.273626 
L 301.94516 59.477 
L 307.44877 45.411848 
L 312.95238 35.138359 
L 318.45599 32.448194 
L 323.959601 34.439423 
L 329.463211 45.793441 
L 334.966821 53.305035 
L 340.470431 53.131782 
L 345.974042 52.943327 
L 351.477652 52.724469 
L 356.981262 52.244083 
L 362.484872 51.240641 
L 367.988483 47.090298 
L 373.492093 36.646153 
L 378.995703 32.382312 
L 384.499313 40.479077 
L 390.002924 42.534224 
L 395.506534 32.506135 
L 401.010144 29.044796 
L 406.513754 38.716958 
L 412.017365 42.987905 
L 417.520975 36.456422 
L 423.024585 34.032951 
L 428.528195 39.825503 
L 434.031806 42.243692 
L 439.535416 37.913153 
L 445.039026 34.908905 
L 450.542636 34.557236 
L 456.046247 34.246254 
L 461.549857 34.016647 
L 467.053467 34.774913 
L 472.557077 37.508925 
L 478.060688 36.76803 
L 483.564298 29.077319 
L 489.067908 26.413293 
L 494.571518 33.802638 
L 500.075129 34.978811 
L 505.578739 23.728638 
L 511.082349 19.37619 
L 516.585959 28.819193 
L 522.08957 35.05856 
L 527.59318 34.890657 
L 533.09679 34.74823 
L 538.6004 34.656751 
L 541 34.608215 
" clip-path="url(#pddfbeb21d0)" style="fill: none; stroke: #ffa500; stroke-opacity: 0.7; stroke-width: 2; stroke-linecap: square"/>
   </g>
   <g id="line2d_20">
    <path d="M 37.771867 190.9 
L 43.275478 190.9 
L 48.779088 190.9 
L 54.282698 190.9 
L 59.786308 190.9 
L 65.289919 190.9 
L 70.793529 190.9 
L 76.297139 190.9 
L 81.800749 181.352881 
L 87.30436 152.711526 
L 92.80797 121.114017 
L 98.31158 83.604201 
L 103.81519 54.429454 
L 109.318801 41.924846 
L 114.822411 37.689037 
L 120.326021 49.990825 
L 125.829631 61.910019 
L 131.333242 73.06402 
L 136.836852 79.156515 
L 142.340462 75.125997 
L 147.844072 67.606267 
L 153.347683 53.108115 
L 158.851293 43.598509 
L 164.354903 44.065994 
L 169.858513 41.55281 
L 175.362124 33.078287 
L 180.865734 31.003565 
L 186.369344 41.728443 
L 191.872954 50.859016 
L 197.376565 56.800978 
L 202.880175 57.913558 
L 208.383785 49.367376 
L 213.887395 41.924293 
L 219.391006 36.687406 
L 224.894616 36.688054 
L 230.398226 47.163772 
L 235.901837 51.617586 
L 241.405447 44.027594 
L 246.909057 39.321397 
L 252.412667 40.382793 
L 257.916278 42.188179 
L 263.419888 45.481546 
L 268.923498 47.487644 
L 274.427108 46.919205 
L 279.930719 42.943447 
L 285.434329 32.153053 
L 290.937939 25.63572 
L 296.441549 27.664512 
L 301.94516 29.40995 
L 307.44877 30.58868 
L 312.95238 29.966535 
L 318.45599 25.74264 
L 323.959601 23.951512 
L 329.463211 27.025916 
L 334.966821 30.991541 
L 340.470431 36.739608 
L 345.974042 40.496484 
L 351.477652 40.270978 
L 356.981262 39.998656 
L 362.484872 39.6327 
L 367.988483 37.018793 
L 373.492093 29.908985 
L 378.995703 25.743415 
L 384.499313 27.466322 
L 390.002924 27.555283 
L 395.506534 24.376351 
L 401.010144 22.617023 
L 406.513754 23.696901 
L 412.017365 24.634842 
L 417.520975 25.28891 
L 423.024585 27.161466 
L 428.528195 31.470999 
L 434.031806 33.346596 
L 439.535416 30.354323 
L 445.039026 28.147417 
L 450.542636 27.511246 
L 456.046247 27.435455 
L 461.549857 28.480422 
L 467.053467 29.861905 
L 472.557077 31.916421 
L 478.060688 31.130703 
L 483.564298 24.66452 
L 489.067908 20.579293 
L 494.571518 21.255981 
L 500.075129 20.320847 
L 505.578739 16.162067 
L 511.082349 15.255504 
L 516.585959 20.853373 
L 522.08957 26.045952 
L 527.59318 30.427949 
L 533.09679 33.306695 
L 538.6004 33.178937 
L 541 33.005948 
" clip-path="url(#pddfbeb21d0)" style="fill: none; stroke: #808080; stroke-opacity: 0.7; stroke-width: 2; stroke-linecap: square"/>
   </g>
   <g id="patch_3">
    <path d="M 35.937331 190.9 
L 35.937331 10.8 
" style="fill: none; stroke: #000000; stroke-width: 0.8; stroke-linejoin: miter; stroke-linecap: square"/>
   </g>
   <g id="patch_4">
    <path d="M 521.55 190.9 
L 521.55 10.8 
" style="fill: none; stroke: #000000; stroke-width: 0.8; stroke-linejoin: miter; stroke-linecap: square"/>
   </g>
   <g id="patch_5">
    <path d="M 35.937331 190.9 
L 521.55 190.9 
" style="fill: none; stroke: #000000; stroke-width: 0.8; stroke-linejoin: miter; stroke-linecap: square"/>
   </g>
   <g id="patch_6">
    <path d="M 35.937331 10.8 
L 521.55 10.8 
" style="fill: none; stroke: #000000; stroke-width: 0.8; stroke-linejoin: miter; stroke-linecap: square"/>
   </g>
   <g id="legend_1">
    <g id="patch_7">
     <path d="M 303.99 184.9 
L 513.15 184.9 
Q 515.55 184.9 515.55 182.5 
L 515.55 113.245 
Q 515.55 110.845 513.15 110.845 
L 303.99 110.845 
Q 301.59 110.845 301.59 113.245 
L 301.59 182.5 
Q 301.59 184.9 303.99 184.9 
z
" style="fill: #ffffff; opacity: 0.8; stroke: #cccccc; stroke-linejoin: miter"/>
    </g>
    <g id="line2d_21">
     <path d="M 306.39 120.563125 
L 318.39 120.563125 
L 330.39 120.563125 
" style="fill: none; stroke: #808080; stroke-width: 1.5; stroke-linecap: square"/>
    </g>
    <g id="text_17">
     <!-- dataset -->
     <g transform="translate(339.99 124.763125) scale(0.12 -0.12)">
      <defs>
       <path id="DejaVuSans-64" d="M 2906 2969 
L 2906 4863 
L 3481 4863 
L 3481 0 
L 2906 0 
L 2906 525 
Q 2725 213 2448 61 
Q 2172 -91 1784 -91 
Q 1150 -91 751 415 
Q 353 922 353 1747 
Q 353 2572 751 3078 
Q 1150 3584 1784 3584 
Q 2172 3584 2448 3432 
Q 2725 3281 2906 2969 
z
M 947 1747 
Q 947 1113 1208 752 
Q 1469 391 1925 391 
Q 2381 391 2643 752 
Q 2906 1113 2906 1747 
Q 2906 2381 2643 2742 
Q 2381 3103 1925 3103 
Q 1469 3103 1208 2742 
Q 947 2381 947 1747 
z
" transform="scale(0.015625)"/>
       <path id="DejaVuSans-61" d="M 2194 1759 
Q 1497 1759 1228 1600 
Q 959 1441 959 1056 
Q 959 750 1161 570 
Q 1363 391 1709 391 
Q 2188 391 2477 730 
Q 2766 1069 2766 1631 
L 2766 1759 
L 2194 1759 
z
M 3341 1997 
L 3341 0 
L 2766 0 
L 2766 531 
Q 2569 213 2275 61 
Q 1981 -91 1556 -91 
Q 1019 -91 701 211 
Q 384 513 384 1019 
Q 384 1609 779 1909 
Q 1175 2209 1959 2209 
L 2766 2209 
L 2766 2266 
Q 2766 2663 2505 2880 
Q 2244 3097 1772 3097 
Q 1472 3097 1187 3025 
Q 903 2953 641 2809 
L 641 3341 
Q 956 3463 1253 3523 
Q 1550 3584 1831 3584 
Q 2591 3584 2966 3190 
Q 3341 2797 3341 1997 
z
" transform="scale(0.015625)"/>
       <path id="DejaVuSans-74" d="M 1172 4494 
L 1172 3500 
L 2356 3500 
L 2356 3053 
L 1172 3053 
L 1172 1153 
Q 1172 725 1289 603 
Q 1406 481 1766 481 
L 2356 481 
L 2356 0 
L 1766 0 
Q 1100 0 847 248 
Q 594 497 594 1153 
L 594 3053 
L 172 3053 
L 172 3500 
L 594 3500 
L 594 4494 
L 1172 4494 
z
" transform="scale(0.015625)"/>
       <path id="DejaVuSans-73" d="M 2834 3397 
L 2834 2853 
Q 2591 2978 2328 3040 
Q 2066 3103 1784 3103 
Q 1356 3103 1142 2972 
Q 928 2841 928 2578 
Q 928 2378 1081 2264 
Q 1234 2150 1697 2047 
L 1894 2003 
Q 2506 1872 2764 1633 
Q 3022 1394 3022 966 
Q 3022 478 2636 193 
Q 2250 -91 1575 -91 
Q 1294 -91 989 -36 
Q 684 19 347 128 
L 347 722 
Q 666 556 975 473 
Q 1284 391 1588 391 
Q 1994 391 2212 530 
Q 2431 669 2431 922 
Q 2431 1156 2273 1281 
Q 2116 1406 1581 1522 
L 1381 1569 
Q 847 1681 609 1914 
Q 372 2147 372 2553 
Q 372 3047 722 3315 
Q 1072 3584 1716 3584 
Q 2034 3584 2315 3537 
Q 2597 3491 2834 3397 
z
" transform="scale(0.015625)"/>
       <path id="DejaVuSans-65" d="M 3597 1894 
L 3597 1613 
L 953 1613 
Q 991 1019 1311 708 
Q 1631 397 2203 397 
Q 2534 397 2845 478 
Q 3156 559 3463 722 
L 3463 178 
Q 3153 47 2828 -22 
Q 2503 -91 2169 -91 
Q 1331 -91 842 396 
Q 353 884 353 1716 
Q 353 2575 817 3079 
Q 1281 3584 2069 3584 
Q 2775 3584 3186 3129 
Q 3597 2675 3597 1894 
z
M 3022 2063 
Q 3016 2534 2758 2815 
Q 2500 3097 2075 3097 
Q 1594 3097 1305 2825 
Q 1016 2553 972 2059 
L 3022 2063 
z
" transform="scale(0.015625)"/>
      </defs>
      <use xlink:href="#DejaVuSans-64"/>
      <use xlink:href="#DejaVuSans-61" x="63.476562"/>
      <use xlink:href="#DejaVuSans-74" x="124.755859"/>
      <use xlink:href="#DejaVuSans-61" x="163.964844"/>
      <use xlink:href="#DejaVuSans-73" x="225.244141"/>
      <use xlink:href="#DejaVuSans-65" x="277.34375"/>
      <use xlink:href="#DejaVuSans-74" x="338.867188"/>
     </g>
    </g>
    <g id="line2d_22">
     <path d="M 306.39 138.176875 
L 318.39 138.176875 
L 330.39 138.176875 
" style="fill: none; stroke: #ff0000; stroke-width: 1.5; stroke-linecap: square"/>
    </g>
    <g id="text_18">
     <!-- 21.79$^\circ$ (2-1, 42 atoms) -->
     <g transform="translate(339.99 142.376875) scale(0.12 -0.12)">
      <defs>
       <path id="DejaVuSans-2e" d="M 684 794 
L 1344 794 
L 1344 0 
L 684 0 
L 684 794 
z
" transform="scale(0.015625)"/>
       <path id="DejaVuSans-2218" d="M 2003 2603 
Q 1753 2603 1581 2429 
Q 1409 2256 1409 2006 
Q 1409 1759 1581 1589 
Q 1753 1419 2003 1419 
Q 2253 1419 2425 1589 
Q 2597 1759 2597 2006 
Q 2597 2253 2423 2428 
Q 2250 2603 2003 2603 
z
M 2003 3006 
Q 2203 3006 2387 2929 
Q 2572 2853 2706 2709 
Q 2850 2569 2922 2390 
Q 2994 2212 2994 2006 
Q 2994 1594 2705 1308 
Q 2416 1022 1997 1022 
Q 1575 1022 1294 1303 
Q 1013 1584 1013 2006 
Q 1013 2425 1300 2715 
Q 1588 3006 2003 3006 
z
" transform="scale(0.015625)"/>
       <path id="DejaVuSans-20" transform="scale(0.015625)"/>
       <path id="DejaVuSans-28" d="M 1984 4856 
Q 1566 4138 1362 3434 
Q 1159 2731 1159 2009 
Q 1159 1288 1364 580 
Q 1569 -128 1984 -844 
L 1484 -844 
Q 1016 -109 783 600 
Q 550 1309 550 2009 
Q 550 2706 781 3412 
Q 1013 4119 1484 4856 
L 1984 4856 
z
" transform="scale(0.015625)"/>
       <path id="DejaVuSans-2d" d="M 313 2009 
L 1997 2009 
L 1997 1497 
L 313 1497 
L 313 2009 
z
" transform="scale(0.015625)"/>
       <path id="DejaVuSans-2c" d="M 750 794 
L 1409 794 
L 1409 256 
L 897 -744 
L 494 -744 
L 750 256 
L 750 794 
z
" transform="scale(0.015625)"/>
       <path id="DejaVuSans-6f" d="M 1959 3097 
Q 1497 3097 1228 2736 
Q 959 2375 959 1747 
Q 959 1119 1226 758 
Q 1494 397 1959 397 
Q 2419 397 2687 759 
Q 2956 1122 2956 1747 
Q 2956 2369 2687 2733 
Q 2419 3097 1959 3097 
z
M 1959 3584 
Q 2709 3584 3137 3096 
Q 3566 2609 3566 1747 
Q 3566 888 3137 398 
Q 2709 -91 1959 -91 
Q 1206 -91 779 398 
Q 353 888 353 1747 
Q 353 2609 779 3096 
Q 1206 3584 1959 3584 
z
" transform="scale(0.015625)"/>
       <path id="DejaVuSans-6d" d="M 3328 2828 
Q 3544 3216 3844 3400 
Q 4144 3584 4550 3584 
Q 5097 3584 5394 3201 
Q 5691 2819 5691 2113 
L 5691 0 
L 5113 0 
L 5113 2094 
Q 5113 2597 4934 2840 
Q 4756 3084 4391 3084 
Q 3944 3084 3684 2787 
Q 3425 2491 3425 1978 
L 3425 0 
L 2847 0 
L 2847 2094 
Q 2847 2600 2669 2842 
Q 2491 3084 2119 3084 
Q 1678 3084 1418 2786 
Q 1159 2488 1159 1978 
L 1159 0 
L 581 0 
L 581 3500 
L 1159 3500 
L 1159 2956 
Q 1356 3278 1631 3431 
Q 1906 3584 2284 3584 
Q 2666 3584 2933 3390 
Q 3200 3197 3328 2828 
z
" transform="scale(0.015625)"/>
       <path id="DejaVuSans-29" d="M 513 4856 
L 1013 4856 
Q 1481 4119 1714 3412 
Q 1947 2706 1947 2009 
Q 1947 1309 1714 600 
Q 1481 -109 1013 -844 
L 513 -844 
Q 928 -128 1133 580 
Q 1338 1288 1338 2009 
Q 1338 2731 1133 3434 
Q 928 4138 513 4856 
z
" transform="scale(0.015625)"/>
      </defs>
      <use xlink:href="#DejaVuSans-32" transform="translate(0 0.125)"/>
      <use xlink:href="#DejaVuSans-31" transform="translate(63.623047 0.125)"/>
      <use xlink:href="#DejaVuSans-2e" transform="translate(127.246094 0.125)"/>
      <use xlink:href="#DejaVuSans-37" transform="translate(151.283203 0.125)"/>
      <use xlink:href="#DejaVuSans-39" transform="translate(214.90625 0.125)"/>
      <use xlink:href="#DejaVuSans-2218" transform="translate(293.124023 38.40625) scale(0.7)"/>
      <use xlink:href="#DejaVuSans-20" transform="translate(353.314453 0.125)"/>
      <use xlink:href="#DejaVuSans-28" transform="translate(385.101562 0.125)"/>
      <use xlink:href="#DejaVuSans-32" transform="translate(424.115234 0.125)"/>
      <use xlink:href="#DejaVuSans-2d" transform="translate(487.738281 0.125)"/>
      <use xlink:href="#DejaVuSans-31" transform="translate(523.822266 0.125)"/>
      <use xlink:href="#DejaVuSans-2c" transform="translate(587.445312 0.125)"/>
      <use xlink:href="#DejaVuSans-20" transform="translate(619.232422 0.125)"/>
      <use xlink:href="#DejaVuSans-34" transform="translate(651.019531 0.125)"/>
      <use xlink:href="#DejaVuSans-32" transform="translate(714.642578 0.125)"/>
      <use xlink:href="#DejaVuSans-20" transform="translate(778.265625 0.125)"/>
      <use xlink:href="#DejaVuSans-61" transform="translate(810.052734 0.125)"/>
      <use xlink:href="#DejaVuSans-74" transform="translate(871.332031 0.125)"/>
      <use xlink:href="#DejaVuSans-6f" transform="translate(910.541016 0.125)"/>
      <use xlink:href="#DejaVuSans-6d" transform="translate(971.722656 0.125)"/>
      <use xlink:href="#DejaVuSans-73" transform="translate(1069.134766 0.125)"/>
      <use xlink:href="#DejaVuSans-29" transform="translate(1121.234375 0.125)"/>
     </g>
    </g>
    <g id="line2d_23">
     <path d="M 306.39 155.790625 
L 318.39 155.790625 
L 330.39 155.790625 
" style="fill: none; stroke: #4169e1; stroke-width: 1.5; stroke-linecap: square"/>
    </g>
    <g id="text_19">
     <!-- 1.61$^\circ$ (21-20, 16746 atoms) -->
     <g transform="translate(339.99 159.990625) scale(0.12 -0.12)">
      <use xlink:href="#DejaVuSans-31" transform="translate(0 0.125)"/>
      <use xlink:href="#DejaVuSans-2e" transform="translate(63.623047 0.125)"/>
      <use xlink:href="#DejaVuSans-36" transform="translate(95.410156 0.125)"/>
      <use xlink:href="#DejaVuSans-31" transform="translate(159.033203 0.125)"/>
      <use xlink:href="#DejaVuSans-2218" transform="translate(237.250977 38.40625) scale(0.7)"/>
      <use xlink:href="#DejaVuSans-20" transform="translate(297.441406 0.125)"/>
      <use xlink:href="#DejaVuSans-28" transform="translate(329.228516 0.125)"/>
      <use xlink:href="#DejaVuSans-32" transform="translate(368.242188 0.125)"/>
      <use xlink:href="#DejaVuSans-31" transform="translate(431.865234 0.125)"/>
      <use xlink:href="#DejaVuSans-2d" transform="translate(495.488281 0.125)"/>
      <use xlink:href="#DejaVuSans-32" transform="translate(531.572266 0.125)"/>
      <use xlink:href="#DejaVuSans-30" transform="translate(595.195312 0.125)"/>
      <use xlink:href="#DejaVuSans-2c" transform="translate(658.818359 0.125)"/>
      <use xlink:href="#DejaVuSans-20" transform="translate(690.605469 0.125)"/>
      <use xlink:href="#DejaVuSans-31" transform="translate(722.392578 0.125)"/>
      <use xlink:href="#DejaVuSans-36" transform="translate(786.015625 0.125)"/>
      <use xlink:href="#DejaVuSans-37" transform="translate(849.638672 0.125)"/>
      <use xlink:href="#DejaVuSans-34" transform="translate(913.261719 0.125)"/>
      <use xlink:href="#DejaVuSans-36" transform="translate(976.884766 0.125)"/>
      <use xlink:href="#DejaVuSans-20" transform="translate(1040.507812 0.125)"/>
      <use xlink:href="#DejaVuSans-61" transform="translate(1072.294922 0.125)"/>
      <use xlink:href="#DejaVuSans-74" transform="translate(1133.574219 0.125)"/>
      <use xlink:href="#DejaVuSans-6f" transform="translate(1172.783203 0.125)"/>
      <use xlink:href="#DejaVuSans-6d" transform="translate(1233.964844 0.125)"/>
      <use xlink:href="#DejaVuSans-73" transform="translate(1331.376953 0.125)"/>
      <use xlink:href="#DejaVuSans-29" transform="translate(1383.476562 0.125)"/>
     </g>
    </g>
    <g id="line2d_24">
     <path d="M 306.39 173.404375 
L 318.39 173.404375 
L 330.39 173.404375 
" style="fill: none; stroke: #ffa500; stroke-width: 1.5; stroke-linecap: square"/>
    </g>
    <g id="text_20">
     <!-- 1.08$^\circ$ (31-30, 11164 atoms) -->
     <g transform="translate(339.99 177.604375) scale(0.12 -0.12)">
      <use xlink:href="#DejaVuSans-31" transform="translate(0 0.125)"/>
      <use xlink:href="#DejaVuSans-2e" transform="translate(63.623047 0.125)"/>
      <use xlink:href="#DejaVuSans-30" transform="translate(95.410156 0.125)"/>
      <use xlink:href="#DejaVuSans-38" transform="translate(159.033203 0.125)"/>
      <use xlink:href="#DejaVuSans-2218" transform="translate(237.250977 38.40625) scale(0.7)"/>
      <use xlink:href="#DejaVuSans-20" transform="translate(297.441406 0.125)"/>
      <use xlink:href="#DejaVuSans-28" transform="translate(329.228516 0.125)"/>
      <use xlink:href="#DejaVuSans-33" transform="translate(368.242188 0.125)"/>
      <use xlink:href="#DejaVuSans-31" transform="translate(431.865234 0.125)"/>
      <use xlink:href="#DejaVuSans-2d" transform="translate(495.488281 0.125)"/>
      <use xlink:href="#DejaVuSans-33" transform="translate(531.572266 0.125)"/>
      <use xlink:href="#DejaVuSans-30" transform="translate(595.195312 0.125)"/>
      <use xlink:href="#DejaVuSans-2c" transform="translate(658.818359 0.125)"/>
      <use xlink:href="#DejaVuSans-20" transform="translate(690.605469 0.125)"/>
      <use xlink:href="#DejaVuSans-31" transform="translate(722.392578 0.125)"/>
      <use xlink:href="#DejaVuSans-31" transform="translate(786.015625 0.125)"/>
      <use xlink:href="#DejaVuSans-31" transform="translate(849.638672 0.125)"/>
      <use xlink:href="#DejaVuSans-36" transform="translate(913.261719 0.125)"/>
      <use xlink:href="#DejaVuSans-34" transform="translate(976.884766 0.125)"/>
      <use xlink:href="#DejaVuSans-20" transform="translate(1040.507812 0.125)"/>
      <use xlink:href="#DejaVuSans-61" transform="translate(1072.294922 0.125)"/>
      <use xlink:href="#DejaVuSans-74" transform="translate(1133.574219 0.125)"/>
      <use xlink:href="#DejaVuSans-6f" transform="translate(1172.783203 0.125)"/>
      <use xlink:href="#DejaVuSans-6d" transform="translate(1233.964844 0.125)"/>
      <use xlink:href="#DejaVuSans-73" transform="translate(1331.376953 0.125)"/>
      <use xlink:href="#DejaVuSans-29" transform="translate(1383.476562 0.125)"/>
     </g>
    </g>
   </g>
  </g>
 </g>
 <defs>
  <clipPath id="pddfbeb21d0">
   <rect x="35.937331" y="10.8" width="485.612669" height="180.1"/>
  </clipPath>
 </defs>
</svg>
