<?xml version="1.0" encoding="utf-8" standalone="no"?>
<!DOCTYPE svg PUBLIC "-//W3C//DTD SVG 1.1//EN"
  "http://www.w3.org/Graphics/SVG/1.1/DTD/svg11.dtd">
<svg xmlns:xlink="http://www.w3.org/1999/xlink" width="720pt" height="288pt" viewBox="0 0 720 288" xmlns="http://www.w3.org/2000/svg" version="1.1">
 <metadata>
  <rdf:RDF xmlns:dc="http://purl.org/dc/elements/1.1/" xmlns:cc="http://creativecommons.org/ns#" xmlns:rdf="http://www.w3.org/1999/02/22-rdf-syntax-ns#">
   <cc:Work>
    <dc:type rdf:resource="http://purl.org/dc/dcmitype/StillImage"/>
    <dc:date>2023-03-24T22:57:14.825056</dc:date>
    <dc:format>image/svg+xml</dc:format>
    <dc:creator>
     <cc:Agent>
      <dc:title>Matplotlib v3.7.1, https://matplotlib.org/</dc:title>
     </cc:Agent>
    </dc:creator>
   </cc:Work>
  </rdf:RDF>
 </metadata>
 <defs>
  <style type="text/css">*{stroke-linejoin: round; stroke-linecap: butt}</style>
 </defs>
 <g id="figure_1">
  <g id="patch_1">
   <path d="M 0 288 
L 720 288 
L 720 0 
L 0 0 
z
" style="fill: #ffffff"/>
  </g>
  <g id="axes_1">
   <g id="patch_2">
    <path d="M 35.937331 262.9 
L 701.55 262.9 
L 701.55 10.8 
L 35.937331 10.8 
z
" style="fill: #ffffff"/>
   </g>
   <g id="PolyCollection_1">
    <path d="M 38.451867 262.947808 
L 38.451867 262.9 
L 45.995478 262.9 
L 53.539088 262.9 
L 61.082698 262.9 
L 68.626308 262.9 
L 76.169919 262.9 
L 83.713529 262.9 
L 91.257139 262.9 
L 98.800749 242.749681 
L 106.34436 182.298722 
L 113.88797 125.527964 
L 121.43158 76.117604 
L 128.97519 42.892359 
L 136.518801 42.037344 
L 144.062411 52.58818 
L 151.606021 85.950718 
L 159.149631 106.615576 
L 166.693242 101.885076 
L 174.236852 98.443076 
L 181.780462 97.578076 
L 189.324072 96.7201 
L 196.867683 95.876174 
L 204.411293 89.423226 
L 211.954903 71.752234 
L 219.498513 54.002925 
L 227.042124 36.096979 
L 234.585734 26.108932 
L 242.129344 31.956683 
L 249.672954 36.21225 
L 257.216565 37.283447 
L 264.760175 35.998481 
L 272.303785 30.001187 
L 279.847395 25.682248 
L 287.391006 24.720021 
L 294.934616 30.822263 
L 302.478226 51.053444 
L 310.021837 64.532562 
L 317.565447 64.507552 
L 325.109057 59.390802 
L 332.652667 44.090574 
L 340.196278 32.544153 
L 347.739888 28.505345 
L 355.283498 31.008773 
L 362.827108 46.596671 
L 370.370719 52.149097 
L 377.914329 37.630579 
L 385.457939 29.367025 
L 393.001549 33.613399 
L 400.54516 37.959057 
L 408.08877 42.503285 
L 415.63238 45.286066 
L 423.17599 44.545955 
L 430.719601 39.62576 
L 438.263211 26.345397 
L 445.806821 16.778597 
L 453.350431 14.638925 
L 460.894042 13.804851 
L 468.437652 15.581972 
L 475.981262 20.740404 
L 483.524872 32.661458 
L 491.068483 37.03077 
L 498.612093 26.296598 
L 506.155703 19.537674 
L 513.699313 20.729246 
L 521.242924 20.059406 
L 528.786534 15.666743 
L 536.330144 14.223674 
L 543.873754 18.679793 
L 551.417365 21.08428 
L 558.960975 19.385505 
L 566.504585 15.609189 
L 574.048195 7.677792 
L 581.591806 5.609909 
L 589.135416 15.269054 
L 596.679026 23.341774 
L 604.222636 28.241647 
L 611.766247 31.154264 
L 619.309857 30.092369 
L 626.853467 28.95319 
L 634.397077 27.659441 
L 641.940688 23.023352 
L 649.484298 11.702583 
L 657.027908 6.160306 
L 664.571518 12.175013 
L 672.115129 17.047515 
L 679.658739 19.635611 
L 687.202349 18.474571 
L 694.745959 9.815262 
L 702.28957 4.744092 
L 709.83318 6.849201 
L 717.37679 9.741069 
L 724.9204 14.206453 
L 732.464011 16.497072 
L 740.007621 14.43816 
L 747.551231 15.080098 
L 755.094841 21.123732 
L 762.638452 38.925094 
L 770.182062 80.241911 
L 777.725672 133.638713 
L 785.269282 211.195485 
L 785.269282 262.947808 
L 785.269282 262.947808 
L 777.725672 262.947808 
L 770.182062 262.947808 
L 762.638452 262.947808 
L 755.094841 262.947808 
L 747.551231 262.947808 
L 740.007621 262.947808 
L 732.464011 262.947808 
L 724.9204 262.947808 
L 717.37679 262.947808 
L 709.83318 262.947808 
L 702.28957 262.947808 
L 694.745959 262.947808 
L 687.202349 262.947808 
L 679.658739 262.947808 
L 672.115129 262.947808 
L 664.571518 262.947808 
L 657.027908 262.947808 
L 649.484298 262.947808 
L 641.940688 262.947808 
L 634.397077 262.947808 
L 626.853467 262.947808 
L 619.309857 262.947808 
L 611.766247 262.947808 
L 604.222636 262.947808 
L 596.679026 262.947808 
L 589.135416 262.947808 
L 581.591806 262.947808 
L 574.048195 262.947808 
L 566.504585 262.947808 
L 558.960975 262.947808 
L 551.417365 262.947808 
L 543.873754 262.947808 
L 536.330144 262.947808 
L 528.786534 262.947808 
L 521.242924 262.947808 
L 513.699313 262.947808 
L 506.155703 262.947808 
L 498.612093 262.947808 
L 491.068483 262.947808 
L 483.524872 262.947808 
L 475.981262 262.947808 
L 468.437652 262.947808 
L 460.894042 262.947808 
L 453.350431 262.947808 
L 445.806821 262.947808 
L 438.263211 262.947808 
L 430.719601 262.947808 
L 423.17599 262.947808 
L 415.63238 262.947808 
L 408.08877 262.947808 
L 400.54516 262.947808 
L 393.001549 262.947808 
L 385.457939 262.947808 
L 377.914329 262.947808 
L 370.370719 262.947808 
L 362.827108 262.947808 
L 355.283498 262.947808 
L 347.739888 262.947808 
L 340.196278 262.947808 
L 332.652667 262.947808 
L 325.109057 262.947808 
L 317.565447 262.947808 
L 310.021837 262.947808 
L 302.478226 262.947808 
L 294.934616 262.947808 
L 287.391006 262.947808 
L 279.847395 262.947808 
L 272.303785 262.947808 
L 264.760175 262.947808 
L 257.216565 262.947808 
L 249.672954 262.947808 
L 242.129344 262.947808 
L 234.585734 262.947808 
L 227.042124 262.947808 
L 219.498513 262.947808 
L 211.954903 262.947808 
L 204.411293 262.947808 
L 196.867683 262.947808 
L 189.324072 262.947808 
L 181.780462 262.947808 
L 174.236852 262.947808 
L 166.693242 262.947808 
L 159.149631 262.947808 
L 151.606021 262.947808 
L 144.062411 262.947808 
L 136.518801 262.947808 
L 128.97519 262.947808 
L 121.43158 262.947808 
L 113.88797 262.947808 
L 106.34436 262.947808 
L 98.800749 262.947808 
L 91.257139 262.947808 
L 83.713529 262.947808 
L 76.169919 262.947808 
L 68.626308 262.947808 
L 61.082698 262.947808 
L 53.539088 262.947808 
L 45.995478 262.947808 
L 38.451867 262.947808 
z
" clip-path="url(#pdc2ec0f08b)" style="fill: #808080; fill-opacity: 0.5"/>
   </g>
   <g id="matplotlib.axis_1">
    <g id="xtick_1">
     <g id="line2d_1">
      <defs>
       <path id="mbddf6f8057" d="M 0 0 
L 0 -3.5 
" style="stroke: #000000; stroke-width: 0.8"/>
      </defs>
      <g>
       <use xlink:href="#mbddf6f8057" x="35.937331" y="262.9" style="stroke: #000000; stroke-width: 0.8"/>
      </g>
     </g>
     <g id="text_1">
      <!-- 1 -->
      <g transform="translate(32.119831 275.518125) scale(0.12 -0.12)">
       <defs>
        <path id="DejaVuSans-31" d="M 794 531 
L 1825 531 
L 1825 4091 
L 703 3866 
L 703 4441 
L 1819 4666 
L 2450 4666 
L 2450 531 
L 3481 531 
L 3481 0 
L 794 0 
L 794 531 
z
" transform="scale(0.015625)"/>
       </defs>
       <use xlink:href="#DejaVuSans-31"/>
      </g>
     </g>
    </g>
    <g id="xtick_2">
     <g id="line2d_2">
      <g>
       <use xlink:href="#mbddf6f8057" x="109.894294" y="262.9" style="stroke: #000000; stroke-width: 0.8"/>
      </g>
     </g>
     <g id="text_2">
      <!-- 2 -->
      <g transform="translate(106.076794 275.518125) scale(0.12 -0.12)">
       <defs>
        <path id="DejaVuSans-32" d="M 1228 531 
L 3431 531 
L 3431 0 
L 469 0 
L 469 531 
Q 828 903 1448 1529 
Q 2069 2156 2228 2338 
Q 2531 2678 2651 2914 
Q 2772 3150 2772 3378 
Q 2772 3750 2511 3984 
Q 2250 4219 1831 4219 
Q 1534 4219 1204 4116 
Q 875 4013 500 3803 
L 500 4441 
Q 881 4594 1212 4672 
Q 1544 4750 1819 4750 
Q 2544 4750 2975 4387 
Q 3406 4025 3406 3419 
Q 3406 3131 3298 2873 
Q 3191 2616 2906 2266 
Q 2828 2175 2409 1742 
Q 1991 1309 1228 531 
z
" transform="scale(0.015625)"/>
       </defs>
       <use xlink:href="#DejaVuSans-32"/>
      </g>
     </g>
    </g>
    <g id="xtick_3">
     <g id="line2d_3">
      <g>
       <use xlink:href="#mbddf6f8057" x="183.851257" y="262.9" style="stroke: #000000; stroke-width: 0.8"/>
      </g>
     </g>
     <g id="text_3">
      <!-- 3 -->
      <g transform="translate(180.033757 275.518125) scale(0.12 -0.12)">
       <defs>
        <path id="DejaVuSans-33" d="M 2597 2516 
Q 3050 2419 3304 2112 
Q 3559 1806 3559 1356 
Q 3559 666 3084 287 
Q 2609 -91 1734 -91 
Q 1441 -91 1130 -33 
Q 819 25 488 141 
L 488 750 
Q 750 597 1062 519 
Q 1375 441 1716 441 
Q 2309 441 2620 675 
Q 2931 909 2931 1356 
Q 2931 1769 2642 2001 
Q 2353 2234 1838 2234 
L 1294 2234 
L 1294 2753 
L 1863 2753 
Q 2328 2753 2575 2939 
Q 2822 3125 2822 3475 
Q 2822 3834 2567 4026 
Q 2313 4219 1838 4219 
Q 1578 4219 1281 4162 
Q 984 4106 628 3988 
L 628 4550 
Q 988 4650 1302 4700 
Q 1616 4750 1894 4750 
Q 2613 4750 3031 4423 
Q 3450 4097 3450 3541 
Q 3450 3153 3228 2886 
Q 3006 2619 2597 2516 
z
" transform="scale(0.015625)"/>
       </defs>
       <use xlink:href="#DejaVuSans-33"/>
      </g>
     </g>
    </g>
    <g id="xtick_4">
     <g id="line2d_4">
      <g>
       <use xlink:href="#mbddf6f8057" x="257.80822" y="262.9" style="stroke: #000000; stroke-width: 0.8"/>
      </g>
     </g>
     <g id="text_4">
      <!-- 4 -->
      <g transform="translate(253.99072 275.518125) scale(0.12 -0.12)">
       <defs>
        <path id="DejaVuSans-34" d="M 2419 4116 
L 825 1625 
L 2419 1625 
L 2419 4116 
z
M 2253 4666 
L 3047 4666 
L 3047 1625 
L 3713 1625 
L 3713 1100 
L 3047 1100 
L 3047 0 
L 2419 0 
L 2419 1100 
L 313 1100 
L 313 1709 
L 2253 4666 
z
" transform="scale(0.015625)"/>
       </defs>
       <use xlink:href="#DejaVuSans-34"/>
      </g>
     </g>
    </g>
    <g id="xtick_5">
     <g id="line2d_5">
      <g>
       <use xlink:href="#mbddf6f8057" x="331.765184" y="262.9" style="stroke: #000000; stroke-width: 0.8"/>
      </g>
     </g>
     <g id="text_5">
      <!-- 5 -->
      <g transform="translate(327.947684 275.518125) scale(0.12 -0.12)">
       <defs>
        <path id="DejaVuSans-35" d="M 691 4666 
L 3169 4666 
L 3169 4134 
L 1269 4134 
L 1269 2991 
Q 1406 3038 1543 3061 
Q 1681 3084 1819 3084 
Q 2600 3084 3056 2656 
Q 3513 2228 3513 1497 
Q 3513 744 3044 326 
Q 2575 -91 1722 -91 
Q 1428 -91 1123 -41 
Q 819 9 494 109 
L 494 744 
Q 775 591 1075 516 
Q 1375 441 1709 441 
Q 2250 441 2565 725 
Q 2881 1009 2881 1497 
Q 2881 1984 2565 2268 
Q 2250 2553 1709 2553 
Q 1456 2553 1204 2497 
Q 953 2441 691 2322 
L 691 4666 
z
" transform="scale(0.015625)"/>
       </defs>
       <use xlink:href="#DejaVuSans-35"/>
      </g>
     </g>
    </g>
    <g id="xtick_6">
     <g id="line2d_6">
      <g>
       <use xlink:href="#mbddf6f8057" x="405.722147" y="262.9" style="stroke: #000000; stroke-width: 0.8"/>
      </g>
     </g>
     <g id="text_6">
      <!-- 6 -->
      <g transform="translate(401.904647 275.518125) scale(0.12 -0.12)">
       <defs>
        <path id="DejaVuSans-36" d="M 2113 2584 
Q 1688 2584 1439 2293 
Q 1191 2003 1191 1497 
Q 1191 994 1439 701 
Q 1688 409 2113 409 
Q 2538 409 2786 701 
Q 3034 994 3034 1497 
Q 3034 2003 2786 2293 
Q 2538 2584 2113 2584 
z
M 3366 4563 
L 3366 3988 
Q 3128 4100 2886 4159 
Q 2644 4219 2406 4219 
Q 1781 4219 1451 3797 
Q 1122 3375 1075 2522 
Q 1259 2794 1537 2939 
Q 1816 3084 2150 3084 
Q 2853 3084 3261 2657 
Q 3669 2231 3669 1497 
Q 3669 778 3244 343 
Q 2819 -91 2113 -91 
Q 1303 -91 875 529 
Q 447 1150 447 2328 
Q 447 3434 972 4092 
Q 1497 4750 2381 4750 
Q 2619 4750 2861 4703 
Q 3103 4656 3366 4563 
z
" transform="scale(0.015625)"/>
       </defs>
       <use xlink:href="#DejaVuSans-36"/>
      </g>
     </g>
    </g>
    <g id="xtick_7">
     <g id="line2d_7">
      <g>
       <use xlink:href="#mbddf6f8057" x="479.67911" y="262.9" style="stroke: #000000; stroke-width: 0.8"/>
      </g>
     </g>
     <g id="text_7">
      <!-- 7 -->
      <g transform="translate(475.86161 275.518125) scale(0.12 -0.12)">
       <defs>
        <path id="DejaVuSans-37" d="M 525 4666 
L 3525 4666 
L 3525 4397 
L 1831 0 
L 1172 0 
L 2766 4134 
L 525 4134 
L 525 4666 
z
" transform="scale(0.015625)"/>
       </defs>
       <use xlink:href="#DejaVuSans-37"/>
      </g>
     </g>
    </g>
    <g id="xtick_8">
     <g id="line2d_8">
      <g>
       <use xlink:href="#mbddf6f8057" x="553.636073" y="262.9" style="stroke: #000000; stroke-width: 0.8"/>
      </g>
     </g>
     <g id="text_8">
      <!-- 8 -->
      <g transform="translate(549.818573 275.518125) scale(0.12 -0.12)">
       <defs>
        <path id="DejaVuSans-38" d="M 2034 2216 
Q 1584 2216 1326 1975 
Q 1069 1734 1069 1313 
Q 1069 891 1326 650 
Q 1584 409 2034 409 
Q 2484 409 2743 651 
Q 3003 894 3003 1313 
Q 3003 1734 2745 1975 
Q 2488 2216 2034 2216 
z
M 1403 2484 
Q 997 2584 770 2862 
Q 544 3141 544 3541 
Q 544 4100 942 4425 
Q 1341 4750 2034 4750 
Q 2731 4750 3128 4425 
Q 3525 4100 3525 3541 
Q 3525 3141 3298 2862 
Q 3072 2584 2669 2484 
Q 3125 2378 3379 2068 
Q 3634 1759 3634 1313 
Q 3634 634 3220 271 
Q 2806 -91 2034 -91 
Q 1263 -91 848 271 
Q 434 634 434 1313 
Q 434 1759 690 2068 
Q 947 2378 1403 2484 
z
M 1172 3481 
Q 1172 3119 1398 2916 
Q 1625 2713 2034 2713 
Q 2441 2713 2670 2916 
Q 2900 3119 2900 3481 
Q 2900 3844 2670 4047 
Q 2441 4250 2034 4250 
Q 1625 4250 1398 4047 
Q 1172 3844 1172 3481 
z
" transform="scale(0.015625)"/>
       </defs>
       <use xlink:href="#DejaVuSans-38"/>
      </g>
     </g>
    </g>
    <g id="xtick_9">
     <g id="line2d_9">
      <g>
       <use xlink:href="#mbddf6f8057" x="627.593037" y="262.9" style="stroke: #000000; stroke-width: 0.8"/>
      </g>
     </g>
     <g id="text_9">
      <!-- 9 -->
      <g transform="translate(623.775537 275.518125) scale(0.12 -0.12)">
       <defs>
        <path id="DejaVuSans-39" d="M 703 97 
L 703 672 
Q 941 559 1184 500 
Q 1428 441 1663 441 
Q 2288 441 2617 861 
Q 2947 1281 2994 2138 
Q 2813 1869 2534 1725 
Q 2256 1581 1919 1581 
Q 1219 1581 811 2004 
Q 403 2428 403 3163 
Q 403 3881 828 4315 
Q 1253 4750 1959 4750 
Q 2769 4750 3195 4129 
Q 3622 3509 3622 2328 
Q 3622 1225 3098 567 
Q 2575 -91 1691 -91 
Q 1453 -91 1209 -44 
Q 966 3 703 97 
z
M 1959 2075 
Q 2384 2075 2632 2365 
Q 2881 2656 2881 3163 
Q 2881 3666 2632 3958 
Q 2384 4250 1959 4250 
Q 1534 4250 1286 3958 
Q 1038 3666 1038 3163 
Q 1038 2656 1286 2365 
Q 1534 2075 1959 2075 
z
" transform="scale(0.015625)"/>
       </defs>
       <use xlink:href="#DejaVuSans-39"/>
      </g>
     </g>
    </g>
    <g id="xtick_10">
     <g id="line2d_10">
      <g>
       <use xlink:href="#mbddf6f8057" x="701.55" y="262.9" style="stroke: #000000; stroke-width: 0.8"/>
      </g>
     </g>
     <g id="text_10">
      <!-- 10 -->
      <g transform="translate(693.915 275.518125) scale(0.12 -0.12)">
       <defs>
        <path id="DejaVuSans-30" d="M 2034 4250 
Q 1547 4250 1301 3770 
Q 1056 3291 1056 2328 
Q 1056 1369 1301 889 
Q 1547 409 2034 409 
Q 2525 409 2770 889 
Q 3016 1369 3016 2328 
Q 3016 3291 2770 3770 
Q 2525 4250 2034 4250 
z
M 2034 4750 
Q 2819 4750 3233 4129 
Q 3647 3509 3647 2328 
Q 3647 1150 3233 529 
Q 2819 -91 2034 -91 
Q 1250 -91 836 529 
Q 422 1150 422 2328 
Q 422 3509 836 4129 
Q 1250 4750 2034 4750 
z
" transform="scale(0.015625)"/>
       </defs>
       <use xlink:href="#DejaVuSans-31"/>
       <use xlink:href="#DejaVuSans-30" x="63.623047"/>
      </g>
     </g>
    </g>
   </g>
   <g id="matplotlib.axis_2">
    <g id="ytick_1">
     <g id="line2d_11">
      <defs>
       <path id="ma2772611d7" d="M 0 0 
L 3.5 0 
" style="stroke: #000000; stroke-width: 0.8"/>
      </defs>
      <g>
       <use xlink:href="#ma2772611d7" x="35.937331" y="262.9" style="stroke: #000000; stroke-width: 0.8"/>
      </g>
     </g>
     <g id="text_11">
      <!-- $10^{0}$ -->
      <g transform="translate(11.317331 267.459063) scale(0.12 -0.12)">
       <use xlink:href="#DejaVuSans-31" transform="translate(0 0.765625)"/>
       <use xlink:href="#DejaVuSans-30" transform="translate(63.623047 0.765625)"/>
       <use xlink:href="#DejaVuSans-30" transform="translate(128.203125 39.046875) scale(0.7)"/>
      </g>
     </g>
    </g>
    <g id="ytick_2">
     <g id="line2d_12">
      <g>
       <use xlink:href="#ma2772611d7" x="35.937331" y="215.092211" style="stroke: #000000; stroke-width: 0.8"/>
      </g>
     </g>
     <g id="text_12">
      <!-- $10^{1}$ -->
      <g transform="translate(11.317331 219.651273) scale(0.12 -0.12)">
       <use xlink:href="#DejaVuSans-31" transform="translate(0 0.684375)"/>
       <use xlink:href="#DejaVuSans-30" transform="translate(63.623047 0.684375)"/>
       <use xlink:href="#DejaVuSans-31" transform="translate(128.203125 38.965625) scale(0.7)"/>
      </g>
     </g>
    </g>
    <g id="ytick_3">
     <g id="line2d_13">
      <g>
       <use xlink:href="#ma2772611d7" x="35.937331" y="167.284422" style="stroke: #000000; stroke-width: 0.8"/>
      </g>
     </g>
     <g id="text_13">
      <!-- $10^{2}$ -->
      <g transform="translate(11.317331 171.843484) scale(0.12 -0.12)">
       <use xlink:href="#DejaVuSans-31" transform="translate(0 0.765625)"/>
       <use xlink:href="#DejaVuSans-30" transform="translate(63.623047 0.765625)"/>
       <use xlink:href="#DejaVuSans-32" transform="translate(128.203125 39.046875) scale(0.7)"/>
      </g>
     </g>
    </g>
    <g id="ytick_4">
     <g id="line2d_14">
      <g>
       <use xlink:href="#ma2772611d7" x="35.937331" y="119.476632" style="stroke: #000000; stroke-width: 0.8"/>
      </g>
     </g>
     <g id="text_14">
      <!-- $10^{3}$ -->
      <g transform="translate(11.317331 124.035695) scale(0.12 -0.12)">
       <use xlink:href="#DejaVuSans-31" transform="translate(0 0.765625)"/>
       <use xlink:href="#DejaVuSans-30" transform="translate(63.623047 0.765625)"/>
       <use xlink:href="#DejaVuSans-33" transform="translate(128.203125 39.046875) scale(0.7)"/>
      </g>
     </g>
    </g>
    <g id="ytick_5">
     <g id="line2d_15">
      <g>
       <use xlink:href="#ma2772611d7" x="35.937331" y="71.668843" style="stroke: #000000; stroke-width: 0.8"/>
      </g>
     </g>
     <g id="text_15">
      <!-- $10^{4}$ -->
      <g transform="translate(11.317331 76.227906) scale(0.12 -0.12)">
       <use xlink:href="#DejaVuSans-31" transform="translate(0 0.684375)"/>
       <use xlink:href="#DejaVuSans-30" transform="translate(63.623047 0.684375)"/>
       <use xlink:href="#DejaVuSans-34" transform="translate(128.203125 38.965625) scale(0.7)"/>
      </g>
     </g>
    </g>
    <g id="ytick_6">
     <g id="line2d_16">
      <g>
       <use xlink:href="#ma2772611d7" x="35.937331" y="23.861054" style="stroke: #000000; stroke-width: 0.8"/>
      </g>
     </g>
     <g id="text_16">
      <!-- $10^{5}$ -->
      <g transform="translate(11.317331 28.420116) scale(0.12 -0.12)">
       <use xlink:href="#DejaVuSans-31" transform="translate(0 0.684375)"/>
       <use xlink:href="#DejaVuSans-30" transform="translate(63.623047 0.684375)"/>
       <use xlink:href="#DejaVuSans-35" transform="translate(128.203125 38.965625) scale(0.7)"/>
      </g>
     </g>
    </g>
   </g>
   <g id="line2d_17">
    <path d="M 38.451867 262.9 
L 45.995478 262.9 
L 53.539088 262.9 
L 61.082698 262.9 
L 68.626308 262.9 
L 76.169919 262.9 
L 83.713529 262.9 
L 91.257139 262.9 
L 98.800749 262.9 
L 106.34436 262.9 
L 113.88797 262.9 
L 121.43158 262.9 
L 128.97519 247.736246 
L 136.518801 202.244983 
L 144.062411 184.682633 
L 151.606021 222.978106 
L 159.149631 250.907018 
L 166.693242 258.102807 
L 174.236852 255.704211 
L 181.780462 234.116843 
L 189.324072 226.921054 
L 196.867683 248.508421 
L 204.411293 255.704211 
L 211.954903 234.116843 
L 219.498513 210.35421 
L 227.042124 182.241049 
L 234.585734 180.065784 
L 242.129344 229.766314 
L 249.672954 247.736246 
L 257.216565 202.244983 
L 264.760175 177.486843 
L 272.303785 194.194949 
L 279.847395 196.734807 
L 287.391006 170.938173 
L 294.934616 171.93368 
L 302.478226 226.513472 
L 310.021837 255.704211 
L 317.565447 234.116843 
L 325.109057 217.326668 
L 332.652667 210.130879 
L 340.196278 198.137896 
L 347.739888 176.550528 
L 355.283498 169.354739 
L 362.827108 190.942107 
L 370.370719 199.356736 
L 377.914329 181.425886 
L 385.457939 170.651743 
L 393.001549 174.191014 
L 400.54516 179.944632 
L 408.08877 190.126944 
L 415.63238 195.919644 
L 423.17599 192.933122 
L 430.719601 184.741825 
L 438.263211 166.14098 
L 445.806821 159.168522 
L 453.350431 175.452841 
L 460.894042 180.880947 
L 468.437652 164.596629 
L 475.981262 158.537609 
L 483.524872 172.929188 
L 491.068483 178.188458 
L 498.612093 165.183113 
L 506.155703 159.85249 
L 513.699313 169.871313 
L 521.242924 172.607581 
L 528.786534 160.778738 
L 536.330144 156.063615 
L 543.873754 165.575931 
L 551.417365 173.685158 
L 558.960975 178.988207 
L 566.504585 175.400638 
L 574.048195 154.031833 
L 581.591806 146.375468 
L 589.135416 166.143984 
L 596.679026 178.754434 
L 604.222636 177.04875 
L 611.766247 174.91612 
L 619.309857 171.929597 
L 626.853467 170.268398 
L 634.397077 171.257844 
L 641.940688 167.120282 
L 649.484298 152.728704 
L 657.027908 148.703686 
L 664.571518 165.411792 
L 672.115129 176.142947 
L 679.658739 174.920202 
L 687.202349 169.715428 
L 694.745959 156.546594 
L 702.28957 147.557583 
L 709.83318 146.928219 
L 717.37679 151.515624 
L 721 158.73021 
" clip-path="url(#pdc2ec0f08b)" style="fill: none; stroke: #ff0000; stroke-width: 1.2; stroke-linecap: square"/>
   </g>
   <g id="line2d_18">
    <path d="M 38.451867 262.9 
L 45.995478 262.9 
L 53.539088 262.9 
L 61.082698 262.9 
L 68.626308 262.9 
L 76.169919 262.9 
L 83.713529 262.9 
L 91.257139 262.9 
L 98.800749 262.9 
L 106.34436 262.9 
L 113.88797 262.9 
L 121.43158 262.9 
L 128.97519 230.000943 
L 136.518801 131.30377 
L 144.062411 79.771973 
L 151.606021 122.570928 
L 159.149631 148.611014 
L 166.693242 141.133361 
L 174.236852 135.852315 
L 181.780462 134.964481 
L 189.324072 134.260955 
L 196.867683 133.926044 
L 204.411293 133.438486 
L 211.954903 132.645633 
L 219.498513 119.520043 
L 227.042124 81.728977 
L 234.585734 68.657179 
L 242.129344 105.023914 
L 249.672954 118.478523 
L 257.216565 86.10888 
L 264.760175 71.372504 
L 272.303785 91.902662 
L 279.847395 96.248769 
L 287.391006 68.226772 
L 294.934616 58.497487 
L 302.478226 85.353623 
L 310.021837 103.145473 
L 317.565447 102.808752 
L 325.109057 102.404934 
L 332.652667 101.866921 
L 340.196278 93.703702 
L 347.739888 70.290073 
L 355.283498 62.20586 
L 362.827108 84.780475 
L 370.370719 93.267628 
L 377.914329 73.579853 
L 385.457939 64.389964 
L 393.001549 76.195846 
L 400.54516 83.91874 
L 408.08877 83.475657 
L 415.63238 83.137162 
L 423.17599 83.007843 
L 430.719601 76.924746 
L 438.263211 58.934094 
L 445.806821 52.649625 
L 453.350431 69.777521 
L 460.894042 75.445007 
L 468.437652 58.19167 
L 475.981262 52.232316 
L 483.524872 68.860928 
L 491.068483 74.902765 
L 498.612093 59.771054 
L 506.155703 53.582306 
L 513.699313 65.279485 
L 521.242924 68.370453 
L 528.786534 54.249002 
L 536.330144 49.284983 
L 543.873754 62.635824 
L 551.417365 71.569553 
L 558.960975 71.669055 
L 566.504585 65.292476 
L 574.048195 45.963735 
L 581.591806 39.329051 
L 589.135416 58.082479 
L 596.679026 70.313851 
L 604.222636 69.501107 
L 611.766247 68.657573 
L 619.309857 67.752457 
L 626.853467 67.063274 
L 634.397077 66.805954 
L 641.940688 61.677494 
L 649.484298 46.806753 
L 657.027908 41.690637 
L 664.571518 56.083772 
L 672.115129 65.629759 
L 679.658739 65.481452 
L 687.202349 61.557794 
L 694.745959 50.083433 
L 702.28957 42.431829 
L 709.83318 42.425736 
L 717.37679 46.015204 
L 721 51.193141 
" clip-path="url(#pdc2ec0f08b)" style="fill: none; stroke: #008000; stroke-width: 1.2; stroke-linecap: square"/>
   </g>
   <g id="line2d_19">
    <path d="M 38.451867 262.9 
L 45.995478 262.9 
L 53.539088 262.9 
L 61.082698 262.9 
L 68.626308 262.9 
L 76.169919 262.9 
L 83.713529 262.9 
L 91.257139 262.9 
L 98.800749 262.9 
L 106.34436 262.9 
L 113.88797 262.9 
L 121.43158 262.9 
L 128.97519 227.25239 
L 136.518801 120.30956 
L 144.062411 63.283526 
L 151.606021 106.091082 
L 159.149631 132.103983 
L 166.693242 124.527572 
L 174.236852 119.314394 
L 181.780462 118.82768 
L 189.324072 118.248645 
L 196.867683 117.484968 
L 204.411293 116.738741 
L 211.954903 116.027412 
L 219.498513 102.963122 
L 227.042124 65.192907 
L 234.585734 52.213124 
L 242.129344 88.814205 
L 249.672954 102.355836 
L 257.216565 69.778563 
L 264.760175 54.925306 
L 272.303785 75.52008 
L 279.847395 79.885769 
L 287.391006 51.793287 
L 294.934616 41.99297 
L 302.478226 68.776981 
L 310.021837 86.488086 
L 317.565447 86.053377 
L 325.109057 85.687989 
L 332.652667 85.461243 
L 340.196278 77.451703 
L 347.739888 53.876575 
L 355.283498 45.711765 
L 362.827108 68.367591 
L 370.370719 76.886678 
L 377.914329 57.132288 
L 385.457939 47.894544 
L 393.001549 59.690092 
L 400.54516 67.457505 
L 408.08877 67.168649 
L 415.63238 66.860974 
L 423.17599 66.515658 
L 430.719601 60.302995 
L 438.263211 42.355639 
L 445.806821 36.157875 
L 453.350431 53.459294 
L 460.894042 59.186851 
L 468.437652 41.766683 
L 475.981262 35.747812 
L 483.524872 52.531533 
L 491.068483 58.620896 
L 498.612093 43.321541 
L 506.155703 37.036172 
L 513.699313 48.778777 
L 521.242924 51.88655 
L 528.786534 37.724661 
L 536.330144 32.836599 
L 543.873754 46.496195 
L 551.417365 55.487066 
L 558.960975 55.140487 
L 566.504585 48.524592 
L 574.048195 29.370065 
L 581.591806 22.804762 
L 589.135416 41.417909 
L 596.679026 53.666053 
L 604.222636 53.184192 
L 611.766247 52.492153 
L 619.309857 51.379755 
L 626.853467 50.56258 
L 634.397077 50.335852 
L 641.940688 45.218344 
L 649.484298 30.319275 
L 657.027908 25.199011 
L 664.571518 39.636354 
L 672.115129 49.186789 
L 679.658739 48.963406 
L 687.202349 45.009117 
L 694.745959 33.593017 
L 702.28957 25.956319 
L 709.83318 25.878426 
L 717.37679 29.461826 
L 721 34.699991 
" clip-path="url(#pdc2ec0f08b)" style="fill: none; stroke: #0000ff; stroke-width: 1.2; stroke-linecap: square"/>
   </g>
   <g id="line2d_20">
    <path d="M 38.451867 262.9 
L 45.995478 262.9 
L 53.539088 262.9 
L 61.082698 262.9 
L 68.626308 262.9 
L 76.169919 262.9 
L 83.713529 262.9 
L 91.257139 262.9 
L 98.800749 242.749681 
L 106.34436 182.298722 
L 113.88797 125.527964 
L 121.43158 76.117604 
L 128.97519 42.892359 
L 136.518801 42.037344 
L 144.062411 52.58818 
L 151.606021 85.950718 
L 159.149631 106.615576 
L 166.693242 101.885076 
L 174.236852 98.443076 
L 181.780462 97.578076 
L 189.324072 96.7201 
L 196.867683 95.876174 
L 204.411293 89.423226 
L 211.954903 71.752234 
L 219.498513 54.002925 
L 227.042124 36.096979 
L 234.585734 26.108932 
L 242.129344 31.956683 
L 249.672954 36.21225 
L 257.216565 37.283447 
L 264.760175 35.998481 
L 272.303785 30.001187 
L 279.847395 25.682248 
L 287.391006 24.720021 
L 294.934616 30.822263 
L 302.478226 51.053444 
L 310.021837 64.532562 
L 317.565447 64.507552 
L 325.109057 59.390802 
L 332.652667 44.090574 
L 340.196278 32.544153 
L 347.739888 28.505345 
L 355.283498 31.008773 
L 362.827108 46.596671 
L 370.370719 52.149097 
L 377.914329 37.630579 
L 385.457939 29.367025 
L 393.001549 33.613399 
L 400.54516 37.959057 
L 408.08877 42.503285 
L 415.63238 45.286066 
L 423.17599 44.545955 
L 430.719601 39.62576 
L 438.263211 26.345397 
L 445.806821 16.778597 
L 453.350431 14.638925 
L 460.894042 13.804851 
L 468.437652 15.581972 
L 475.981262 20.740404 
L 483.524872 32.661458 
L 491.068483 37.03077 
L 498.612093 26.296598 
L 506.155703 19.537674 
L 513.699313 20.729246 
L 521.242924 20.059406 
L 528.786534 15.666743 
L 536.330144 14.223674 
L 543.873754 18.679793 
L 551.417365 21.08428 
L 558.960975 19.385505 
L 566.504585 15.609189 
L 574.048195 7.677792 
L 581.591806 5.609909 
L 589.135416 15.269054 
L 596.679026 23.341774 
L 604.222636 28.241647 
L 611.766247 31.154264 
L 619.309857 30.092369 
L 626.853467 28.95319 
L 634.397077 27.659441 
L 641.940688 23.023352 
L 649.484298 11.702583 
L 657.027908 6.160306 
L 664.571518 12.175013 
L 672.115129 17.047515 
L 679.658739 19.635611 
L 687.202349 18.474571 
L 694.745959 9.815262 
L 702.28957 4.744092 
L 709.83318 6.849201 
L 717.37679 9.741069 
L 721 11.885801 
" clip-path="url(#pdc2ec0f08b)" style="fill: none; stroke: #808080; stroke-width: 1.5; stroke-linecap: square"/>
   </g>
   <g id="patch_3">
    <path d="M 35.937331 262.9 
L 35.937331 10.8 
" style="fill: none; stroke: #000000; stroke-width: 0.8; stroke-linejoin: miter; stroke-linecap: square"/>
   </g>
   <g id="patch_4">
    <path d="M 701.55 262.9 
L 701.55 10.8 
" style="fill: none; stroke: #000000; stroke-width: 0.8; stroke-linejoin: miter; stroke-linecap: square"/>
   </g>
   <g id="patch_5">
    <path d="M 35.937331 262.9 
L 701.55 262.9 
" style="fill: none; stroke: #000000; stroke-width: 0.8; stroke-linejoin: miter; stroke-linecap: square"/>
   </g>
   <g id="patch_6">
    <path d="M 35.937331 10.8 
L 701.55 10.8 
" style="fill: none; stroke: #000000; stroke-width: 0.8; stroke-linejoin: miter; stroke-linecap: square"/>
   </g>
   <g id="legend_1">
    <g id="patch_7">
     <path d="M 484.35 256.9 
L 693.15 256.9 
Q 695.55 256.9 695.55 254.5 
L 695.55 185.245 
Q 695.55 182.845 693.15 182.845 
L 484.35 182.845 
Q 481.95 182.845 481.95 185.245 
L 481.95 254.5 
Q 481.95 256.9 484.35 256.9 
z
" style="fill: #ffffff; opacity: 0.8; stroke: #cccccc; stroke-linejoin: miter"/>
    </g>
    <g id="line2d_21">
     <path d="M 486.75 192.563125 
L 498.75 192.563125 
L 510.75 192.563125 
" style="fill: none; stroke: #808080; stroke-width: 1.5; stroke-linecap: square"/>
    </g>
    <g id="text_17">
     <!-- dataset -->
     <g transform="translate(520.35 196.763125) scale(0.12 -0.12)">
      <defs>
       <path id="DejaVuSans-64" d="M 2906 2969 
L 2906 4863 
L 3481 4863 
L 3481 0 
L 2906 0 
L 2906 525 
Q 2725 213 2448 61 
Q 2172 -91 1784 -91 
Q 1150 -91 751 415 
Q 353 922 353 1747 
Q 353 2572 751 3078 
Q 1150 3584 1784 3584 
Q 2172 3584 2448 3432 
Q 2725 3281 2906 2969 
z
M 947 1747 
Q 947 1113 1208 752 
Q 1469 391 1925 391 
Q 2381 391 2643 752 
Q 2906 1113 2906 1747 
Q 2906 2381 2643 2742 
Q 2381 3103 1925 3103 
Q 1469 3103 1208 2742 
Q 947 2381 947 1747 
z
" transform="scale(0.015625)"/>
       <path id="DejaVuSans-61" d="M 2194 1759 
Q 1497 1759 1228 1600 
Q 959 1441 959 1056 
Q 959 750 1161 570 
Q 1363 391 1709 391 
Q 2188 391 2477 730 
Q 2766 1069 2766 1631 
L 2766 1759 
L 2194 1759 
z
M 3341 1997 
L 3341 0 
L 2766 0 
L 2766 531 
Q 2569 213 2275 61 
Q 1981 -91 1556 -91 
Q 1019 -91 701 211 
Q 384 513 384 1019 
Q 384 1609 779 1909 
Q 1175 2209 1959 2209 
L 2766 2209 
L 2766 2266 
Q 2766 2663 2505 2880 
Q 2244 3097 1772 3097 
Q 1472 3097 1187 3025 
Q 903 2953 641 2809 
L 641 3341 
Q 956 3463 1253 3523 
Q 1550 3584 1831 3584 
Q 2591 3584 2966 3190 
Q 3341 2797 3341 1997 
z
" transform="scale(0.015625)"/>
       <path id="DejaVuSans-74" d="M 1172 4494 
L 1172 3500 
L 2356 3500 
L 2356 3053 
L 1172 3053 
L 1172 1153 
Q 1172 725 1289 603 
Q 1406 481 1766 481 
L 2356 481 
L 2356 0 
L 1766 0 
Q 1100 0 847 248 
Q 594 497 594 1153 
L 594 3053 
L 172 3053 
L 172 3500 
L 594 3500 
L 594 4494 
L 1172 4494 
z
" transform="scale(0.015625)"/>
       <path id="DejaVuSans-73" d="M 2834 3397 
L 2834 2853 
Q 2591 2978 2328 3040 
Q 2066 3103 1784 3103 
Q 1356 3103 1142 2972 
Q 928 2841 928 2578 
Q 928 2378 1081 2264 
Q 1234 2150 1697 2047 
L 1894 2003 
Q 2506 1872 2764 1633 
Q 3022 1394 3022 966 
Q 3022 478 2636 193 
Q 2250 -91 1575 -91 
Q 1294 -91 989 -36 
Q 684 19 347 128 
L 347 722 
Q 666 556 975 473 
Q 1284 391 1588 391 
Q 1994 391 2212 530 
Q 2431 669 2431 922 
Q 2431 1156 2273 1281 
Q 2116 1406 1581 1522 
L 1381 1569 
Q 847 1681 609 1914 
Q 372 2147 372 2553 
Q 372 3047 722 3315 
Q 1072 3584 1716 3584 
Q 2034 3584 2315 3537 
Q 2597 3491 2834 3397 
z
" transform="scale(0.015625)"/>
       <path id="DejaVuSans-65" d="M 3597 1894 
L 3597 1613 
L 953 1613 
Q 991 1019 1311 708 
Q 1631 397 2203 397 
Q 2534 397 2845 478 
Q 3156 559 3463 722 
L 3463 178 
Q 3153 47 2828 -22 
Q 2503 -91 2169 -91 
Q 1331 -91 842 396 
Q 353 884 353 1716 
Q 353 2575 817 3079 
Q 1281 3584 2069 3584 
Q 2775 3584 3186 3129 
Q 3597 2675 3597 1894 
z
M 3022 2063 
Q 3016 2534 2758 2815 
Q 2500 3097 2075 3097 
Q 1594 3097 1305 2825 
Q 1016 2553 972 2059 
L 3022 2063 
z
" transform="scale(0.015625)"/>
      </defs>
      <use xlink:href="#DejaVuSans-64"/>
      <use xlink:href="#DejaVuSans-61" x="63.476562"/>
      <use xlink:href="#DejaVuSans-74" x="124.755859"/>
      <use xlink:href="#DejaVuSans-61" x="163.964844"/>
      <use xlink:href="#DejaVuSans-73" x="225.244141"/>
      <use xlink:href="#DejaVuSans-65" x="277.34375"/>
      <use xlink:href="#DejaVuSans-74" x="338.867188"/>
     </g>
    </g>
    <g id="line2d_22">
     <path d="M 486.75 210.176875 
L 498.75 210.176875 
L 510.75 210.176875 
" style="fill: none; stroke: #ff0000; stroke-width: 1.5; stroke-linecap: square"/>
    </g>
    <g id="text_18">
     <!-- 36.87$^\circ$ (2-1, 30 atoms) -->
     <g transform="translate(520.35 214.376875) scale(0.12 -0.12)">
      <defs>
       <path id="DejaVuSans-2e" d="M 684 794 
L 1344 794 
L 1344 0 
L 684 0 
L 684 794 
z
" transform="scale(0.015625)"/>
       <path id="DejaVuSans-2218" d="M 2003 2603 
Q 1753 2603 1581 2429 
Q 1409 2256 1409 2006 
Q 1409 1759 1581 1589 
Q 1753 1419 2003 1419 
Q 2253 1419 2425 1589 
Q 2597 1759 2597 2006 
Q 2597 2253 2423 2428 
Q 2250 2603 2003 2603 
z
M 2003 3006 
Q 2203 3006 2387 2929 
Q 2572 2853 2706 2709 
Q 2850 2569 2922 2390 
Q 2994 2212 2994 2006 
Q 2994 1594 2705 1308 
Q 2416 1022 1997 1022 
Q 1575 1022 1294 1303 
Q 1013 1584 1013 2006 
Q 1013 2425 1300 2715 
Q 1588 3006 2003 3006 
z
" transform="scale(0.015625)"/>
       <path id="DejaVuSans-20" transform="scale(0.015625)"/>
       <path id="DejaVuSans-28" d="M 1984 4856 
Q 1566 4138 1362 3434 
Q 1159 2731 1159 2009 
Q 1159 1288 1364 580 
Q 1569 -128 1984 -844 
L 1484 -844 
Q 1016 -109 783 600 
Q 550 1309 550 2009 
Q 550 2706 781 3412 
Q 1013 4119 1484 4856 
L 1984 4856 
z
" transform="scale(0.015625)"/>
       <path id="DejaVuSans-2d" d="M 313 2009 
L 1997 2009 
L 1997 1497 
L 313 1497 
L 313 2009 
z
" transform="scale(0.015625)"/>
       <path id="DejaVuSans-2c" d="M 750 794 
L 1409 794 
L 1409 256 
L 897 -744 
L 494 -744 
L 750 256 
L 750 794 
z
" transform="scale(0.015625)"/>
       <path id="DejaVuSans-6f" d="M 1959 3097 
Q 1497 3097 1228 2736 
Q 959 2375 959 1747 
Q 959 1119 1226 758 
Q 1494 397 1959 397 
Q 2419 397 2687 759 
Q 2956 1122 2956 1747 
Q 2956 2369 2687 2733 
Q 2419 3097 1959 3097 
z
M 1959 3584 
Q 2709 3584 3137 3096 
Q 3566 2609 3566 1747 
Q 3566 888 3137 398 
Q 2709 -91 1959 -91 
Q 1206 -91 779 398 
Q 353 888 353 1747 
Q 353 2609 779 3096 
Q 1206 3584 1959 3584 
z
" transform="scale(0.015625)"/>
       <path id="DejaVuSans-6d" d="M 3328 2828 
Q 3544 3216 3844 3400 
Q 4144 3584 4550 3584 
Q 5097 3584 5394 3201 
Q 5691 2819 5691 2113 
L 5691 0 
L 5113 0 
L 5113 2094 
Q 5113 2597 4934 2840 
Q 4756 3084 4391 3084 
Q 3944 3084 3684 2787 
Q 3425 2491 3425 1978 
L 3425 0 
L 2847 0 
L 2847 2094 
Q 2847 2600 2669 2842 
Q 2491 3084 2119 3084 
Q 1678 3084 1418 2786 
Q 1159 2488 1159 1978 
L 1159 0 
L 581 0 
L 581 3500 
L 1159 3500 
L 1159 2956 
Q 1356 3278 1631 3431 
Q 1906 3584 2284 3584 
Q 2666 3584 2933 3390 
Q 3200 3197 3328 2828 
z
" transform="scale(0.015625)"/>
       <path id="DejaVuSans-29" d="M 513 4856 
L 1013 4856 
Q 1481 4119 1714 3412 
Q 1947 2706 1947 2009 
Q 1947 1309 1714 600 
Q 1481 -109 1013 -844 
L 513 -844 
Q 928 -128 1133 580 
Q 1338 1288 1338 2009 
Q 1338 2731 1133 3434 
Q 928 4138 513 4856 
z
" transform="scale(0.015625)"/>
      </defs>
      <use xlink:href="#DejaVuSans-33" transform="translate(0 0.125)"/>
      <use xlink:href="#DejaVuSans-36" transform="translate(63.623047 0.125)"/>
      <use xlink:href="#DejaVuSans-2e" transform="translate(127.246094 0.125)"/>
      <use xlink:href="#DejaVuSans-38" transform="translate(156.408203 0.125)"/>
      <use xlink:href="#DejaVuSans-37" transform="translate(220.03125 0.125)"/>
      <use xlink:href="#DejaVuSans-2218" transform="translate(298.249023 38.40625) scale(0.7)"/>
      <use xlink:href="#DejaVuSans-20" transform="translate(358.439453 0.125)"/>
      <use xlink:href="#DejaVuSans-28" transform="translate(390.226562 0.125)"/>
      <use xlink:href="#DejaVuSans-32" transform="translate(429.240234 0.125)"/>
      <use xlink:href="#DejaVuSans-2d" transform="translate(492.863281 0.125)"/>
      <use xlink:href="#DejaVuSans-31" transform="translate(528.947266 0.125)"/>
      <use xlink:href="#DejaVuSans-2c" transform="translate(592.570312 0.125)"/>
      <use xlink:href="#DejaVuSans-20" transform="translate(624.357422 0.125)"/>
      <use xlink:href="#DejaVuSans-33" transform="translate(656.144531 0.125)"/>
      <use xlink:href="#DejaVuSans-30" transform="translate(719.767578 0.125)"/>
      <use xlink:href="#DejaVuSans-20" transform="translate(783.390625 0.125)"/>
      <use xlink:href="#DejaVuSans-61" transform="translate(815.177734 0.125)"/>
      <use xlink:href="#DejaVuSans-74" transform="translate(876.457031 0.125)"/>
      <use xlink:href="#DejaVuSans-6f" transform="translate(915.666016 0.125)"/>
      <use xlink:href="#DejaVuSans-6d" transform="translate(976.847656 0.125)"/>
      <use xlink:href="#DejaVuSans-73" transform="translate(1074.259766 0.125)"/>
      <use xlink:href="#DejaVuSans-29" transform="translate(1126.359375 0.125)"/>
     </g>
    </g>
    <g id="line2d_23">
     <path d="M 486.75 227.790625 
L 498.75 227.790625 
L 510.75 227.790625 
" style="fill: none; stroke: #008000; stroke-width: 1.5; stroke-linecap: square"/>
    </g>
    <g id="text_19">
     <!-- 2.79$^\circ$ (21-20, 5046 atoms) -->
     <g transform="translate(520.35 231.990625) scale(0.12 -0.12)">
      <use xlink:href="#DejaVuSans-32" transform="translate(0 0.125)"/>
      <use xlink:href="#DejaVuSans-2e" transform="translate(63.623047 0.125)"/>
      <use xlink:href="#DejaVuSans-37" transform="translate(87.660156 0.125)"/>
      <use xlink:href="#DejaVuSans-39" transform="translate(151.283203 0.125)"/>
      <use xlink:href="#DejaVuSans-2218" transform="translate(229.500977 38.40625) scale(0.7)"/>
      <use xlink:href="#DejaVuSans-20" transform="translate(289.691406 0.125)"/>
      <use xlink:href="#DejaVuSans-28" transform="translate(321.478516 0.125)"/>
      <use xlink:href="#DejaVuSans-32" transform="translate(360.492188 0.125)"/>
      <use xlink:href="#DejaVuSans-31" transform="translate(424.115234 0.125)"/>
      <use xlink:href="#DejaVuSans-2d" transform="translate(487.738281 0.125)"/>
      <use xlink:href="#DejaVuSans-32" transform="translate(523.822266 0.125)"/>
      <use xlink:href="#DejaVuSans-30" transform="translate(587.445312 0.125)"/>
      <use xlink:href="#DejaVuSans-2c" transform="translate(651.068359 0.125)"/>
      <use xlink:href="#DejaVuSans-20" transform="translate(682.855469 0.125)"/>
      <use xlink:href="#DejaVuSans-35" transform="translate(714.642578 0.125)"/>
      <use xlink:href="#DejaVuSans-30" transform="translate(778.265625 0.125)"/>
      <use xlink:href="#DejaVuSans-34" transform="translate(841.888672 0.125)"/>
      <use xlink:href="#DejaVuSans-36" transform="translate(905.511719 0.125)"/>
      <use xlink:href="#DejaVuSans-20" transform="translate(969.134766 0.125)"/>
      <use xlink:href="#DejaVuSans-61" transform="translate(1000.921875 0.125)"/>
      <use xlink:href="#DejaVuSans-74" transform="translate(1062.201172 0.125)"/>
      <use xlink:href="#DejaVuSans-6f" transform="translate(1101.410156 0.125)"/>
      <use xlink:href="#DejaVuSans-6d" transform="translate(1162.591797 0.125)"/>
      <use xlink:href="#DejaVuSans-73" transform="translate(1260.003906 0.125)"/>
      <use xlink:href="#DejaVuSans-29" transform="translate(1312.103516 0.125)"/>
     </g>
    </g>
    <g id="line2d_24">
     <path d="M 486.75 245.404375 
L 498.75 245.404375 
L 510.75 245.404375 
" style="fill: none; stroke: #0000ff; stroke-width: 1.5; stroke-linecap: square"/>
    </g>
    <g id="text_20">
     <!-- 1.88$^\circ$ (31-30, 11166 atoms) -->
     <g transform="translate(520.35 249.604375) scale(0.12 -0.12)">
      <use xlink:href="#DejaVuSans-31" transform="translate(0 0.125)"/>
      <use xlink:href="#DejaVuSans-2e" transform="translate(63.623047 0.125)"/>
      <use xlink:href="#DejaVuSans-38" transform="translate(92.785156 0.125)"/>
      <use xlink:href="#DejaVuSans-38" transform="translate(156.408203 0.125)"/>
      <use xlink:href="#DejaVuSans-2218" transform="translate(234.625977 38.40625) scale(0.7)"/>
      <use xlink:href="#DejaVuSans-20" transform="translate(294.816406 0.125)"/>
      <use xlink:href="#DejaVuSans-28" transform="translate(326.603516 0.125)"/>
      <use xlink:href="#DejaVuSans-33" transform="translate(365.617188 0.125)"/>
      <use xlink:href="#DejaVuSans-31" transform="translate(429.240234 0.125)"/>
      <use xlink:href="#DejaVuSans-2d" transform="translate(492.863281 0.125)"/>
      <use xlink:href="#DejaVuSans-33" transform="translate(528.947266 0.125)"/>
      <use xlink:href="#DejaVuSans-30" transform="translate(592.570312 0.125)"/>
      <use xlink:href="#DejaVuSans-2c" transform="translate(656.193359 0.125)"/>
      <use xlink:href="#DejaVuSans-20" transform="translate(687.980469 0.125)"/>
      <use xlink:href="#DejaVuSans-31" transform="translate(719.767578 0.125)"/>
      <use xlink:href="#DejaVuSans-31" transform="translate(783.390625 0.125)"/>
      <use xlink:href="#DejaVuSans-31" transform="translate(847.013672 0.125)"/>
      <use xlink:href="#DejaVuSans-36" transform="translate(910.636719 0.125)"/>
      <use xlink:href="#DejaVuSans-36" transform="translate(974.259766 0.125)"/>
      <use xlink:href="#DejaVuSans-20" transform="translate(1037.882812 0.125)"/>
      <use xlink:href="#DejaVuSans-61" transform="translate(1069.669922 0.125)"/>
      <use xlink:href="#DejaVuSans-74" transform="translate(1130.949219 0.125)"/>
      <use xlink:href="#DejaVuSans-6f" transform="translate(1170.158203 0.125)"/>
      <use xlink:href="#DejaVuSans-6d" transform="translate(1231.339844 0.125)"/>
      <use xlink:href="#DejaVuSans-73" transform="translate(1328.751953 0.125)"/>
      <use xlink:href="#DejaVuSans-29" transform="translate(1380.851562 0.125)"/>
     </g>
    </g>
   </g>
  </g>
 </g>
 <defs>
  <clipPath id="pdc2ec0f08b">
   <rect x="35.937331" y="10.8" width="665.612669" height="252.1"/>
  </clipPath>
 </defs>
</svg>
