<?xml version="1.0" encoding="utf-8" standalone="no"?>
<!DOCTYPE svg PUBLIC "-//W3C//DTD SVG 1.1//EN"
  "http://www.w3.org/Graphics/SVG/1.1/DTD/svg11.dtd">
<svg xmlns:xlink="http://www.w3.org/1999/xlink" width="540pt" height="216pt" viewBox="0 0 540 216" xmlns="http://www.w3.org/2000/svg" version="1.1">
 <metadata>
  <rdf:RDF xmlns:dc="http://purl.org/dc/elements/1.1/" xmlns:cc="http://creativecommons.org/ns#" xmlns:rdf="http://www.w3.org/1999/02/22-rdf-syntax-ns#">
   <cc:Work>
    <dc:type rdf:resource="http://purl.org/dc/dcmitype/StillImage"/>
    <dc:date>2023-04-17T20:16:08.056055</dc:date>
    <dc:format>image/svg+xml</dc:format>
    <dc:creator>
     <cc:Agent>
      <dc:title>Matplotlib v3.7.1, https://matplotlib.org/</dc:title>
     </cc:Agent>
    </dc:creator>
   </cc:Work>
  </rdf:RDF>
 </metadata>
 <defs>
  <style type="text/css">*{stroke-linejoin: round; stroke-linecap: butt}</style>
 </defs>
 <g id="figure_1">
  <g id="patch_1">
   <path d="M 0 216 
L 540 216 
L 540 0 
L 0 0 
z
" style="fill: #ffffff"/>
  </g>
  <g id="axes_1">
   <g id="patch_2">
    <path d="M 35.937331 190.9 
L 521.55 190.9 
L 521.55 10.8 
L 35.937331 10.8 
z
" style="fill: #ffffff"/>
   </g>
   <g id="PolyCollection_1">
    <path d="M 37.771867 190.934154 
L 37.771867 190.9 
L 43.275478 190.9 
L 48.779088 190.9 
L 54.282698 190.9 
L 59.786308 190.9 
L 65.289919 190.9 
L 70.793529 190.9 
L 76.297139 190.9 
L 81.800749 176.504631 
L 87.30436 133.318524 
L 92.80797 92.761548 
L 98.31158 57.462834 
L 103.81519 33.726751 
L 109.318801 33.115929 
L 114.822411 40.653436 
L 120.326021 64.487601 
L 125.829631 79.250556 
L 131.333242 75.871092 
L 136.836852 73.41213 
L 142.340462 72.794175 
L 147.844072 72.181238 
L 153.347683 71.578337 
L 158.851293 66.968358 
L 164.354903 54.344218 
L 169.858513 41.664129 
L 175.362124 28.872138 
L 180.865734 21.736687 
L 186.369344 25.914314 
L 191.872954 28.954487 
L 197.376565 29.719749 
L 202.880175 28.801771 
L 208.383785 24.51731 
L 213.887395 21.431864 
L 219.391006 20.74445 
L 224.894616 25.103886 
L 230.398226 39.557022 
L 235.901837 49.186491 
L 241.405447 49.168624 
L 246.909057 45.513223 
L 252.412667 34.582754 
L 257.916278 26.334002 
L 263.419888 23.448682 
L 268.923498 25.237128 
L 274.427108 36.373108 
L 279.930719 40.339756 
L 285.434329 29.96774 
L 290.937939 24.064265 
L 296.441549 27.09787 
L 301.94516 30.202405 
L 307.44877 33.448796 
L 312.95238 35.436813 
L 318.45599 34.908078 
L 323.959601 31.393096 
L 329.463211 21.905616 
L 334.966821 15.071104 
L 340.470431 13.542524 
L 345.974042 12.946663 
L 351.477652 14.216236 
L 356.981262 17.901415 
L 362.484872 26.417804 
L 367.988483 29.539237 
L 373.492093 21.870755 
L 378.995703 17.042186 
L 384.499313 17.893444 
L 390.002924 17.414911 
L 395.506534 14.276797 
L 401.010144 13.24587 
L 406.513754 16.429317 
L 412.017365 18.14708 
L 417.520975 16.933476 
L 423.024585 14.23568 
L 428.528195 8.569498 
L 434.031806 7.092204 
L 439.535416 13.992688 
L 445.039026 19.759831 
L 450.542636 23.260296 
L 456.046247 25.341067 
L 461.549857 24.58245 
L 467.053467 23.768621 
L 472.557077 22.844368 
L 478.060688 19.532351 
L 483.564298 11.444804 
L 489.067908 7.485407 
L 494.571518 11.782308 
L 500.075129 15.263219 
L 505.578739 17.112152 
L 511.082349 16.282706 
L 516.585959 10.096504 
L 522.08957 6.473665 
L 527.59318 7.977553 
L 533.09679 10.043501 
L 538.6004 13.233567 
L 544.104011 14.869983 
L 549.607621 13.399098 
L 555.111231 13.857698 
L 560.614841 18.175264 
L 566.118452 30.89254 
L 571.622062 60.409235 
L 577.125672 98.55586 
L 582.629282 153.962344 
L 582.629282 190.934154 
L 582.629282 190.934154 
L 577.125672 190.934154 
L 571.622062 190.934154 
L 566.118452 190.934154 
L 560.614841 190.934154 
L 555.111231 190.934154 
L 549.607621 190.934154 
L 544.104011 190.934154 
L 538.6004 190.934154 
L 533.09679 190.934154 
L 527.59318 190.934154 
L 522.08957 190.934154 
L 516.585959 190.934154 
L 511.082349 190.934154 
L 505.578739 190.934154 
L 500.075129 190.934154 
L 494.571518 190.934154 
L 489.067908 190.934154 
L 483.564298 190.934154 
L 478.060688 190.934154 
L 472.557077 190.934154 
L 467.053467 190.934154 
L 461.549857 190.934154 
L 456.046247 190.934154 
L 450.542636 190.934154 
L 445.039026 190.934154 
L 439.535416 190.934154 
L 434.031806 190.934154 
L 428.528195 190.934154 
L 423.024585 190.934154 
L 417.520975 190.934154 
L 412.017365 190.934154 
L 406.513754 190.934154 
L 401.010144 190.934154 
L 395.506534 190.934154 
L 390.002924 190.934154 
L 384.499313 190.934154 
L 378.995703 190.934154 
L 373.492093 190.934154 
L 367.988483 190.934154 
L 362.484872 190.934154 
L 356.981262 190.934154 
L 351.477652 190.934154 
L 345.974042 190.934154 
L 340.470431 190.934154 
L 334.966821 190.934154 
L 329.463211 190.934154 
L 323.959601 190.934154 
L 318.45599 190.934154 
L 312.95238 190.934154 
L 307.44877 190.934154 
L 301.94516 190.934154 
L 296.441549 190.934154 
L 290.937939 190.934154 
L 285.434329 190.934154 
L 279.930719 190.934154 
L 274.427108 190.934154 
L 268.923498 190.934154 
L 263.419888 190.934154 
L 257.916278 190.934154 
L 252.412667 190.934154 
L 246.909057 190.934154 
L 241.405447 190.934154 
L 235.901837 190.934154 
L 230.398226 190.934154 
L 224.894616 190.934154 
L 219.391006 190.934154 
L 213.887395 190.934154 
L 208.383785 190.934154 
L 202.880175 190.934154 
L 197.376565 190.934154 
L 191.872954 190.934154 
L 186.369344 190.934154 
L 180.865734 190.934154 
L 175.362124 190.934154 
L 169.858513 190.934154 
L 164.354903 190.934154 
L 158.851293 190.934154 
L 153.347683 190.934154 
L 147.844072 190.934154 
L 142.340462 190.934154 
L 136.836852 190.934154 
L 131.333242 190.934154 
L 125.829631 190.934154 
L 120.326021 190.934154 
L 114.822411 190.934154 
L 109.318801 190.934154 
L 103.81519 190.934154 
L 98.31158 190.934154 
L 92.80797 190.934154 
L 87.30436 190.934154 
L 81.800749 190.934154 
L 76.297139 190.934154 
L 70.793529 190.934154 
L 65.289919 190.934154 
L 59.786308 190.934154 
L 54.282698 190.934154 
L 48.779088 190.934154 
L 43.275478 190.934154 
L 37.771867 190.934154 
z
" clip-path="url(#p5fdc37e8fd)" style="fill: #808080; fill-opacity: 0.15"/>
   </g>
   <g id="matplotlib.axis_1">
    <g id="xtick_1">
     <g id="line2d_1">
      <defs>
       <path id="m0e64f999ff" d="M 0 0 
L 0 -3.5 
" style="stroke: #000000; stroke-width: 0.8"/>
      </defs>
      <g>
       <use xlink:href="#m0e64f999ff" x="35.937331" y="190.9" style="stroke: #000000; stroke-width: 0.8"/>
      </g>
     </g>
     <g id="text_1">
      <!-- 1 -->
      <g transform="translate(32.119831 203.518125) scale(0.12 -0.12)">
       <defs>
        <path id="DejaVuSans-31" d="M 794 531 
L 1825 531 
L 1825 4091 
L 703 3866 
L 703 4441 
L 1819 4666 
L 2450 4666 
L 2450 531 
L 3481 531 
L 3481 0 
L 794 0 
L 794 531 
z
" transform="scale(0.015625)"/>
       </defs>
       <use xlink:href="#DejaVuSans-31"/>
      </g>
     </g>
    </g>
    <g id="xtick_2">
     <g id="line2d_2">
      <g>
       <use xlink:href="#m0e64f999ff" x="89.894294" y="190.9" style="stroke: #000000; stroke-width: 0.8"/>
      </g>
     </g>
     <g id="text_2">
      <!-- 2 -->
      <g transform="translate(86.076794 203.518125) scale(0.12 -0.12)">
       <defs>
        <path id="DejaVuSans-32" d="M 1228 531 
L 3431 531 
L 3431 0 
L 469 0 
L 469 531 
Q 828 903 1448 1529 
Q 2069 2156 2228 2338 
Q 2531 2678 2651 2914 
Q 2772 3150 2772 3378 
Q 2772 3750 2511 3984 
Q 2250 4219 1831 4219 
Q 1534 4219 1204 4116 
Q 875 4013 500 3803 
L 500 4441 
Q 881 4594 1212 4672 
Q 1544 4750 1819 4750 
Q 2544 4750 2975 4387 
Q 3406 4025 3406 3419 
Q 3406 3131 3298 2873 
Q 3191 2616 2906 2266 
Q 2828 2175 2409 1742 
Q 1991 1309 1228 531 
z
" transform="scale(0.015625)"/>
       </defs>
       <use xlink:href="#DejaVuSans-32"/>
      </g>
     </g>
    </g>
    <g id="xtick_3">
     <g id="line2d_3">
      <g>
       <use xlink:href="#m0e64f999ff" x="143.851257" y="190.9" style="stroke: #000000; stroke-width: 0.8"/>
      </g>
     </g>
     <g id="text_3">
      <!-- 3 -->
      <g transform="translate(140.033757 203.518125) scale(0.12 -0.12)">
       <defs>
        <path id="DejaVuSans-33" d="M 2597 2516 
Q 3050 2419 3304 2112 
Q 3559 1806 3559 1356 
Q 3559 666 3084 287 
Q 2609 -91 1734 -91 
Q 1441 -91 1130 -33 
Q 819 25 488 141 
L 488 750 
Q 750 597 1062 519 
Q 1375 441 1716 441 
Q 2309 441 2620 675 
Q 2931 909 2931 1356 
Q 2931 1769 2642 2001 
Q 2353 2234 1838 2234 
L 1294 2234 
L 1294 2753 
L 1863 2753 
Q 2328 2753 2575 2939 
Q 2822 3125 2822 3475 
Q 2822 3834 2567 4026 
Q 2313 4219 1838 4219 
Q 1578 4219 1281 4162 
Q 984 4106 628 3988 
L 628 4550 
Q 988 4650 1302 4700 
Q 1616 4750 1894 4750 
Q 2613 4750 3031 4423 
Q 3450 4097 3450 3541 
Q 3450 3153 3228 2886 
Q 3006 2619 2597 2516 
z
" transform="scale(0.015625)"/>
       </defs>
       <use xlink:href="#DejaVuSans-33"/>
      </g>
     </g>
    </g>
    <g id="xtick_4">
     <g id="line2d_4">
      <g>
       <use xlink:href="#m0e64f999ff" x="197.80822" y="190.9" style="stroke: #000000; stroke-width: 0.8"/>
      </g>
     </g>
     <g id="text_4">
      <!-- 4 -->
      <g transform="translate(193.99072 203.518125) scale(0.12 -0.12)">
       <defs>
        <path id="DejaVuSans-34" d="M 2419 4116 
L 825 1625 
L 2419 1625 
L 2419 4116 
z
M 2253 4666 
L 3047 4666 
L 3047 1625 
L 3713 1625 
L 3713 1100 
L 3047 1100 
L 3047 0 
L 2419 0 
L 2419 1100 
L 313 1100 
L 313 1709 
L 2253 4666 
z
" transform="scale(0.015625)"/>
       </defs>
       <use xlink:href="#DejaVuSans-34"/>
      </g>
     </g>
    </g>
    <g id="xtick_5">
     <g id="line2d_5">
      <g>
       <use xlink:href="#m0e64f999ff" x="251.765184" y="190.9" style="stroke: #000000; stroke-width: 0.8"/>
      </g>
     </g>
     <g id="text_5">
      <!-- 5 -->
      <g transform="translate(247.947684 203.518125) scale(0.12 -0.12)">
       <defs>
        <path id="DejaVuSans-35" d="M 691 4666 
L 3169 4666 
L 3169 4134 
L 1269 4134 
L 1269 2991 
Q 1406 3038 1543 3061 
Q 1681 3084 1819 3084 
Q 2600 3084 3056 2656 
Q 3513 2228 3513 1497 
Q 3513 744 3044 326 
Q 2575 -91 1722 -91 
Q 1428 -91 1123 -41 
Q 819 9 494 109 
L 494 744 
Q 775 591 1075 516 
Q 1375 441 1709 441 
Q 2250 441 2565 725 
Q 2881 1009 2881 1497 
Q 2881 1984 2565 2268 
Q 2250 2553 1709 2553 
Q 1456 2553 1204 2497 
Q 953 2441 691 2322 
L 691 4666 
z
" transform="scale(0.015625)"/>
       </defs>
       <use xlink:href="#DejaVuSans-35"/>
      </g>
     </g>
    </g>
    <g id="xtick_6">
     <g id="line2d_6">
      <g>
       <use xlink:href="#m0e64f999ff" x="305.722147" y="190.9" style="stroke: #000000; stroke-width: 0.8"/>
      </g>
     </g>
     <g id="text_6">
      <!-- 6 -->
      <g transform="translate(301.904647 203.518125) scale(0.12 -0.12)">
       <defs>
        <path id="DejaVuSans-36" d="M 2113 2584 
Q 1688 2584 1439 2293 
Q 1191 2003 1191 1497 
Q 1191 994 1439 701 
Q 1688 409 2113 409 
Q 2538 409 2786 701 
Q 3034 994 3034 1497 
Q 3034 2003 2786 2293 
Q 2538 2584 2113 2584 
z
M 3366 4563 
L 3366 3988 
Q 3128 4100 2886 4159 
Q 2644 4219 2406 4219 
Q 1781 4219 1451 3797 
Q 1122 3375 1075 2522 
Q 1259 2794 1537 2939 
Q 1816 3084 2150 3084 
Q 2853 3084 3261 2657 
Q 3669 2231 3669 1497 
Q 3669 778 3244 343 
Q 2819 -91 2113 -91 
Q 1303 -91 875 529 
Q 447 1150 447 2328 
Q 447 3434 972 4092 
Q 1497 4750 2381 4750 
Q 2619 4750 2861 4703 
Q 3103 4656 3366 4563 
z
" transform="scale(0.015625)"/>
       </defs>
       <use xlink:href="#DejaVuSans-36"/>
      </g>
     </g>
    </g>
    <g id="xtick_7">
     <g id="line2d_7">
      <g>
       <use xlink:href="#m0e64f999ff" x="359.67911" y="190.9" style="stroke: #000000; stroke-width: 0.8"/>
      </g>
     </g>
     <g id="text_7">
      <!-- 7 -->
      <g transform="translate(355.86161 203.518125) scale(0.12 -0.12)">
       <defs>
        <path id="DejaVuSans-37" d="M 525 4666 
L 3525 4666 
L 3525 4397 
L 1831 0 
L 1172 0 
L 2766 4134 
L 525 4134 
L 525 4666 
z
" transform="scale(0.015625)"/>
       </defs>
       <use xlink:href="#DejaVuSans-37"/>
      </g>
     </g>
    </g>
    <g id="xtick_8">
     <g id="line2d_8">
      <g>
       <use xlink:href="#m0e64f999ff" x="413.636073" y="190.9" style="stroke: #000000; stroke-width: 0.8"/>
      </g>
     </g>
     <g id="text_8">
      <!-- 8 -->
      <g transform="translate(409.818573 203.518125) scale(0.12 -0.12)">
       <defs>
        <path id="DejaVuSans-38" d="M 2034 2216 
Q 1584 2216 1326 1975 
Q 1069 1734 1069 1313 
Q 1069 891 1326 650 
Q 1584 409 2034 409 
Q 2484 409 2743 651 
Q 3003 894 3003 1313 
Q 3003 1734 2745 1975 
Q 2488 2216 2034 2216 
z
M 1403 2484 
Q 997 2584 770 2862 
Q 544 3141 544 3541 
Q 544 4100 942 4425 
Q 1341 4750 2034 4750 
Q 2731 4750 3128 4425 
Q 3525 4100 3525 3541 
Q 3525 3141 3298 2862 
Q 3072 2584 2669 2484 
Q 3125 2378 3379 2068 
Q 3634 1759 3634 1313 
Q 3634 634 3220 271 
Q 2806 -91 2034 -91 
Q 1263 -91 848 271 
Q 434 634 434 1313 
Q 434 1759 690 2068 
Q 947 2378 1403 2484 
z
M 1172 3481 
Q 1172 3119 1398 2916 
Q 1625 2713 2034 2713 
Q 2441 2713 2670 2916 
Q 2900 3119 2900 3481 
Q 2900 3844 2670 4047 
Q 2441 4250 2034 4250 
Q 1625 4250 1398 4047 
Q 1172 3844 1172 3481 
z
" transform="scale(0.015625)"/>
       </defs>
       <use xlink:href="#DejaVuSans-38"/>
      </g>
     </g>
    </g>
    <g id="xtick_9">
     <g id="line2d_9">
      <g>
       <use xlink:href="#m0e64f999ff" x="467.593037" y="190.9" style="stroke: #000000; stroke-width: 0.8"/>
      </g>
     </g>
     <g id="text_9">
      <!-- 9 -->
      <g transform="translate(463.775537 203.518125) scale(0.12 -0.12)">
       <defs>
        <path id="DejaVuSans-39" d="M 703 97 
L 703 672 
Q 941 559 1184 500 
Q 1428 441 1663 441 
Q 2288 441 2617 861 
Q 2947 1281 2994 2138 
Q 2813 1869 2534 1725 
Q 2256 1581 1919 1581 
Q 1219 1581 811 2004 
Q 403 2428 403 3163 
Q 403 3881 828 4315 
Q 1253 4750 1959 4750 
Q 2769 4750 3195 4129 
Q 3622 3509 3622 2328 
Q 3622 1225 3098 567 
Q 2575 -91 1691 -91 
Q 1453 -91 1209 -44 
Q 966 3 703 97 
z
M 1959 2075 
Q 2384 2075 2632 2365 
Q 2881 2656 2881 3163 
Q 2881 3666 2632 3958 
Q 2384 4250 1959 4250 
Q 1534 4250 1286 3958 
Q 1038 3666 1038 3163 
Q 1038 2656 1286 2365 
Q 1534 2075 1959 2075 
z
" transform="scale(0.015625)"/>
       </defs>
       <use xlink:href="#DejaVuSans-39"/>
      </g>
     </g>
    </g>
    <g id="xtick_10">
     <g id="line2d_10">
      <g>
       <use xlink:href="#m0e64f999ff" x="521.55" y="190.9" style="stroke: #000000; stroke-width: 0.8"/>
      </g>
     </g>
     <g id="text_10">
      <!-- 10 -->
      <g transform="translate(513.915 203.518125) scale(0.12 -0.12)">
       <defs>
        <path id="DejaVuSans-30" d="M 2034 4250 
Q 1547 4250 1301 3770 
Q 1056 3291 1056 2328 
Q 1056 1369 1301 889 
Q 1547 409 2034 409 
Q 2525 409 2770 889 
Q 3016 1369 3016 2328 
Q 3016 3291 2770 3770 
Q 2525 4250 2034 4250 
z
M 2034 4750 
Q 2819 4750 3233 4129 
Q 3647 3509 3647 2328 
Q 3647 1150 3233 529 
Q 2819 -91 2034 -91 
Q 1250 -91 836 529 
Q 422 1150 422 2328 
Q 422 3509 836 4129 
Q 1250 4750 2034 4750 
z
" transform="scale(0.015625)"/>
       </defs>
       <use xlink:href="#DejaVuSans-31"/>
       <use xlink:href="#DejaVuSans-30" x="63.623047"/>
      </g>
     </g>
    </g>
   </g>
   <g id="matplotlib.axis_2">
    <g id="ytick_1">
     <g id="line2d_11">
      <defs>
       <path id="m7cbe7aeed8" d="M 0 0 
L 3.5 0 
" style="stroke: #000000; stroke-width: 0.8"/>
      </defs>
      <g>
       <use xlink:href="#m7cbe7aeed8" x="35.937331" y="190.9" style="stroke: #000000; stroke-width: 0.8"/>
      </g>
     </g>
     <g id="text_11">
      <!-- $10^{0}$ -->
      <g transform="translate(11.317331 195.459063) scale(0.12 -0.12)">
       <use xlink:href="#DejaVuSans-31" transform="translate(0 0.765625)"/>
       <use xlink:href="#DejaVuSans-30" transform="translate(63.623047 0.765625)"/>
       <use xlink:href="#DejaVuSans-30" transform="translate(128.203125 39.046875) scale(0.7)"/>
      </g>
     </g>
    </g>
    <g id="ytick_2">
     <g id="line2d_12">
      <g>
       <use xlink:href="#m7cbe7aeed8" x="35.937331" y="156.746161" style="stroke: #000000; stroke-width: 0.8"/>
      </g>
     </g>
     <g id="text_12">
      <!-- $10^{1}$ -->
      <g transform="translate(11.317331 161.305223) scale(0.12 -0.12)">
       <use xlink:href="#DejaVuSans-31" transform="translate(0 0.684375)"/>
       <use xlink:href="#DejaVuSans-30" transform="translate(63.623047 0.684375)"/>
       <use xlink:href="#DejaVuSans-31" transform="translate(128.203125 38.965625) scale(0.7)"/>
      </g>
     </g>
    </g>
    <g id="ytick_3">
     <g id="line2d_13">
      <g>
       <use xlink:href="#m7cbe7aeed8" x="35.937331" y="122.592322" style="stroke: #000000; stroke-width: 0.8"/>
      </g>
     </g>
     <g id="text_13">
      <!-- $10^{2}$ -->
      <g transform="translate(11.317331 127.151384) scale(0.12 -0.12)">
       <use xlink:href="#DejaVuSans-31" transform="translate(0 0.765625)"/>
       <use xlink:href="#DejaVuSans-30" transform="translate(63.623047 0.765625)"/>
       <use xlink:href="#DejaVuSans-32" transform="translate(128.203125 39.046875) scale(0.7)"/>
      </g>
     </g>
    </g>
    <g id="ytick_4">
     <g id="line2d_14">
      <g>
       <use xlink:href="#m7cbe7aeed8" x="35.937331" y="88.438483" style="stroke: #000000; stroke-width: 0.8"/>
      </g>
     </g>
     <g id="text_14">
      <!-- $10^{3}$ -->
      <g transform="translate(11.317331 92.997545) scale(0.12 -0.12)">
       <use xlink:href="#DejaVuSans-31" transform="translate(0 0.765625)"/>
       <use xlink:href="#DejaVuSans-30" transform="translate(63.623047 0.765625)"/>
       <use xlink:href="#DejaVuSans-33" transform="translate(128.203125 39.046875) scale(0.7)"/>
      </g>
     </g>
    </g>
    <g id="ytick_5">
     <g id="line2d_15">
      <g>
       <use xlink:href="#m7cbe7aeed8" x="35.937331" y="54.284644" style="stroke: #000000; stroke-width: 0.8"/>
      </g>
     </g>
     <g id="text_15">
      <!-- $10^{4}$ -->
      <g transform="translate(11.317331 58.843706) scale(0.12 -0.12)">
       <use xlink:href="#DejaVuSans-31" transform="translate(0 0.684375)"/>
       <use xlink:href="#DejaVuSans-30" transform="translate(63.623047 0.684375)"/>
       <use xlink:href="#DejaVuSans-34" transform="translate(128.203125 38.965625) scale(0.7)"/>
      </g>
     </g>
    </g>
    <g id="ytick_6">
     <g id="line2d_16">
      <g>
       <use xlink:href="#m7cbe7aeed8" x="35.937331" y="20.130804" style="stroke: #000000; stroke-width: 0.8"/>
      </g>
     </g>
     <g id="text_16">
      <!-- $10^{5}$ -->
      <g transform="translate(11.317331 24.689867) scale(0.12 -0.12)">
       <use xlink:href="#DejaVuSans-31" transform="translate(0 0.684375)"/>
       <use xlink:href="#DejaVuSans-30" transform="translate(63.623047 0.684375)"/>
       <use xlink:href="#DejaVuSans-35" transform="translate(128.203125 38.965625) scale(0.7)"/>
      </g>
     </g>
    </g>
   </g>
   <g id="line2d_17">
    <path d="M 37.771867 190.9 
L 43.275478 190.9 
L 48.779088 190.9 
L 54.282698 190.9 
L 59.786308 190.9 
L 65.289919 190.9 
L 70.793529 190.9 
L 76.297139 190.9 
L 81.800749 190.9 
L 87.30436 190.9 
L 92.80797 190.9 
L 98.31158 190.9 
L 103.81519 180.067028 
L 109.318801 147.568114 
L 114.822411 135.021587 
L 120.326021 162.379837 
L 125.829631 182.332225 
L 131.333242 187.47289 
L 136.836852 185.759335 
L 142.340462 170.33734 
L 147.844072 165.196675 
L 153.347683 180.61867 
L 158.851293 185.759335 
L 164.354903 170.33734 
L 169.858513 153.361338 
L 175.362124 133.277322 
L 180.865734 131.723315 
L 186.369344 167.229326 
L 191.872954 180.067028 
L 197.376565 147.568114 
L 202.880175 129.880922 
L 208.383785 141.817177 
L 213.887395 143.631649 
L 219.391006 125.202558 
L 224.894616 125.913748 
L 230.398226 164.905499 
L 235.901837 185.759335 
L 241.405447 170.33734 
L 246.909057 158.342455 
L 252.412667 153.20179 
L 257.916278 144.634015 
L 263.419888 129.21202 
L 268.923498 124.071355 
L 274.427108 139.49335 
L 279.930719 145.504752 
L 285.434329 132.69497 
L 290.937939 124.997933 
L 296.441549 127.526385 
L 301.94516 131.636764 
L 307.44877 138.910998 
L 312.95238 143.049298 
L 318.45599 140.915729 
L 323.959601 135.063874 
L 329.463211 121.775448 
L 334.966821 116.794331 
L 340.470431 128.427833 
L 345.974042 132.305667 
L 351.477652 120.672165 
L 356.981262 116.343607 
L 362.484872 126.624937 
L 367.988483 130.382155 
L 373.492093 121.091149 
L 378.995703 117.282957 
L 384.499313 124.440395 
L 390.002924 126.395182 
L 395.506534 117.944668 
L 401.010144 114.576188 
L 406.513754 121.371778 
L 412.017365 127.165002 
L 417.520975 130.953495 
L 423.024585 128.390539 
L 428.528195 113.124685 
L 434.031806 107.654985 
L 439.535416 121.777594 
L 445.039026 130.786488 
L 450.542636 129.567949 
L 456.046247 128.0444 
L 461.549857 125.910831 
L 467.053467 124.724072 
L 472.557077 125.430931 
L 478.060688 122.475061 
L 483.564298 112.193731 
L 489.067908 109.318262 
L 494.571518 121.254517 
L 500.075129 128.920844 
L 505.578739 128.047316 
L 511.082349 124.329031 
L 516.585959 114.921228 
L 522.08957 108.499487 
L 527.59318 108.04987 
L 533.09679 111.327108 
L 538.6004 122.058055 
L 541 123.949062 
" clip-path="url(#p5fdc37e8fd)" style="fill: none; stroke: #ff0000; stroke-opacity: 0.7; stroke-width: 2; stroke-linecap: square"/>
   </g>
   <g id="line2d_18">
    <path d="M 37.771867 190.9 
L 43.275478 190.9 
L 48.779088 190.9 
L 54.282698 190.9 
L 59.786308 190.9 
L 65.289919 190.9 
L 70.793529 190.9 
L 76.297139 190.9 
L 81.800749 190.9 
L 87.30436 190.9 
L 92.80797 190.9 
L 98.31158 190.9 
L 103.81519 167.396945 
L 109.318801 96.887779 
L 114.822411 60.073512 
L 120.326021 90.649045 
L 125.829631 109.252057 
L 131.333242 103.910029 
L 136.836852 100.137255 
L 142.340462 99.502987 
L 147.844072 99.000389 
L 153.347683 98.761129 
L 158.851293 98.412818 
L 164.354903 97.846404 
L 169.858513 88.469495 
L 175.362124 61.471594 
L 180.865734 52.133113 
L 186.369344 78.113475 
L 191.872954 87.725434 
L 197.376565 64.600592 
L 202.880175 54.072939 
L 208.383785 68.739665 
L 213.887395 71.844519 
L 219.391006 51.825632 
L 224.894616 44.875039 
L 230.398226 64.061037 
L 235.901837 76.771518 
L 241.405447 76.530965 
L 246.909057 76.242477 
L 252.412667 75.858121 
L 257.916278 70.026326 
L 263.419888 53.299652 
L 268.923498 47.524297 
L 274.427108 63.651581 
L 279.930719 69.714795 
L 285.434329 55.649868 
L 290.937939 49.08462 
L 296.441549 57.51873 
L 301.94516 63.035958 
L 307.44877 62.71942 
L 312.95238 62.4776 
L 318.45599 62.385214 
L 323.959601 58.039456 
L 329.463211 45.186951 
L 334.966821 40.697332 
L 340.470431 52.933485 
L 345.974042 56.982331 
L 351.477652 44.656564 
L 356.981262 40.399207 
L 362.484872 52.278671 
L 367.988483 56.594954 
L 373.492093 45.784875 
L 378.995703 41.363639 
L 384.499313 49.720092 
L 390.002924 51.928277 
L 395.506534 41.839926 
L 401.010144 38.293635 
L 406.513754 47.831464 
L 412.017365 54.213711 
L 417.520975 54.284795 
L 423.024585 49.729373 
L 428.528195 35.920939 
L 434.031806 31.181127 
L 439.535416 44.578558 
L 445.039026 53.316638 
L 450.542636 52.736015 
L 456.046247 52.133395 
L 461.549857 51.486781 
L 467.053467 50.994429 
L 472.557077 50.8106 
L 478.060688 47.146833 
L 483.564298 36.52319 
L 489.067908 32.868242 
L 494.571518 43.150684 
L 500.075129 49.970328 
L 505.578739 49.864377 
L 511.082349 47.061319 
L 516.585959 38.864047 
L 522.08957 33.397748 
L 527.59318 33.393395 
L 533.09679 35.957708 
L 538.6004 43.659351 
L 541 44.949893 
" clip-path="url(#p5fdc37e8fd)" style="fill: none; stroke: #4169e1; stroke-opacity: 0.7; stroke-width: 2; stroke-linecap: square"/>
   </g>
   <g id="line2d_19">
    <path d="M 37.771867 190.9 
L 43.275478 190.9 
L 48.779088 190.9 
L 54.282698 190.9 
L 59.786308 190.9 
L 65.289919 190.9 
L 70.793529 190.9 
L 76.297139 190.9 
L 81.800749 190.9 
L 87.30436 190.9 
L 92.80797 190.9 
L 98.31158 190.9 
L 103.81519 165.433381 
L 109.318801 89.033526 
L 114.822411 48.294181 
L 120.326021 78.875858 
L 125.829631 97.45945 
L 131.333242 92.046869 
L 136.836852 88.32258 
L 142.340462 87.974872 
L 147.844072 87.56121 
L 153.347683 87.01564 
L 158.851293 86.482535 
L 164.354903 85.974363 
L 169.858513 76.641247 
L 175.362124 49.658241 
L 180.865734 40.385496 
L 186.369344 66.533274 
L 191.872954 76.207402 
L 197.376565 52.934229 
L 202.880175 42.323077 
L 208.383785 57.035964 
L 213.887395 60.154807 
L 219.391006 40.085565 
L 224.894616 33.084228 
L 230.398226 52.2187 
L 235.901837 64.871496 
L 241.405447 64.560941 
L 246.909057 64.299908 
L 252.412667 64.137921 
L 257.916278 58.415913 
L 263.419888 41.573864 
L 268.923498 35.740932 
L 274.427108 51.926232 
L 279.930719 58.01226 
L 285.434329 43.899743 
L 290.937939 37.300307 
L 296.441549 45.727035 
L 301.94516 51.276067 
L 307.44877 51.069709 
L 312.95238 50.849906 
L 318.45599 50.603213 
L 323.959601 46.164893 
L 329.463211 33.343319 
L 334.966821 28.915642 
L 340.470431 41.275759 
L 345.974042 45.36752 
L 351.477652 32.922569 
L 356.981262 28.622693 
L 362.484872 40.612968 
L 367.988483 44.963202 
L 373.492093 34.033358 
L 378.995703 29.543096 
L 384.499313 37.932002 
L 390.002924 40.152192 
L 395.506534 30.034952 
L 401.010144 26.542926 
L 406.513754 36.301328 
L 412.017365 42.724397 
L 417.520975 42.476802 
L 423.024585 37.750413 
L 428.528195 24.066436 
L 434.031806 19.37619 
L 439.535416 32.673405 
L 445.039026 41.423467 
L 450.542636 41.079227 
L 456.046247 40.584834 
L 461.549857 39.790138 
L 467.053467 39.206349 
L 472.557077 39.044375 
L 478.060688 35.388432 
L 483.564298 24.744552 
L 489.067908 21.086639 
L 494.571518 31.400664 
L 500.075129 38.223486 
L 505.578739 38.063901 
L 511.082349 35.238961 
L 516.585959 27.08331 
L 522.08957 21.62766 
L 527.59318 21.572013 
L 533.09679 24.13199 
L 538.6004 31.923217 
L 541 33.232887 
" clip-path="url(#p5fdc37e8fd)" style="fill: none; stroke: #ffa500; stroke-opacity: 0.7; stroke-width: 2; stroke-linecap: square"/>
   </g>
   <g id="line2d_20">
    <path d="M 37.771867 190.9 
L 43.275478 190.9 
L 48.779088 190.9 
L 54.282698 190.9 
L 59.786308 190.9 
L 65.289919 190.9 
L 70.793529 190.9 
L 76.297139 190.9 
L 81.800749 176.504631 
L 87.30436 133.318524 
L 92.80797 92.761548 
L 98.31158 57.462834 
L 103.81519 33.726751 
L 109.318801 33.115929 
L 114.822411 40.653436 
L 120.326021 64.487601 
L 125.829631 79.250556 
L 131.333242 75.871092 
L 136.836852 73.41213 
L 142.340462 72.794175 
L 147.844072 72.181238 
L 153.347683 71.578337 
L 158.851293 66.968358 
L 164.354903 54.344218 
L 169.858513 41.664129 
L 175.362124 28.872138 
L 180.865734 21.736687 
L 186.369344 25.914314 
L 191.872954 28.954487 
L 197.376565 29.719749 
L 202.880175 28.801771 
L 208.383785 24.51731 
L 213.887395 21.431864 
L 219.391006 20.74445 
L 224.894616 25.103886 
L 230.398226 39.557022 
L 235.901837 49.186491 
L 241.405447 49.168624 
L 246.909057 45.513223 
L 252.412667 34.582754 
L 257.916278 26.334002 
L 263.419888 23.448682 
L 268.923498 25.237128 
L 274.427108 36.373108 
L 279.930719 40.339756 
L 285.434329 29.96774 
L 290.937939 24.064265 
L 296.441549 27.09787 
L 301.94516 30.202405 
L 307.44877 33.448796 
L 312.95238 35.436813 
L 318.45599 34.908078 
L 323.959601 31.393096 
L 329.463211 21.905616 
L 334.966821 15.071104 
L 340.470431 13.542524 
L 345.974042 12.946663 
L 351.477652 14.216236 
L 356.981262 17.901415 
L 362.484872 26.417804 
L 367.988483 29.539237 
L 373.492093 21.870755 
L 378.995703 17.042186 
L 384.499313 17.893444 
L 390.002924 17.414911 
L 395.506534 14.276797 
L 401.010144 13.24587 
L 406.513754 16.429317 
L 412.017365 18.14708 
L 417.520975 16.933476 
L 423.024585 14.23568 
L 428.528195 8.569498 
L 434.031806 7.092204 
L 439.535416 13.992688 
L 445.039026 19.759831 
L 450.542636 23.260296 
L 456.046247 25.341067 
L 461.549857 24.58245 
L 467.053467 23.768621 
L 472.557077 22.844368 
L 478.060688 19.532351 
L 483.564298 11.444804 
L 489.067908 7.485407 
L 494.571518 11.782308 
L 500.075129 15.263219 
L 505.578739 17.112152 
L 511.082349 16.282706 
L 516.585959 10.096504 
L 522.08957 6.473665 
L 527.59318 7.977553 
L 533.09679 10.043501 
L 538.6004 13.233567 
L 541 13.947052 
" clip-path="url(#p5fdc37e8fd)" style="fill: none; stroke: #808080; stroke-opacity: 0.7; stroke-width: 2; stroke-linecap: square"/>
   </g>
   <g id="patch_3">
    <path d="M 35.937331 190.9 
L 35.937331 10.8 
" style="fill: none; stroke: #000000; stroke-width: 0.8; stroke-linejoin: miter; stroke-linecap: square"/>
   </g>
   <g id="patch_4">
    <path d="M 521.55 190.9 
L 521.55 10.8 
" style="fill: none; stroke: #000000; stroke-width: 0.8; stroke-linejoin: miter; stroke-linecap: square"/>
   </g>
   <g id="patch_5">
    <path d="M 35.937331 190.9 
L 521.55 190.9 
" style="fill: none; stroke: #000000; stroke-width: 0.8; stroke-linejoin: miter; stroke-linecap: square"/>
   </g>
   <g id="patch_6">
    <path d="M 35.937331 10.8 
L 521.55 10.8 
" style="fill: none; stroke: #000000; stroke-width: 0.8; stroke-linejoin: miter; stroke-linecap: square"/>
   </g>
   <g id="legend_1">
    <g id="patch_7">
     <path d="M 304.35 184.9 
L 513.15 184.9 
Q 515.55 184.9 515.55 182.5 
L 515.55 113.245 
Q 515.55 110.845 513.15 110.845 
L 304.35 110.845 
Q 301.95 110.845 301.95 113.245 
L 301.95 182.5 
Q 301.95 184.9 304.35 184.9 
z
" style="fill: #ffffff; opacity: 0.8; stroke: #cccccc; stroke-linejoin: miter"/>
    </g>
    <g id="line2d_21">
     <path d="M 306.75 120.563125 
L 318.75 120.563125 
L 330.75 120.563125 
" style="fill: none; stroke: #808080; stroke-width: 1.5; stroke-linecap: square"/>
    </g>
    <g id="text_17">
     <!-- dataset -->
     <g transform="translate(340.35 124.763125) scale(0.12 -0.12)">
      <defs>
       <path id="DejaVuSans-64" d="M 2906 2969 
L 2906 4863 
L 3481 4863 
L 3481 0 
L 2906 0 
L 2906 525 
Q 2725 213 2448 61 
Q 2172 -91 1784 -91 
Q 1150 -91 751 415 
Q 353 922 353 1747 
Q 353 2572 751 3078 
Q 1150 3584 1784 3584 
Q 2172 3584 2448 3432 
Q 2725 3281 2906 2969 
z
M 947 1747 
Q 947 1113 1208 752 
Q 1469 391 1925 391 
Q 2381 391 2643 752 
Q 2906 1113 2906 1747 
Q 2906 2381 2643 2742 
Q 2381 3103 1925 3103 
Q 1469 3103 1208 2742 
Q 947 2381 947 1747 
z
" transform="scale(0.015625)"/>
       <path id="DejaVuSans-61" d="M 2194 1759 
Q 1497 1759 1228 1600 
Q 959 1441 959 1056 
Q 959 750 1161 570 
Q 1363 391 1709 391 
Q 2188 391 2477 730 
Q 2766 1069 2766 1631 
L 2766 1759 
L 2194 1759 
z
M 3341 1997 
L 3341 0 
L 2766 0 
L 2766 531 
Q 2569 213 2275 61 
Q 1981 -91 1556 -91 
Q 1019 -91 701 211 
Q 384 513 384 1019 
Q 384 1609 779 1909 
Q 1175 2209 1959 2209 
L 2766 2209 
L 2766 2266 
Q 2766 2663 2505 2880 
Q 2244 3097 1772 3097 
Q 1472 3097 1187 3025 
Q 903 2953 641 2809 
L 641 3341 
Q 956 3463 1253 3523 
Q 1550 3584 1831 3584 
Q 2591 3584 2966 3190 
Q 3341 2797 3341 1997 
z
" transform="scale(0.015625)"/>
       <path id="DejaVuSans-74" d="M 1172 4494 
L 1172 3500 
L 2356 3500 
L 2356 3053 
L 1172 3053 
L 1172 1153 
Q 1172 725 1289 603 
Q 1406 481 1766 481 
L 2356 481 
L 2356 0 
L 1766 0 
Q 1100 0 847 248 
Q 594 497 594 1153 
L 594 3053 
L 172 3053 
L 172 3500 
L 594 3500 
L 594 4494 
L 1172 4494 
z
" transform="scale(0.015625)"/>
       <path id="DejaVuSans-73" d="M 2834 3397 
L 2834 2853 
Q 2591 2978 2328 3040 
Q 2066 3103 1784 3103 
Q 1356 3103 1142 2972 
Q 928 2841 928 2578 
Q 928 2378 1081 2264 
Q 1234 2150 1697 2047 
L 1894 2003 
Q 2506 1872 2764 1633 
Q 3022 1394 3022 966 
Q 3022 478 2636 193 
Q 2250 -91 1575 -91 
Q 1294 -91 989 -36 
Q 684 19 347 128 
L 347 722 
Q 666 556 975 473 
Q 1284 391 1588 391 
Q 1994 391 2212 530 
Q 2431 669 2431 922 
Q 2431 1156 2273 1281 
Q 2116 1406 1581 1522 
L 1381 1569 
Q 847 1681 609 1914 
Q 372 2147 372 2553 
Q 372 3047 722 3315 
Q 1072 3584 1716 3584 
Q 2034 3584 2315 3537 
Q 2597 3491 2834 3397 
z
" transform="scale(0.015625)"/>
       <path id="DejaVuSans-65" d="M 3597 1894 
L 3597 1613 
L 953 1613 
Q 991 1019 1311 708 
Q 1631 397 2203 397 
Q 2534 397 2845 478 
Q 3156 559 3463 722 
L 3463 178 
Q 3153 47 2828 -22 
Q 2503 -91 2169 -91 
Q 1331 -91 842 396 
Q 353 884 353 1716 
Q 353 2575 817 3079 
Q 1281 3584 2069 3584 
Q 2775 3584 3186 3129 
Q 3597 2675 3597 1894 
z
M 3022 2063 
Q 3016 2534 2758 2815 
Q 2500 3097 2075 3097 
Q 1594 3097 1305 2825 
Q 1016 2553 972 2059 
L 3022 2063 
z
" transform="scale(0.015625)"/>
      </defs>
      <use xlink:href="#DejaVuSans-64"/>
      <use xlink:href="#DejaVuSans-61" x="63.476562"/>
      <use xlink:href="#DejaVuSans-74" x="124.755859"/>
      <use xlink:href="#DejaVuSans-61" x="163.964844"/>
      <use xlink:href="#DejaVuSans-73" x="225.244141"/>
      <use xlink:href="#DejaVuSans-65" x="277.34375"/>
      <use xlink:href="#DejaVuSans-74" x="338.867188"/>
     </g>
    </g>
    <g id="line2d_22">
     <path d="M 306.75 138.176875 
L 318.75 138.176875 
L 330.75 138.176875 
" style="fill: none; stroke: #ff0000; stroke-width: 1.5; stroke-linecap: square"/>
    </g>
    <g id="text_18">
     <!-- 36.87$^\circ$ (2-1, 30 atoms) -->
     <g transform="translate(340.35 142.376875) scale(0.12 -0.12)">
      <defs>
       <path id="DejaVuSans-2e" d="M 684 794 
L 1344 794 
L 1344 0 
L 684 0 
L 684 794 
z
" transform="scale(0.015625)"/>
       <path id="DejaVuSans-2218" d="M 2003 2603 
Q 1753 2603 1581 2429 
Q 1409 2256 1409 2006 
Q 1409 1759 1581 1589 
Q 1753 1419 2003 1419 
Q 2253 1419 2425 1589 
Q 2597 1759 2597 2006 
Q 2597 2253 2423 2428 
Q 2250 2603 2003 2603 
z
M 2003 3006 
Q 2203 3006 2387 2929 
Q 2572 2853 2706 2709 
Q 2850 2569 2922 2390 
Q 2994 2212 2994 2006 
Q 2994 1594 2705 1308 
Q 2416 1022 1997 1022 
Q 1575 1022 1294 1303 
Q 1013 1584 1013 2006 
Q 1013 2425 1300 2715 
Q 1588 3006 2003 3006 
z
" transform="scale(0.015625)"/>
       <path id="DejaVuSans-20" transform="scale(0.015625)"/>
       <path id="DejaVuSans-28" d="M 1984 4856 
Q 1566 4138 1362 3434 
Q 1159 2731 1159 2009 
Q 1159 1288 1364 580 
Q 1569 -128 1984 -844 
L 1484 -844 
Q 1016 -109 783 600 
Q 550 1309 550 2009 
Q 550 2706 781 3412 
Q 1013 4119 1484 4856 
L 1984 4856 
z
" transform="scale(0.015625)"/>
       <path id="DejaVuSans-2d" d="M 313 2009 
L 1997 2009 
L 1997 1497 
L 313 1497 
L 313 2009 
z
" transform="scale(0.015625)"/>
       <path id="DejaVuSans-2c" d="M 750 794 
L 1409 794 
L 1409 256 
L 897 -744 
L 494 -744 
L 750 256 
L 750 794 
z
" transform="scale(0.015625)"/>
       <path id="DejaVuSans-6f" d="M 1959 3097 
Q 1497 3097 1228 2736 
Q 959 2375 959 1747 
Q 959 1119 1226 758 
Q 1494 397 1959 397 
Q 2419 397 2687 759 
Q 2956 1122 2956 1747 
Q 2956 2369 2687 2733 
Q 2419 3097 1959 3097 
z
M 1959 3584 
Q 2709 3584 3137 3096 
Q 3566 2609 3566 1747 
Q 3566 888 3137 398 
Q 2709 -91 1959 -91 
Q 1206 -91 779 398 
Q 353 888 353 1747 
Q 353 2609 779 3096 
Q 1206 3584 1959 3584 
z
" transform="scale(0.015625)"/>
       <path id="DejaVuSans-6d" d="M 3328 2828 
Q 3544 3216 3844 3400 
Q 4144 3584 4550 3584 
Q 5097 3584 5394 3201 
Q 5691 2819 5691 2113 
L 5691 0 
L 5113 0 
L 5113 2094 
Q 5113 2597 4934 2840 
Q 4756 3084 4391 3084 
Q 3944 3084 3684 2787 
Q 3425 2491 3425 1978 
L 3425 0 
L 2847 0 
L 2847 2094 
Q 2847 2600 2669 2842 
Q 2491 3084 2119 3084 
Q 1678 3084 1418 2786 
Q 1159 2488 1159 1978 
L 1159 0 
L 581 0 
L 581 3500 
L 1159 3500 
L 1159 2956 
Q 1356 3278 1631 3431 
Q 1906 3584 2284 3584 
Q 2666 3584 2933 3390 
Q 3200 3197 3328 2828 
z
" transform="scale(0.015625)"/>
       <path id="DejaVuSans-29" d="M 513 4856 
L 1013 4856 
Q 1481 4119 1714 3412 
Q 1947 2706 1947 2009 
Q 1947 1309 1714 600 
Q 1481 -109 1013 -844 
L 513 -844 
Q 928 -128 1133 580 
Q 1338 1288 1338 2009 
Q 1338 2731 1133 3434 
Q 928 4138 513 4856 
z
" transform="scale(0.015625)"/>
      </defs>
      <use xlink:href="#DejaVuSans-33" transform="translate(0 0.125)"/>
      <use xlink:href="#DejaVuSans-36" transform="translate(63.623047 0.125)"/>
      <use xlink:href="#DejaVuSans-2e" transform="translate(127.246094 0.125)"/>
      <use xlink:href="#DejaVuSans-38" transform="translate(156.408203 0.125)"/>
      <use xlink:href="#DejaVuSans-37" transform="translate(220.03125 0.125)"/>
      <use xlink:href="#DejaVuSans-2218" transform="translate(298.249023 38.40625) scale(0.7)"/>
      <use xlink:href="#DejaVuSans-20" transform="translate(358.439453 0.125)"/>
      <use xlink:href="#DejaVuSans-28" transform="translate(390.226562 0.125)"/>
      <use xlink:href="#DejaVuSans-32" transform="translate(429.240234 0.125)"/>
      <use xlink:href="#DejaVuSans-2d" transform="translate(492.863281 0.125)"/>
      <use xlink:href="#DejaVuSans-31" transform="translate(528.947266 0.125)"/>
      <use xlink:href="#DejaVuSans-2c" transform="translate(592.570312 0.125)"/>
      <use xlink:href="#DejaVuSans-20" transform="translate(624.357422 0.125)"/>
      <use xlink:href="#DejaVuSans-33" transform="translate(656.144531 0.125)"/>
      <use xlink:href="#DejaVuSans-30" transform="translate(719.767578 0.125)"/>
      <use xlink:href="#DejaVuSans-20" transform="translate(783.390625 0.125)"/>
      <use xlink:href="#DejaVuSans-61" transform="translate(815.177734 0.125)"/>
      <use xlink:href="#DejaVuSans-74" transform="translate(876.457031 0.125)"/>
      <use xlink:href="#DejaVuSans-6f" transform="translate(915.666016 0.125)"/>
      <use xlink:href="#DejaVuSans-6d" transform="translate(976.847656 0.125)"/>
      <use xlink:href="#DejaVuSans-73" transform="translate(1074.259766 0.125)"/>
      <use xlink:href="#DejaVuSans-29" transform="translate(1126.359375 0.125)"/>
     </g>
    </g>
    <g id="line2d_23">
     <path d="M 306.75 155.790625 
L 318.75 155.790625 
L 330.75 155.790625 
" style="fill: none; stroke: #4169e1; stroke-width: 1.5; stroke-linecap: square"/>
    </g>
    <g id="text_19">
     <!-- 2.79$^\circ$ (21-20, 5046 atoms) -->
     <g transform="translate(340.35 159.990625) scale(0.12 -0.12)">
      <use xlink:href="#DejaVuSans-32" transform="translate(0 0.125)"/>
      <use xlink:href="#DejaVuSans-2e" transform="translate(63.623047 0.125)"/>
      <use xlink:href="#DejaVuSans-37" transform="translate(87.660156 0.125)"/>
      <use xlink:href="#DejaVuSans-39" transform="translate(151.283203 0.125)"/>
      <use xlink:href="#DejaVuSans-2218" transform="translate(229.500977 38.40625) scale(0.7)"/>
      <use xlink:href="#DejaVuSans-20" transform="translate(289.691406 0.125)"/>
      <use xlink:href="#DejaVuSans-28" transform="translate(321.478516 0.125)"/>
      <use xlink:href="#DejaVuSans-32" transform="translate(360.492188 0.125)"/>
      <use xlink:href="#DejaVuSans-31" transform="translate(424.115234 0.125)"/>
      <use xlink:href="#DejaVuSans-2d" transform="translate(487.738281 0.125)"/>
      <use xlink:href="#DejaVuSans-32" transform="translate(523.822266 0.125)"/>
      <use xlink:href="#DejaVuSans-30" transform="translate(587.445312 0.125)"/>
      <use xlink:href="#DejaVuSans-2c" transform="translate(651.068359 0.125)"/>
      <use xlink:href="#DejaVuSans-20" transform="translate(682.855469 0.125)"/>
      <use xlink:href="#DejaVuSans-35" transform="translate(714.642578 0.125)"/>
      <use xlink:href="#DejaVuSans-30" transform="translate(778.265625 0.125)"/>
      <use xlink:href="#DejaVuSans-34" transform="translate(841.888672 0.125)"/>
      <use xlink:href="#DejaVuSans-36" transform="translate(905.511719 0.125)"/>
      <use xlink:href="#DejaVuSans-20" transform="translate(969.134766 0.125)"/>
      <use xlink:href="#DejaVuSans-61" transform="translate(1000.921875 0.125)"/>
      <use xlink:href="#DejaVuSans-74" transform="translate(1062.201172 0.125)"/>
      <use xlink:href="#DejaVuSans-6f" transform="translate(1101.410156 0.125)"/>
      <use xlink:href="#DejaVuSans-6d" transform="translate(1162.591797 0.125)"/>
      <use xlink:href="#DejaVuSans-73" transform="translate(1260.003906 0.125)"/>
      <use xlink:href="#DejaVuSans-29" transform="translate(1312.103516 0.125)"/>
     </g>
    </g>
    <g id="line2d_24">
     <path d="M 306.75 173.404375 
L 318.75 173.404375 
L 330.75 173.404375 
" style="fill: none; stroke: #ffa500; stroke-width: 1.5; stroke-linecap: square"/>
    </g>
    <g id="text_20">
     <!-- 1.88$^\circ$ (31-30, 11166 atoms) -->
     <g transform="translate(340.35 177.604375) scale(0.12 -0.12)">
      <use xlink:href="#DejaVuSans-31" transform="translate(0 0.125)"/>
      <use xlink:href="#DejaVuSans-2e" transform="translate(63.623047 0.125)"/>
      <use xlink:href="#DejaVuSans-38" transform="translate(92.785156 0.125)"/>
      <use xlink:href="#DejaVuSans-38" transform="translate(156.408203 0.125)"/>
      <use xlink:href="#DejaVuSans-2218" transform="translate(234.625977 38.40625) scale(0.7)"/>
      <use xlink:href="#DejaVuSans-20" transform="translate(294.816406 0.125)"/>
      <use xlink:href="#DejaVuSans-28" transform="translate(326.603516 0.125)"/>
      <use xlink:href="#DejaVuSans-33" transform="translate(365.617188 0.125)"/>
      <use xlink:href="#DejaVuSans-31" transform="translate(429.240234 0.125)"/>
      <use xlink:href="#DejaVuSans-2d" transform="translate(492.863281 0.125)"/>
      <use xlink:href="#DejaVuSans-33" transform="translate(528.947266 0.125)"/>
      <use xlink:href="#DejaVuSans-30" transform="translate(592.570312 0.125)"/>
      <use xlink:href="#DejaVuSans-2c" transform="translate(656.193359 0.125)"/>
      <use xlink:href="#DejaVuSans-20" transform="translate(687.980469 0.125)"/>
      <use xlink:href="#DejaVuSans-31" transform="translate(719.767578 0.125)"/>
      <use xlink:href="#DejaVuSans-31" transform="translate(783.390625 0.125)"/>
      <use xlink:href="#DejaVuSans-31" transform="translate(847.013672 0.125)"/>
      <use xlink:href="#DejaVuSans-36" transform="translate(910.636719 0.125)"/>
      <use xlink:href="#DejaVuSans-36" transform="translate(974.259766 0.125)"/>
      <use xlink:href="#DejaVuSans-20" transform="translate(1037.882812 0.125)"/>
      <use xlink:href="#DejaVuSans-61" transform="translate(1069.669922 0.125)"/>
      <use xlink:href="#DejaVuSans-74" transform="translate(1130.949219 0.125)"/>
      <use xlink:href="#DejaVuSans-6f" transform="translate(1170.158203 0.125)"/>
      <use xlink:href="#DejaVuSans-6d" transform="translate(1231.339844 0.125)"/>
      <use xlink:href="#DejaVuSans-73" transform="translate(1328.751953 0.125)"/>
      <use xlink:href="#DejaVuSans-29" transform="translate(1380.851562 0.125)"/>
     </g>
    </g>
   </g>
  </g>
 </g>
 <defs>
  <clipPath id="p5fdc37e8fd">
   <rect x="35.937331" y="10.8" width="485.612669" height="180.1"/>
  </clipPath>
 </defs>
</svg>
