<?xml version="1.0" encoding="utf-8" standalone="no"?>
<!DOCTYPE svg PUBLIC "-//W3C//DTD SVG 1.1//EN"
  "http://www.w3.org/Graphics/SVG/1.1/DTD/svg11.dtd">
<svg xmlns:xlink="http://www.w3.org/1999/xlink" width="720pt" height="288pt" viewBox="0 0 720 288" xmlns="http://www.w3.org/2000/svg" version="1.1">
 <metadata>
  <rdf:RDF xmlns:dc="http://purl.org/dc/elements/1.1/" xmlns:cc="http://creativecommons.org/ns#" xmlns:rdf="http://www.w3.org/1999/02/22-rdf-syntax-ns#">
   <cc:Work>
    <dc:type rdf:resource="http://purl.org/dc/dcmitype/StillImage"/>
    <dc:date>2023-03-24T23:35:53.339470</dc:date>
    <dc:format>image/svg+xml</dc:format>
    <dc:creator>
     <cc:Agent>
      <dc:title>Matplotlib v3.7.1, https://matplotlib.org/</dc:title>
     </cc:Agent>
    </dc:creator>
   </cc:Work>
  </rdf:RDF>
 </metadata>
 <defs>
  <style type="text/css">*{stroke-linejoin: round; stroke-linecap: butt}</style>
 </defs>
 <g id="figure_1">
  <g id="patch_1">
   <path d="M 0 288 
L 720 288 
L 720 0 
L 0 0 
z
" style="fill: #ffffff"/>
  </g>
  <g id="axes_1">
   <g id="patch_2">
    <path d="M 35.937331 262.9 
L 701.55 262.9 
L 701.55 10.8 
L 35.937331 10.8 
z
" style="fill: #ffffff"/>
   </g>
   <g id="PolyCollection_1">
    <path d="M 38.451867 262.94451 
L 38.451867 262.9 
L 45.995478 262.9 
L 53.539088 262.9 
L 61.082698 262.9 
L 68.626308 262.9 
L 76.169919 262.9 
L 83.713529 262.9 
L 91.257139 262.9 
L 98.800749 251.538896 
L 106.34436 217.455583 
L 113.88797 172.718749 
L 121.43158 106.674874 
L 128.97519 59.310801 
L 136.518801 49.306336 
L 144.062411 52.568291 
L 151.606021 82.363085 
L 159.149631 101.015252 
L 166.693242 97.382165 
L 174.236852 88.615968 
L 181.780462 69.583549 
L 189.324072 52.826462 
L 196.867683 40.620037 
L 204.411293 38.284824 
L 211.954903 55.692039 
L 219.498513 72.467307 
L 227.042124 87.978682 
L 234.585734 93.964758 
L 242.129344 80.90024 
L 249.672954 66.815753 
L 257.216565 50.691328 
L 264.760175 43.40653 
L 272.303785 53.800986 
L 279.847395 56.931908 
L 287.391006 45.535764 
L 294.934616 41.790759 
L 302.478226 53.348033 
L 310.021837 62.681511 
L 317.565447 67.567401 
L 325.109057 66.183892 
L 332.652667 52.261586 
L 340.196278 40.352918 
L 347.739888 32.471526 
L 355.283498 31.305853 
L 362.827108 43.571616 
L 370.370719 48.18901 
L 377.914329 37.509663 
L 385.457939 34.169521 
L 393.001549 45.507788 
L 400.54516 53.194546 
L 408.08877 53.578285 
L 415.63238 52.250698 
L 423.17599 47.50046 
L 430.719601 40.555034 
L 438.263211 29.219234 
L 445.806821 23.921842 
L 453.350431 30.701269 
L 460.894042 34.319622 
L 468.437652 31.615826 
L 475.981262 28.930332 
L 483.524872 26.281442 
L 491.068483 25.862478 
L 498.612093 29.903364 
L 506.155703 34.407886 
L 513.699313 39.839677 
L 521.242924 41.101831 
L 528.786534 34.024713 
L 536.330144 30.655334 
L 543.873754 34.701437 
L 551.417365 38.18812 
L 558.960975 40.555964 
L 566.504585 39.418898 
L 574.048195 31.272012 
L 581.591806 24.93798 
L 589.135416 22.229657 
L 596.679026 19.410963 
L 604.222636 16.371528 
L 611.766247 17.765939 
L 619.309857 28.028042 
L 626.853467 33.175103 
L 634.397077 28.092078 
L 641.940688 24.323394 
L 649.484298 23.183389 
L 657.027908 23.464554 
L 664.571518 26.588057 
L 672.115129 28.657598 
L 679.658739 28.619217 
L 687.202349 26.798255 
L 694.745959 21.41213 
L 702.28957 17.876336 
L 709.83318 18.0412 
L 717.37679 18.443709 
L 724.9204 19.321506 
L 732.464011 20.930305 
L 740.007621 24.001106 
L 747.551231 24.740211 
L 755.094841 20.815922 
L 762.638452 32.459266 
L 770.182062 75.237874 
L 777.725672 130.280788 
L 785.269282 209.852315 
L 785.269282 262.94451 
L 785.269282 262.94451 
L 777.725672 262.94451 
L 770.182062 262.94451 
L 762.638452 262.94451 
L 755.094841 262.94451 
L 747.551231 262.94451 
L 740.007621 262.94451 
L 732.464011 262.94451 
L 724.9204 262.94451 
L 717.37679 262.94451 
L 709.83318 262.94451 
L 702.28957 262.94451 
L 694.745959 262.94451 
L 687.202349 262.94451 
L 679.658739 262.94451 
L 672.115129 262.94451 
L 664.571518 262.94451 
L 657.027908 262.94451 
L 649.484298 262.94451 
L 641.940688 262.94451 
L 634.397077 262.94451 
L 626.853467 262.94451 
L 619.309857 262.94451 
L 611.766247 262.94451 
L 604.222636 262.94451 
L 596.679026 262.94451 
L 589.135416 262.94451 
L 581.591806 262.94451 
L 574.048195 262.94451 
L 566.504585 262.94451 
L 558.960975 262.94451 
L 551.417365 262.94451 
L 543.873754 262.94451 
L 536.330144 262.94451 
L 528.786534 262.94451 
L 521.242924 262.94451 
L 513.699313 262.94451 
L 506.155703 262.94451 
L 498.612093 262.94451 
L 491.068483 262.94451 
L 483.524872 262.94451 
L 475.981262 262.94451 
L 468.437652 262.94451 
L 460.894042 262.94451 
L 453.350431 262.94451 
L 445.806821 262.94451 
L 438.263211 262.94451 
L 430.719601 262.94451 
L 423.17599 262.94451 
L 415.63238 262.94451 
L 408.08877 262.94451 
L 400.54516 262.94451 
L 393.001549 262.94451 
L 385.457939 262.94451 
L 377.914329 262.94451 
L 370.370719 262.94451 
L 362.827108 262.94451 
L 355.283498 262.94451 
L 347.739888 262.94451 
L 340.196278 262.94451 
L 332.652667 262.94451 
L 325.109057 262.94451 
L 317.565447 262.94451 
L 310.021837 262.94451 
L 302.478226 262.94451 
L 294.934616 262.94451 
L 287.391006 262.94451 
L 279.847395 262.94451 
L 272.303785 262.94451 
L 264.760175 262.94451 
L 257.216565 262.94451 
L 249.672954 262.94451 
L 242.129344 262.94451 
L 234.585734 262.94451 
L 227.042124 262.94451 
L 219.498513 262.94451 
L 211.954903 262.94451 
L 204.411293 262.94451 
L 196.867683 262.94451 
L 189.324072 262.94451 
L 181.780462 262.94451 
L 174.236852 262.94451 
L 166.693242 262.94451 
L 159.149631 262.94451 
L 151.606021 262.94451 
L 144.062411 262.94451 
L 136.518801 262.94451 
L 128.97519 262.94451 
L 121.43158 262.94451 
L 113.88797 262.94451 
L 106.34436 262.94451 
L 98.800749 262.94451 
L 91.257139 262.94451 
L 83.713529 262.94451 
L 76.169919 262.94451 
L 68.626308 262.94451 
L 61.082698 262.94451 
L 53.539088 262.94451 
L 45.995478 262.94451 
L 38.451867 262.94451 
z
" clip-path="url(#p6407eeabf0)" style="fill: #808080; fill-opacity: 0.5"/>
   </g>
   <g id="matplotlib.axis_1">
    <g id="xtick_1">
     <g id="line2d_1">
      <defs>
       <path id="me864638d78" d="M 0 0 
L 0 -3.5 
" style="stroke: #000000; stroke-width: 0.8"/>
      </defs>
      <g>
       <use xlink:href="#me864638d78" x="35.937331" y="262.9" style="stroke: #000000; stroke-width: 0.8"/>
      </g>
     </g>
     <g id="text_1">
      <!-- 1 -->
      <g transform="translate(32.119831 275.518125) scale(0.12 -0.12)">
       <defs>
        <path id="DejaVuSans-31" d="M 794 531 
L 1825 531 
L 1825 4091 
L 703 3866 
L 703 4441 
L 1819 4666 
L 2450 4666 
L 2450 531 
L 3481 531 
L 3481 0 
L 794 0 
L 794 531 
z
" transform="scale(0.015625)"/>
       </defs>
       <use xlink:href="#DejaVuSans-31"/>
      </g>
     </g>
    </g>
    <g id="xtick_2">
     <g id="line2d_2">
      <g>
       <use xlink:href="#me864638d78" x="109.894294" y="262.9" style="stroke: #000000; stroke-width: 0.8"/>
      </g>
     </g>
     <g id="text_2">
      <!-- 2 -->
      <g transform="translate(106.076794 275.518125) scale(0.12 -0.12)">
       <defs>
        <path id="DejaVuSans-32" d="M 1228 531 
L 3431 531 
L 3431 0 
L 469 0 
L 469 531 
Q 828 903 1448 1529 
Q 2069 2156 2228 2338 
Q 2531 2678 2651 2914 
Q 2772 3150 2772 3378 
Q 2772 3750 2511 3984 
Q 2250 4219 1831 4219 
Q 1534 4219 1204 4116 
Q 875 4013 500 3803 
L 500 4441 
Q 881 4594 1212 4672 
Q 1544 4750 1819 4750 
Q 2544 4750 2975 4387 
Q 3406 4025 3406 3419 
Q 3406 3131 3298 2873 
Q 3191 2616 2906 2266 
Q 2828 2175 2409 1742 
Q 1991 1309 1228 531 
z
" transform="scale(0.015625)"/>
       </defs>
       <use xlink:href="#DejaVuSans-32"/>
      </g>
     </g>
    </g>
    <g id="xtick_3">
     <g id="line2d_3">
      <g>
       <use xlink:href="#me864638d78" x="183.851257" y="262.9" style="stroke: #000000; stroke-width: 0.8"/>
      </g>
     </g>
     <g id="text_3">
      <!-- 3 -->
      <g transform="translate(180.033757 275.518125) scale(0.12 -0.12)">
       <defs>
        <path id="DejaVuSans-33" d="M 2597 2516 
Q 3050 2419 3304 2112 
Q 3559 1806 3559 1356 
Q 3559 666 3084 287 
Q 2609 -91 1734 -91 
Q 1441 -91 1130 -33 
Q 819 25 488 141 
L 488 750 
Q 750 597 1062 519 
Q 1375 441 1716 441 
Q 2309 441 2620 675 
Q 2931 909 2931 1356 
Q 2931 1769 2642 2001 
Q 2353 2234 1838 2234 
L 1294 2234 
L 1294 2753 
L 1863 2753 
Q 2328 2753 2575 2939 
Q 2822 3125 2822 3475 
Q 2822 3834 2567 4026 
Q 2313 4219 1838 4219 
Q 1578 4219 1281 4162 
Q 984 4106 628 3988 
L 628 4550 
Q 988 4650 1302 4700 
Q 1616 4750 1894 4750 
Q 2613 4750 3031 4423 
Q 3450 4097 3450 3541 
Q 3450 3153 3228 2886 
Q 3006 2619 2597 2516 
z
" transform="scale(0.015625)"/>
       </defs>
       <use xlink:href="#DejaVuSans-33"/>
      </g>
     </g>
    </g>
    <g id="xtick_4">
     <g id="line2d_4">
      <g>
       <use xlink:href="#me864638d78" x="257.80822" y="262.9" style="stroke: #000000; stroke-width: 0.8"/>
      </g>
     </g>
     <g id="text_4">
      <!-- 4 -->
      <g transform="translate(253.99072 275.518125) scale(0.12 -0.12)">
       <defs>
        <path id="DejaVuSans-34" d="M 2419 4116 
L 825 1625 
L 2419 1625 
L 2419 4116 
z
M 2253 4666 
L 3047 4666 
L 3047 1625 
L 3713 1625 
L 3713 1100 
L 3047 1100 
L 3047 0 
L 2419 0 
L 2419 1100 
L 313 1100 
L 313 1709 
L 2253 4666 
z
" transform="scale(0.015625)"/>
       </defs>
       <use xlink:href="#DejaVuSans-34"/>
      </g>
     </g>
    </g>
    <g id="xtick_5">
     <g id="line2d_5">
      <g>
       <use xlink:href="#me864638d78" x="331.765184" y="262.9" style="stroke: #000000; stroke-width: 0.8"/>
      </g>
     </g>
     <g id="text_5">
      <!-- 5 -->
      <g transform="translate(327.947684 275.518125) scale(0.12 -0.12)">
       <defs>
        <path id="DejaVuSans-35" d="M 691 4666 
L 3169 4666 
L 3169 4134 
L 1269 4134 
L 1269 2991 
Q 1406 3038 1543 3061 
Q 1681 3084 1819 3084 
Q 2600 3084 3056 2656 
Q 3513 2228 3513 1497 
Q 3513 744 3044 326 
Q 2575 -91 1722 -91 
Q 1428 -91 1123 -41 
Q 819 9 494 109 
L 494 744 
Q 775 591 1075 516 
Q 1375 441 1709 441 
Q 2250 441 2565 725 
Q 2881 1009 2881 1497 
Q 2881 1984 2565 2268 
Q 2250 2553 1709 2553 
Q 1456 2553 1204 2497 
Q 953 2441 691 2322 
L 691 4666 
z
" transform="scale(0.015625)"/>
       </defs>
       <use xlink:href="#DejaVuSans-35"/>
      </g>
     </g>
    </g>
    <g id="xtick_6">
     <g id="line2d_6">
      <g>
       <use xlink:href="#me864638d78" x="405.722147" y="262.9" style="stroke: #000000; stroke-width: 0.8"/>
      </g>
     </g>
     <g id="text_6">
      <!-- 6 -->
      <g transform="translate(401.904647 275.518125) scale(0.12 -0.12)">
       <defs>
        <path id="DejaVuSans-36" d="M 2113 2584 
Q 1688 2584 1439 2293 
Q 1191 2003 1191 1497 
Q 1191 994 1439 701 
Q 1688 409 2113 409 
Q 2538 409 2786 701 
Q 3034 994 3034 1497 
Q 3034 2003 2786 2293 
Q 2538 2584 2113 2584 
z
M 3366 4563 
L 3366 3988 
Q 3128 4100 2886 4159 
Q 2644 4219 2406 4219 
Q 1781 4219 1451 3797 
Q 1122 3375 1075 2522 
Q 1259 2794 1537 2939 
Q 1816 3084 2150 3084 
Q 2853 3084 3261 2657 
Q 3669 2231 3669 1497 
Q 3669 778 3244 343 
Q 2819 -91 2113 -91 
Q 1303 -91 875 529 
Q 447 1150 447 2328 
Q 447 3434 972 4092 
Q 1497 4750 2381 4750 
Q 2619 4750 2861 4703 
Q 3103 4656 3366 4563 
z
" transform="scale(0.015625)"/>
       </defs>
       <use xlink:href="#DejaVuSans-36"/>
      </g>
     </g>
    </g>
    <g id="xtick_7">
     <g id="line2d_7">
      <g>
       <use xlink:href="#me864638d78" x="479.67911" y="262.9" style="stroke: #000000; stroke-width: 0.8"/>
      </g>
     </g>
     <g id="text_7">
      <!-- 7 -->
      <g transform="translate(475.86161 275.518125) scale(0.12 -0.12)">
       <defs>
        <path id="DejaVuSans-37" d="M 525 4666 
L 3525 4666 
L 3525 4397 
L 1831 0 
L 1172 0 
L 2766 4134 
L 525 4134 
L 525 4666 
z
" transform="scale(0.015625)"/>
       </defs>
       <use xlink:href="#DejaVuSans-37"/>
      </g>
     </g>
    </g>
    <g id="xtick_8">
     <g id="line2d_8">
      <g>
       <use xlink:href="#me864638d78" x="553.636073" y="262.9" style="stroke: #000000; stroke-width: 0.8"/>
      </g>
     </g>
     <g id="text_8">
      <!-- 8 -->
      <g transform="translate(549.818573 275.518125) scale(0.12 -0.12)">
       <defs>
        <path id="DejaVuSans-38" d="M 2034 2216 
Q 1584 2216 1326 1975 
Q 1069 1734 1069 1313 
Q 1069 891 1326 650 
Q 1584 409 2034 409 
Q 2484 409 2743 651 
Q 3003 894 3003 1313 
Q 3003 1734 2745 1975 
Q 2488 2216 2034 2216 
z
M 1403 2484 
Q 997 2584 770 2862 
Q 544 3141 544 3541 
Q 544 4100 942 4425 
Q 1341 4750 2034 4750 
Q 2731 4750 3128 4425 
Q 3525 4100 3525 3541 
Q 3525 3141 3298 2862 
Q 3072 2584 2669 2484 
Q 3125 2378 3379 2068 
Q 3634 1759 3634 1313 
Q 3634 634 3220 271 
Q 2806 -91 2034 -91 
Q 1263 -91 848 271 
Q 434 634 434 1313 
Q 434 1759 690 2068 
Q 947 2378 1403 2484 
z
M 1172 3481 
Q 1172 3119 1398 2916 
Q 1625 2713 2034 2713 
Q 2441 2713 2670 2916 
Q 2900 3119 2900 3481 
Q 2900 3844 2670 4047 
Q 2441 4250 2034 4250 
Q 1625 4250 1398 4047 
Q 1172 3844 1172 3481 
z
" transform="scale(0.015625)"/>
       </defs>
       <use xlink:href="#DejaVuSans-38"/>
      </g>
     </g>
    </g>
    <g id="xtick_9">
     <g id="line2d_9">
      <g>
       <use xlink:href="#me864638d78" x="627.593037" y="262.9" style="stroke: #000000; stroke-width: 0.8"/>
      </g>
     </g>
     <g id="text_9">
      <!-- 9 -->
      <g transform="translate(623.775537 275.518125) scale(0.12 -0.12)">
       <defs>
        <path id="DejaVuSans-39" d="M 703 97 
L 703 672 
Q 941 559 1184 500 
Q 1428 441 1663 441 
Q 2288 441 2617 861 
Q 2947 1281 2994 2138 
Q 2813 1869 2534 1725 
Q 2256 1581 1919 1581 
Q 1219 1581 811 2004 
Q 403 2428 403 3163 
Q 403 3881 828 4315 
Q 1253 4750 1959 4750 
Q 2769 4750 3195 4129 
Q 3622 3509 3622 2328 
Q 3622 1225 3098 567 
Q 2575 -91 1691 -91 
Q 1453 -91 1209 -44 
Q 966 3 703 97 
z
M 1959 2075 
Q 2384 2075 2632 2365 
Q 2881 2656 2881 3163 
Q 2881 3666 2632 3958 
Q 2384 4250 1959 4250 
Q 1534 4250 1286 3958 
Q 1038 3666 1038 3163 
Q 1038 2656 1286 2365 
Q 1534 2075 1959 2075 
z
" transform="scale(0.015625)"/>
       </defs>
       <use xlink:href="#DejaVuSans-39"/>
      </g>
     </g>
    </g>
    <g id="xtick_10">
     <g id="line2d_10">
      <g>
       <use xlink:href="#me864638d78" x="701.55" y="262.9" style="stroke: #000000; stroke-width: 0.8"/>
      </g>
     </g>
     <g id="text_10">
      <!-- 10 -->
      <g transform="translate(693.915 275.518125) scale(0.12 -0.12)">
       <defs>
        <path id="DejaVuSans-30" d="M 2034 4250 
Q 1547 4250 1301 3770 
Q 1056 3291 1056 2328 
Q 1056 1369 1301 889 
Q 1547 409 2034 409 
Q 2525 409 2770 889 
Q 3016 1369 3016 2328 
Q 3016 3291 2770 3770 
Q 2525 4250 2034 4250 
z
M 2034 4750 
Q 2819 4750 3233 4129 
Q 3647 3509 3647 2328 
Q 3647 1150 3233 529 
Q 2819 -91 2034 -91 
Q 1250 -91 836 529 
Q 422 1150 422 2328 
Q 422 3509 836 4129 
Q 1250 4750 2034 4750 
z
" transform="scale(0.015625)"/>
       </defs>
       <use xlink:href="#DejaVuSans-31"/>
       <use xlink:href="#DejaVuSans-30" x="63.623047"/>
      </g>
     </g>
    </g>
   </g>
   <g id="matplotlib.axis_2">
    <g id="ytick_1">
     <g id="line2d_11">
      <defs>
       <path id="m3c6be2004d" d="M 0 0 
L 3.5 0 
" style="stroke: #000000; stroke-width: 0.8"/>
      </defs>
      <g>
       <use xlink:href="#m3c6be2004d" x="35.937331" y="262.9" style="stroke: #000000; stroke-width: 0.8"/>
      </g>
     </g>
     <g id="text_11">
      <!-- $10^{0}$ -->
      <g transform="translate(11.317331 267.459063) scale(0.12 -0.12)">
       <use xlink:href="#DejaVuSans-31" transform="translate(0 0.765625)"/>
       <use xlink:href="#DejaVuSans-30" transform="translate(63.623047 0.765625)"/>
       <use xlink:href="#DejaVuSans-30" transform="translate(128.203125 39.046875) scale(0.7)"/>
      </g>
     </g>
    </g>
    <g id="ytick_2">
     <g id="line2d_12">
      <g>
       <use xlink:href="#m3c6be2004d" x="35.937331" y="218.389674" style="stroke: #000000; stroke-width: 0.8"/>
      </g>
     </g>
     <g id="text_12">
      <!-- $10^{1}$ -->
      <g transform="translate(11.317331 222.948737) scale(0.12 -0.12)">
       <use xlink:href="#DejaVuSans-31" transform="translate(0 0.684375)"/>
       <use xlink:href="#DejaVuSans-30" transform="translate(63.623047 0.684375)"/>
       <use xlink:href="#DejaVuSans-31" transform="translate(128.203125 38.965625) scale(0.7)"/>
      </g>
     </g>
    </g>
    <g id="ytick_3">
     <g id="line2d_13">
      <g>
       <use xlink:href="#m3c6be2004d" x="35.937331" y="173.879349" style="stroke: #000000; stroke-width: 0.8"/>
      </g>
     </g>
     <g id="text_13">
      <!-- $10^{2}$ -->
      <g transform="translate(11.317331 178.438411) scale(0.12 -0.12)">
       <use xlink:href="#DejaVuSans-31" transform="translate(0 0.765625)"/>
       <use xlink:href="#DejaVuSans-30" transform="translate(63.623047 0.765625)"/>
       <use xlink:href="#DejaVuSans-32" transform="translate(128.203125 39.046875) scale(0.7)"/>
      </g>
     </g>
    </g>
    <g id="ytick_4">
     <g id="line2d_14">
      <g>
       <use xlink:href="#m3c6be2004d" x="35.937331" y="129.369023" style="stroke: #000000; stroke-width: 0.8"/>
      </g>
     </g>
     <g id="text_14">
      <!-- $10^{3}$ -->
      <g transform="translate(11.317331 133.928086) scale(0.12 -0.12)">
       <use xlink:href="#DejaVuSans-31" transform="translate(0 0.765625)"/>
       <use xlink:href="#DejaVuSans-30" transform="translate(63.623047 0.765625)"/>
       <use xlink:href="#DejaVuSans-33" transform="translate(128.203125 39.046875) scale(0.7)"/>
      </g>
     </g>
    </g>
    <g id="ytick_5">
     <g id="line2d_15">
      <g>
       <use xlink:href="#m3c6be2004d" x="35.937331" y="84.858698" style="stroke: #000000; stroke-width: 0.8"/>
      </g>
     </g>
     <g id="text_15">
      <!-- $10^{4}$ -->
      <g transform="translate(11.317331 89.41776) scale(0.12 -0.12)">
       <use xlink:href="#DejaVuSans-31" transform="translate(0 0.684375)"/>
       <use xlink:href="#DejaVuSans-30" transform="translate(63.623047 0.684375)"/>
       <use xlink:href="#DejaVuSans-34" transform="translate(128.203125 38.965625) scale(0.7)"/>
      </g>
     </g>
    </g>
    <g id="ytick_6">
     <g id="line2d_16">
      <g>
       <use xlink:href="#m3c6be2004d" x="35.937331" y="40.348372" style="stroke: #000000; stroke-width: 0.8"/>
      </g>
     </g>
     <g id="text_16">
      <!-- $10^{5}$ -->
      <g transform="translate(11.317331 44.907435) scale(0.12 -0.12)">
       <use xlink:href="#DejaVuSans-31" transform="translate(0 0.684375)"/>
       <use xlink:href="#DejaVuSans-30" transform="translate(63.623047 0.684375)"/>
       <use xlink:href="#DejaVuSans-35" transform="translate(128.203125 38.965625) scale(0.7)"/>
      </g>
     </g>
    </g>
   </g>
   <g id="line2d_17">
    <path d="M 38.451867 262.9 
L 45.995478 262.9 
L 53.539088 262.9 
L 61.082698 262.9 
L 68.626308 262.9 
L 76.169919 262.9 
L 83.713529 262.9 
L 91.257139 262.9 
L 98.800749 262.9 
L 106.34436 262.9 
L 113.88797 262.9 
L 121.43158 262.9 
L 128.97519 246.391793 
L 136.518801 196.867173 
L 144.062411 180.358966 
L 151.606021 229.883586 
L 159.149631 262.9 
L 166.693242 262.9 
L 174.236852 252.164421 
L 181.780462 219.957683 
L 189.324072 191.407584 
L 196.867683 170.170762 
L 204.411293 171.594243 
L 211.954903 218.338331 
L 219.498513 243.728429 
L 227.042124 226.410547 
L 234.585734 222.871076 
L 242.129344 246.88843 
L 249.672954 246.169514 
L 257.216565 195.978058 
L 264.760175 171.241787 
L 272.303785 197.41589 
L 279.847395 206.362869 
L 287.391006 180.855603 
L 294.934616 180.358966 
L 302.478226 229.883586 
L 310.021837 252.661058 
L 317.565447 221.944232 
L 325.109057 201.466348 
L 332.652667 201.466348 
L 340.196278 192.85087 
L 347.739888 167.004436 
L 355.283498 157.082645 
L 362.827108 179.010139 
L 370.370719 186.797479 
L 377.914329 166.304507 
L 385.457939 159.473517 
L 393.001549 179.966488 
L 400.54516 194.676903 
L 408.08877 197.822207 
L 415.63238 198.870641 
L 423.17599 195.725338 
L 430.719601 185.203684 
L 438.263211 159.929328 
L 445.806821 148.552469 
L 453.350431 164.970605 
L 460.894042 176.138308 
L 468.437652 176.805145 
L 475.981262 171.973712 
L 483.524872 156.145741 
L 491.068483 147.037191 
L 498.612093 151.367482 
L 506.155703 156.937779 
L 513.699313 164.988091 
L 521.242924 167.964618 
L 528.786534 160.793575 
L 536.330144 157.319193 
L 543.873754 161.238133 
L 551.417365 164.347397 
L 558.960975 165.837308 
L 566.504585 166.830583 
L 574.048195 166.830583 
L 581.591806 162.501385 
L 589.135416 149.513794 
L 596.679026 140.164621 
L 604.222636 138.092286 
L 611.766247 141.730705 
L 619.309857 156.790632 
L 626.853467 165.266391 
L 634.397077 160.573815 
L 641.940688 154.611138 
L 649.484298 146.108258 
L 657.027908 141.124494 
L 664.571518 143.178963 
L 672.115129 146.753628 
L 679.658739 153.368686 
L 687.202349 155.408451 
L 694.745959 148.297628 
L 702.28957 142.197513 
L 709.83318 138.118813 
L 717.37679 137.282844 
L 721 139.996306 
" clip-path="url(#p6407eeabf0)" style="fill: none; stroke: #ff0000; stroke-width: 1.2; stroke-linecap: square"/>
   </g>
   <g id="line2d_18">
    <path d="M 38.451867 262.9 
L 45.995478 262.9 
L 53.539088 262.9 
L 61.082698 262.9 
L 68.626308 262.9 
L 76.169919 262.9 
L 83.713529 262.9 
L 91.257139 262.9 
L 98.800749 262.9 
L 106.34436 262.9 
L 113.88797 262.9 
L 121.43158 262.9 
L 128.97519 229.658752 
L 136.518801 129.935007 
L 144.062411 96.693759 
L 151.606021 196.417503 
L 159.149631 262.9 
L 166.693242 262.9 
L 174.236852 235.431379 
L 181.780462 153.025517 
L 189.324072 91.009335 
L 196.867683 69.772513 
L 204.411293 72.814616 
L 211.954903 124.41457 
L 219.498513 153.131828 
L 227.042124 136.083692 
L 234.585734 124.658046 
L 242.129344 124.477381 
L 249.672954 114.0601 
L 257.216565 83.169586 
L 264.760175 72.42766 
L 272.303785 101.98291 
L 279.847395 111.823692 
L 287.391006 82.235535 
L 294.934616 72.098988 
L 302.478226 100.86566 
L 310.021837 120.115844 
L 317.565447 120.333051 
L 325.109057 117.675659 
L 332.652667 109.269069 
L 340.196278 94.455927 
L 347.739888 66.829684 
L 355.283498 56.366172 
L 362.827108 80.228124 
L 370.370719 88.989354 
L 377.914329 67.549141 
L 385.457939 60.155736 
L 393.001549 80.855948 
L 400.54516 93.837749 
L 408.08877 91.382728 
L 415.63238 89.393518 
L 423.17599 88.335929 
L 430.719601 80.293822 
L 438.263211 58.282676 
L 445.806821 49.11981 
L 453.350431 65.653501 
L 460.894042 76.424029 
L 468.437652 75.668229 
L 475.981262 70.186561 
L 483.524872 55.253155 
L 491.068483 46.858374 
L 498.612093 51.540842 
L 506.155703 57.752453 
L 513.699313 67.022351 
L 521.242924 69.718288 
L 528.786534 59.266303 
L 536.330144 54.864467 
L 543.873754 62.562929 
L 551.417365 67.447287 
L 558.960975 66.703435 
L 566.504585 65.687622 
L 574.048195 64.127883 
L 581.591806 59.551932 
L 589.135416 48.943555 
L 596.679026 40.937982 
L 604.222636 38.138019 
L 611.766247 40.473893 
L 619.309857 53.081442 
L 626.853467 61.071811 
L 634.397077 59.827821 
L 641.940688 55.733686 
L 649.484298 45.939264 
L 657.027908 40.470857 
L 664.571518 43.654481 
L 672.115129 47.227034 
L 679.658739 51.577446 
L 687.202349 52.253543 
L 694.745959 45.581009 
L 702.28957 40.64039 
L 709.83318 39.163601 
L 717.37679 39.135195 
L 721 40.512874 
" clip-path="url(#p6407eeabf0)" style="fill: none; stroke: #008000; stroke-width: 1.2; stroke-linecap: square"/>
   </g>
   <g id="line2d_19">
    <path d="M 38.451867 262.9 
L 45.995478 262.9 
L 53.539088 262.9 
L 61.082698 262.9 
L 68.626308 262.9 
L 76.169919 262.9 
L 83.713529 262.9 
L 91.257139 262.9 
L 98.800749 262.9 
L 106.34436 262.9 
L 113.88797 262.9 
L 121.43158 262.9 
L 128.97519 227.099076 
L 136.518801 119.696304 
L 144.062411 83.89538 
L 151.606021 191.298152 
L 159.149631 262.9 
L 166.693242 262.9 
L 174.236852 232.871704 
L 181.780462 142.786814 
L 189.324072 75.651281 
L 196.867683 54.414458 
L 204.411293 57.459931 
L 211.954903 109.069994 
L 219.498513 137.812837 
L 227.042124 120.82124 
L 234.585734 109.371406 
L 242.129344 109.005098 
L 249.672954 98.504249 
L 257.216565 67.734317 
L 264.760175 57.20957 
L 272.303785 87.175192 
L 279.847395 97.148872 
L 287.391006 67.138667 
L 294.934616 56.765339 
L 302.478226 85.665761 
L 310.021837 104.793773 
L 317.565447 104.376962 
L 325.109057 101.514478 
L 332.652667 93.760645 
L 340.196278 79.332388 
L 347.739888 51.555281 
L 355.283498 40.985246 
L 362.827108 64.829355 
L 370.370719 73.593164 
L 377.914329 52.196377 
L 385.457939 44.826471 
L 393.001549 65.510329 
L 400.54516 78.45013 
L 408.08877 75.901818 
L 415.63238 73.921871 
L 423.17599 73.078653 
L 430.719601 65.136941 
L 438.263211 42.99824 
L 445.806821 33.744189 
L 453.350431 50.259437 
L 460.894042 61.054979 
L 468.437652 60.411105 
L 475.981262 54.970769 
L 483.524872 39.937511 
L 491.068483 31.48266 
L 498.612093 36.184621 
L 506.155703 42.391396 
L 513.699313 51.607799 
L 521.242924 54.286686 
L 528.786534 43.890542 
L 536.330144 39.529861 
L 543.873754 47.240105 
L 551.417365 52.128158 
L 558.960975 51.371827 
L 566.504585 50.313806 
L 574.048195 48.652402 
L 581.591806 44.043703 
L 589.135416 33.540417 
L 596.679026 25.60486 
L 604.222636 22.804762 
L 611.766247 25.141436 
L 619.309857 37.751653 
L 626.853467 45.721379 
L 634.397077 44.410123 
L 641.940688 40.293913 
L 649.484298 30.567795 
L 657.027908 25.133895 
L 664.571518 28.28443 
L 672.115129 31.837356 
L 679.658739 36.195063 
L 687.202349 36.88127 
L 694.745959 30.224479 
L 702.28957 25.287174 
L 709.83318 23.788841 
L 717.37679 23.758214 
L 721 25.153388 
" clip-path="url(#p6407eeabf0)" style="fill: none; stroke: #0000ff; stroke-width: 1.2; stroke-linecap: square"/>
   </g>
   <g id="line2d_20">
    <path d="M 38.451867 262.9 
L 45.995478 262.9 
L 53.539088 262.9 
L 61.082698 262.9 
L 68.626308 262.9 
L 76.169919 262.9 
L 83.713529 262.9 
L 91.257139 262.9 
L 98.800749 251.538896 
L 106.34436 217.455583 
L 113.88797 172.718749 
L 121.43158 106.674874 
L 128.97519 59.310801 
L 136.518801 49.306336 
L 144.062411 52.568291 
L 151.606021 82.363085 
L 159.149631 101.015252 
L 166.693242 97.382165 
L 174.236852 88.615968 
L 181.780462 69.583549 
L 189.324072 52.826462 
L 196.867683 40.620037 
L 204.411293 38.284824 
L 211.954903 55.692039 
L 219.498513 72.467307 
L 227.042124 87.978682 
L 234.585734 93.964758 
L 242.129344 80.90024 
L 249.672954 66.815753 
L 257.216565 50.691328 
L 264.760175 43.40653 
L 272.303785 53.800986 
L 279.847395 56.931908 
L 287.391006 45.535764 
L 294.934616 41.790759 
L 302.478226 53.348033 
L 310.021837 62.681511 
L 317.565447 67.567401 
L 325.109057 66.183892 
L 332.652667 52.261586 
L 340.196278 40.352918 
L 347.739888 32.471526 
L 355.283498 31.305853 
L 362.827108 43.571616 
L 370.370719 48.18901 
L 377.914329 37.509663 
L 385.457939 34.169521 
L 393.001549 45.507788 
L 400.54516 53.194546 
L 408.08877 53.578285 
L 415.63238 52.250698 
L 423.17599 47.50046 
L 430.719601 40.555034 
L 438.263211 29.219234 
L 445.806821 23.921842 
L 453.350431 30.701269 
L 460.894042 34.319622 
L 468.437652 31.615826 
L 475.981262 28.930332 
L 483.524872 26.281442 
L 491.068483 25.862478 
L 498.612093 29.903364 
L 506.155703 34.407886 
L 513.699313 39.839677 
L 521.242924 41.101831 
L 528.786534 34.024713 
L 536.330144 30.655334 
L 543.873754 34.701437 
L 551.417365 38.18812 
L 558.960975 40.555964 
L 566.504585 39.418898 
L 574.048195 31.272012 
L 581.591806 24.93798 
L 589.135416 22.229657 
L 596.679026 19.410963 
L 604.222636 16.371528 
L 611.766247 17.765939 
L 619.309857 28.028042 
L 626.853467 33.175103 
L 634.397077 28.092078 
L 641.940688 24.323394 
L 649.484298 23.183389 
L 657.027908 23.464554 
L 664.571518 26.588057 
L 672.115129 28.657598 
L 679.658739 28.619217 
L 687.202349 26.798255 
L 694.745959 21.41213 
L 702.28957 17.876336 
L 709.83318 18.0412 
L 717.37679 18.443709 
L 721 18.865316 
" clip-path="url(#p6407eeabf0)" style="fill: none; stroke: #808080; stroke-width: 1.5; stroke-linecap: square"/>
   </g>
   <g id="patch_3">
    <path d="M 35.937331 262.9 
L 35.937331 10.8 
" style="fill: none; stroke: #000000; stroke-width: 0.8; stroke-linejoin: miter; stroke-linecap: square"/>
   </g>
   <g id="patch_4">
    <path d="M 701.55 262.9 
L 701.55 10.8 
" style="fill: none; stroke: #000000; stroke-width: 0.8; stroke-linejoin: miter; stroke-linecap: square"/>
   </g>
   <g id="patch_5">
    <path d="M 35.937331 262.9 
L 701.55 262.9 
" style="fill: none; stroke: #000000; stroke-width: 0.8; stroke-linejoin: miter; stroke-linecap: square"/>
   </g>
   <g id="patch_6">
    <path d="M 35.937331 10.8 
L 701.55 10.8 
" style="fill: none; stroke: #000000; stroke-width: 0.8; stroke-linejoin: miter; stroke-linecap: square"/>
   </g>
   <g id="legend_1">
    <g id="patch_7">
     <path d="M 483.99 256.9 
L 693.15 256.9 
Q 695.55 256.9 695.55 254.5 
L 695.55 185.245 
Q 695.55 182.845 693.15 182.845 
L 483.99 182.845 
Q 481.59 182.845 481.59 185.245 
L 481.59 254.5 
Q 481.59 256.9 483.99 256.9 
z
" style="fill: #ffffff; opacity: 0.8; stroke: #cccccc; stroke-linejoin: miter"/>
    </g>
    <g id="line2d_21">
     <path d="M 486.39 192.563125 
L 498.39 192.563125 
L 510.39 192.563125 
" style="fill: none; stroke: #808080; stroke-width: 1.5; stroke-linecap: square"/>
    </g>
    <g id="text_17">
     <!-- dataset -->
     <g transform="translate(519.99 196.763125) scale(0.12 -0.12)">
      <defs>
       <path id="DejaVuSans-64" d="M 2906 2969 
L 2906 4863 
L 3481 4863 
L 3481 0 
L 2906 0 
L 2906 525 
Q 2725 213 2448 61 
Q 2172 -91 1784 -91 
Q 1150 -91 751 415 
Q 353 922 353 1747 
Q 353 2572 751 3078 
Q 1150 3584 1784 3584 
Q 2172 3584 2448 3432 
Q 2725 3281 2906 2969 
z
M 947 1747 
Q 947 1113 1208 752 
Q 1469 391 1925 391 
Q 2381 391 2643 752 
Q 2906 1113 2906 1747 
Q 2906 2381 2643 2742 
Q 2381 3103 1925 3103 
Q 1469 3103 1208 2742 
Q 947 2381 947 1747 
z
" transform="scale(0.015625)"/>
       <path id="DejaVuSans-61" d="M 2194 1759 
Q 1497 1759 1228 1600 
Q 959 1441 959 1056 
Q 959 750 1161 570 
Q 1363 391 1709 391 
Q 2188 391 2477 730 
Q 2766 1069 2766 1631 
L 2766 1759 
L 2194 1759 
z
M 3341 1997 
L 3341 0 
L 2766 0 
L 2766 531 
Q 2569 213 2275 61 
Q 1981 -91 1556 -91 
Q 1019 -91 701 211 
Q 384 513 384 1019 
Q 384 1609 779 1909 
Q 1175 2209 1959 2209 
L 2766 2209 
L 2766 2266 
Q 2766 2663 2505 2880 
Q 2244 3097 1772 3097 
Q 1472 3097 1187 3025 
Q 903 2953 641 2809 
L 641 3341 
Q 956 3463 1253 3523 
Q 1550 3584 1831 3584 
Q 2591 3584 2966 3190 
Q 3341 2797 3341 1997 
z
" transform="scale(0.015625)"/>
       <path id="DejaVuSans-74" d="M 1172 4494 
L 1172 3500 
L 2356 3500 
L 2356 3053 
L 1172 3053 
L 1172 1153 
Q 1172 725 1289 603 
Q 1406 481 1766 481 
L 2356 481 
L 2356 0 
L 1766 0 
Q 1100 0 847 248 
Q 594 497 594 1153 
L 594 3053 
L 172 3053 
L 172 3500 
L 594 3500 
L 594 4494 
L 1172 4494 
z
" transform="scale(0.015625)"/>
       <path id="DejaVuSans-73" d="M 2834 3397 
L 2834 2853 
Q 2591 2978 2328 3040 
Q 2066 3103 1784 3103 
Q 1356 3103 1142 2972 
Q 928 2841 928 2578 
Q 928 2378 1081 2264 
Q 1234 2150 1697 2047 
L 1894 2003 
Q 2506 1872 2764 1633 
Q 3022 1394 3022 966 
Q 3022 478 2636 193 
Q 2250 -91 1575 -91 
Q 1294 -91 989 -36 
Q 684 19 347 128 
L 347 722 
Q 666 556 975 473 
Q 1284 391 1588 391 
Q 1994 391 2212 530 
Q 2431 669 2431 922 
Q 2431 1156 2273 1281 
Q 2116 1406 1581 1522 
L 1381 1569 
Q 847 1681 609 1914 
Q 372 2147 372 2553 
Q 372 3047 722 3315 
Q 1072 3584 1716 3584 
Q 2034 3584 2315 3537 
Q 2597 3491 2834 3397 
z
" transform="scale(0.015625)"/>
       <path id="DejaVuSans-65" d="M 3597 1894 
L 3597 1613 
L 953 1613 
Q 991 1019 1311 708 
Q 1631 397 2203 397 
Q 2534 397 2845 478 
Q 3156 559 3463 722 
L 3463 178 
Q 3153 47 2828 -22 
Q 2503 -91 2169 -91 
Q 1331 -91 842 396 
Q 353 884 353 1716 
Q 353 2575 817 3079 
Q 1281 3584 2069 3584 
Q 2775 3584 3186 3129 
Q 3597 2675 3597 1894 
z
M 3022 2063 
Q 3016 2534 2758 2815 
Q 2500 3097 2075 3097 
Q 1594 3097 1305 2825 
Q 1016 2553 972 2059 
L 3022 2063 
z
" transform="scale(0.015625)"/>
      </defs>
      <use xlink:href="#DejaVuSans-64"/>
      <use xlink:href="#DejaVuSans-61" x="63.476562"/>
      <use xlink:href="#DejaVuSans-74" x="124.755859"/>
      <use xlink:href="#DejaVuSans-61" x="163.964844"/>
      <use xlink:href="#DejaVuSans-73" x="225.244141"/>
      <use xlink:href="#DejaVuSans-65" x="277.34375"/>
      <use xlink:href="#DejaVuSans-74" x="338.867188"/>
     </g>
    </g>
    <g id="line2d_22">
     <path d="M 486.39 210.176875 
L 498.39 210.176875 
L 510.39 210.176875 
" style="fill: none; stroke: #ff0000; stroke-width: 1.5; stroke-linecap: square"/>
    </g>
    <g id="text_18">
     <!-- 21.79$^\circ$ (2-1, 42 atoms) -->
     <g transform="translate(519.99 214.376875) scale(0.12 -0.12)">
      <defs>
       <path id="DejaVuSans-2e" d="M 684 794 
L 1344 794 
L 1344 0 
L 684 0 
L 684 794 
z
" transform="scale(0.015625)"/>
       <path id="DejaVuSans-2218" d="M 2003 2603 
Q 1753 2603 1581 2429 
Q 1409 2256 1409 2006 
Q 1409 1759 1581 1589 
Q 1753 1419 2003 1419 
Q 2253 1419 2425 1589 
Q 2597 1759 2597 2006 
Q 2597 2253 2423 2428 
Q 2250 2603 2003 2603 
z
M 2003 3006 
Q 2203 3006 2387 2929 
Q 2572 2853 2706 2709 
Q 2850 2569 2922 2390 
Q 2994 2212 2994 2006 
Q 2994 1594 2705 1308 
Q 2416 1022 1997 1022 
Q 1575 1022 1294 1303 
Q 1013 1584 1013 2006 
Q 1013 2425 1300 2715 
Q 1588 3006 2003 3006 
z
" transform="scale(0.015625)"/>
       <path id="DejaVuSans-20" transform="scale(0.015625)"/>
       <path id="DejaVuSans-28" d="M 1984 4856 
Q 1566 4138 1362 3434 
Q 1159 2731 1159 2009 
Q 1159 1288 1364 580 
Q 1569 -128 1984 -844 
L 1484 -844 
Q 1016 -109 783 600 
Q 550 1309 550 2009 
Q 550 2706 781 3412 
Q 1013 4119 1484 4856 
L 1984 4856 
z
" transform="scale(0.015625)"/>
       <path id="DejaVuSans-2d" d="M 313 2009 
L 1997 2009 
L 1997 1497 
L 313 1497 
L 313 2009 
z
" transform="scale(0.015625)"/>
       <path id="DejaVuSans-2c" d="M 750 794 
L 1409 794 
L 1409 256 
L 897 -744 
L 494 -744 
L 750 256 
L 750 794 
z
" transform="scale(0.015625)"/>
       <path id="DejaVuSans-6f" d="M 1959 3097 
Q 1497 3097 1228 2736 
Q 959 2375 959 1747 
Q 959 1119 1226 758 
Q 1494 397 1959 397 
Q 2419 397 2687 759 
Q 2956 1122 2956 1747 
Q 2956 2369 2687 2733 
Q 2419 3097 1959 3097 
z
M 1959 3584 
Q 2709 3584 3137 3096 
Q 3566 2609 3566 1747 
Q 3566 888 3137 398 
Q 2709 -91 1959 -91 
Q 1206 -91 779 398 
Q 353 888 353 1747 
Q 353 2609 779 3096 
Q 1206 3584 1959 3584 
z
" transform="scale(0.015625)"/>
       <path id="DejaVuSans-6d" d="M 3328 2828 
Q 3544 3216 3844 3400 
Q 4144 3584 4550 3584 
Q 5097 3584 5394 3201 
Q 5691 2819 5691 2113 
L 5691 0 
L 5113 0 
L 5113 2094 
Q 5113 2597 4934 2840 
Q 4756 3084 4391 3084 
Q 3944 3084 3684 2787 
Q 3425 2491 3425 1978 
L 3425 0 
L 2847 0 
L 2847 2094 
Q 2847 2600 2669 2842 
Q 2491 3084 2119 3084 
Q 1678 3084 1418 2786 
Q 1159 2488 1159 1978 
L 1159 0 
L 581 0 
L 581 3500 
L 1159 3500 
L 1159 2956 
Q 1356 3278 1631 3431 
Q 1906 3584 2284 3584 
Q 2666 3584 2933 3390 
Q 3200 3197 3328 2828 
z
" transform="scale(0.015625)"/>
       <path id="DejaVuSans-29" d="M 513 4856 
L 1013 4856 
Q 1481 4119 1714 3412 
Q 1947 2706 1947 2009 
Q 1947 1309 1714 600 
Q 1481 -109 1013 -844 
L 513 -844 
Q 928 -128 1133 580 
Q 1338 1288 1338 2009 
Q 1338 2731 1133 3434 
Q 928 4138 513 4856 
z
" transform="scale(0.015625)"/>
      </defs>
      <use xlink:href="#DejaVuSans-32" transform="translate(0 0.125)"/>
      <use xlink:href="#DejaVuSans-31" transform="translate(63.623047 0.125)"/>
      <use xlink:href="#DejaVuSans-2e" transform="translate(127.246094 0.125)"/>
      <use xlink:href="#DejaVuSans-37" transform="translate(151.283203 0.125)"/>
      <use xlink:href="#DejaVuSans-39" transform="translate(214.90625 0.125)"/>
      <use xlink:href="#DejaVuSans-2218" transform="translate(293.124023 38.40625) scale(0.7)"/>
      <use xlink:href="#DejaVuSans-20" transform="translate(353.314453 0.125)"/>
      <use xlink:href="#DejaVuSans-28" transform="translate(385.101562 0.125)"/>
      <use xlink:href="#DejaVuSans-32" transform="translate(424.115234 0.125)"/>
      <use xlink:href="#DejaVuSans-2d" transform="translate(487.738281 0.125)"/>
      <use xlink:href="#DejaVuSans-31" transform="translate(523.822266 0.125)"/>
      <use xlink:href="#DejaVuSans-2c" transform="translate(587.445312 0.125)"/>
      <use xlink:href="#DejaVuSans-20" transform="translate(619.232422 0.125)"/>
      <use xlink:href="#DejaVuSans-34" transform="translate(651.019531 0.125)"/>
      <use xlink:href="#DejaVuSans-32" transform="translate(714.642578 0.125)"/>
      <use xlink:href="#DejaVuSans-20" transform="translate(778.265625 0.125)"/>
      <use xlink:href="#DejaVuSans-61" transform="translate(810.052734 0.125)"/>
      <use xlink:href="#DejaVuSans-74" transform="translate(871.332031 0.125)"/>
      <use xlink:href="#DejaVuSans-6f" transform="translate(910.541016 0.125)"/>
      <use xlink:href="#DejaVuSans-6d" transform="translate(971.722656 0.125)"/>
      <use xlink:href="#DejaVuSans-73" transform="translate(1069.134766 0.125)"/>
      <use xlink:href="#DejaVuSans-29" transform="translate(1121.234375 0.125)"/>
     </g>
    </g>
    <g id="line2d_23">
     <path d="M 486.39 227.790625 
L 498.39 227.790625 
L 510.39 227.790625 
" style="fill: none; stroke: #008000; stroke-width: 1.5; stroke-linecap: square"/>
    </g>
    <g id="text_19">
     <!-- 1.61$^\circ$ (21-20, 16746 atoms) -->
     <g transform="translate(519.99 231.990625) scale(0.12 -0.12)">
      <use xlink:href="#DejaVuSans-31" transform="translate(0 0.125)"/>
      <use xlink:href="#DejaVuSans-2e" transform="translate(63.623047 0.125)"/>
      <use xlink:href="#DejaVuSans-36" transform="translate(95.410156 0.125)"/>
      <use xlink:href="#DejaVuSans-31" transform="translate(159.033203 0.125)"/>
      <use xlink:href="#DejaVuSans-2218" transform="translate(237.250977 38.40625) scale(0.7)"/>
      <use xlink:href="#DejaVuSans-20" transform="translate(297.441406 0.125)"/>
      <use xlink:href="#DejaVuSans-28" transform="translate(329.228516 0.125)"/>
      <use xlink:href="#DejaVuSans-32" transform="translate(368.242188 0.125)"/>
      <use xlink:href="#DejaVuSans-31" transform="translate(431.865234 0.125)"/>
      <use xlink:href="#DejaVuSans-2d" transform="translate(495.488281 0.125)"/>
      <use xlink:href="#DejaVuSans-32" transform="translate(531.572266 0.125)"/>
      <use xlink:href="#DejaVuSans-30" transform="translate(595.195312 0.125)"/>
      <use xlink:href="#DejaVuSans-2c" transform="translate(658.818359 0.125)"/>
      <use xlink:href="#DejaVuSans-20" transform="translate(690.605469 0.125)"/>
      <use xlink:href="#DejaVuSans-31" transform="translate(722.392578 0.125)"/>
      <use xlink:href="#DejaVuSans-36" transform="translate(786.015625 0.125)"/>
      <use xlink:href="#DejaVuSans-37" transform="translate(849.638672 0.125)"/>
      <use xlink:href="#DejaVuSans-34" transform="translate(913.261719 0.125)"/>
      <use xlink:href="#DejaVuSans-36" transform="translate(976.884766 0.125)"/>
      <use xlink:href="#DejaVuSans-20" transform="translate(1040.507812 0.125)"/>
      <use xlink:href="#DejaVuSans-61" transform="translate(1072.294922 0.125)"/>
      <use xlink:href="#DejaVuSans-74" transform="translate(1133.574219 0.125)"/>
      <use xlink:href="#DejaVuSans-6f" transform="translate(1172.783203 0.125)"/>
      <use xlink:href="#DejaVuSans-6d" transform="translate(1233.964844 0.125)"/>
      <use xlink:href="#DejaVuSans-73" transform="translate(1331.376953 0.125)"/>
      <use xlink:href="#DejaVuSans-29" transform="translate(1383.476562 0.125)"/>
     </g>
    </g>
    <g id="line2d_24">
     <path d="M 486.39 245.404375 
L 498.39 245.404375 
L 510.39 245.404375 
" style="fill: none; stroke: #0000ff; stroke-width: 1.5; stroke-linecap: square"/>
    </g>
    <g id="text_20">
     <!-- 1.08$^\circ$ (31-30, 11164 atoms) -->
     <g transform="translate(519.99 249.604375) scale(0.12 -0.12)">
      <use xlink:href="#DejaVuSans-31" transform="translate(0 0.125)"/>
      <use xlink:href="#DejaVuSans-2e" transform="translate(63.623047 0.125)"/>
      <use xlink:href="#DejaVuSans-30" transform="translate(95.410156 0.125)"/>
      <use xlink:href="#DejaVuSans-38" transform="translate(159.033203 0.125)"/>
      <use xlink:href="#DejaVuSans-2218" transform="translate(237.250977 38.40625) scale(0.7)"/>
      <use xlink:href="#DejaVuSans-20" transform="translate(297.441406 0.125)"/>
      <use xlink:href="#DejaVuSans-28" transform="translate(329.228516 0.125)"/>
      <use xlink:href="#DejaVuSans-33" transform="translate(368.242188 0.125)"/>
      <use xlink:href="#DejaVuSans-31" transform="translate(431.865234 0.125)"/>
      <use xlink:href="#DejaVuSans-2d" transform="translate(495.488281 0.125)"/>
      <use xlink:href="#DejaVuSans-33" transform="translate(531.572266 0.125)"/>
      <use xlink:href="#DejaVuSans-30" transform="translate(595.195312 0.125)"/>
      <use xlink:href="#DejaVuSans-2c" transform="translate(658.818359 0.125)"/>
      <use xlink:href="#DejaVuSans-20" transform="translate(690.605469 0.125)"/>
      <use xlink:href="#DejaVuSans-31" transform="translate(722.392578 0.125)"/>
      <use xlink:href="#DejaVuSans-31" transform="translate(786.015625 0.125)"/>
      <use xlink:href="#DejaVuSans-31" transform="translate(849.638672 0.125)"/>
      <use xlink:href="#DejaVuSans-36" transform="translate(913.261719 0.125)"/>
      <use xlink:href="#DejaVuSans-34" transform="translate(976.884766 0.125)"/>
      <use xlink:href="#DejaVuSans-20" transform="translate(1040.507812 0.125)"/>
      <use xlink:href="#DejaVuSans-61" transform="translate(1072.294922 0.125)"/>
      <use xlink:href="#DejaVuSans-74" transform="translate(1133.574219 0.125)"/>
      <use xlink:href="#DejaVuSans-6f" transform="translate(1172.783203 0.125)"/>
      <use xlink:href="#DejaVuSans-6d" transform="translate(1233.964844 0.125)"/>
      <use xlink:href="#DejaVuSans-73" transform="translate(1331.376953 0.125)"/>
      <use xlink:href="#DejaVuSans-29" transform="translate(1383.476562 0.125)"/>
     </g>
    </g>
   </g>
  </g>
 </g>
 <defs>
  <clipPath id="p6407eeabf0">
   <rect x="35.937331" y="10.8" width="665.612669" height="252.1"/>
  </clipPath>
 </defs>
</svg>
